<?xml version="1.0" encoding="utf-8" standalone="no"?>
<!DOCTYPE svg PUBLIC "-//W3C//DTD SVG 1.1//EN"
  "http://www.w3.org/Graphics/SVG/1.1/DTD/svg11.dtd">
<!-- Created with matplotlib (http://matplotlib.sourceforge.net/) -->
<svg height="430pt" version="1.1" viewBox="0 0 576 430" width="576pt" xmlns="http://www.w3.org/2000/svg" xmlns:xlink="http://www.w3.org/1999/xlink">
 <defs>
  <style type="text/css">
*{stroke-linecap:square;stroke-linejoin:round;}
  </style>
 </defs>
 <g id="figure_1">
  <g id="patch_1">
   <path d="
M0 430.2
L576 430.2
L576 0
L0 0
z
" style="fill:#ffffff;"/>
  </g>
  <g id="axes_1">
   <g id="patch_2">
    <path d="
M72 199.456
L518.4 199.456
L518.4 43.02
L72 43.02
z
" style="fill:#ffffff;"/>
   </g>
   <g id="line2d_1">
    <path clip-path="url(#p6ea40fd9e5)" d="
M72 183.697
L72 183.697
L72 183.697
L72 183.697
L73.1272 183.635
L73.8786 183.438
L74.63 183.022
L75.3815 182.346
L76.1329 181.358
L76.8844 180.032
L77.6358 178.332
L78.763 175.028
L79.8901 170.777
L81.0173 165.571
L82.1444 159.438
L83.6473 149.918
L85.5259 136.252
L90.786 96.0678
L91.9132 89.5106
L92.6646 86.0523
L93.416 83.4958
L94.1014 82.0809
L94.1014 82.0809
L94.5432 81.7279
L94.9189 81.6332
L95.2946 81.6955
L96.0461 82.1354
L97.9247 83.6755
L98.6761 83.9345
L99.4276 83.7856
L100.179 83.1629
L100.93 82.0279
L101.682 80.3898
L102.809 77.1695
L105.439 68.792
L106.191 67.1677
L106.566 66.6474
L107.105 66.3221
L107.105 66.3221
L107.318 66.3713
L107.693 66.6205
L108.445 67.5268
L110.699 70.7194
L111.451 71.1637
L111.826 71.1902
L112.202 71.0743
L112.953 70.4336
L113.705 69.3072
L114.832 67.0581
L115.959 64.8601
L116.711 63.9556
L117.086 63.7942
L117.462 63.8843
L118.214 64.6595
L120.468 67.946
L121.219 68.4298
L121.595 68.4605
L121.971 68.3508
L122.722 67.7281
L123.474 66.6881
L124.977 64.3844
L125.352 64.0216
L125.728 63.8341
L126.104 63.9055
L126.479 64.189
L127.231 65.1457
L128.734 67.1831
L129.485 67.6895
L129.861 67.7404
L130.237 67.6448
L130.988 67.0602
L132.115 65.5824
L132.867 64.6601
L133.242 64.3906
L133.751 64.3414
L133.751 64.3414
L133.994 64.4699
L134.745 65.2671
L136.248 67.1265
L137 67.542
L137.375 67.5447
L137.751 67.4078
L138.502 66.769
L140.005 65.0498
L140.381 64.8404
L140.757 64.852
L141.132 65.0757
L141.884 65.9018
L143.011 67.1678
L143.763 67.5687
L144.138 67.5617
L144.514 67.4207
L145.265 66.7669
L146.768 65.093
L147.207 64.955
L147.207 64.955
L147.52 65.0952
L148.271 65.8035
L149.398 66.9053
L150.15 67.1841
L150.525 67.1182
L151.277 66.5927
L152.78 65.0051
L153.225 64.8663
L153.225 64.8663
L153.531 64.9923
L154.283 65.6629
L155.41 66.6482
L155.786 66.7928
L156.161 66.8121
L156.537 66.6873
L157.288 66.0719
L158.416 64.9381
L158.886 64.7803
L158.886 64.7803
L159.167 64.8847
L159.918 65.515
L161.046 66.4093
L161.421 66.5121
L161.797 66.4889
L162.173 66.3238
L162.924 65.6718
L163.676 64.9415
L164.245 64.716
L164.245 64.716
L164.427 64.7686
L165.179 65.339
L166.306 66.2077
L166.681 66.3094
L167.057 66.2815
L167.809 65.8281
L168.936 64.8328
L169.348 64.7166
L169.348 64.7166
L169.687 64.8545
L171.566 66.1838
L171.942 66.1987
L172.693 65.8196
L173.82 64.8738
L174.227 64.7604
L174.227 64.7604
L174.572 64.8937
L176.074 65.9895
L176.45 66.104
L176.826 66.0782
L177.577 65.6412
L178.329 65.0028
L178.909 64.7826
L178.909 64.7826
L179.08 64.8272
L179.832 65.3507
L180.583 65.8777
L180.959 66.0176
L181.335 66.0275
L182.086 65.6502
L183.213 64.8515
L183.589 64.8718
L184.34 65.3871
L185.092 65.8799
L185.467 65.9963
L185.843 65.9784
L186.595 65.5644
L187.346 65.001
L187.769 64.8898
L187.769 64.8898
L188.473 65.2643
L189.225 65.8016
L189.976 65.994
L190.352 65.8904
L191.979 64.9594
L191.979 64.9594
L192.606 65.2701
L193.358 65.7988
L194.109 65.9986
L194.485 65.9013
L196.062 65.0291
L196.062 65.0291
L196.739 65.3717
L197.49 65.8663
L197.866 65.9902
L198.242 65.9953
L198.993 65.6245
L199.745 65.1408
L200.121 65.114
L200.872 65.5555
L201.623 65.9638
L201.999 66.023
L202.375 65.9432
L203.885 65.1576
L203.885 65.1576
L204.629 65.5361
L205.381 65.962
L205.756 66.0359
L206.132 65.975
L207.643 65.2141
L207.643 65.2141
L208.386 65.5855
L209.138 65.9895
L209.514 66.0481
L209.889 65.9701
L211.392 65.2798
L212.144 65.6936
L212.895 66.0344
L213.271 66.0474
L214.022 65.7013
L214.774 65.3154
L215.149 65.3885
L216.276 66.0045
L216.652 66.0687
L217.028 65.9997
L218.391 65.3531
L218.391 65.3531
L218.907 65.5634
L219.658 65.9867
L220.034 66.0728
L220.409 66.0345
L221.912 65.4079
L223.415 66.0786
L223.791 66.0437
L225.294 65.4484
L226.797 66.0888
L227.172 66.0308
L228.463 65.4549
L228.463 65.4549
L229.051 65.701
L229.802 66.0571
L230.178 66.0894
L230.93 65.7875
L231.691 65.4825
L231.691 65.4825
L232.432 65.8162
L233.184 66.0914
L233.56 66.0595
L234.86 65.5074
L234.86 65.5074
L235.438 65.7425
L236.19 66.0745
L236.565 66.0896
L237.317 65.7691
L237.973 65.53
L237.973 65.53
L238.444 65.7025
L239.195 66.0589
L239.571 66.0995
L240.323 65.8305
L241.034 65.5777
L241.034 65.5777
L241.45 65.7327
L242.201 66.1108
L242.577 66.1676
L243.328 65.9269
L244.044 65.6835
L244.044 65.6835
L244.455 65.8391
L245.207 66.2141
L245.583 66.2665
L246.334 66.0204
L247.006 65.803
L247.006 65.803
L247.461 65.981
L248.213 66.3335
L248.588 66.3638
L249.34 66.088
L249.923 65.9157
L249.923 65.9157
L250.467 66.1405
L251.218 66.4459
L251.594 66.4375
L252.796 66.0133
L252.796 66.0133
L253.473 66.3057
L254.224 66.5339
L254.976 66.3239
L255.627 66.1925
L255.627 66.1925
L256.103 66.4025
L256.854 66.7489
L257.23 66.7626
L258.418 66.483
L258.418 66.483
L259.86 67.0695
L261.363 66.8571
L262.49 67.3531
L263.241 67.1947
L263.888 67.0764
L263.888 67.0764
L264.369 67.2869
L265.12 67.5999
L265.872 67.4678
L266.569 67.3188
L266.569 67.3188
L266.999 67.4926
L267.75 67.8065
L268.502 67.6827
L269.216 67.5158
L269.216 67.5158
L269.629 67.673
L270.38 67.9742
L271.132 67.84
L271.831 67.6702
L271.831 67.6702
L272.259 67.8284
L273.01 68.1056
L273.762 67.9439
L274.414 67.7874
L274.414 67.7874
L274.889 67.9627
L275.64 68.203
L276.392 68.0043
L276.967 67.8736
L276.967 67.8736
L277.519 68.0795
L278.27 68.2667
L279.773 68.0153
L280.525 68.2971
L280.9 68.2931
L282.027 67.9816
L283.155 68.3355
L283.906 68.1298
L284.453 68.0001
L284.453 68.0001
L285.785 68.3358
L286.912 68.015
L288.039 68.3475
L288.79 68.1372
L289.309 68.0153
L289.309 68.0153
L290.669 68.3181
L291.796 68.0267
L292.923 68.3222
L294.066 68.0008
L294.066 68.0008
L295.178 68.3077
L295.929 68.0948
L296.408 67.9865
L296.408 67.9865
L297.808 68.2447
L298.728 67.969
L298.728 67.969
L300.062 68.2338
L301.026 67.9492
L301.026 67.9492
L302.316 68.2144
L303.444 67.9529
L304.195 68.195
L304.571 68.189
L305.698 67.9297
L306.449 68.1683
L306.825 68.1588
L307.794 67.8812
L307.794 67.8812
L309.079 68.1238
L310.009 67.827
L310.009 67.827
L311.334 68.0088
L312.205 67.7076
L312.205 67.7076
L313.588 67.8403
L314.382 67.5572
L314.382 67.5572
L315.467 67.747
L316.594 67.3989
L317.721 67.5651
L318.848 67.298
L319.599 67.4896
L320.351 67.3065
L320.806 67.2094
L320.806 67.2094
L321.854 67.442
L322.981 67.1949
L323.732 67.4162
L324.484 67.2926
L325.003 67.1873
L325.003 67.1873
L325.987 67.4349
L327.114 67.2092
L328.241 67.438
L329.135 67.1629
L329.135 67.1629
L330.12 67.3512
L331.247 67.0193
L331.998 67.1737
L332.75 66.9695
L333.205 66.8198
L333.205 66.8198
L334.253 66.9489
L335.38 66.6216
L336.131 66.7491
L337.634 66.4748
L338.01 66.5444
L338.761 66.3456
L339.2 66.2113
L339.2 66.2113
L340.264 66.3415
L341.391 66.0742
L342.143 66.196
L343.27 65.9168
L344.021 66.0661
L345.148 65.7888
L345.9 65.9538
L346.651 65.7374
L347.027 65.6278
L347.778 65.7653
L348.154 65.7167
L348.916 65.425
L348.916 65.425
L350.033 65.4893
L350.821 65.1769
L350.821 65.1769
L351.911 65.2324
L352.713 64.9142
L352.713 64.9142
L353.79 64.969
L354.593 64.6552
L354.593 64.6552
L355.669 64.7127
L356.461 64.4104
L356.461 64.4104
L357.547 64.4708
L358.318 64.1851
L358.318 64.1851
L359.426 64.2471
L360.177 63.9816
L360.929 64.0988
L361.68 63.8828
L362.056 63.8013
L362.807 63.9242
L364.31 63.7297
L364.686 63.7683
L365.813 63.5193
L366.564 63.6271
L367.692 63.4147
L368.443 63.4968
L369.225 63.2669
L369.225 63.2669
L370.322 63.3732
L371.073 63.1777
L371.825 63.3207
L372.952 63.1148
L373.703 63.2347
L374.537 63.0177
L374.537 63.0177
L375.582 63.1445
L376.333 62.9575
L377.085 63.1078
L378.212 62.9263
L378.963 63.0455
L379.762 62.8479
L379.762 62.8479
L380.842 62.9682
L381.593 62.8167
L382.345 62.9573
L383.472 62.8166
L384.223 62.8945
L384.975 62.7345
L385.726 62.8814
L386.853 62.7428
L387.605 62.8267
L388.356 62.671
L389.108 62.8163
L390.235 62.689
L390.986 62.7617
L391.738 62.6224
L392.489 62.7583
L393.295 62.5844
L393.295 62.5844
L393.992 62.7317
L395.495 62.6866
L395.871 62.7012
L396.622 62.5424
L397.374 62.6882
L398.501 62.5731
L399.252 62.6369
L400.004 62.5217
L400.755 62.6381
L401.506 62.4832
L402.258 62.626
L403.385 62.5224
L404.136 62.5708
L404.703 62.4462
L404.703 62.4462
L405.639 62.5739
L406.391 62.4417
L407.142 62.5687
L407.894 62.415
L408.645 62.5562
L409.772 62.4617
L410.148 62.5384
L411.275 62.4289
L412.027 62.5022
L412.778 62.3999
L413.529 62.5011
L414.281 62.3758
L415.032 62.4964
L415.784 62.3571
L416.535 62.4894
L417.296 62.344
L417.296 62.344
L418.038 62.481
L418.839 62.3359
L418.839 62.3359
L419.541 62.4722
L420.668 62.3909
L421.044 62.4637
L422.171 62.4068
L422.922 62.4723
L423.43 62.4002
L423.43 62.4002
L424.425 62.5502
L424.947 62.4835
L424.947 62.4835
L425.928 62.6455
L426.458 62.5822
L426.458 62.5822
L427.431 62.7498
L427.963 62.6887
L427.963 62.6887
L428.934 62.857
L429.462 62.7973
L429.462 62.7973
L430.437 62.963
L430.955 62.9043
L430.955 62.9043
L431.94 63.0647
L432.442 63.0074
L432.442 63.0074
L433.067 63.1754
L434.194 63.1798
L434.57 63.2722
L435.697 63.2789
L436.073 63.3622
L436.867 63.2811
L436.867 63.2811
L437.576 63.4446
L438.331 63.3593
L438.331 63.3593
L439.078 63.5188
L439.83 63.4379
L440.581 63.5845
L441.333 63.5143
L442.084 63.6413
L442.836 63.5884
L443.587 63.6889
L444.13 63.6111
L444.13 63.6111
L445.09 63.7281
L445.567 63.661
L445.567 63.661
L446.217 63.8021
L446.998 63.7065
L446.998 63.7065
L447.72 63.8402
L447.72 63.8402" style="fill:none;stroke:#0000ff;"/>
   </g>
   <g id="matplotlib.axis_1">
    <g id="xtick_1">
     <g id="line2d_2">
      <path clip-path="url(#p6ea40fd9e5)" d="
M72 199.456
L72 43.02" style="fill:none;stroke:#000000;stroke-dasharray:1.000000,3.000000;stroke-dashoffset:0.0;stroke-linecap:butt;stroke-width:0.5;"/>
     </g>
     <g id="line2d_3">
      <defs>
       <path d="
M0 0
L0 -4" id="mbc95f78d17"/>
      </defs>
      <g>
       <use style="stroke:#000000;stroke-linecap:butt;stroke-width:0.5;" x="72.0" xlink:href="#mbc95f78d17" y="199.456363636"/>
      </g>
     </g>
     <g id="line2d_4">
      <defs>
       <path d="
M0 0
L0 4" id="mdf7a6afb4a"/>
      </defs>
      <g>
       <use style="stroke:#000000;stroke-linecap:butt;stroke-width:0.5;" x="72.0" xlink:href="#mdf7a6afb4a" y="43.02"/>
      </g>
     </g>
     <g id="text_1">
      <!-- 0.0 -->
      <defs>
       <path d="
M31.7812 66.4062
Q24.1719 66.4062 20.3281 58.9062
Q16.5 51.4219 16.5 36.375
Q16.5 21.3906 20.3281 13.8906
Q24.1719 6.39062 31.7812 6.39062
Q39.4531 6.39062 43.2812 13.8906
Q47.125 21.3906 47.125 36.375
Q47.125 51.4219 43.2812 58.9062
Q39.4531 66.4062 31.7812 66.4062
M31.7812 74.2188
Q44.0469 74.2188 50.5156 64.5156
Q56.9844 54.8281 56.9844 36.375
Q56.9844 17.9688 50.5156 8.26562
Q44.0469 -1.42188 31.7812 -1.42188
Q19.5312 -1.42188 13.0625 8.26562
Q6.59375 17.9688 6.59375 36.375
Q6.59375 54.8281 13.0625 64.5156
Q19.5312 74.2188 31.7812 74.2188" id="BitstreamVeraSans-Roman-30"/>
       <path d="
M10.6875 12.4062
L21 12.4062
L21 0
L10.6875 0
z
" id="BitstreamVeraSans-Roman-2e"/>
      </defs>
      <g transform="translate(63.2521875 212.362613636)scale(0.12 -0.12)">
       <use xlink:href="#BitstreamVeraSans-Roman-30"/>
       <use x="63.623046875" xlink:href="#BitstreamVeraSans-Roman-2e"/>
       <use x="95.41015625" xlink:href="#BitstreamVeraSans-Roman-30"/>
      </g>
     </g>
    </g>
    <g id="xtick_2">
     <g id="line2d_5">
      <path clip-path="url(#p6ea40fd9e5)" d="
M146.4 199.456
L146.4 43.02" style="fill:none;stroke:#000000;stroke-dasharray:1.000000,3.000000;stroke-dashoffset:0.0;stroke-linecap:butt;stroke-width:0.5;"/>
     </g>
     <g id="line2d_6">
      <defs>
       <path d="
M0 0
L0 -4" id="mbc95f78d17"/>
      </defs>
      <g>
       <use style="stroke:#000000;stroke-linecap:butt;stroke-width:0.5;" x="146.4" xlink:href="#mbc95f78d17" y="199.456363636"/>
      </g>
     </g>
     <g id="line2d_7">
      <defs>
       <path d="
M0 0
L0 4" id="mdf7a6afb4a"/>
      </defs>
      <g>
       <use style="stroke:#000000;stroke-linecap:butt;stroke-width:0.5;" x="146.4" xlink:href="#mdf7a6afb4a" y="43.02"/>
      </g>
     </g>
     <g id="text_2">
      <!-- 0.2 -->
      <defs>
       <path d="
M19.1875 8.29688
L53.6094 8.29688
L53.6094 0
L7.32812 0
L7.32812 8.29688
Q12.9375 14.1094 22.625 23.8906
Q32.3281 33.6875 34.8125 36.5312
Q39.5469 41.8438 41.4219 45.5312
Q43.3125 49.2188 43.3125 52.7812
Q43.3125 58.5938 39.2344 62.25
Q35.1562 65.9219 28.6094 65.9219
Q23.9688 65.9219 18.8125 64.3125
Q13.6719 62.7031 7.8125 59.4219
L7.8125 69.3906
Q13.7656 71.7812 18.9375 73
Q24.125 74.2188 28.4219 74.2188
Q39.75 74.2188 46.4844 68.5469
Q53.2188 62.8906 53.2188 53.4219
Q53.2188 48.9219 51.5312 44.8906
Q49.8594 40.875 45.4062 35.4062
Q44.1875 33.9844 37.6406 27.2188
Q31.1094 20.4531 19.1875 8.29688" id="BitstreamVeraSans-Roman-32"/>
      </defs>
      <g transform="translate(137.8546875 212.362613636)scale(0.12 -0.12)">
       <use xlink:href="#BitstreamVeraSans-Roman-30"/>
       <use x="63.623046875" xlink:href="#BitstreamVeraSans-Roman-2e"/>
       <use x="95.41015625" xlink:href="#BitstreamVeraSans-Roman-32"/>
      </g>
     </g>
    </g>
    <g id="xtick_3">
     <g id="line2d_8">
      <path clip-path="url(#p6ea40fd9e5)" d="
M220.8 199.456
L220.8 43.02" style="fill:none;stroke:#000000;stroke-dasharray:1.000000,3.000000;stroke-dashoffset:0.0;stroke-linecap:butt;stroke-width:0.5;"/>
     </g>
     <g id="line2d_9">
      <defs>
       <path d="
M0 0
L0 -4" id="mbc95f78d17"/>
      </defs>
      <g>
       <use style="stroke:#000000;stroke-linecap:butt;stroke-width:0.5;" x="220.8" xlink:href="#mbc95f78d17" y="199.456363636"/>
      </g>
     </g>
     <g id="line2d_10">
      <defs>
       <path d="
M0 0
L0 4" id="mdf7a6afb4a"/>
      </defs>
      <g>
       <use style="stroke:#000000;stroke-linecap:butt;stroke-width:0.5;" x="220.8" xlink:href="#mdf7a6afb4a" y="43.02"/>
      </g>
     </g>
     <g id="text_3">
      <!-- 0.4 -->
      <defs>
       <path d="
M37.7969 64.3125
L12.8906 25.3906
L37.7969 25.3906
z

M35.2031 72.9062
L47.6094 72.9062
L47.6094 25.3906
L58.0156 25.3906
L58.0156 17.1875
L47.6094 17.1875
L47.6094 0
L37.7969 0
L37.7969 17.1875
L4.89062 17.1875
L4.89062 26.7031
z
" id="BitstreamVeraSans-Roman-34"/>
      </defs>
      <g transform="translate(211.9903125 212.362613636)scale(0.12 -0.12)">
       <use xlink:href="#BitstreamVeraSans-Roman-30"/>
       <use x="63.623046875" xlink:href="#BitstreamVeraSans-Roman-2e"/>
       <use x="95.41015625" xlink:href="#BitstreamVeraSans-Roman-34"/>
      </g>
     </g>
    </g>
    <g id="xtick_4">
     <g id="line2d_11">
      <path clip-path="url(#p6ea40fd9e5)" d="
M295.2 199.456
L295.2 43.02" style="fill:none;stroke:#000000;stroke-dasharray:1.000000,3.000000;stroke-dashoffset:0.0;stroke-linecap:butt;stroke-width:0.5;"/>
     </g>
     <g id="line2d_12">
      <defs>
       <path d="
M0 0
L0 -4" id="mbc95f78d17"/>
      </defs>
      <g>
       <use style="stroke:#000000;stroke-linecap:butt;stroke-width:0.5;" x="295.2" xlink:href="#mbc95f78d17" y="199.456363636"/>
      </g>
     </g>
     <g id="line2d_13">
      <defs>
       <path d="
M0 0
L0 4" id="mdf7a6afb4a"/>
      </defs>
      <g>
       <use style="stroke:#000000;stroke-linecap:butt;stroke-width:0.5;" x="295.2" xlink:href="#mdf7a6afb4a" y="43.02"/>
      </g>
     </g>
     <g id="text_4">
      <!-- 0.6 -->
      <defs>
       <path d="
M33.0156 40.375
Q26.375 40.375 22.4844 35.8281
Q18.6094 31.2969 18.6094 23.3906
Q18.6094 15.5312 22.4844 10.9531
Q26.375 6.39062 33.0156 6.39062
Q39.6562 6.39062 43.5312 10.9531
Q47.4062 15.5312 47.4062 23.3906
Q47.4062 31.2969 43.5312 35.8281
Q39.6562 40.375 33.0156 40.375
M52.5938 71.2969
L52.5938 62.3125
Q48.875 64.0625 45.0938 64.9844
Q41.3125 65.9219 37.5938 65.9219
Q27.8281 65.9219 22.6719 59.3281
Q17.5312 52.7344 16.7969 39.4062
Q19.6719 43.6562 24.0156 45.9219
Q28.375 48.1875 33.5938 48.1875
Q44.5781 48.1875 50.9531 41.5156
Q57.3281 34.8594 57.3281 23.3906
Q57.3281 12.1562 50.6875 5.35938
Q44.0469 -1.42188 33.0156 -1.42188
Q20.3594 -1.42188 13.6719 8.26562
Q6.98438 17.9688 6.98438 36.375
Q6.98438 53.6562 15.1875 63.9375
Q23.3906 74.2188 37.2031 74.2188
Q40.9219 74.2188 44.7031 73.4844
Q48.4844 72.75 52.5938 71.2969" id="BitstreamVeraSans-Roman-36"/>
      </defs>
      <g transform="translate(286.4315625 212.362613636)scale(0.12 -0.12)">
       <use xlink:href="#BitstreamVeraSans-Roman-30"/>
       <use x="63.623046875" xlink:href="#BitstreamVeraSans-Roman-2e"/>
       <use x="95.41015625" xlink:href="#BitstreamVeraSans-Roman-36"/>
      </g>
     </g>
    </g>
    <g id="xtick_5">
     <g id="line2d_14">
      <path clip-path="url(#p6ea40fd9e5)" d="
M369.6 199.456
L369.6 43.02" style="fill:none;stroke:#000000;stroke-dasharray:1.000000,3.000000;stroke-dashoffset:0.0;stroke-linecap:butt;stroke-width:0.5;"/>
     </g>
     <g id="line2d_15">
      <defs>
       <path d="
M0 0
L0 -4" id="mbc95f78d17"/>
      </defs>
      <g>
       <use style="stroke:#000000;stroke-linecap:butt;stroke-width:0.5;" x="369.6" xlink:href="#mbc95f78d17" y="199.456363636"/>
      </g>
     </g>
     <g id="line2d_16">
      <defs>
       <path d="
M0 0
L0 4" id="mdf7a6afb4a"/>
      </defs>
      <g>
       <use style="stroke:#000000;stroke-linecap:butt;stroke-width:0.5;" x="369.6" xlink:href="#mdf7a6afb4a" y="43.02"/>
      </g>
     </g>
     <g id="text_5">
      <!-- 0.8 -->
      <defs>
       <path d="
M31.7812 34.625
Q24.75 34.625 20.7188 30.8594
Q16.7031 27.0938 16.7031 20.5156
Q16.7031 13.9219 20.7188 10.1562
Q24.75 6.39062 31.7812 6.39062
Q38.8125 6.39062 42.8594 10.1719
Q46.9219 13.9688 46.9219 20.5156
Q46.9219 27.0938 42.8906 30.8594
Q38.875 34.625 31.7812 34.625
M21.9219 38.8125
Q15.5781 40.375 12.0312 44.7188
Q8.5 49.0781 8.5 55.3281
Q8.5 64.0625 14.7188 69.1406
Q20.9531 74.2188 31.7812 74.2188
Q42.6719 74.2188 48.875 69.1406
Q55.0781 64.0625 55.0781 55.3281
Q55.0781 49.0781 51.5312 44.7188
Q48 40.375 41.7031 38.8125
Q48.8281 37.1562 52.7969 32.3125
Q56.7812 27.4844 56.7812 20.5156
Q56.7812 9.90625 50.3125 4.23438
Q43.8438 -1.42188 31.7812 -1.42188
Q19.7344 -1.42188 13.25 4.23438
Q6.78125 9.90625 6.78125 20.5156
Q6.78125 27.4844 10.7812 32.3125
Q14.7969 37.1562 21.9219 38.8125
M18.3125 54.3906
Q18.3125 48.7344 21.8438 45.5625
Q25.3906 42.3906 31.7812 42.3906
Q38.1406 42.3906 41.7188 45.5625
Q45.3125 48.7344 45.3125 54.3906
Q45.3125 60.0625 41.7188 63.2344
Q38.1406 66.4062 31.7812 66.4062
Q25.3906 66.4062 21.8438 63.2344
Q18.3125 60.0625 18.3125 54.3906" id="BitstreamVeraSans-Roman-38"/>
      </defs>
      <g transform="translate(360.864375 212.362613636)scale(0.12 -0.12)">
       <use xlink:href="#BitstreamVeraSans-Roman-30"/>
       <use x="63.623046875" xlink:href="#BitstreamVeraSans-Roman-2e"/>
       <use x="95.41015625" xlink:href="#BitstreamVeraSans-Roman-38"/>
      </g>
     </g>
    </g>
    <g id="xtick_6">
     <g id="line2d_17">
      <path clip-path="url(#p6ea40fd9e5)" d="
M444 199.456
L444 43.02" style="fill:none;stroke:#000000;stroke-dasharray:1.000000,3.000000;stroke-dashoffset:0.0;stroke-linecap:butt;stroke-width:0.5;"/>
     </g>
     <g id="line2d_18">
      <defs>
       <path d="
M0 0
L0 -4" id="mbc95f78d17"/>
      </defs>
      <g>
       <use style="stroke:#000000;stroke-linecap:butt;stroke-width:0.5;" x="444.0" xlink:href="#mbc95f78d17" y="199.456363636"/>
      </g>
     </g>
     <g id="line2d_19">
      <defs>
       <path d="
M0 0
L0 4" id="mdf7a6afb4a"/>
      </defs>
      <g>
       <use style="stroke:#000000;stroke-linecap:butt;stroke-width:0.5;" x="444.0" xlink:href="#mdf7a6afb4a" y="43.02"/>
      </g>
     </g>
     <g id="text_6">
      <!-- 1.0 -->
      <defs>
       <path d="
M12.4062 8.29688
L28.5156 8.29688
L28.5156 63.9219
L10.9844 60.4062
L10.9844 69.3906
L28.4219 72.9062
L38.2812 72.9062
L38.2812 8.29688
L54.3906 8.29688
L54.3906 0
L12.4062 0
z
" id="BitstreamVeraSans-Roman-31"/>
      </defs>
      <g transform="translate(435.515625 212.362613636)scale(0.12 -0.12)">
       <use xlink:href="#BitstreamVeraSans-Roman-31"/>
       <use x="63.623046875" xlink:href="#BitstreamVeraSans-Roman-2e"/>
       <use x="95.41015625" xlink:href="#BitstreamVeraSans-Roman-30"/>
      </g>
     </g>
    </g>
    <g id="xtick_7">
     <g id="line2d_20">
      <path clip-path="url(#p6ea40fd9e5)" d="
M518.4 199.456
L518.4 43.02" style="fill:none;stroke:#000000;stroke-dasharray:1.000000,3.000000;stroke-dashoffset:0.0;stroke-linecap:butt;stroke-width:0.5;"/>
     </g>
     <g id="line2d_21">
      <defs>
       <path d="
M0 0
L0 -4" id="mbc95f78d17"/>
      </defs>
      <g>
       <use style="stroke:#000000;stroke-linecap:butt;stroke-width:0.5;" x="518.4" xlink:href="#mbc95f78d17" y="199.456363636"/>
      </g>
     </g>
     <g id="line2d_22">
      <defs>
       <path d="
M0 0
L0 4" id="mdf7a6afb4a"/>
      </defs>
      <g>
       <use style="stroke:#000000;stroke-linecap:butt;stroke-width:0.5;" x="518.4" xlink:href="#mdf7a6afb4a" y="43.02"/>
      </g>
     </g>
     <g id="text_7">
      <!-- 1.2 -->
      <g transform="translate(510.118125 212.362613636)scale(0.12 -0.12)">
       <use xlink:href="#BitstreamVeraSans-Roman-31"/>
       <use x="63.623046875" xlink:href="#BitstreamVeraSans-Roman-2e"/>
       <use x="95.41015625" xlink:href="#BitstreamVeraSans-Roman-32"/>
      </g>
     </g>
    </g>
   </g>
   <g id="matplotlib.axis_2">
    <g id="ytick_1">
     <g id="line2d_23">
      <path clip-path="url(#p6ea40fd9e5)" d="
M72 199.456
L518.4 199.456" style="fill:none;stroke:#000000;stroke-dasharray:1.000000,3.000000;stroke-dashoffset:0.0;stroke-linecap:butt;stroke-width:0.5;"/>
     </g>
     <g id="line2d_24">
      <defs>
       <path d="
M0 0
L4 0" id="m0d21ab5585"/>
      </defs>
      <g>
       <use style="stroke:#000000;stroke-linecap:butt;stroke-width:0.5;" x="72.0" xlink:href="#m0d21ab5585" y="199.456363636"/>
      </g>
     </g>
     <g id="line2d_25">
      <defs>
       <path d="
M0 0
L-4 0" id="m118f149c4b"/>
      </defs>
      <g>
       <use style="stroke:#000000;stroke-linecap:butt;stroke-width:0.5;" x="518.4" xlink:href="#m118f149c4b" y="199.456363636"/>
      </g>
     </g>
     <g id="text_8">
      <!-- 235 -->
      <defs>
       <path d="
M40.5781 39.3125
Q47.6562 37.7969 51.625 33
Q55.6094 28.2188 55.6094 21.1875
Q55.6094 10.4062 48.1875 4.48438
Q40.7656 -1.42188 27.0938 -1.42188
Q22.5156 -1.42188 17.6562 -0.515625
Q12.7969 0.390625 7.625 2.20312
L7.625 11.7188
Q11.7188 9.32812 16.5938 8.10938
Q21.4844 6.89062 26.8125 6.89062
Q36.0781 6.89062 40.9375 10.5469
Q45.7969 14.2031 45.7969 21.1875
Q45.7969 27.6406 41.2812 31.2656
Q36.7656 34.9062 28.7188 34.9062
L20.2188 34.9062
L20.2188 43.0156
L29.1094 43.0156
Q36.375 43.0156 40.2344 45.9219
Q44.0938 48.8281 44.0938 54.2969
Q44.0938 59.9062 40.1094 62.9062
Q36.1406 65.9219 28.7188 65.9219
Q24.6562 65.9219 20.0156 65.0312
Q15.375 64.1562 9.8125 62.3125
L9.8125 71.0938
Q15.4375 72.6562 20.3438 73.4375
Q25.25 74.2188 29.5938 74.2188
Q40.8281 74.2188 47.3594 69.1094
Q53.9062 64.0156 53.9062 55.3281
Q53.9062 49.2656 50.4375 45.0938
Q46.9688 40.9219 40.5781 39.3125" id="BitstreamVeraSans-Roman-33"/>
       <path d="
M10.7969 72.9062
L49.5156 72.9062
L49.5156 64.5938
L19.8281 64.5938
L19.8281 46.7344
Q21.9688 47.4688 24.1094 47.8281
Q26.2656 48.1875 28.4219 48.1875
Q40.625 48.1875 47.75 41.5
Q54.8906 34.8125 54.8906 23.3906
Q54.8906 11.625 47.5625 5.09375
Q40.2344 -1.42188 26.9062 -1.42188
Q22.3125 -1.42188 17.5469 -0.640625
Q12.7969 0.140625 7.71875 1.70312
L7.71875 11.625
Q12.1094 9.23438 16.7969 8.0625
Q21.4844 6.89062 26.7031 6.89062
Q35.1562 6.89062 40.0781 11.3281
Q45.0156 15.7656 45.0156 23.3906
Q45.0156 31 40.0781 35.4375
Q35.1562 39.8906 26.7031 39.8906
Q22.75 39.8906 18.8125 39.0156
Q14.8906 38.1406 10.7969 36.2812
z
" id="BitstreamVeraSans-Roman-35"/>
      </defs>
      <g transform="translate(47.0225 203.824176136)scale(0.12 -0.12)">
       <use xlink:href="#BitstreamVeraSans-Roman-32"/>
       <use x="63.623046875" xlink:href="#BitstreamVeraSans-Roman-33"/>
       <use x="127.24609375" xlink:href="#BitstreamVeraSans-Roman-35"/>
      </g>
     </g>
    </g>
    <g id="ytick_2">
     <g id="line2d_26">
      <path clip-path="url(#p6ea40fd9e5)" d="
M72 173.384
L518.4 173.384" style="fill:none;stroke:#000000;stroke-dasharray:1.000000,3.000000;stroke-dashoffset:0.0;stroke-linecap:butt;stroke-width:0.5;"/>
     </g>
     <g id="line2d_27">
      <defs>
       <path d="
M0 0
L4 0" id="m0d21ab5585"/>
      </defs>
      <g>
       <use style="stroke:#000000;stroke-linecap:butt;stroke-width:0.5;" x="72.0" xlink:href="#m0d21ab5585" y="173.383636364"/>
      </g>
     </g>
     <g id="line2d_28">
      <defs>
       <path d="
M0 0
L-4 0" id="m118f149c4b"/>
      </defs>
      <g>
       <use style="stroke:#000000;stroke-linecap:butt;stroke-width:0.5;" x="518.4" xlink:href="#m118f149c4b" y="173.383636364"/>
      </g>
     </g>
     <g id="text_9">
      <!-- 240 -->
      <g transform="translate(46.77125 177.751448864)scale(0.12 -0.12)">
       <use xlink:href="#BitstreamVeraSans-Roman-32"/>
       <use x="63.623046875" xlink:href="#BitstreamVeraSans-Roman-34"/>
       <use x="127.24609375" xlink:href="#BitstreamVeraSans-Roman-30"/>
      </g>
     </g>
    </g>
    <g id="ytick_3">
     <g id="line2d_29">
      <path clip-path="url(#p6ea40fd9e5)" d="
M72 147.311
L518.4 147.311" style="fill:none;stroke:#000000;stroke-dasharray:1.000000,3.000000;stroke-dashoffset:0.0;stroke-linecap:butt;stroke-width:0.5;"/>
     </g>
     <g id="line2d_30">
      <defs>
       <path d="
M0 0
L4 0" id="m0d21ab5585"/>
      </defs>
      <g>
       <use style="stroke:#000000;stroke-linecap:butt;stroke-width:0.5;" x="72.0" xlink:href="#m0d21ab5585" y="147.310909091"/>
      </g>
     </g>
     <g id="line2d_31">
      <defs>
       <path d="
M0 0
L-4 0" id="m118f149c4b"/>
      </defs>
      <g>
       <use style="stroke:#000000;stroke-linecap:butt;stroke-width:0.5;" x="518.4" xlink:href="#m118f149c4b" y="147.310909091"/>
      </g>
     </g>
     <g id="text_10">
      <!-- 245 -->
      <g transform="translate(47.0225 151.678721591)scale(0.12 -0.12)">
       <use xlink:href="#BitstreamVeraSans-Roman-32"/>
       <use x="63.623046875" xlink:href="#BitstreamVeraSans-Roman-34"/>
       <use x="127.24609375" xlink:href="#BitstreamVeraSans-Roman-35"/>
      </g>
     </g>
    </g>
    <g id="ytick_4">
     <g id="line2d_32">
      <path clip-path="url(#p6ea40fd9e5)" d="
M72 121.238
L518.4 121.238" style="fill:none;stroke:#000000;stroke-dasharray:1.000000,3.000000;stroke-dashoffset:0.0;stroke-linecap:butt;stroke-width:0.5;"/>
     </g>
     <g id="line2d_33">
      <defs>
       <path d="
M0 0
L4 0" id="m0d21ab5585"/>
      </defs>
      <g>
       <use style="stroke:#000000;stroke-linecap:butt;stroke-width:0.5;" x="72.0" xlink:href="#m0d21ab5585" y="121.238181818"/>
      </g>
     </g>
     <g id="line2d_34">
      <defs>
       <path d="
M0 0
L-4 0" id="m118f149c4b"/>
      </defs>
      <g>
       <use style="stroke:#000000;stroke-linecap:butt;stroke-width:0.5;" x="518.4" xlink:href="#m118f149c4b" y="121.238181818"/>
      </g>
     </g>
     <g id="text_11">
      <!-- 250 -->
      <g transform="translate(46.77125 125.605994318)scale(0.12 -0.12)">
       <use xlink:href="#BitstreamVeraSans-Roman-32"/>
       <use x="63.623046875" xlink:href="#BitstreamVeraSans-Roman-35"/>
       <use x="127.24609375" xlink:href="#BitstreamVeraSans-Roman-30"/>
      </g>
     </g>
    </g>
    <g id="ytick_5">
     <g id="line2d_35">
      <path clip-path="url(#p6ea40fd9e5)" d="
M72 95.1655
L518.4 95.1655" style="fill:none;stroke:#000000;stroke-dasharray:1.000000,3.000000;stroke-dashoffset:0.0;stroke-linecap:butt;stroke-width:0.5;"/>
     </g>
     <g id="line2d_36">
      <defs>
       <path d="
M0 0
L4 0" id="m0d21ab5585"/>
      </defs>
      <g>
       <use style="stroke:#000000;stroke-linecap:butt;stroke-width:0.5;" x="72.0" xlink:href="#m0d21ab5585" y="95.1654545455"/>
      </g>
     </g>
     <g id="line2d_37">
      <defs>
       <path d="
M0 0
L-4 0" id="m118f149c4b"/>
      </defs>
      <g>
       <use style="stroke:#000000;stroke-linecap:butt;stroke-width:0.5;" x="518.4" xlink:href="#m118f149c4b" y="95.1654545455"/>
      </g>
     </g>
     <g id="text_12">
      <!-- 255 -->
      <g transform="translate(47.0225 99.5332670455)scale(0.12 -0.12)">
       <use xlink:href="#BitstreamVeraSans-Roman-32"/>
       <use x="63.623046875" xlink:href="#BitstreamVeraSans-Roman-35"/>
       <use x="127.24609375" xlink:href="#BitstreamVeraSans-Roman-35"/>
      </g>
     </g>
    </g>
    <g id="ytick_6">
     <g id="line2d_38">
      <path clip-path="url(#p6ea40fd9e5)" d="
M72 69.0927
L518.4 69.0927" style="fill:none;stroke:#000000;stroke-dasharray:1.000000,3.000000;stroke-dashoffset:0.0;stroke-linecap:butt;stroke-width:0.5;"/>
     </g>
     <g id="line2d_39">
      <defs>
       <path d="
M0 0
L4 0" id="m0d21ab5585"/>
      </defs>
      <g>
       <use style="stroke:#000000;stroke-linecap:butt;stroke-width:0.5;" x="72.0" xlink:href="#m0d21ab5585" y="69.0927272727"/>
      </g>
     </g>
     <g id="line2d_40">
      <defs>
       <path d="
M0 0
L-4 0" id="m118f149c4b"/>
      </defs>
      <g>
       <use style="stroke:#000000;stroke-linecap:butt;stroke-width:0.5;" x="518.4" xlink:href="#m118f149c4b" y="69.0927272727"/>
      </g>
     </g>
     <g id="text_13">
      <!-- 260 -->
      <g transform="translate(46.77125 73.4605397727)scale(0.12 -0.12)">
       <use xlink:href="#BitstreamVeraSans-Roman-32"/>
       <use x="63.623046875" xlink:href="#BitstreamVeraSans-Roman-36"/>
       <use x="127.24609375" xlink:href="#BitstreamVeraSans-Roman-30"/>
      </g>
     </g>
    </g>
    <g id="ytick_7">
     <g id="line2d_41">
      <path clip-path="url(#p6ea40fd9e5)" d="
M72 43.02
L518.4 43.02" style="fill:none;stroke:#000000;stroke-dasharray:1.000000,3.000000;stroke-dashoffset:0.0;stroke-linecap:butt;stroke-width:0.5;"/>
     </g>
     <g id="line2d_42">
      <defs>
       <path d="
M0 0
L4 0" id="m0d21ab5585"/>
      </defs>
      <g>
       <use style="stroke:#000000;stroke-linecap:butt;stroke-width:0.5;" x="72.0" xlink:href="#m0d21ab5585" y="43.02"/>
      </g>
     </g>
     <g id="line2d_43">
      <defs>
       <path d="
M0 0
L-4 0" id="m118f149c4b"/>
      </defs>
      <g>
       <use style="stroke:#000000;stroke-linecap:butt;stroke-width:0.5;" x="518.4" xlink:href="#m118f149c4b" y="43.02"/>
      </g>
     </g>
     <g id="text_14">
      <!-- 265 -->
      <g transform="translate(47.0225 47.3878125)scale(0.12 -0.12)">
       <use xlink:href="#BitstreamVeraSans-Roman-32"/>
       <use x="63.623046875" xlink:href="#BitstreamVeraSans-Roman-36"/>
       <use x="127.24609375" xlink:href="#BitstreamVeraSans-Roman-35"/>
      </g>
     </g>
    </g>
    <g id="text_15">
     <!-- Torque [N.m] -->
     <defs>
      <path id="BitstreamVeraSans-Roman-20"/>
      <path d="
M8.59375 75.9844
L29.2969 75.9844
L29.2969 69
L17.5781 69
L17.5781 -6.20312
L29.2969 -6.20312
L29.2969 -13.1875
L8.59375 -13.1875
z
" id="BitstreamVeraSans-Roman-5b"/>
      <path d="
M30.4219 75.9844
L30.4219 -13.1875
L9.71875 -13.1875
L9.71875 -6.20312
L21.3906 -6.20312
L21.3906 69
L9.71875 69
L9.71875 75.9844
z
" id="BitstreamVeraSans-Roman-5d"/>
      <path d="
M52 44.1875
Q55.375 50.25 60.0625 53.125
Q64.75 56 71.0938 56
Q79.6406 56 84.2812 50.0156
Q88.9219 44.0469 88.9219 33.0156
L88.9219 0
L79.8906 0
L79.8906 32.7188
Q79.8906 40.5781 77.0938 44.375
Q74.3125 48.1875 68.6094 48.1875
Q61.625 48.1875 57.5625 43.5469
Q53.5156 38.9219 53.5156 30.9062
L53.5156 0
L44.4844 0
L44.4844 32.7188
Q44.4844 40.625 41.7031 44.4062
Q38.9219 48.1875 33.1094 48.1875
Q26.2188 48.1875 22.1562 43.5312
Q18.1094 38.875 18.1094 30.9062
L18.1094 0
L9.07812 0
L9.07812 54.6875
L18.1094 54.6875
L18.1094 46.1875
Q21.1875 51.2188 25.4844 53.6094
Q29.7812 56 35.6875 56
Q41.6562 56 45.8281 52.9688
Q50 49.9531 52 44.1875" id="BitstreamVeraSans-Roman-6d"/>
      <path d="
M30.6094 48.3906
Q23.3906 48.3906 19.1875 42.75
Q14.9844 37.1094 14.9844 27.2969
Q14.9844 17.4844 19.1562 11.8438
Q23.3438 6.20312 30.6094 6.20312
Q37.7969 6.20312 41.9844 11.8594
Q46.1875 17.5312 46.1875 27.2969
Q46.1875 37.0156 41.9844 42.7031
Q37.7969 48.3906 30.6094 48.3906
M30.6094 56
Q42.3281 56 49.0156 48.375
Q55.7188 40.7656 55.7188 27.2969
Q55.7188 13.875 49.0156 6.21875
Q42.3281 -1.42188 30.6094 -1.42188
Q18.8438 -1.42188 12.1719 6.21875
Q5.51562 13.875 5.51562 27.2969
Q5.51562 40.7656 12.1719 48.375
Q18.8438 56 30.6094 56" id="BitstreamVeraSans-Roman-6f"/>
      <path d="
M9.8125 72.9062
L23.0938 72.9062
L55.4219 11.9219
L55.4219 72.9062
L64.9844 72.9062
L64.9844 0
L51.7031 0
L19.3906 60.9844
L19.3906 0
L9.8125 0
z
" id="BitstreamVeraSans-Roman-4e"/>
      <path d="
M-0.296875 72.9062
L61.375 72.9062
L61.375 64.5938
L35.5 64.5938
L35.5 0
L25.5938 0
L25.5938 64.5938
L-0.296875 64.5938
z
" id="BitstreamVeraSans-Roman-54"/>
      <path d="
M56.2031 29.5938
L56.2031 25.2031
L14.8906 25.2031
Q15.4844 15.9219 20.4844 11.0625
Q25.4844 6.20312 34.4219 6.20312
Q39.5938 6.20312 44.4531 7.46875
Q49.3125 8.73438 54.1094 11.2812
L54.1094 2.78125
Q49.2656 0.734375 44.1875 -0.34375
Q39.1094 -1.42188 33.8906 -1.42188
Q20.7969 -1.42188 13.1562 6.1875
Q5.51562 13.8125 5.51562 26.8125
Q5.51562 40.2344 12.7656 48.1094
Q20.0156 56 32.3281 56
Q43.3594 56 49.7812 48.8906
Q56.2031 41.7969 56.2031 29.5938
M47.2188 32.2344
Q47.125 39.5938 43.0938 43.9844
Q39.0625 48.3906 32.4219 48.3906
Q24.9062 48.3906 20.3906 44.1406
Q15.875 39.8906 15.1875 32.1719
z
" id="BitstreamVeraSans-Roman-65"/>
      <path d="
M8.5 21.5781
L8.5 54.6875
L17.4844 54.6875
L17.4844 21.9219
Q17.4844 14.1562 20.5 10.2656
Q23.5312 6.39062 29.5938 6.39062
Q36.8594 6.39062 41.0781 11.0312
Q45.3125 15.6719 45.3125 23.6875
L45.3125 54.6875
L54.2969 54.6875
L54.2969 0
L45.3125 0
L45.3125 8.40625
Q42.0469 3.42188 37.7188 1
Q33.4062 -1.42188 27.6875 -1.42188
Q18.2656 -1.42188 13.375 4.4375
Q8.5 10.2969 8.5 21.5781" id="BitstreamVeraSans-Roman-75"/>
      <path d="
M41.1094 46.2969
Q39.5938 47.1719 37.8125 47.5781
Q36.0312 48 33.8906 48
Q26.2656 48 22.1875 43.0469
Q18.1094 38.0938 18.1094 28.8125
L18.1094 0
L9.07812 0
L9.07812 54.6875
L18.1094 54.6875
L18.1094 46.1875
Q20.9531 51.1719 25.4844 53.5781
Q30.0312 56 36.5312 56
Q37.4531 56 38.5781 55.875
Q39.7031 55.7656 41.0625 55.5156
z
" id="BitstreamVeraSans-Roman-72"/>
      <path d="
M14.7969 27.2969
Q14.7969 17.3906 18.875 11.75
Q22.9531 6.10938 30.0781 6.10938
Q37.2031 6.10938 41.2969 11.75
Q45.4062 17.3906 45.4062 27.2969
Q45.4062 37.2031 41.2969 42.8438
Q37.2031 48.4844 30.0781 48.4844
Q22.9531 48.4844 18.875 42.8438
Q14.7969 37.2031 14.7969 27.2969
M45.4062 8.20312
Q42.5781 3.32812 38.25 0.953125
Q33.9375 -1.42188 27.875 -1.42188
Q17.9688 -1.42188 11.7344 6.48438
Q5.51562 14.4062 5.51562 27.2969
Q5.51562 40.1875 11.7344 48.0938
Q17.9688 56 27.875 56
Q33.9375 56 38.25 53.625
Q42.5781 51.2656 45.4062 46.3906
L45.4062 54.6875
L54.3906 54.6875
L54.3906 -20.7969
L45.4062 -20.7969
z
" id="BitstreamVeraSans-Roman-71"/>
     </defs>
     <g transform="translate(41.77125 157.054431818)rotate(-90.0)scale(0.12 -0.12)">
      <use xlink:href="#BitstreamVeraSans-Roman-54"/>
      <use x="44.083984375" xlink:href="#BitstreamVeraSans-Roman-6f"/>
      <use x="105.265625" xlink:href="#BitstreamVeraSans-Roman-72"/>
      <use x="144.62890625" xlink:href="#BitstreamVeraSans-Roman-71"/>
      <use x="208.10546875" xlink:href="#BitstreamVeraSans-Roman-75"/>
      <use x="271.484375" xlink:href="#BitstreamVeraSans-Roman-65"/>
      <use x="333.0078125" xlink:href="#BitstreamVeraSans-Roman-20"/>
      <use x="364.794921875" xlink:href="#BitstreamVeraSans-Roman-5b"/>
      <use x="403.80859375" xlink:href="#BitstreamVeraSans-Roman-4e"/>
      <use x="478.61328125" xlink:href="#BitstreamVeraSans-Roman-2e"/>
      <use x="510.400390625" xlink:href="#BitstreamVeraSans-Roman-6d"/>
      <use x="607.8125" xlink:href="#BitstreamVeraSans-Roman-5d"/>
     </g>
    </g>
   </g>
   <g id="patch_3">
    <path d="
M72 43.02
L518.4 43.02" style="fill:none;stroke:#000000;"/>
   </g>
   <g id="patch_4">
    <path d="
M518.4 199.456
L518.4 43.02" style="fill:none;stroke:#000000;"/>
   </g>
   <g id="patch_5">
    <path d="
M72 199.456
L518.4 199.456" style="fill:none;stroke:#000000;"/>
   </g>
   <g id="patch_6">
    <path d="
M72 199.456
L72 43.02" style="fill:none;stroke:#000000;"/>
   </g>
   <g id="legend_1">
    <g id="patch_7">
     <path d="
M300.323 75.6765
L511.2 75.6765
L511.2 50.22
L300.323 50.22
L300.323 75.6765
z
" style="fill:#ffffff;stroke:#000000;"/>
    </g>
    <g id="line2d_44">
     <path d="
M310.403 61.8817
L330.563 61.8817" style="fill:none;stroke:#0000ff;"/>
    </g>
    <g id="line2d_45"/>
    <g id="text_16">
     <!-- Filtered Engine Torque -->
     <defs>
      <path d="
M54.8906 33.0156
L54.8906 0
L45.9062 0
L45.9062 32.7188
Q45.9062 40.4844 42.875 44.3281
Q39.8438 48.1875 33.7969 48.1875
Q26.5156 48.1875 22.3125 43.5469
Q18.1094 38.9219 18.1094 30.9062
L18.1094 0
L9.07812 0
L9.07812 54.6875
L18.1094 54.6875
L18.1094 46.1875
Q21.3438 51.125 25.7031 53.5625
Q30.0781 56 35.7969 56
Q45.2188 56 50.0469 50.1719
Q54.8906 44.3438 54.8906 33.0156" id="BitstreamVeraSans-Roman-6e"/>
      <path d="
M9.42188 75.9844
L18.4062 75.9844
L18.4062 0
L9.42188 0
z
" id="BitstreamVeraSans-Roman-6c"/>
      <path d="
M9.8125 72.9062
L51.7031 72.9062
L51.7031 64.5938
L19.6719 64.5938
L19.6719 43.1094
L48.5781 43.1094
L48.5781 34.8125
L19.6719 34.8125
L19.6719 0
L9.8125 0
z
" id="BitstreamVeraSans-Roman-46"/>
      <path d="
M9.8125 72.9062
L55.9062 72.9062
L55.9062 64.5938
L19.6719 64.5938
L19.6719 43.0156
L54.3906 43.0156
L54.3906 34.7188
L19.6719 34.7188
L19.6719 8.29688
L56.7812 8.29688
L56.7812 0
L9.8125 0
z
" id="BitstreamVeraSans-Roman-45"/>
      <path d="
M9.42188 54.6875
L18.4062 54.6875
L18.4062 0
L9.42188 0
z

M9.42188 75.9844
L18.4062 75.9844
L18.4062 64.5938
L9.42188 64.5938
z
" id="BitstreamVeraSans-Roman-69"/>
      <path d="
M45.4062 46.3906
L45.4062 75.9844
L54.3906 75.9844
L54.3906 0
L45.4062 0
L45.4062 8.20312
Q42.5781 3.32812 38.25 0.953125
Q33.9375 -1.42188 27.875 -1.42188
Q17.9688 -1.42188 11.7344 6.48438
Q5.51562 14.4062 5.51562 27.2969
Q5.51562 40.1875 11.7344 48.0938
Q17.9688 56 27.875 56
Q33.9375 56 38.25 53.625
Q42.5781 51.2656 45.4062 46.3906
M14.7969 27.2969
Q14.7969 17.3906 18.875 11.75
Q22.9531 6.10938 30.0781 6.10938
Q37.2031 6.10938 41.2969 11.75
Q45.4062 17.3906 45.4062 27.2969
Q45.4062 37.2031 41.2969 42.8438
Q37.2031 48.4844 30.0781 48.4844
Q22.9531 48.4844 18.875 42.8438
Q14.7969 37.2031 14.7969 27.2969" id="BitstreamVeraSans-Roman-64"/>
      <path d="
M18.3125 70.2188
L18.3125 54.6875
L36.8125 54.6875
L36.8125 47.7031
L18.3125 47.7031
L18.3125 18.0156
Q18.3125 11.3281 20.1406 9.42188
Q21.9688 7.51562 27.5938 7.51562
L36.8125 7.51562
L36.8125 0
L27.5938 0
Q17.1875 0 13.2344 3.875
Q9.28125 7.76562 9.28125 18.0156
L9.28125 47.7031
L2.6875 47.7031
L2.6875 54.6875
L9.28125 54.6875
L9.28125 70.2188
z
" id="BitstreamVeraSans-Roman-74"/>
      <path d="
M45.4062 27.9844
Q45.4062 37.75 41.375 43.1094
Q37.3594 48.4844 30.0781 48.4844
Q22.8594 48.4844 18.8281 43.1094
Q14.7969 37.75 14.7969 27.9844
Q14.7969 18.2656 18.8281 12.8906
Q22.8594 7.51562 30.0781 7.51562
Q37.3594 7.51562 41.375 12.8906
Q45.4062 18.2656 45.4062 27.9844
M54.3906 6.78125
Q54.3906 -7.17188 48.1875 -13.9844
Q42 -20.7969 29.2031 -20.7969
Q24.4688 -20.7969 20.2656 -20.0938
Q16.0625 -19.3906 12.1094 -17.9219
L12.1094 -9.1875
Q16.0625 -11.3281 19.9219 -12.3438
Q23.7812 -13.375 27.7812 -13.375
Q36.625 -13.375 41.0156 -8.76562
Q45.4062 -4.15625 45.4062 5.17188
L45.4062 9.625
Q42.625 4.78125 38.2812 2.39062
Q33.9375 0 27.875 0
Q17.8281 0 11.6719 7.65625
Q5.51562 15.3281 5.51562 27.9844
Q5.51562 40.6719 11.6719 48.3281
Q17.8281 56 27.875 56
Q33.9375 56 38.2812 53.6094
Q42.625 51.2188 45.4062 46.3906
L45.4062 54.6875
L54.3906 54.6875
z
" id="BitstreamVeraSans-Roman-67"/>
     </defs>
     <g transform="translate(346.40325 66.92175)scale(0.144 -0.144)">
      <use xlink:href="#BitstreamVeraSans-Roman-46"/>
      <use x="50.26953125" xlink:href="#BitstreamVeraSans-Roman-69"/>
      <use x="78.052734375" xlink:href="#BitstreamVeraSans-Roman-6c"/>
      <use x="105.8359375" xlink:href="#BitstreamVeraSans-Roman-74"/>
      <use x="145.044921875" xlink:href="#BitstreamVeraSans-Roman-65"/>
      <use x="206.568359375" xlink:href="#BitstreamVeraSans-Roman-72"/>
      <use x="245.431640625" xlink:href="#BitstreamVeraSans-Roman-65"/>
      <use x="306.955078125" xlink:href="#BitstreamVeraSans-Roman-64"/>
      <use x="370.431640625" xlink:href="#BitstreamVeraSans-Roman-20"/>
      <use x="402.21875" xlink:href="#BitstreamVeraSans-Roman-45"/>
      <use x="465.40234375" xlink:href="#BitstreamVeraSans-Roman-6e"/>
      <use x="528.78125" xlink:href="#BitstreamVeraSans-Roman-67"/>
      <use x="592.2578125" xlink:href="#BitstreamVeraSans-Roman-69"/>
      <use x="620.041015625" xlink:href="#BitstreamVeraSans-Roman-6e"/>
      <use x="683.419921875" xlink:href="#BitstreamVeraSans-Roman-65"/>
      <use x="744.943359375" xlink:href="#BitstreamVeraSans-Roman-20"/>
      <use x="776.73046875" xlink:href="#BitstreamVeraSans-Roman-54"/>
      <use x="820.814453125" xlink:href="#BitstreamVeraSans-Roman-6f"/>
      <use x="881.99609375" xlink:href="#BitstreamVeraSans-Roman-72"/>
      <use x="921.359375" xlink:href="#BitstreamVeraSans-Roman-71"/>
      <use x="984.8359375" xlink:href="#BitstreamVeraSans-Roman-75"/>
      <use x="1048.21484375" xlink:href="#BitstreamVeraSans-Roman-65"/>
     </g>
    </g>
   </g>
  </g>
  <g id="axes_2">
   <g id="patch_8">
    <path d="
M72 387.18
L518.4 387.18
L518.4 230.744
L72 230.744
z
" style="fill:#ffffff;"/>
   </g>
   <g id="line2d_46">
    <path clip-path="url(#p32f7d04832)" d="
M72 382.2
L72 382.2
L72 382.2
L72 382.2
L79.8901 379.566
L215.149 332.298
L223.791 329.275
L231.691 326.521
L231.691 326.521
L236.941 324.684
L250.467 319.982
L325.003 294.01
L325.003 294.01
L330.495 292.09
L381.484 274.276
L381.484 274.276
L386.102 272.657
L412.027 263.591
L444.13 252.376
L444.13 252.376
L447.72 251.121
L447.72 251.121" style="fill:none;stroke:#0000ff;"/>
   </g>
   <g id="matplotlib.axis_3">
    <g id="xtick_8">
     <g id="line2d_47">
      <path clip-path="url(#p32f7d04832)" d="
M72 387.18
L72 230.744" style="fill:none;stroke:#000000;stroke-dasharray:1.000000,3.000000;stroke-dashoffset:0.0;stroke-linecap:butt;stroke-width:0.5;"/>
     </g>
     <g id="line2d_48">
      <defs>
       <path d="
M0 0
L0 -4" id="mbc95f78d17"/>
      </defs>
      <g>
       <use style="stroke:#000000;stroke-linecap:butt;stroke-width:0.5;" x="72.0" xlink:href="#mbc95f78d17" y="387.18"/>
      </g>
     </g>
     <g id="line2d_49">
      <defs>
       <path d="
M0 0
L0 4" id="mdf7a6afb4a"/>
      </defs>
      <g>
       <use style="stroke:#000000;stroke-linecap:butt;stroke-width:0.5;" x="72.0" xlink:href="#mdf7a6afb4a" y="230.743636364"/>
      </g>
     </g>
     <g id="text_17">
      <!-- 0.0 -->
      <g transform="translate(63.2521875 400.08625)scale(0.12 -0.12)">
       <use xlink:href="#BitstreamVeraSans-Roman-30"/>
       <use x="63.623046875" xlink:href="#BitstreamVeraSans-Roman-2e"/>
       <use x="95.41015625" xlink:href="#BitstreamVeraSans-Roman-30"/>
      </g>
     </g>
    </g>
    <g id="xtick_9">
     <g id="line2d_50">
      <path clip-path="url(#p32f7d04832)" d="
M146.4 387.18
L146.4 230.744" style="fill:none;stroke:#000000;stroke-dasharray:1.000000,3.000000;stroke-dashoffset:0.0;stroke-linecap:butt;stroke-width:0.5;"/>
     </g>
     <g id="line2d_51">
      <defs>
       <path d="
M0 0
L0 -4" id="mbc95f78d17"/>
      </defs>
      <g>
       <use style="stroke:#000000;stroke-linecap:butt;stroke-width:0.5;" x="146.4" xlink:href="#mbc95f78d17" y="387.18"/>
      </g>
     </g>
     <g id="line2d_52">
      <defs>
       <path d="
M0 0
L0 4" id="mdf7a6afb4a"/>
      </defs>
      <g>
       <use style="stroke:#000000;stroke-linecap:butt;stroke-width:0.5;" x="146.4" xlink:href="#mdf7a6afb4a" y="230.743636364"/>
      </g>
     </g>
     <g id="text_18">
      <!-- 0.2 -->
      <g transform="translate(137.8546875 400.08625)scale(0.12 -0.12)">
       <use xlink:href="#BitstreamVeraSans-Roman-30"/>
       <use x="63.623046875" xlink:href="#BitstreamVeraSans-Roman-2e"/>
       <use x="95.41015625" xlink:href="#BitstreamVeraSans-Roman-32"/>
      </g>
     </g>
    </g>
    <g id="xtick_10">
     <g id="line2d_53">
      <path clip-path="url(#p32f7d04832)" d="
M220.8 387.18
L220.8 230.744" style="fill:none;stroke:#000000;stroke-dasharray:1.000000,3.000000;stroke-dashoffset:0.0;stroke-linecap:butt;stroke-width:0.5;"/>
     </g>
     <g id="line2d_54">
      <defs>
       <path d="
M0 0
L0 -4" id="mbc95f78d17"/>
      </defs>
      <g>
       <use style="stroke:#000000;stroke-linecap:butt;stroke-width:0.5;" x="220.8" xlink:href="#mbc95f78d17" y="387.18"/>
      </g>
     </g>
     <g id="line2d_55">
      <defs>
       <path d="
M0 0
L0 4" id="mdf7a6afb4a"/>
      </defs>
      <g>
       <use style="stroke:#000000;stroke-linecap:butt;stroke-width:0.5;" x="220.8" xlink:href="#mdf7a6afb4a" y="230.743636364"/>
      </g>
     </g>
     <g id="text_19">
      <!-- 0.4 -->
      <g transform="translate(211.9903125 400.08625)scale(0.12 -0.12)">
       <use xlink:href="#BitstreamVeraSans-Roman-30"/>
       <use x="63.623046875" xlink:href="#BitstreamVeraSans-Roman-2e"/>
       <use x="95.41015625" xlink:href="#BitstreamVeraSans-Roman-34"/>
      </g>
     </g>
    </g>
    <g id="xtick_11">
     <g id="line2d_56">
      <path clip-path="url(#p32f7d04832)" d="
M295.2 387.18
L295.2 230.744" style="fill:none;stroke:#000000;stroke-dasharray:1.000000,3.000000;stroke-dashoffset:0.0;stroke-linecap:butt;stroke-width:0.5;"/>
     </g>
     <g id="line2d_57">
      <defs>
       <path d="
M0 0
L0 -4" id="mbc95f78d17"/>
      </defs>
      <g>
       <use style="stroke:#000000;stroke-linecap:butt;stroke-width:0.5;" x="295.2" xlink:href="#mbc95f78d17" y="387.18"/>
      </g>
     </g>
     <g id="line2d_58">
      <defs>
       <path d="
M0 0
L0 4" id="mdf7a6afb4a"/>
      </defs>
      <g>
       <use style="stroke:#000000;stroke-linecap:butt;stroke-width:0.5;" x="295.2" xlink:href="#mdf7a6afb4a" y="230.743636364"/>
      </g>
     </g>
     <g id="text_20">
      <!-- 0.6 -->
      <g transform="translate(286.4315625 400.08625)scale(0.12 -0.12)">
       <use xlink:href="#BitstreamVeraSans-Roman-30"/>
       <use x="63.623046875" xlink:href="#BitstreamVeraSans-Roman-2e"/>
       <use x="95.41015625" xlink:href="#BitstreamVeraSans-Roman-36"/>
      </g>
     </g>
    </g>
    <g id="xtick_12">
     <g id="line2d_59">
      <path clip-path="url(#p32f7d04832)" d="
M369.6 387.18
L369.6 230.744" style="fill:none;stroke:#000000;stroke-dasharray:1.000000,3.000000;stroke-dashoffset:0.0;stroke-linecap:butt;stroke-width:0.5;"/>
     </g>
     <g id="line2d_60">
      <defs>
       <path d="
M0 0
L0 -4" id="mbc95f78d17"/>
      </defs>
      <g>
       <use style="stroke:#000000;stroke-linecap:butt;stroke-width:0.5;" x="369.6" xlink:href="#mbc95f78d17" y="387.18"/>
      </g>
     </g>
     <g id="line2d_61">
      <defs>
       <path d="
M0 0
L0 4" id="mdf7a6afb4a"/>
      </defs>
      <g>
       <use style="stroke:#000000;stroke-linecap:butt;stroke-width:0.5;" x="369.6" xlink:href="#mdf7a6afb4a" y="230.743636364"/>
      </g>
     </g>
     <g id="text_21">
      <!-- 0.8 -->
      <g transform="translate(360.864375 400.08625)scale(0.12 -0.12)">
       <use xlink:href="#BitstreamVeraSans-Roman-30"/>
       <use x="63.623046875" xlink:href="#BitstreamVeraSans-Roman-2e"/>
       <use x="95.41015625" xlink:href="#BitstreamVeraSans-Roman-38"/>
      </g>
     </g>
    </g>
    <g id="xtick_13">
     <g id="line2d_62">
      <path clip-path="url(#p32f7d04832)" d="
M444 387.18
L444 230.744" style="fill:none;stroke:#000000;stroke-dasharray:1.000000,3.000000;stroke-dashoffset:0.0;stroke-linecap:butt;stroke-width:0.5;"/>
     </g>
     <g id="line2d_63">
      <defs>
       <path d="
M0 0
L0 -4" id="mbc95f78d17"/>
      </defs>
      <g>
       <use style="stroke:#000000;stroke-linecap:butt;stroke-width:0.5;" x="444.0" xlink:href="#mbc95f78d17" y="387.18"/>
      </g>
     </g>
     <g id="line2d_64">
      <defs>
       <path d="
M0 0
L0 4" id="mdf7a6afb4a"/>
      </defs>
      <g>
       <use style="stroke:#000000;stroke-linecap:butt;stroke-width:0.5;" x="444.0" xlink:href="#mdf7a6afb4a" y="230.743636364"/>
      </g>
     </g>
     <g id="text_22">
      <!-- 1.0 -->
      <g transform="translate(435.515625 400.08625)scale(0.12 -0.12)">
       <use xlink:href="#BitstreamVeraSans-Roman-31"/>
       <use x="63.623046875" xlink:href="#BitstreamVeraSans-Roman-2e"/>
       <use x="95.41015625" xlink:href="#BitstreamVeraSans-Roman-30"/>
      </g>
     </g>
    </g>
    <g id="xtick_14">
     <g id="line2d_65">
      <path clip-path="url(#p32f7d04832)" d="
M518.4 387.18
L518.4 230.744" style="fill:none;stroke:#000000;stroke-dasharray:1.000000,3.000000;stroke-dashoffset:0.0;stroke-linecap:butt;stroke-width:0.5;"/>
     </g>
     <g id="line2d_66">
      <defs>
       <path d="
M0 0
L0 -4" id="mbc95f78d17"/>
      </defs>
      <g>
       <use style="stroke:#000000;stroke-linecap:butt;stroke-width:0.5;" x="518.4" xlink:href="#mbc95f78d17" y="387.18"/>
      </g>
     </g>
     <g id="line2d_67">
      <defs>
       <path d="
M0 0
L0 4" id="mdf7a6afb4a"/>
      </defs>
      <g>
       <use style="stroke:#000000;stroke-linecap:butt;stroke-width:0.5;" x="518.4" xlink:href="#mdf7a6afb4a" y="230.743636364"/>
      </g>
     </g>
     <g id="text_23">
      <!-- 1.2 -->
      <g transform="translate(510.118125 400.08625)scale(0.12 -0.12)">
       <use xlink:href="#BitstreamVeraSans-Roman-31"/>
       <use x="63.623046875" xlink:href="#BitstreamVeraSans-Roman-2e"/>
       <use x="95.41015625" xlink:href="#BitstreamVeraSans-Roman-32"/>
      </g>
     </g>
    </g>
    <g id="text_24">
     <!-- Time [s] -->
     <defs>
      <path d="
M44.2812 53.0781
L44.2812 44.5781
Q40.4844 46.5312 36.375 47.5
Q32.2812 48.4844 27.875 48.4844
Q21.1875 48.4844 17.8438 46.4375
Q14.5 44.3906 14.5 40.2812
Q14.5 37.1562 16.8906 35.375
Q19.2812 33.5938 26.5156 31.9844
L29.5938 31.2969
Q39.1562 29.25 43.1875 25.5156
Q47.2188 21.7812 47.2188 15.0938
Q47.2188 7.46875 41.1875 3.01562
Q35.1562 -1.42188 24.6094 -1.42188
Q20.2188 -1.42188 15.4531 -0.5625
Q10.6875 0.296875 5.42188 2
L5.42188 11.2812
Q10.4062 8.6875 15.2344 7.39062
Q20.0625 6.10938 24.8125 6.10938
Q31.1562 6.10938 34.5625 8.28125
Q37.9844 10.4531 37.9844 14.4062
Q37.9844 18.0625 35.5156 20.0156
Q33.0625 21.9688 24.7031 23.7812
L21.5781 24.5156
Q13.2344 26.2656 9.51562 29.9062
Q5.8125 33.5469 5.8125 39.8906
Q5.8125 47.6094 11.2812 51.7969
Q16.75 56 26.8125 56
Q31.7812 56 36.1719 55.2656
Q40.5781 54.5469 44.2812 53.0781" id="BitstreamVeraSans-Roman-73"/>
     </defs>
     <g transform="translate(271.303125 414.375)scale(0.12 -0.12)">
      <use xlink:href="#BitstreamVeraSans-Roman-54"/>
      <use x="57.958984375" xlink:href="#BitstreamVeraSans-Roman-69"/>
      <use x="85.7421875" xlink:href="#BitstreamVeraSans-Roman-6d"/>
      <use x="183.154296875" xlink:href="#BitstreamVeraSans-Roman-65"/>
      <use x="244.677734375" xlink:href="#BitstreamVeraSans-Roman-20"/>
      <use x="276.46484375" xlink:href="#BitstreamVeraSans-Roman-5b"/>
      <use x="315.478515625" xlink:href="#BitstreamVeraSans-Roman-73"/>
      <use x="367.578125" xlink:href="#BitstreamVeraSans-Roman-5d"/>
     </g>
    </g>
   </g>
   <g id="matplotlib.axis_4">
    <g id="ytick_8">
     <g id="line2d_68">
      <path clip-path="url(#p32f7d04832)" d="
M72 387.18
L518.4 387.18" style="fill:none;stroke:#000000;stroke-dasharray:1.000000,3.000000;stroke-dashoffset:0.0;stroke-linecap:butt;stroke-width:0.5;"/>
     </g>
     <g id="line2d_69">
      <defs>
       <path d="
M0 0
L4 0" id="m0d21ab5585"/>
      </defs>
      <g>
       <use style="stroke:#000000;stroke-linecap:butt;stroke-width:0.5;" x="72.0" xlink:href="#m0d21ab5585" y="387.18"/>
      </g>
     </g>
     <g id="line2d_70">
      <defs>
       <path d="
M0 0
L-4 0" id="m118f149c4b"/>
      </defs>
      <g>
       <use style="stroke:#000000;stroke-linecap:butt;stroke-width:0.5;" x="518.4" xlink:href="#m118f149c4b" y="387.18"/>
      </g>
     </g>
     <g id="text_25">
      <!-- 0 -->
      <g transform="translate(61.953125 391.5478125)scale(0.12 -0.12)">
       <use xlink:href="#BitstreamVeraSans-Roman-30"/>
      </g>
     </g>
    </g>
    <g id="ytick_9">
     <g id="line2d_71">
      <path clip-path="url(#p32f7d04832)" d="
M72 361.107
L518.4 361.107" style="fill:none;stroke:#000000;stroke-dasharray:1.000000,3.000000;stroke-dashoffset:0.0;stroke-linecap:butt;stroke-width:0.5;"/>
     </g>
     <g id="line2d_72">
      <defs>
       <path d="
M0 0
L4 0" id="m0d21ab5585"/>
      </defs>
      <g>
       <use style="stroke:#000000;stroke-linecap:butt;stroke-width:0.5;" x="72.0" xlink:href="#m0d21ab5585" y="361.107272727"/>
      </g>
     </g>
     <g id="line2d_73">
      <defs>
       <path d="
M0 0
L-4 0" id="m118f149c4b"/>
      </defs>
      <g>
       <use style="stroke:#000000;stroke-linecap:butt;stroke-width:0.5;" x="518.4" xlink:href="#m118f149c4b" y="361.107272727"/>
      </g>
     </g>
     <g id="text_26">
      <!-- 500 -->
      <g transform="translate(46.818125 365.475085227)scale(0.12 -0.12)">
       <use xlink:href="#BitstreamVeraSans-Roman-35"/>
       <use x="63.623046875" xlink:href="#BitstreamVeraSans-Roman-30"/>
       <use x="127.24609375" xlink:href="#BitstreamVeraSans-Roman-30"/>
      </g>
     </g>
    </g>
    <g id="ytick_10">
     <g id="line2d_74">
      <path clip-path="url(#p32f7d04832)" d="
M72 335.035
L518.4 335.035" style="fill:none;stroke:#000000;stroke-dasharray:1.000000,3.000000;stroke-dashoffset:0.0;stroke-linecap:butt;stroke-width:0.5;"/>
     </g>
     <g id="line2d_75">
      <defs>
       <path d="
M0 0
L4 0" id="m0d21ab5585"/>
      </defs>
      <g>
       <use style="stroke:#000000;stroke-linecap:butt;stroke-width:0.5;" x="72.0" xlink:href="#m0d21ab5585" y="335.034545455"/>
      </g>
     </g>
     <g id="line2d_76">
      <defs>
       <path d="
M0 0
L-4 0" id="m118f149c4b"/>
      </defs>
      <g>
       <use style="stroke:#000000;stroke-linecap:butt;stroke-width:0.5;" x="518.4" xlink:href="#m118f149c4b" y="335.034545455"/>
      </g>
     </g>
     <g id="text_27">
      <!-- 1000 -->
      <g transform="translate(39.575 339.402357955)scale(0.12 -0.12)">
       <use xlink:href="#BitstreamVeraSans-Roman-31"/>
       <use x="63.623046875" xlink:href="#BitstreamVeraSans-Roman-30"/>
       <use x="127.24609375" xlink:href="#BitstreamVeraSans-Roman-30"/>
       <use x="190.869140625" xlink:href="#BitstreamVeraSans-Roman-30"/>
      </g>
     </g>
    </g>
    <g id="ytick_11">
     <g id="line2d_77">
      <path clip-path="url(#p32f7d04832)" d="
M72 308.962
L518.4 308.962" style="fill:none;stroke:#000000;stroke-dasharray:1.000000,3.000000;stroke-dashoffset:0.0;stroke-linecap:butt;stroke-width:0.5;"/>
     </g>
     <g id="line2d_78">
      <defs>
       <path d="
M0 0
L4 0" id="m0d21ab5585"/>
      </defs>
      <g>
       <use style="stroke:#000000;stroke-linecap:butt;stroke-width:0.5;" x="72.0" xlink:href="#m0d21ab5585" y="308.961818182"/>
      </g>
     </g>
     <g id="line2d_79">
      <defs>
       <path d="
M0 0
L-4 0" id="m118f149c4b"/>
      </defs>
      <g>
       <use style="stroke:#000000;stroke-linecap:butt;stroke-width:0.5;" x="518.4" xlink:href="#m118f149c4b" y="308.961818182"/>
      </g>
     </g>
     <g id="text_28">
      <!-- 1500 -->
      <g transform="translate(39.575 313.329630682)scale(0.12 -0.12)">
       <use xlink:href="#BitstreamVeraSans-Roman-31"/>
       <use x="63.623046875" xlink:href="#BitstreamVeraSans-Roman-35"/>
       <use x="127.24609375" xlink:href="#BitstreamVeraSans-Roman-30"/>
       <use x="190.869140625" xlink:href="#BitstreamVeraSans-Roman-30"/>
      </g>
     </g>
    </g>
    <g id="ytick_12">
     <g id="line2d_80">
      <path clip-path="url(#p32f7d04832)" d="
M72 282.889
L518.4 282.889" style="fill:none;stroke:#000000;stroke-dasharray:1.000000,3.000000;stroke-dashoffset:0.0;stroke-linecap:butt;stroke-width:0.5;"/>
     </g>
     <g id="line2d_81">
      <defs>
       <path d="
M0 0
L4 0" id="m0d21ab5585"/>
      </defs>
      <g>
       <use style="stroke:#000000;stroke-linecap:butt;stroke-width:0.5;" x="72.0" xlink:href="#m0d21ab5585" y="282.889090909"/>
      </g>
     </g>
     <g id="line2d_82">
      <defs>
       <path d="
M0 0
L-4 0" id="m118f149c4b"/>
      </defs>
      <g>
       <use style="stroke:#000000;stroke-linecap:butt;stroke-width:0.5;" x="518.4" xlink:href="#m118f149c4b" y="282.889090909"/>
      </g>
     </g>
     <g id="text_29">
      <!-- 2000 -->
      <g transform="translate(39.13625 287.256903409)scale(0.12 -0.12)">
       <use xlink:href="#BitstreamVeraSans-Roman-32"/>
       <use x="63.623046875" xlink:href="#BitstreamVeraSans-Roman-30"/>
       <use x="127.24609375" xlink:href="#BitstreamVeraSans-Roman-30"/>
       <use x="190.869140625" xlink:href="#BitstreamVeraSans-Roman-30"/>
      </g>
     </g>
    </g>
    <g id="ytick_13">
     <g id="line2d_83">
      <path clip-path="url(#p32f7d04832)" d="
M72 256.816
L518.4 256.816" style="fill:none;stroke:#000000;stroke-dasharray:1.000000,3.000000;stroke-dashoffset:0.0;stroke-linecap:butt;stroke-width:0.5;"/>
     </g>
     <g id="line2d_84">
      <defs>
       <path d="
M0 0
L4 0" id="m0d21ab5585"/>
      </defs>
      <g>
       <use style="stroke:#000000;stroke-linecap:butt;stroke-width:0.5;" x="72.0" xlink:href="#m0d21ab5585" y="256.816363636"/>
      </g>
     </g>
     <g id="line2d_85">
      <defs>
       <path d="
M0 0
L-4 0" id="m118f149c4b"/>
      </defs>
      <g>
       <use style="stroke:#000000;stroke-linecap:butt;stroke-width:0.5;" x="518.4" xlink:href="#m118f149c4b" y="256.816363636"/>
      </g>
     </g>
     <g id="text_30">
      <!-- 2500 -->
      <g transform="translate(39.13625 261.184176136)scale(0.12 -0.12)">
       <use xlink:href="#BitstreamVeraSans-Roman-32"/>
       <use x="63.623046875" xlink:href="#BitstreamVeraSans-Roman-35"/>
       <use x="127.24609375" xlink:href="#BitstreamVeraSans-Roman-30"/>
       <use x="190.869140625" xlink:href="#BitstreamVeraSans-Roman-30"/>
      </g>
     </g>
    </g>
    <g id="ytick_14">
     <g id="line2d_86">
      <path clip-path="url(#p32f7d04832)" d="
M72 230.744
L518.4 230.744" style="fill:none;stroke:#000000;stroke-dasharray:1.000000,3.000000;stroke-dashoffset:0.0;stroke-linecap:butt;stroke-width:0.5;"/>
     </g>
     <g id="line2d_87">
      <defs>
       <path d="
M0 0
L4 0" id="m0d21ab5585"/>
      </defs>
      <g>
       <use style="stroke:#000000;stroke-linecap:butt;stroke-width:0.5;" x="72.0" xlink:href="#m0d21ab5585" y="230.743636364"/>
      </g>
     </g>
     <g id="line2d_88">
      <defs>
       <path d="
M0 0
L-4 0" id="m118f149c4b"/>
      </defs>
      <g>
       <use style="stroke:#000000;stroke-linecap:butt;stroke-width:0.5;" x="518.4" xlink:href="#m118f149c4b" y="230.743636364"/>
      </g>
     </g>
     <g id="text_31">
      <!-- 3000 -->
      <g transform="translate(39.171875 235.111448864)scale(0.12 -0.12)">
       <use xlink:href="#BitstreamVeraSans-Roman-33"/>
       <use x="63.623046875" xlink:href="#BitstreamVeraSans-Roman-30"/>
       <use x="127.24609375" xlink:href="#BitstreamVeraSans-Roman-30"/>
       <use x="190.869140625" xlink:href="#BitstreamVeraSans-Roman-30"/>
      </g>
     </g>
    </g>
    <g id="text_32">
     <!-- Speed [1/min] -->
     <defs>
      <path d="
M53.5156 70.5156
L53.5156 60.8906
Q47.9062 63.5781 42.9219 64.8906
Q37.9375 66.2188 33.2969 66.2188
Q25.25 66.2188 20.875 63.0938
Q16.5 59.9688 16.5 54.2031
Q16.5 49.3594 19.4062 46.8906
Q22.3125 44.4375 30.4219 42.9219
L36.375 41.7031
Q47.4062 39.5938 52.6562 34.2969
Q57.9062 29 57.9062 20.125
Q57.9062 9.51562 50.7969 4.04688
Q43.7031 -1.42188 29.9844 -1.42188
Q24.8125 -1.42188 18.9688 -0.25
Q13.1406 0.921875 6.89062 3.21875
L6.89062 13.375
Q12.8906 10.0156 18.6562 8.29688
Q24.4219 6.59375 29.9844 6.59375
Q38.4219 6.59375 43.0156 9.90625
Q47.6094 13.2344 47.6094 19.3906
Q47.6094 24.75 44.3125 27.7812
Q41.0156 30.8125 33.5 32.3281
L27.4844 33.5
Q16.4531 35.6875 11.5156 40.375
Q6.59375 45.0625 6.59375 53.4219
Q6.59375 63.0938 13.4062 68.6562
Q20.2188 74.2188 32.1719 74.2188
Q37.3125 74.2188 42.625 73.2812
Q47.9531 72.3594 53.5156 70.5156" id="BitstreamVeraSans-Roman-53"/>
      <path d="
M18.1094 8.20312
L18.1094 -20.7969
L9.07812 -20.7969
L9.07812 54.6875
L18.1094 54.6875
L18.1094 46.3906
Q20.9531 51.2656 25.2656 53.625
Q29.5938 56 35.5938 56
Q45.5625 56 51.7812 48.0938
Q58.0156 40.1875 58.0156 27.2969
Q58.0156 14.4062 51.7812 6.48438
Q45.5625 -1.42188 35.5938 -1.42188
Q29.5938 -1.42188 25.2656 0.953125
Q20.9531 3.32812 18.1094 8.20312
M48.6875 27.2969
Q48.6875 37.2031 44.6094 42.8438
Q40.5312 48.4844 33.4062 48.4844
Q26.2656 48.4844 22.1875 42.8438
Q18.1094 37.2031 18.1094 27.2969
Q18.1094 17.3906 22.1875 11.75
Q26.2656 6.10938 33.4062 6.10938
Q40.5312 6.10938 44.6094 11.75
Q48.6875 17.3906 48.6875 27.2969" id="BitstreamVeraSans-Roman-70"/>
      <path d="
M25.3906 72.9062
L33.6875 72.9062
L8.29688 -9.28125
L0 -9.28125
z
" id="BitstreamVeraSans-Roman-2f"/>
     </defs>
     <g transform="translate(34.13625 348.502755682)rotate(-90.0)scale(0.12 -0.12)">
      <use xlink:href="#BitstreamVeraSans-Roman-53"/>
      <use x="63.4765625" xlink:href="#BitstreamVeraSans-Roman-70"/>
      <use x="126.953125" xlink:href="#BitstreamVeraSans-Roman-65"/>
      <use x="188.4765625" xlink:href="#BitstreamVeraSans-Roman-65"/>
      <use x="250.0" xlink:href="#BitstreamVeraSans-Roman-64"/>
      <use x="313.4765625" xlink:href="#BitstreamVeraSans-Roman-20"/>
      <use x="345.263671875" xlink:href="#BitstreamVeraSans-Roman-5b"/>
      <use x="384.27734375" xlink:href="#BitstreamVeraSans-Roman-31"/>
      <use x="447.900390625" xlink:href="#BitstreamVeraSans-Roman-2f"/>
      <use x="481.591796875" xlink:href="#BitstreamVeraSans-Roman-6d"/>
      <use x="579.00390625" xlink:href="#BitstreamVeraSans-Roman-69"/>
      <use x="606.787109375" xlink:href="#BitstreamVeraSans-Roman-6e"/>
      <use x="670.166015625" xlink:href="#BitstreamVeraSans-Roman-5d"/>
     </g>
    </g>
   </g>
   <g id="patch_9">
    <path d="
M72 230.744
L518.4 230.744" style="fill:none;stroke:#000000;"/>
   </g>
   <g id="patch_10">
    <path d="
M518.4 387.18
L518.4 230.744" style="fill:none;stroke:#000000;"/>
   </g>
   <g id="patch_11">
    <path d="
M72 387.18
L518.4 387.18" style="fill:none;stroke:#000000;"/>
   </g>
   <g id="patch_12">
    <path d="
M72 387.18
L72 230.744" style="fill:none;stroke:#000000;"/>
   </g>
   <g id="legend_2">
    <g id="patch_13">
     <path d="
M361.593 263.4
L511.2 263.4
L511.2 237.944
L361.593 237.944
L361.593 263.4
z
" style="fill:#ffffff;stroke:#000000;"/>
    </g>
    <g id="line2d_89">
     <path d="
M371.673 249.605
L391.833 249.605" style="fill:none;stroke:#0000ff;"/>
    </g>
    <g id="line2d_90"/>
    <g id="text_33">
     <!-- Engine Speed -->
     <g transform="translate(407.673 254.645386364)scale(0.144 -0.144)">
      <use xlink:href="#BitstreamVeraSans-Roman-45"/>
      <use x="63.18359375" xlink:href="#BitstreamVeraSans-Roman-6e"/>
      <use x="126.5625" xlink:href="#BitstreamVeraSans-Roman-67"/>
      <use x="190.0390625" xlink:href="#BitstreamVeraSans-Roman-69"/>
      <use x="217.822265625" xlink:href="#BitstreamVeraSans-Roman-6e"/>
      <use x="281.201171875" xlink:href="#BitstreamVeraSans-Roman-65"/>
      <use x="342.724609375" xlink:href="#BitstreamVeraSans-Roman-20"/>
      <use x="374.51171875" xlink:href="#BitstreamVeraSans-Roman-53"/>
      <use x="437.98828125" xlink:href="#BitstreamVeraSans-Roman-70"/>
      <use x="501.46484375" xlink:href="#BitstreamVeraSans-Roman-65"/>
      <use x="562.98828125" xlink:href="#BitstreamVeraSans-Roman-65"/>
      <use x="624.51171875" xlink:href="#BitstreamVeraSans-Roman-64"/>
     </g>
    </g>
   </g>
  </g>
  <g id="text_34">
   <!-- EngineV6 -->
   <defs>
    <path d="
M28.6094 0
L0.78125 72.9062
L11.0781 72.9062
L34.1875 11.5312
L57.3281 72.9062
L67.5781 72.9062
L39.7969 0
z
" id="BitstreamVeraSans-Roman-56"/>
   </defs>
   <g transform="translate(260.480625 17.722125)scale(0.12 -0.12)">
    <use xlink:href="#BitstreamVeraSans-Roman-45"/>
    <use x="63.18359375" xlink:href="#BitstreamVeraSans-Roman-6e"/>
    <use x="126.5625" xlink:href="#BitstreamVeraSans-Roman-67"/>
    <use x="190.0390625" xlink:href="#BitstreamVeraSans-Roman-69"/>
    <use x="217.822265625" xlink:href="#BitstreamVeraSans-Roman-6e"/>
    <use x="281.201171875" xlink:href="#BitstreamVeraSans-Roman-65"/>
    <use x="342.724609375" xlink:href="#BitstreamVeraSans-Roman-56"/>
    <use x="411.1328125" xlink:href="#BitstreamVeraSans-Roman-36"/>
   </g>
  </g>
 </g>
 <defs>
  <clipPath id="p32f7d04832">
   <rect height="156.436363636" width="446.4" x="72.0" y="230.743636364"/>
  </clipPath>
  <clipPath id="p6ea40fd9e5">
   <rect height="156.436363636" width="446.4" x="72.0" y="43.02"/>
  </clipPath>
 </defs>
</svg>
