<?xml version="1.0" standalone="no"?>
<!DOCTYPE svg PUBLIC "-//W3C//DTD SVG 1.1//EN"
  "http://www.w3.org/Graphics/SVG/1.1/DTD/svg11.dtd">
<!-- Created with matplotlib (http://matplotlib.sourceforge.net/) -->
<svg width="586pt" height="442pt" viewBox="0 0 586 442"
   xmlns="http://www.w3.org/2000/svg"
   xmlns:xlink="http://www.w3.org/1999/xlink"
   version="1.1"
   id="svg1">
<g id="figure1">
<g id="patch1">
<path style="fill: #ffffff; stroke: #ffffff; stroke-width: 1.000000; stroke-linejoin: round; stroke-linecap: square;  opacity: 1.000000"  d="M0.000000 442.800000L586.800000 442.800000L586.800000 0.000000
L0.000000 0.000000L0.000000 442.800000"/>
</g>
<g id="axes1">
<g id="patch2">
<path style="fill: #ffffff; opacity: 1.000000"  d="M73.350000 205.298182L528.120000 205.298182L528.120000 44.280000
L73.350000 44.280000L73.350000 205.298182"/>
</g>
<g id="line2d1">
<defs>
  <clipPath id="pf34400005520f91ba751e2ebaafc2670">
<rect x="73.350000" y="44.280000" width="454.770000" height="161.018182"/>
  </clipPath>
</defs><path style="fill: none; stroke: #0000ff; stroke-width: 1.000000; stroke-linejoin: round; stroke-linecap: square;  opacity: 1.000000" clip-path="url(#pf34400005520f91ba751e2ebaafc2670)" d="M73.350000 189.941408L73.918463 191.478178L75.623850 186.948538
L76.192313 185.478823L77.897700 175.092198L79.034625 165.304665
L82.445400 112.799196L84.150787 86.580177L85.856175 70.274817
L87.561563 60.741592L88.130024 59.450256L89.266950 59.327647
L90.403875 59.975998L92.677726 73.133717L94.951575 98.312690
L99.499274 161.740537L100.636201 171.209710L101.204663 174.363332
L101.773125 175.409392L102.341587 177.575684L103.478514 177.389577
L104.046976 175.814717L105.752361 167.037492L106.889288 157.712541
L109.731601 117.161291L112.005451 87.397958L113.710837 74.400424
L114.847764 68.958805L115.984688 68.942664L117.121611 71.729963
L117.690076 73.948850L119.963924 93.415381L125.648549 162.107909
L126.785473 167.679238L127.922402 169.745956L128.490861 168.688250
L130.196250 161.379223L131.901639 146.990951L134.175486 117.539994
L135.880875 95.984737L138.154723 79.525988L138.723188 77.478529
L139.860111 77.315942L140.997035 79.154628L143.270889 94.257470
L146.113201 129.528370L147.818590 147.050264L148.955514 156.385518
L150.660902 163.011847L152.366285 159.524218L153.503215 154.031225
L155.208598 138.511682L159.187840 94.237874L160.893223 83.471216
L162.030152 83.567502L163.167076 84.863897L164.304000 90.244180
L165.440929 97.531621L169.988625 145.351133L171.694008 154.326947
L172.830938 155.099214L173.967867 154.050822L174.536321 152.645978
L176.241715 141.797266L178.515563 118.913810L180.789410 97.938250
L181.926340 92.708048L182.494804 89.350769L183.631723 88.886134
L184.768652 91.135017L185.337117 93.300031L187.610965 108.327723
L189.884813 131.928501L192.158660 147.140872L193.864054 151.613657
L196.137902 144.281963L198.980215 122.873986L200.117133 112.499887
L201.822527 100.497214L202.959446 95.620003L203.527910 94.579550
L204.664840 94.740328L206.370223 100.212021L208.075617 110.946282
L212.054848 139.584639L213.760242 144.480930L214.897160 144.378622
L216.602554 138.938631L219.444867 120.623428L221.150250 109.088484
L221.718715 106.776199L222.287179 103.063574L222.855633 101.958587
L223.992563 98.697423L225.129492 100.681706L226.834875 106.046102
L228.540258 116.270155L231.382571 133.800310L232.519500 136.950116
L233.656429 141.400082L234.224883 139.615928L235.361813 139.943373
L237.635660 130.414821L242.183367 105.537489L243.888750 103.117837
L245.025679 103.472281L246.731063 108.295659L251.847223 133.617662
L252.984152 135.781189L254.121071 136.409757L255.258000 135.099531
L256.394929 132.588006L259.237242 121.683555L261.511079 111.310346
L262.648008 107.023129L263.784938 106.207983L264.921867 105.934905
L265.490321 108.266558L266.627250 110.693835L272.311875 134.543731
L273.448804 134.412130L274.585734 134.711349L275.722641 132.629150
L277.996500 124.976637L279.701883 117.730811L280.838813 113.916573
L281.407266 111.073161L282.544196 110.002321L283.681125 107.435599
L284.818054 108.259356L285.954984 109.547656L291.071133 129.176180
L293.344992 133.616050L294.481921 132.068034L295.618829 132.050409
L298.461141 122.609210L299.029617 120.657313L300.166546 114.713869
L301.303454 111.338527L302.440383 110.028024L303.577313 109.453556
L304.714242 110.200905L305.851171 111.845299L306.419625 114.266910
L307.556554 115.635253L309.261938 124.171035L310.967321 128.235395
L312.104250 131.541069L313.241179 132.104252L314.378109 131.160353
L318.357329 121.605886L320.631188 114.587707L321.199641 113.117506
L322.336571 112.759587L322.905046 111.277460L324.041954 110.913359
L326.315813 114.281436L327.452742 118.307338L328.589671 121.376603
L329.726579 126.424072L330.863508 126.543714L331.431984 129.109360
L332.568891 129.419784L333.705821 130.183806L334.842750 129.561741
L338.821992 118.494224L339.390446 116.632241L340.527375 115.948101
L341.664304 113.025481L342.801234 112.068568L343.369688 113.306599
L343.938141 112.237948L346.212000 116.087198L346.780454 117.490269
L347.917383 121.125132L349.054313 124.321757L351.896625 128.365231
L354.170484 128.615926L355.875867 124.593849L357.012796 123.530816
L358.718179 118.201278L360.423563 115.604701L360.992016 113.764681
L362.128946 113.017802L362.697421 114.064060L363.834329 113.720625
L365.539734 117.114307L368.950500 123.588039L369.518954 126.186392
L370.087429 124.941868L371.792813 128.508492L372.929742 126.850511
L374.066671 126.726607L374.635125 125.174241L375.772054 124.129811
L376.908984 121.229251L378.045891 120.947400L379.182821 117.886881
L380.319750 116.345713L381.456679 115.656094L382.593609 115.512360
L383.730516 115.919929L384.298992 117.050708L385.435921 117.264147
L386.004375 119.996585L387.141304 120.722004L388.278234 123.161460
L389.415141 123.849315L390.552071 125.466187L391.689000 125.713402
L392.825929 126.412509L393.394383 124.908858L394.531313 124.373042
L397.373625 120.222541L398.510554 119.744693L399.079008 117.711190
L400.215938 116.896399L401.352867 117.515977L401.921321 116.082660
L402.489796 117.107475L403.626704 118.085597L404.763633 118.234024
L405.900563 120.106505L407.037492 120.497068L407.605946 122.119118
L408.742875 121.927068L409.311329 124.256689L410.448258 124.397871
L411.585188 123.541508L414.995954 122.934727L415.564429 121.133214
L416.701359 121.284885L418.975196 118.809525L422.385984 118.644081
L423.522891 117.850417L425.228296 120.571536L426.365204 121.772832
L426.933679 120.659542L427.502133 121.813596L430.912921 122.521271
L432.049829 122.647430L433.186758 122.048686L434.323688 122.141277
L435.460617 121.029427L436.029071 122.262235L436.597546 121.076590
L438.871405 120.432076L440.008313 119.065002L440.576766 120.354005
L441.713717 119.685186L442.850625 120.370100L445.124484 120.521624
L447.398342 121.751204L447.966796 120.697657L449.103704 120.876750
L450.240655 120.687991L454.788329 122.101646L455.925280 121.389647
L457.062188 122.182417L459.336046 120.875014L460.472954 120.811122
L461.041408 119.476319L461.609905 120.934746L462.746813 121.668822
L463.883720 121.602797L465.020671 120.790665L466.157579 121.339646
L467.294530 120.332548L468.431438 121.496447L469.568345 121.731364
L470.705296 120.485028L471.842204 121.387345L472.979155 120.934531
L474.116063 121.964644L474.684516 120.642836L475.252970 121.903706
L476.389921 120.639090L477.526829 120.864351L478.663780 120.272925
L479.232234 121.290279L479.800688 119.880044L480.369141 121.642000
L481.506092 121.598453L482.643000 120.587823L483.211454 121.588595
L483.779908 120.063558L484.348405 121.279741L485.485313 121.614944
L486.053766 120.495762L486.622220 121.893052L487.759171 120.878952
L488.896079 120.360786L489.464533 121.633984L490.033030 119.439261
L490.601484 121.482850L491.738391 121.105774L494.012250 121.449540
L494.580704 120.145814L495.717655 121.621203L496.854563 121.044194
L499.128421 120.929370L500.265329 121.287561L501.402280 120.205700
L501.970734 121.617189L503.107641 120.416311L503.676095 121.793313
L504.813046 122.067751L505.949954 121.292264L506.518408 122.409888
L507.655359 122.098620L508.792266 120.627218L509.929217 121.561545
L511.066125 120.060117L511.634579 121.156997L512.771530 121.118152
L513.908438 122.543151L515.045345 120.616038L516.182296 121.610600
L517.319204 121.174057L518.456155 121.931416L519.593063 120.837633
L520.161516 121.842780L521.298467 121.140466L522.435375 119.871309
L523.003829 121.299545L524.140780 121.548322L526.414595 121.025533
L527.551546 121.339452L527.551546 121.339452"/>
</g>
<g id="matplotlib.axis1">
<g id="xtick1">
<g id="line2d2">
<path style="fill: none; stroke: #000000; stroke-width: 0.500000; stroke-linejoin: round; stroke-linecap: butt; stroke-dasharray: 1.000000,3.000000; stroke-dashoffset: 0.000000; opacity: 1.000000" clip-path="url(#pf34400005520f91ba751e2ebaafc2670)" d="M73.350000 205.298182L73.350000 44.280000"/>
</g>
<g id="line2d3">
<defs><path id="m30e32995789d870ad79a2e54c91cf9c6" d="M0.000000 0.000000L0.000000 -4.000000"/></defs>
<g ><use style="fill: none; stroke: #000000; stroke-width: 0.500000; stroke-linejoin: round; stroke-linecap: butt;  opacity: 1.000000" xlink:href="#m30e32995789d870ad79a2e54c91cf9c6" x="73.350000" y="205.298182"/>
</g></g>
<g id="line2d4">
<defs><path id="m9281cae24120827b11d5ea8a7ad3e96b" d="M0.000000 0.000000L0.000000 4.000000"/></defs>
<g ><use style="fill: none; stroke: #000000; stroke-width: 0.500000; stroke-linejoin: round; stroke-linecap: butt;  opacity: 1.000000" xlink:href="#m9281cae24120827b11d5ea8a7ad3e96b" x="73.350000" y="44.280000"/>
</g></g>
<g id="text1">
<defs>
<path id="c_7a2040fe3b94fcd41d0a72c84e93b115" d="M31.781250 -66.406250q-7.609375 0.000000 -11.453125 7.500000q-3.828125 7.484375 -3.828125 22.531250q0.000000 14.984375 3.828125 22.484375q3.843750 7.500000 11.453125 7.500000q7.671875 0.000000 11.500000 -7.500000q3.843750 -7.500000 3.843750 -22.484375q0.000000 -15.046875 -3.843750 -22.531250q-3.828125 -7.500000 -11.500000 -7.500000M31.781250 -74.218750q12.265625 0.000000 18.734375 9.703125q6.468750 9.687500 6.468750 28.140625q0.000000 18.406250 -6.468750 28.109375q-6.468750 9.687500 -18.734375 9.687500q-12.250000 0.000000 -18.718750 -9.687500q-6.468750 -9.703125 -6.468750 -28.109375q0.000000 -18.453125 6.468750 -28.140625q6.468750 -9.703125 18.718750 -9.703125"/>
</defs>
<g style="fill: #000000; opacity: 1.000000" transform="translate(70.326563,218.204432)scale(0.120000)">
<use xlink:href="#c_7a2040fe3b94fcd41d0a72c84e93b115"/>
</g>
</g>
</g>
<g id="xtick2">
<g id="line2d5">
<path style="fill: none; stroke: #000000; stroke-width: 0.500000; stroke-linejoin: round; stroke-linecap: butt; stroke-dasharray: 1.000000,3.000000; stroke-dashoffset: 0.000000; opacity: 1.000000" clip-path="url(#pf34400005520f91ba751e2ebaafc2670)" d="M130.196250 205.298182L130.196250 44.280000"/>
</g>
<g id="line2d6">
<g ><use style="fill: none; stroke: #000000; stroke-width: 0.500000; stroke-linejoin: round; stroke-linecap: butt;  opacity: 1.000000" xlink:href="#m30e32995789d870ad79a2e54c91cf9c6" x="130.196250" y="205.298182"/>
</g></g>
<g id="line2d7">
<g ><use style="fill: none; stroke: #000000; stroke-width: 0.500000; stroke-linejoin: round; stroke-linecap: butt;  opacity: 1.000000" xlink:href="#m9281cae24120827b11d5ea8a7ad3e96b" x="130.196250" y="44.280000"/>
</g></g>
<g id="text2">
<defs>
<path id="c_1260a2df50f305f3db244e29828f968e" d="M10.796875 -72.906250l38.718750 0.000000l0.000000 8.312500l-29.687500 0.000000l0.000000 17.859375q2.140625 -0.734375 4.281250 -1.093750q2.156250 -0.359375 4.312500 -0.359375q12.203125 0.000000 19.328125 6.687500q7.140625 6.687500 7.140625 18.109375q0.000000 11.765625 -7.328125 18.296875q-7.328125 6.515625 -20.656250 6.515625q-4.593750 0.000000 -9.359375 -0.781250q-4.750000 -0.781250 -9.828125 -2.343750l0.000000 -9.921875q4.390625 2.390625 9.078125 3.562500q4.687500 1.171875 9.906250 1.171875q8.453125 0.000000 13.375000 -4.437500q4.937500 -4.437500 4.937500 -12.062500q0.000000 -7.609375 -4.937500 -12.046875q-4.921875 -4.453125 -13.375000 -4.453125q-3.953125 0.000000 -7.890625 0.875000q-3.921875 0.875000 -8.015625 2.734375z"/>
</defs>
<g style="fill: #000000; opacity: 1.000000" transform="translate(127.360313,218.048182)scale(0.120000)">
<use xlink:href="#c_1260a2df50f305f3db244e29828f968e"/>
</g>
</g>
</g>
<g id="xtick3">
<g id="line2d8">
<path style="fill: none; stroke: #000000; stroke-width: 0.500000; stroke-linejoin: round; stroke-linecap: butt; stroke-dasharray: 1.000000,3.000000; stroke-dashoffset: 0.000000; opacity: 1.000000" clip-path="url(#pf34400005520f91ba751e2ebaafc2670)" d="M187.042500 205.298182L187.042500 44.280000"/>
</g>
<g id="line2d9">
<g ><use style="fill: none; stroke: #000000; stroke-width: 0.500000; stroke-linejoin: round; stroke-linecap: butt;  opacity: 1.000000" xlink:href="#m30e32995789d870ad79a2e54c91cf9c6" x="187.042500" y="205.298182"/>
</g></g>
<g id="line2d10">
<g ><use style="fill: none; stroke: #000000; stroke-width: 0.500000; stroke-linejoin: round; stroke-linecap: butt;  opacity: 1.000000" xlink:href="#m9281cae24120827b11d5ea8a7ad3e96b" x="187.042500" y="44.280000"/>
</g></g>
<g id="text3">
<defs>
<path id="c_42baa63129a918535c52adb20d687ea7" d="M12.406250 -8.296875l16.109375 0.000000l0.000000 -55.625000l-17.531250 3.515625l0.000000 -8.984375l17.437500 -3.515625l9.859375 0.000000l0.000000 64.609375l16.109375 0.000000l0.000000 8.296875l-41.984375 0.000000z"/>
</defs>
<g style="fill: #000000; opacity: 1.000000" transform="translate(180.456563,218.204432)scale(0.120000)">
<use xlink:href="#c_42baa63129a918535c52adb20d687ea7"/>
<use xlink:href="#c_7a2040fe3b94fcd41d0a72c84e93b115" x="63.623047"/>
</g>
</g>
</g>
<g id="xtick4">
<g id="line2d11">
<path style="fill: none; stroke: #000000; stroke-width: 0.500000; stroke-linejoin: round; stroke-linecap: butt; stroke-dasharray: 1.000000,3.000000; stroke-dashoffset: 0.000000; opacity: 1.000000" clip-path="url(#pf34400005520f91ba751e2ebaafc2670)" d="M243.888750 205.298182L243.888750 44.280000"/>
</g>
<g id="line2d12">
<g ><use style="fill: none; stroke: #000000; stroke-width: 0.500000; stroke-linejoin: round; stroke-linecap: butt;  opacity: 1.000000" xlink:href="#m30e32995789d870ad79a2e54c91cf9c6" x="243.888750" y="205.298182"/>
</g></g>
<g id="line2d13">
<g ><use style="fill: none; stroke: #000000; stroke-width: 0.500000; stroke-linejoin: round; stroke-linecap: butt;  opacity: 1.000000" xlink:href="#m9281cae24120827b11d5ea8a7ad3e96b" x="243.888750" y="44.280000"/>
</g></g>
<g id="text4">
<g style="fill: #000000; opacity: 1.000000" transform="translate(237.427813,218.048182)scale(0.120000)">
<use xlink:href="#c_42baa63129a918535c52adb20d687ea7"/>
<use xlink:href="#c_1260a2df50f305f3db244e29828f968e" x="63.623047"/>
</g>
</g>
</g>
<g id="xtick5">
<g id="line2d14">
<path style="fill: none; stroke: #000000; stroke-width: 0.500000; stroke-linejoin: round; stroke-linecap: butt; stroke-dasharray: 1.000000,3.000000; stroke-dashoffset: 0.000000; opacity: 1.000000" clip-path="url(#pf34400005520f91ba751e2ebaafc2670)" d="M300.735000 205.298182L300.735000 44.280000"/>
</g>
<g id="line2d15">
<g ><use style="fill: none; stroke: #000000; stroke-width: 0.500000; stroke-linejoin: round; stroke-linecap: butt;  opacity: 1.000000" xlink:href="#m30e32995789d870ad79a2e54c91cf9c6" x="300.735000" y="205.298182"/>
</g></g>
<g id="line2d16">
<g ><use style="fill: none; stroke: #000000; stroke-width: 0.500000; stroke-linejoin: round; stroke-linecap: butt;  opacity: 1.000000" xlink:href="#m9281cae24120827b11d5ea8a7ad3e96b" x="300.735000" y="44.280000"/>
</g></g>
<g id="text5">
<defs>
<path id="c_ed3f3ed3ebfbd18bcb9c012009a68ad1" d="M19.187500 -8.296875l34.421875 0.000000l0.000000 8.296875l-46.281250 0.000000l0.000000 -8.296875q5.609375 -5.812500 15.296875 -15.593750q9.703125 -9.796875 12.187500 -12.640625q4.734375 -5.312500 6.609375 -9.000000q1.890625 -3.687500 1.890625 -7.250000q0.000000 -5.812500 -4.078125 -9.468750q-4.078125 -3.671875 -10.625000 -3.671875q-4.640625 0.000000 -9.796875 1.609375q-5.140625 1.609375 -11.000000 4.890625l0.000000 -9.968750q5.953125 -2.390625 11.125000 -3.609375q5.187500 -1.218750 9.484375 -1.218750q11.328125 0.000000 18.062500 5.671875q6.734375 5.656250 6.734375 15.125000q0.000000 4.500000 -1.687500 8.531250q-1.671875 4.015625 -6.125000 9.484375q-1.218750 1.421875 -7.765625 8.187500q-6.531250 6.765625 -18.453125 18.921875"/>
</defs>
<g style="fill: #000000; opacity: 1.000000" transform="translate(293.930313,218.204432)scale(0.120000)">
<use xlink:href="#c_ed3f3ed3ebfbd18bcb9c012009a68ad1"/>
<use xlink:href="#c_7a2040fe3b94fcd41d0a72c84e93b115" x="63.623047"/>
</g>
</g>
</g>
<g id="xtick6">
<g id="line2d17">
<path style="fill: none; stroke: #000000; stroke-width: 0.500000; stroke-linejoin: round; stroke-linecap: butt; stroke-dasharray: 1.000000,3.000000; stroke-dashoffset: 0.000000; opacity: 1.000000" clip-path="url(#pf34400005520f91ba751e2ebaafc2670)" d="M357.581250 205.298182L357.581250 44.280000"/>
</g>
<g id="line2d18">
<g ><use style="fill: none; stroke: #000000; stroke-width: 0.500000; stroke-linejoin: round; stroke-linecap: butt;  opacity: 1.000000" xlink:href="#m30e32995789d870ad79a2e54c91cf9c6" x="357.581250" y="205.298182"/>
</g></g>
<g id="line2d19">
<g ><use style="fill: none; stroke: #000000; stroke-width: 0.500000; stroke-linejoin: round; stroke-linecap: butt;  opacity: 1.000000" xlink:href="#m9281cae24120827b11d5ea8a7ad3e96b" x="357.581250" y="44.280000"/>
</g></g>
<g id="text6">
<g style="fill: #000000; opacity: 1.000000" transform="translate(350.901563,218.204432)scale(0.120000)">
<use xlink:href="#c_ed3f3ed3ebfbd18bcb9c012009a68ad1"/>
<use xlink:href="#c_1260a2df50f305f3db244e29828f968e" x="63.623047"/>
</g>
</g>
</g>
<g id="xtick7">
<g id="line2d20">
<path style="fill: none; stroke: #000000; stroke-width: 0.500000; stroke-linejoin: round; stroke-linecap: butt; stroke-dasharray: 1.000000,3.000000; stroke-dashoffset: 0.000000; opacity: 1.000000" clip-path="url(#pf34400005520f91ba751e2ebaafc2670)" d="M414.427500 205.298182L414.427500 44.280000"/>
</g>
<g id="line2d21">
<g ><use style="fill: none; stroke: #000000; stroke-width: 0.500000; stroke-linejoin: round; stroke-linecap: butt;  opacity: 1.000000" xlink:href="#m30e32995789d870ad79a2e54c91cf9c6" x="414.427500" y="205.298182"/>
</g></g>
<g id="line2d22">
<g ><use style="fill: none; stroke: #000000; stroke-width: 0.500000; stroke-linejoin: round; stroke-linecap: butt;  opacity: 1.000000" xlink:href="#m9281cae24120827b11d5ea8a7ad3e96b" x="414.427500" y="44.280000"/>
</g></g>
<g id="text7">
<defs>
<path id="c_3dcfa38a02242cb63ec6726c6e70be7a" d="M40.578125 -39.312500q7.078125 1.515625 11.046875 6.312500q3.984375 4.781250 3.984375 11.812500q0.000000 10.781250 -7.421875 16.703125q-7.421875 5.906250 -21.093750 5.906250q-4.578125 0.000000 -9.437500 -0.906250q-4.859375 -0.906250 -10.031250 -2.718750l0.000000 -9.515625q4.093750 2.390625 8.968750 3.609375q4.890625 1.218750 10.218750 1.218750q9.265625 0.000000 14.125000 -3.656250q4.859375 -3.656250 4.859375 -10.640625q0.000000 -6.453125 -4.515625 -10.078125q-4.515625 -3.640625 -12.562500 -3.640625l-8.500000 0.000000l0.000000 -8.109375l8.890625 0.000000q7.265625 0.000000 11.125000 -2.906250q3.859375 -2.906250 3.859375 -8.375000q0.000000 -5.609375 -3.984375 -8.609375q-3.968750 -3.015625 -11.390625 -3.015625q-4.062500 0.000000 -8.703125 0.890625q-4.640625 0.875000 -10.203125 2.718750l0.000000 -8.781250q5.625000 -1.562500 10.531250 -2.343750q4.906250 -0.781250 9.250000 -0.781250q11.234375 0.000000 17.765625 5.109375q6.546875 5.093750 6.546875 13.781250q0.000000 6.062500 -3.468750 10.234375q-3.468750 4.171875 -9.859375 5.781250"/>
</defs>
<g style="fill: #000000; opacity: 1.000000" transform="translate(407.646250,218.204432)scale(0.120000)">
<use xlink:href="#c_3dcfa38a02242cb63ec6726c6e70be7a"/>
<use xlink:href="#c_7a2040fe3b94fcd41d0a72c84e93b115" x="63.623047"/>
</g>
</g>
</g>
<g id="xtick8">
<g id="line2d23">
<path style="fill: none; stroke: #000000; stroke-width: 0.500000; stroke-linejoin: round; stroke-linecap: butt; stroke-dasharray: 1.000000,3.000000; stroke-dashoffset: 0.000000; opacity: 1.000000" clip-path="url(#pf34400005520f91ba751e2ebaafc2670)" d="M471.273750 205.298182L471.273750 44.280000"/>
</g>
<g id="line2d24">
<g ><use style="fill: none; stroke: #000000; stroke-width: 0.500000; stroke-linejoin: round; stroke-linecap: butt;  opacity: 1.000000" xlink:href="#m30e32995789d870ad79a2e54c91cf9c6" x="471.273750" y="205.298182"/>
</g></g>
<g id="line2d25">
<g ><use style="fill: none; stroke: #000000; stroke-width: 0.500000; stroke-linejoin: round; stroke-linecap: butt;  opacity: 1.000000" xlink:href="#m9281cae24120827b11d5ea8a7ad3e96b" x="471.273750" y="44.280000"/>
</g></g>
<g id="text8">
<g style="fill: #000000; opacity: 1.000000" transform="translate(464.617500,218.204432)scale(0.120000)">
<use xlink:href="#c_3dcfa38a02242cb63ec6726c6e70be7a"/>
<use xlink:href="#c_1260a2df50f305f3db244e29828f968e" x="63.623047"/>
</g>
</g>
</g>
<g id="xtick9">
<g id="line2d26">
<path style="fill: none; stroke: #000000; stroke-width: 0.500000; stroke-linejoin: round; stroke-linecap: butt; stroke-dasharray: 1.000000,3.000000; stroke-dashoffset: 0.000000; opacity: 1.000000" clip-path="url(#pf34400005520f91ba751e2ebaafc2670)" d="M528.120000 205.298182L528.120000 44.280000"/>
</g>
<g id="line2d27">
<g ><use style="fill: none; stroke: #000000; stroke-width: 0.500000; stroke-linejoin: round; stroke-linecap: butt;  opacity: 1.000000" xlink:href="#m30e32995789d870ad79a2e54c91cf9c6" x="528.120000" y="205.298182"/>
</g></g>
<g id="line2d28">
<g ><use style="fill: none; stroke: #000000; stroke-width: 0.500000; stroke-linejoin: round; stroke-linecap: butt;  opacity: 1.000000" xlink:href="#m9281cae24120827b11d5ea8a7ad3e96b" x="528.120000" y="44.280000"/>
</g></g>
<g id="text9">
<defs>
<path id="c_a0416418d96557a09b8c1332d34883ba" d="M37.796875 -64.312500l-24.906250 38.921875l24.906250 0.000000zM35.203125 -72.906250l12.406250 0.000000l0.000000 47.515625l10.406250 0.000000l0.000000 8.203125l-10.406250 0.000000l0.000000 17.187500l-9.812500 0.000000l0.000000 -17.187500l-32.906250 0.000000l0.000000 -9.515625z"/>
</defs>
<g style="fill: #000000; opacity: 1.000000" transform="translate(521.174688,218.204432)scale(0.120000)">
<use xlink:href="#c_a0416418d96557a09b8c1332d34883ba"/>
<use xlink:href="#c_7a2040fe3b94fcd41d0a72c84e93b115" x="63.623047"/>
</g>
</g>
</g>
</g>
<g id="matplotlib.axis2">
<g id="ytick1">
<g id="line2d29">
<path style="fill: none; stroke: #000000; stroke-width: 0.500000; stroke-linejoin: round; stroke-linecap: butt; stroke-dasharray: 1.000000,3.000000; stroke-dashoffset: 0.000000; opacity: 1.000000" clip-path="url(#pf34400005520f91ba751e2ebaafc2670)" d="M73.350000 205.298182L528.120000 205.298182"/>
</g>
<g id="line2d30">
<defs><path id="m3400efa6b1638b3fea9e19e898273957" d="M0.000000 0.000000L4.000000 0.000000"/></defs>
<g ><use style="fill: none; stroke: #000000; stroke-width: 0.500000; stroke-linejoin: round; stroke-linecap: butt;  opacity: 1.000000" xlink:href="#m3400efa6b1638b3fea9e19e898273957" x="73.350000" y="205.298182"/>
</g></g>
<g id="line2d31">
<defs><path id="m20b58b2501143cb5e0a5e8f1ef6f1643" d="M0.000000 0.000000L-4.000000 0.000000"/></defs>
<g ><use style="fill: none; stroke: #000000; stroke-width: 0.500000; stroke-linejoin: round; stroke-linecap: butt;  opacity: 1.000000" xlink:href="#m20b58b2501143cb5e0a5e8f1ef6f1643" x="528.120000" y="205.298182"/>
</g></g>
<g id="text10">
<g style="fill: #000000; opacity: 1.000000" transform="translate(63.303125,209.665369)scale(0.120000)">
<use xlink:href="#c_7a2040fe3b94fcd41d0a72c84e93b115"/>
</g>
</g>
</g>
<g id="ytick2">
<g id="line2d32">
<path style="fill: none; stroke: #000000; stroke-width: 0.500000; stroke-linejoin: round; stroke-linecap: butt; stroke-dasharray: 1.000000,3.000000; stroke-dashoffset: 0.000000; opacity: 1.000000" clip-path="url(#pf34400005520f91ba751e2ebaafc2670)" d="M73.350000 178.461818L528.120000 178.461818"/>
</g>
<g id="line2d33">
<g ><use style="fill: none; stroke: #000000; stroke-width: 0.500000; stroke-linejoin: round; stroke-linecap: butt;  opacity: 1.000000" xlink:href="#m3400efa6b1638b3fea9e19e898273957" x="73.350000" y="178.461818"/>
</g></g>
<g id="line2d34">
<g ><use style="fill: none; stroke: #000000; stroke-width: 0.500000; stroke-linejoin: round; stroke-linecap: butt;  opacity: 1.000000" xlink:href="#m20b58b2501143cb5e0a5e8f1ef6f1643" x="528.120000" y="178.461818"/>
</g></g>
<g id="text11">
<g style="fill: #000000; opacity: 1.000000" transform="translate(64.131250,182.836818)scale(0.120000)">
<use xlink:href="#c_42baa63129a918535c52adb20d687ea7"/>
</g>
</g>
</g>
<g id="ytick3">
<g id="line2d35">
<path style="fill: none; stroke: #000000; stroke-width: 0.500000; stroke-linejoin: round; stroke-linecap: butt; stroke-dasharray: 1.000000,3.000000; stroke-dashoffset: 0.000000; opacity: 1.000000" clip-path="url(#pf34400005520f91ba751e2ebaafc2670)" d="M73.350000 151.625455L528.120000 151.625455"/>
</g>
<g id="line2d36">
<g ><use style="fill: none; stroke: #000000; stroke-width: 0.500000; stroke-linejoin: round; stroke-linecap: butt;  opacity: 1.000000" xlink:href="#m3400efa6b1638b3fea9e19e898273957" x="73.350000" y="151.625455"/>
</g></g>
<g id="line2d37">
<g ><use style="fill: none; stroke: #000000; stroke-width: 0.500000; stroke-linejoin: round; stroke-linecap: butt;  opacity: 1.000000" xlink:href="#m20b58b2501143cb5e0a5e8f1ef6f1643" x="528.120000" y="151.625455"/>
</g></g>
<g id="text12">
<g style="fill: #000000; opacity: 1.000000" transform="translate(63.787500,156.078580)scale(0.120000)">
<use xlink:href="#c_ed3f3ed3ebfbd18bcb9c012009a68ad1"/>
</g>
</g>
</g>
<g id="ytick4">
<g id="line2d38">
<path style="fill: none; stroke: #000000; stroke-width: 0.500000; stroke-linejoin: round; stroke-linecap: butt; stroke-dasharray: 1.000000,3.000000; stroke-dashoffset: 0.000000; opacity: 1.000000" clip-path="url(#pf34400005520f91ba751e2ebaafc2670)" d="M73.350000 124.789091L528.120000 124.789091"/>
</g>
<g id="line2d39">
<g ><use style="fill: none; stroke: #000000; stroke-width: 0.500000; stroke-linejoin: round; stroke-linecap: butt;  opacity: 1.000000" xlink:href="#m3400efa6b1638b3fea9e19e898273957" x="73.350000" y="124.789091"/>
</g></g>
<g id="line2d40">
<g ><use style="fill: none; stroke: #000000; stroke-width: 0.500000; stroke-linejoin: round; stroke-linecap: butt;  opacity: 1.000000" xlink:href="#m20b58b2501143cb5e0a5e8f1ef6f1643" x="528.120000" y="124.789091"/>
</g></g>
<g id="text13">
<g style="fill: #000000; opacity: 1.000000" transform="translate(63.600000,129.156278)scale(0.120000)">
<use xlink:href="#c_3dcfa38a02242cb63ec6726c6e70be7a"/>
</g>
</g>
</g>
<g id="ytick5">
<g id="line2d41">
<path style="fill: none; stroke: #000000; stroke-width: 0.500000; stroke-linejoin: round; stroke-linecap: butt; stroke-dasharray: 1.000000,3.000000; stroke-dashoffset: 0.000000; opacity: 1.000000" clip-path="url(#pf34400005520f91ba751e2ebaafc2670)" d="M73.350000 97.952727L528.120000 97.952727"/>
</g>
<g id="line2d42">
<g ><use style="fill: none; stroke: #000000; stroke-width: 0.500000; stroke-linejoin: round; stroke-linecap: butt;  opacity: 1.000000" xlink:href="#m3400efa6b1638b3fea9e19e898273957" x="73.350000" y="97.952727"/>
</g></g>
<g id="line2d43">
<g ><use style="fill: none; stroke: #000000; stroke-width: 0.500000; stroke-linejoin: round; stroke-linecap: butt;  opacity: 1.000000" xlink:href="#m20b58b2501143cb5e0a5e8f1ef6f1643" x="528.120000" y="97.952727"/>
</g></g>
<g id="text14">
<g style="fill: #000000; opacity: 1.000000" transform="translate(62.975000,102.327727)scale(0.120000)">
<use xlink:href="#c_a0416418d96557a09b8c1332d34883ba"/>
</g>
</g>
</g>
<g id="ytick6">
<g id="line2d44">
<path style="fill: none; stroke: #000000; stroke-width: 0.500000; stroke-linejoin: round; stroke-linecap: butt; stroke-dasharray: 1.000000,3.000000; stroke-dashoffset: 0.000000; opacity: 1.000000" clip-path="url(#pf34400005520f91ba751e2ebaafc2670)" d="M73.350000 71.116364L528.120000 71.116364"/>
</g>
<g id="line2d45">
<g ><use style="fill: none; stroke: #000000; stroke-width: 0.500000; stroke-linejoin: round; stroke-linecap: butt;  opacity: 1.000000" xlink:href="#m3400efa6b1638b3fea9e19e898273957" x="73.350000" y="71.116364"/>
</g></g>
<g id="line2d46">
<g ><use style="fill: none; stroke: #000000; stroke-width: 0.500000; stroke-linejoin: round; stroke-linecap: butt;  opacity: 1.000000" xlink:href="#m20b58b2501143cb5e0a5e8f1ef6f1643" x="528.120000" y="71.116364"/>
</g></g>
<g id="text15">
<g style="fill: #000000; opacity: 1.000000" transform="translate(63.678125,75.405426)scale(0.120000)">
<use xlink:href="#c_1260a2df50f305f3db244e29828f968e"/>
</g>
</g>
</g>
<g id="ytick7">
<g id="line2d47">
<path style="fill: none; stroke: #000000; stroke-width: 0.500000; stroke-linejoin: round; stroke-linecap: butt; stroke-dasharray: 1.000000,3.000000; stroke-dashoffset: 0.000000; opacity: 1.000000" clip-path="url(#pf34400005520f91ba751e2ebaafc2670)" d="M73.350000 44.280000L528.120000 44.280000"/>
</g>
<g id="line2d48">
<g ><use style="fill: none; stroke: #000000; stroke-width: 0.500000; stroke-linejoin: round; stroke-linecap: butt;  opacity: 1.000000" xlink:href="#m3400efa6b1638b3fea9e19e898273957" x="73.350000" y="44.280000"/>
</g></g>
<g id="line2d49">
<g ><use style="fill: none; stroke: #000000; stroke-width: 0.500000; stroke-linejoin: round; stroke-linecap: butt;  opacity: 1.000000" xlink:href="#m20b58b2501143cb5e0a5e8f1ef6f1643" x="528.120000" y="44.280000"/>
</g></g>
<g id="text16">
<defs>
<path id="c_cc8d6d580d1b10c8632f7a42cd53db8a" d="M33.015625 -40.375000q-6.640625 0.000000 -10.531250 4.546875q-3.875000 4.531250 -3.875000 12.437500q0.000000 7.859375 3.875000 12.437500q3.890625 4.562500 10.531250 4.562500q6.640625 0.000000 10.515625 -4.562500q3.875000 -4.578125 3.875000 -12.437500q0.000000 -7.906250 -3.875000 -12.437500q-3.875000 -4.546875 -10.515625 -4.546875M52.593750 -71.296875l0.000000 8.984375q-3.718750 -1.750000 -7.500000 -2.671875q-3.781250 -0.937500 -7.500000 -0.937500q-9.765625 0.000000 -14.921875 6.593750q-5.140625 6.593750 -5.875000 19.921875q2.875000 -4.250000 7.218750 -6.515625q4.359375 -2.265625 9.578125 -2.265625q10.984375 0.000000 17.359375 6.671875q6.375000 6.656250 6.375000 18.125000q0.000000 11.234375 -6.640625 18.031250q-6.640625 6.781250 -17.671875 6.781250q-12.656250 0.000000 -19.343750 -9.687500q-6.687500 -9.703125 -6.687500 -28.109375q0.000000 -17.281250 8.203125 -27.562500q8.203125 -10.281250 22.015625 -10.281250q3.718750 0.000000 7.500000 0.734375q3.781250 0.734375 7.890625 2.187500"/>
</defs>
<g style="fill: #000000; opacity: 1.000000" transform="translate(63.318750,48.647187)scale(0.120000)">
<use xlink:href="#c_cc8d6d580d1b10c8632f7a42cd53db8a"/>
</g>
</g>
</g>
</g>
<g id="patch3">
<path style="fill: none; stroke: #000000; stroke-width: 1.000000; stroke-linejoin: round; stroke-linecap: square;  opacity: 1.000000"  d="M73.350000 44.280000L528.120000 44.280000"/>
</g>
<g id="patch4">
<path style="fill: none; stroke: #000000; stroke-width: 1.000000; stroke-linejoin: round; stroke-linecap: square;  opacity: 1.000000"  d="M528.120000 205.298182L528.120000 44.280000"/>
</g>
<g id="patch5">
<path style="fill: none; stroke: #000000; stroke-width: 1.000000; stroke-linejoin: round; stroke-linecap: square;  opacity: 1.000000"  d="M73.350000 205.298182L528.120000 205.298182"/>
</g>
<g id="patch6">
<path style="fill: none; stroke: #000000; stroke-width: 1.000000; stroke-linejoin: round; stroke-linecap: square;  opacity: 1.000000"  d="M73.350000 205.298182L73.350000 44.280000"/>
</g>
<g id="text17">
<defs>
<path id="c_0f8c41144cfbf448378cb6fd1cc8e549" d="M18.312500 -70.218750l0.000000 15.531250l18.500000 0.000000l0.000000 6.984375l-18.500000 0.000000l0.000000 29.687500q0.000000 6.687500 1.828125 8.593750q1.828125 1.906250 7.453125 1.906250l9.218750 0.000000l0.000000 7.515625l-9.218750 0.000000q-10.406250 0.000000 -14.359375 -3.875000q-3.953125 -3.890625 -3.953125 -14.140625l0.000000 -29.687500l-6.593750 0.000000l0.000000 -6.984375l6.593750 0.000000l0.000000 -15.531250z"/>
<path id="c_74d54c94aa871ec39e2bc6697dde6c00" d="M54.890625 -33.015625l0.000000 33.015625l-8.984375 0.000000l0.000000 -32.718750q0.000000 -7.765625 -3.031250 -11.609375q-3.031250 -3.859375 -9.078125 -3.859375q-7.281250 0.000000 -11.484375 4.640625q-4.203125 4.625000 -4.203125 12.640625l0.000000 30.906250l-9.031250 0.000000l0.000000 -75.984375l9.031250 0.000000l0.000000 29.796875q3.234375 -4.937500 7.593750 -7.375000q4.375000 -2.437500 10.093750 -2.437500q9.421875 0.000000 14.250000 5.828125q4.843750 5.828125 4.843750 17.156250"/>
<path id="c_0bce5afba2dc6b9024b26277c38ad8e8" d="M56.203125 -29.593750l0.000000 4.390625l-41.312500 0.000000q0.593750 9.281250 5.593750 14.140625q5.000000 4.859375 13.937500 4.859375q5.171875 0.000000 10.031250 -1.265625q4.859375 -1.265625 9.656250 -3.812500l0.000000 8.500000q-4.843750 2.046875 -9.921875 3.125000q-5.078125 1.078125 -10.296875 1.078125q-13.093750 0.000000 -20.734375 -7.609375q-7.640625 -7.625000 -7.640625 -20.625000q0.000000 -13.421875 7.250000 -21.296875q7.250000 -7.890625 19.562500 -7.890625q11.031250 0.000000 17.453125 7.109375q6.421875 7.093750 6.421875 19.296875M47.218750 -32.234375q-0.093750 -7.359375 -4.125000 -11.750000q-4.031250 -4.406250 -10.671875 -4.406250q-7.515625 0.000000 -12.031250 4.250000q-4.515625 4.250000 -5.203125 11.968750z"/>
<path id="c_01d93a582460e35a7945ca50d148ffeb" d="M34.281250 -27.484375q-10.890625 0.000000 -15.093750 2.484375q-4.203125 2.484375 -4.203125 8.500000q0.000000 4.781250 3.156250 7.593750q3.156250 2.796875 8.562500 2.796875q7.484375 0.000000 12.000000 -5.296875q4.515625 -5.296875 4.515625 -14.078125l0.000000 -2.000000zM52.203125 -31.203125l0.000000 31.203125l-8.984375 0.000000l0.000000 -8.296875q-3.078125 4.968750 -7.671875 7.343750q-4.593750 2.375000 -11.234375 2.375000q-8.390625 0.000000 -13.359375 -4.718750q-4.953125 -4.718750 -4.953125 -12.625000q0.000000 -9.218750 6.171875 -13.906250q6.187500 -4.687500 18.437500 -4.687500l12.609375 0.000000l0.000000 -0.890625q0.000000 -6.203125 -4.078125 -9.593750q-4.078125 -3.390625 -11.453125 -3.390625q-4.687500 0.000000 -9.140625 1.125000q-4.437500 1.125000 -8.531250 3.375000l0.000000 -8.312500q4.921875 -1.906250 9.562500 -2.843750q4.640625 -0.953125 9.031250 -0.953125q11.875000 0.000000 17.734375 6.156250q5.859375 6.140625 5.859375 18.640625"/>
<path id="c_d41d8cd98f00b204e9800998ecf8427e" d=""/>
<path id="c_1a1d9ef1e4ddee695bd67a282879f099" d="M8.593750 -75.984375l20.703125 0.000000l0.000000 6.984375l-11.718750 0.000000l0.000000 75.203125l11.718750 0.000000l0.000000 6.984375l-20.703125 0.000000z"/>
<path id="c_6ec8d5749226675394676a5d2a3b468b" d="M41.109375 -46.296875q-1.515625 -0.875000 -3.296875 -1.281250q-1.781250 -0.421875 -3.921875 -0.421875q-7.625000 0.000000 -11.703125 4.953125q-4.078125 4.953125 -4.078125 14.234375l0.000000 28.812500l-9.031250 0.000000l0.000000 -54.687500l9.031250 0.000000l0.000000 8.500000q2.843750 -4.984375 7.375000 -7.390625q4.546875 -2.421875 11.046875 -2.421875q0.921875 0.000000 2.046875 0.125000q1.125000 0.109375 2.484375 0.359375z"/>
<path id="c_d821beae607506e87470f334d9ff47af" d="M45.406250 -46.390625l0.000000 -29.593750l8.984375 0.000000l0.000000 75.984375l-8.984375 0.000000l0.000000 -8.203125q-2.828125 4.875000 -7.156250 7.250000q-4.312500 2.375000 -10.375000 2.375000q-9.906250 0.000000 -16.140625 -7.906250q-6.218750 -7.921875 -6.218750 -20.812500q0.000000 -12.890625 6.218750 -20.796875q6.234375 -7.906250 16.140625 -7.906250q6.062500 0.000000 10.375000 2.375000q4.328125 2.359375 7.156250 7.234375M14.796875 -27.296875q0.000000 9.906250 4.078125 15.546875q4.078125 5.640625 11.203125 5.640625q7.125000 0.000000 11.218750 -5.640625q4.109375 -5.640625 4.109375 -15.546875q0.000000 -9.906250 -4.109375 -15.546875q-4.093750 -5.640625 -11.218750 -5.640625q-7.125000 0.000000 -11.203125 5.640625q-4.078125 5.640625 -4.078125 15.546875"/>
<path id="c_5bcf09947f6bf611091602c6fea1d302" d="M30.421875 -75.984375l0.000000 89.171875l-20.703125 0.000000l0.000000 -6.984375l11.671875 0.000000l0.000000 -75.203125l-11.671875 0.000000l0.000000 -6.984375z"/>
</defs>
<g style="fill: #000000; opacity: 1.000000" transform="translate(262.508438,37.436250)scale(0.144000)">
<use xlink:href="#c_0f8c41144cfbf448378cb6fd1cc8e549"/>
<use xlink:href="#c_74d54c94aa871ec39e2bc6697dde6c00" x="39.208984"/>
<use xlink:href="#c_0bce5afba2dc6b9024b26277c38ad8e8" x="102.587891"/>
<use xlink:href="#c_0f8c41144cfbf448378cb6fd1cc8e549" x="164.111328"/>
<use xlink:href="#c_01d93a582460e35a7945ca50d148ffeb" x="203.320313"/>
<use xlink:href="#c_d41d8cd98f00b204e9800998ecf8427e" x="264.599609"/>
<use xlink:href="#c_1a1d9ef1e4ddee695bd67a282879f099" x="296.386719"/>
<use xlink:href="#c_6ec8d5749226675394676a5d2a3b468b" x="335.400391"/>
<use xlink:href="#c_01d93a582460e35a7945ca50d148ffeb" x="376.513672"/>
<use xlink:href="#c_d821beae607506e87470f334d9ff47af" x="437.792969"/>
<use xlink:href="#c_5bcf09947f6bf611091602c6fea1d302" x="501.269531"/>
</g>
</g>
<g id="legend1">
<g id="patch7">
<path style="fill: #ffffff; stroke: #000000; stroke-width: 1.000000; stroke-linejoin: round; stroke-linecap: square;  opacity: 1.000000"  d="M414.745775 65.009175L523.122000 65.009175L523.122000 49.278000
L414.745775 49.278000L414.745775 65.009175z"/>
</g>
<g id="line2d50">
<path style="fill: none; stroke: #0000ff; stroke-width: 1.000000; stroke-linejoin: round; stroke-linecap: square;  opacity: 1.000000"  d="M421.742975 57.371550L435.737375 57.371550"/>
</g>
<g id="line2d51">
</g>
<g id="text18">
<defs>
<path id="c_72234ddc5dcad8d05c893ef0371171da" d="M9.812500 -72.906250l14.703125 0.000000l18.593750 49.609375l18.703125 -49.609375l14.703125 0.000000l0.000000 72.906250l-9.625000 0.000000l0.000000 -64.015625l-18.796875 50.000000l-9.906250 0.000000l-18.796875 -50.000000l0.000000 64.015625l-9.578125 0.000000z"/>
<path id="c_8e0810ad13fe20a2a87a2619799b154d" d="M44.281250 -53.078125l0.000000 8.500000q-3.796875 -1.953125 -7.906250 -2.921875q-4.093750 -0.984375 -8.500000 -0.984375q-6.687500 0.000000 -10.031250 2.046875q-3.343750 2.046875 -3.343750 6.156250q0.000000 3.125000 2.390625 4.906250q2.390625 1.781250 9.625000 3.390625l3.078125 0.687500q9.562500 2.046875 13.593750 5.781250q4.031250 3.734375 4.031250 10.421875q0.000000 7.625000 -6.031250 12.078125q-6.031250 4.437500 -16.578125 4.437500q-4.390625 0.000000 -9.156250 -0.859375q-4.765625 -0.859375 -10.031250 -2.562500l0.000000 -9.281250q4.984375 2.593750 9.812500 3.890625q4.828125 1.281250 9.578125 1.281250q6.343750 0.000000 9.750000 -2.171875q3.421875 -2.171875 3.421875 -6.125000q0.000000 -3.656250 -2.468750 -5.609375q-2.453125 -1.953125 -10.812500 -3.765625l-3.125000 -0.734375q-8.343750 -1.750000 -12.062500 -5.390625q-3.703125 -3.640625 -3.703125 -9.984375q0.000000 -7.718750 5.468750 -11.906250q5.468750 -4.203125 15.531250 -4.203125q4.968750 0.000000 9.359375 0.734375q4.406250 0.718750 8.109375 2.187500"/>
<path id="c_c438d87e693443c2861ebd6359e6491e" d="M8.500000 -21.578125l0.000000 -33.109375l8.984375 0.000000l0.000000 32.765625q0.000000 7.765625 3.015625 11.656250q3.031250 3.875000 9.093750 3.875000q7.265625 0.000000 11.484375 -4.640625q4.234375 -4.640625 4.234375 -12.656250l0.000000 -31.000000l8.984375 0.000000l0.000000 54.687500l-8.984375 0.000000l0.000000 -8.406250q-3.265625 4.984375 -7.593750 7.406250q-4.312500 2.421875 -10.031250 2.421875q-9.421875 0.000000 -14.312500 -5.859375q-4.875000 -5.859375 -4.875000 -17.140625"/>
<path id="c_4653c6dfde66c7610eae0911760d3490" d="M52.000000 -44.187500q3.375000 -6.062500 8.062500 -8.937500q4.687500 -2.875000 11.031250 -2.875000q8.546875 0.000000 13.187500 5.984375q4.640625 5.968750 4.640625 17.000000l0.000000 33.015625l-9.031250 0.000000l0.000000 -32.718750q0.000000 -7.859375 -2.796875 -11.656250q-2.781250 -3.812500 -8.484375 -3.812500q-6.984375 0.000000 -11.046875 4.640625q-4.046875 4.625000 -4.046875 12.640625l0.000000 30.906250l-9.031250 0.000000l0.000000 -32.718750q0.000000 -7.906250 -2.781250 -11.687500q-2.781250 -3.781250 -8.593750 -3.781250q-6.890625 0.000000 -10.953125 4.656250q-4.046875 4.656250 -4.046875 12.625000l0.000000 30.906250l-9.031250 0.000000l0.000000 -54.687500l9.031250 0.000000l0.000000 8.500000q3.078125 -5.031250 7.375000 -7.421875q4.296875 -2.390625 10.203125 -2.390625q5.968750 0.000000 10.140625 3.031250q4.171875 3.015625 6.171875 8.781250"/>
<path id="c_fe791a90f5471e2ab20a5ed41a7fa451" d="M54.890625 -33.015625l0.000000 33.015625l-8.984375 0.000000l0.000000 -32.718750q0.000000 -7.765625 -3.031250 -11.609375q-3.031250 -3.859375 -9.078125 -3.859375q-7.281250 0.000000 -11.484375 4.640625q-4.203125 4.625000 -4.203125 12.640625l0.000000 30.906250l-9.031250 0.000000l0.000000 -54.687500l9.031250 0.000000l0.000000 8.500000q3.234375 -4.937500 7.593750 -7.375000q4.375000 -2.437500 10.093750 -2.437500q9.421875 0.000000 14.250000 5.828125q4.843750 5.828125 4.843750 17.156250"/>
</defs>
<g style="fill: #000000; opacity: 1.000000" transform="translate(446.732975,60.870150)scale(0.099960)">
<use xlink:href="#c_72234ddc5dcad8d05c893ef0371171da"/>
<use xlink:href="#c_0bce5afba2dc6b9024b26277c38ad8e8" x="86.279297"/>
<use xlink:href="#c_01d93a582460e35a7945ca50d148ffeb" x="147.802734"/>
<use xlink:href="#c_8e0810ad13fe20a2a87a2619799b154d" x="209.082031"/>
<use xlink:href="#c_c438d87e693443c2861ebd6359e6491e" x="261.181641"/>
<use xlink:href="#c_6ec8d5749226675394676a5d2a3b468b" x="324.560547"/>
<use xlink:href="#c_0bce5afba2dc6b9024b26277c38ad8e8" x="363.423828"/>
<use xlink:href="#c_4653c6dfde66c7610eae0911760d3490" x="424.947266"/>
<use xlink:href="#c_0bce5afba2dc6b9024b26277c38ad8e8" x="522.359375"/>
<use xlink:href="#c_fe791a90f5471e2ab20a5ed41a7fa451" x="583.882812"/>
<use xlink:href="#c_0f8c41144cfbf448378cb6fd1cc8e549" x="647.261719"/>
<use xlink:href="#c_8e0810ad13fe20a2a87a2619799b154d" x="686.470703"/>
</g>
</g>
</g>
</g>
<g id="axes2">
<g id="patch8">
<path style="fill: #ffffff; opacity: 1.000000"  d="M73.350000 398.520000L528.120000 398.520000L528.120000 237.501818
L73.350000 237.501818L73.350000 398.520000"/>
</g>
<g id="line2d52">
<defs>
  <clipPath id="p67f470e3399170486d5a0fd0e2d384a3">
<rect x="73.350000" y="237.501818" width="454.770000" height="161.018182"/>
  </clipPath>
</defs><path style="fill: none; stroke: #0000ff; stroke-width: 1.000000; stroke-linejoin: round; stroke-linecap: square;  opacity: 1.000000" clip-path="url(#p67f470e3399170486d5a0fd0e2d384a3)" d="M73.350000 251.742023L73.918463 261.138869L74.486925 250.522039
L75.055388 266.701555L75.623850 253.745348L76.192313 259.208962
L77.329237 254.458042L77.897700 257.080947L78.466162 250.194763
L79.034625 257.078321L79.603088 254.362618L81.876938 319.388663
L83.013863 371.933734L83.582325 388.022653L84.719250 380.418698
L85.287712 383.748689L86.424637 362.346314L87.561563 359.571428
L89.266950 351.276551L89.835413 364.956671L90.403875 358.848515
L90.972337 357.224802L91.540800 361.934523L92.109262 347.124385
L93.246188 364.438296L94.383113 348.519365L94.951575 338.266266
L95.520038 335.478718L96.088500 296.064732L96.656962 289.454107
L97.225424 256.297923L97.793889 257.467097L98.362351 245.766014
L98.930813 243.750826L99.499274 248.003307L100.636201 267.099896
L101.773125 274.499365L102.341587 281.118904L102.910049 277.381858
L103.478514 269.355250L104.615438 274.735045L105.752361 270.058189
L106.889288 273.163232L107.457750 267.548849L108.026212 299.017137
L109.163139 317.219574L110.868524 362.827312L111.436986 370.561815
L113.142375 355.780644L113.710837 358.302934L114.279299 346.298100
L114.847764 348.447207L115.416226 354.929907L115.984688 347.118409
L116.553149 349.011945L117.121611 355.582420L117.690076 348.542333
L118.258538 349.590769L118.827000 342.021450L120.532389 330.824126
L121.100848 320.667038L123.374701 257.440385L123.943160 266.605957
L124.511625 260.139185L126.217014 275.222540L126.785473 271.994383
L127.922402 292.126012L128.490861 278.085254L129.059326 283.470260
L130.196250 289.571521L130.764715 281.753540L131.333174 299.812399
L131.901639 285.688856L135.312410 365.720067L135.880875 364.383027
L136.449340 352.743891L137.017799 359.235594L138.723188 338.279082
L139.860111 345.198801L140.428576 343.442932L140.997035 331.159968
L141.565500 336.670303L142.133965 328.785420L142.702424 337.485135
L143.839348 316.965543L144.976277 302.811734L146.113201 267.149658
L146.681660 269.648155L147.250125 261.694431L147.818590 264.447092
L148.387049 255.917424L149.523973 265.456476L150.092438 277.401606
L150.660902 275.816758L151.797826 286.889370L152.366285 282.205470
L152.934750 285.040457L153.503215 293.623954L155.208598 299.236988
L156.345527 330.014301L156.913986 343.297722L158.619375 353.490605
L159.187840 355.279133L160.324764 353.948195L160.893223 358.696145
L162.030152 344.027499L162.598611 340.010761L163.167076 344.391795
L163.735535 340.461362L164.304000 331.560994L164.872465 337.774028
L165.440929 330.877263L166.577848 301.927761L167.146313 303.738493
L167.714777 281.816539L168.283242 278.257059L168.851696 268.213035
L169.420160 266.689134L169.988625 257.068061L170.557090 261.120837
L171.125554 279.867188L171.694008 273.784151L172.262473 272.205543
L172.830938 286.659092L173.399402 282.245080L173.967867 286.015379
L174.536321 283.675023L175.104785 293.979618L175.673250 292.761787
L178.515563 340.590940L179.652492 363.295151L180.220946 351.015696
L180.789410 349.149641L181.357875 355.096437L183.631723 342.426473
L184.200188 349.361991L184.768652 328.032396L185.337117 332.229088
L185.905571 326.394122L186.474035 316.779735L187.042500 329.962809
L188.747883 286.997093L189.316348 283.252331L189.884813 271.850717
L190.453277 276.721138L191.021742 271.030173L191.590196 272.859840
L192.158660 268.184170L193.295590 283.606652L193.864054 286.480892
L194.432508 283.122857L195.000973 291.622117L195.569438 282.286028
L197.274821 306.499872L198.411750 315.056332L198.980215 343.659555
L199.548679 333.148919L200.117133 348.253173L201.254063 344.644401
L202.390992 355.263947L202.959446 352.369283L203.527910 338.612389
L204.096375 343.803582L205.801758 331.721577L206.938688 326.730823
L207.507152 313.267167L208.075617 317.984937L208.644071 292.766040
L209.212535 288.349495L209.781000 286.654224L210.349465 280.776943
L210.917929 283.827001L211.486383 284.856426L212.054848 278.273960
L212.623313 277.076678L213.760242 287.077463L214.328696 285.696744
L214.897160 281.261444L215.465625 282.617303L216.034090 300.198001
L216.602554 290.173634L217.739473 316.354077L220.013321 332.642580
L221.150250 354.912511L221.718715 335.249021L222.287179 342.541325
L223.424098 325.301679L223.992563 336.934006L224.561027 323.931604
L225.697946 327.111620L226.266410 312.275997L226.834875 319.730997
L227.971804 299.193322L228.540258 313.772657L229.108723 281.913624
L230.814117 295.865953L231.382571 293.266689L231.951035 299.702208
L233.087965 299.139180L234.224883 287.580975L234.793348 292.122827
L235.930277 315.522132L236.498742 305.292378L237.635660 322.704080
L238.204125 314.353988L239.341054 318.057945L239.909508 325.233804
L241.046438 324.926674L242.183367 322.252870L242.751821 313.804111
L243.320285 321.377382L243.888750 317.483144L244.457215 308.575002
L245.025679 320.163606L245.594133 312.841910L246.731063 317.461647
L247.299527 324.255164L247.867992 321.125386L248.436446 308.157730
L249.573375 306.773479L250.141840 312.180574L250.710304 303.363575
L251.847223 308.500494L252.415688 300.774988L252.984152 314.049431
L254.121071 307.881145L254.689535 314.363192L255.258000 301.755231
L256.394929 309.472936L256.963383 319.626481L257.531859 309.886278
L258.100313 328.241292L258.668766 317.921976L259.237242 297.868924
L260.374171 321.229581L260.942625 310.298238L261.511079 316.578668
L262.079554 309.473089L262.648008 316.866191L263.216484 307.460869
L263.784938 308.881018L264.921867 314.879650L265.490321 311.289479
L266.058796 313.014930L266.627250 311.716629L267.195704 306.901815
L267.764179 314.534380L268.901109 310.261579L270.038016 318.222871
L270.606492 305.549473L271.743421 318.629677L272.311875 312.347944
L272.880329 311.060597L273.448804 322.947913L274.017258 317.913296
L274.585734 320.618183L275.154188 305.182443L275.722641 312.156749
L276.291117 305.655769L277.996500 315.410873L278.564954 310.234936
L279.133429 318.918657L280.838813 310.699332L281.407266 321.397978
L281.975742 319.212447L283.112671 303.865186L284.249579 314.026115
L284.818054 311.880499L285.954984 301.109981L286.523438 312.009613
L287.091891 306.579770L288.228821 315.917585L289.365750 305.973179
L289.934204 320.550894L291.071133 312.647690L291.639609 309.131418
L292.208063 316.578768L292.776516 315.105506L293.344992 308.275381
L293.913446 318.784504L294.481921 305.995387L295.618829 315.066615
L296.755758 304.672746L297.324234 309.930187L297.892688 307.005056
L298.461141 310.928012L299.598071 312.009361L300.166546 316.955351
L300.735000 315.629895L301.871929 306.313850L302.440383 314.833704
L303.008859 303.693070L303.577313 315.986511L304.145766 308.156515
L304.714242 318.649313L306.419625 310.424844L306.988079 301.574719
L307.556554 311.028211L308.125008 313.826397L308.693484 308.874645
L309.261938 318.054604L310.398867 309.225796L310.967321 313.206391
L312.672704 309.358362L313.241179 302.614061L313.809633 300.900449
L314.946563 318.952365L315.515016 309.670057L316.651946 317.222878
L317.220421 307.876883L317.788875 309.020720L318.357329 312.658533
L319.494258 316.376029L320.062734 321.495458L320.631188 320.357586
L321.199641 317.918662L322.336571 310.678874L323.473500 318.278806
L324.041954 307.861507L324.610429 309.327454L325.178883 303.810292
L325.747359 314.356927L326.315813 311.654347L326.884266 314.439100
L327.452742 307.766537L328.021196 305.777021L328.589671 308.932018
L329.158125 296.741667L329.726579 312.479042L330.295054 309.313437
L330.863508 322.175064L331.431984 314.549250L332.000438 321.754148
L332.568891 312.198029L333.137367 318.682722L333.705821 315.228817
L334.274296 316.461857L335.979679 303.297333L337.116609 314.628556
L337.685063 310.656244L338.253516 315.759517L339.958921 321.849343
L340.527375 311.969064L341.095829 308.011013L342.232758 311.662223
L343.369688 314.615954L343.938141 301.495518L345.075071 319.210064
L345.643546 313.243890L346.212000 314.675677L346.780454 312.270714
L347.348929 313.712771L347.917383 316.150138L348.485859 320.945633
L349.054313 314.031316L349.622766 319.926797L351.328171 298.900319
L351.896625 308.828882L353.033554 305.969108L353.602008 309.317219
L354.170484 304.667530L354.738938 312.617214L355.307391 310.916937
L355.875867 315.148282L357.012796 314.813058L357.581250 307.258248
L358.149704 311.245374L358.718179 321.460517L359.286633 301.810664
L359.855109 308.108019L360.423563 319.909817L361.560492 310.503899
L362.128946 315.727881L363.834329 306.071749L364.402804 319.158684
L365.539734 315.071772L367.245117 301.226113L367.813571 307.639668
L370.087429 315.913143L371.224359 304.976223L372.361266 313.111773
L373.498196 308.233330L374.066671 314.562829L374.635125 310.386123
L375.772054 308.820745L376.340508 314.924701L376.908984 304.395325
L377.477438 306.385944L378.045891 324.381638L379.182821 313.366791
L379.751296 322.418794L380.319750 303.204558L380.888204 310.366235
L381.456679 308.149108L382.025133 317.680481L383.162063 302.511057
L383.730516 307.721798L384.867446 308.380240L386.004375 317.569132
L386.572829 300.109955L387.141304 318.879580L387.709758 309.165661
L388.846688 300.492191L389.415141 313.353957L389.983617 303.738752
L390.552071 314.315130L391.689000 307.567401L392.257454 316.707808
L393.394383 302.169520L393.962859 311.142207L394.531313 297.687489
L395.099766 315.244049L395.668242 296.661081L396.236696 311.708933
L396.805171 310.160594L397.942079 322.092158L399.079008 308.460873
L399.647484 307.169169L400.215938 320.607998L400.784391 321.936092
L401.352867 313.962303L401.921321 311.377230L402.489796 298.648019
L403.058250 313.281892L404.195179 306.532060L404.763633 314.440209
L405.900563 320.165034L406.469016 305.312910L407.037492 309.014719
L407.605946 302.786876L408.174421 314.056612L409.311329 300.618912
L409.879804 308.387412L410.448258 311.522761L411.016734 320.262213
L411.585188 304.969899L412.153641 307.949622L412.722117 315.808934
L413.859046 300.162187L414.427500 309.716668L415.564429 304.705676
L416.701359 318.775044L417.269813 314.604663L417.838266 307.563126
L418.406742 316.512787L418.975196 304.256419L419.543671 310.300523
L420.680579 309.553882L421.817508 314.722564L422.954438 304.642842
L423.522891 302.844212L424.091367 315.390784L424.659821 307.285872
L425.228296 317.133229L425.796750 304.670705L426.365204 311.538483
L426.933679 310.444769L427.502133 302.423469L428.070609 322.776132
L428.639063 311.012563L429.207516 317.450114L429.775992 319.982497
L430.344446 308.197489L430.912921 313.790089L432.049829 311.167358
L432.618304 313.955256L433.755234 306.905819L434.323688 315.991067
L435.460617 308.970947L436.029071 315.926895L437.166000 308.250274
L437.734454 310.790010L438.302908 297.767112L438.871405 318.629599
L439.439859 306.125075L440.008313 307.443978L440.576766 316.094304
L441.145220 314.767401L441.713717 311.266183L442.850625 312.031826
L443.419079 319.983981L443.987533 302.480265L444.556030 314.135786
L445.124484 311.110774L445.692938 310.077828L446.261391 306.684197
L447.398342 310.301277L447.966796 319.135586L448.535250 306.414669
L449.103704 303.064808L449.672158 319.336313L450.809109 312.019605
L451.946016 316.144517L452.514470 314.649197L453.082967 311.770011
L453.651421 318.293907L454.219875 307.684196L454.788329 311.298837
L455.925280 303.053219L456.493734 315.790333L457.062188 303.297857
L457.630641 305.956138L458.199095 312.513097L458.767592 309.930698
L459.336046 303.999395L459.904500 309.861654L461.041408 309.478398
L461.609905 312.009195L462.178359 304.561816L462.746813 306.367926
L463.315266 302.375562L463.883720 313.831555L464.452217 308.585395
L465.589125 310.437077L466.157579 304.572425L466.726033 308.241790
L467.294530 317.565489L467.862984 314.017797L468.431438 315.515220
L468.999891 309.718360L469.568345 314.338602L470.136842 322.910003
L471.273750 303.835484L471.842204 313.388775L472.410658 297.116932
L472.979155 320.393782L474.684516 303.607411L475.252970 314.062033
L476.389921 304.988640L476.958375 311.398956L478.095283 305.012775
L478.663780 309.982122L479.232234 305.833927L479.800688 307.511845
L480.369141 318.701165L481.506092 308.639161L482.074546 322.125728
L482.643000 315.700178L483.211454 324.735624L483.779908 315.157614
L484.916859 310.008010L485.485313 314.753082L486.053766 328.116244
L486.622220 303.293755L487.190717 313.805078L487.759171 303.953642
L488.327625 318.881839L488.896079 306.766765L489.464533 308.711324
L490.033030 314.114509L490.601484 298.573916L491.169938 300.774156
L492.306845 311.452253L492.875342 308.716329L494.012250 314.785587
L494.580704 313.019929L495.149158 303.476099L496.286109 309.990075
L496.854563 316.004113L497.423016 314.254981L497.991470 306.962689
L499.128421 312.049991L499.696875 307.596916L500.265329 321.236601
L500.833783 305.106906L501.402280 311.943468L501.970734 313.725382
L502.539188 308.347014L503.676095 306.146571L504.813046 305.024482
L505.381500 312.957680L505.949954 315.416407L507.086905 313.026510
L507.655359 304.947918L508.223813 319.931999L509.360720 310.142091
L509.929217 307.184424L510.497671 316.874674L511.066125 312.178408
L511.634579 310.932418L512.771530 309.624011L513.908438 315.358402
L515.045345 311.532025L515.613842 304.269686L516.182296 309.381124
L516.750750 311.249668L517.319204 310.039635L518.456155 302.050196
L519.024609 310.220031L519.593063 303.510131L520.161516 309.917363
L520.729970 307.306161L521.298467 308.500912L521.866921 302.072471
L522.435375 316.653523L524.140780 306.735582L525.277688 312.704225
L525.846141 303.628319L526.414595 314.955123L527.551546 301.266259
L528.120000 309.492873L528.120000 309.492873"/>
</g>
<g id="matplotlib.axis3">
<g id="xtick10">
<g id="line2d53">
<path style="fill: none; stroke: #000000; stroke-width: 0.500000; stroke-linejoin: round; stroke-linecap: butt; stroke-dasharray: 1.000000,3.000000; stroke-dashoffset: 0.000000; opacity: 1.000000" clip-path="url(#p67f470e3399170486d5a0fd0e2d384a3)" d="M73.350000 398.520000L73.350000 237.501818"/>
</g>
<g id="line2d54">
<g ><use style="fill: none; stroke: #000000; stroke-width: 0.500000; stroke-linejoin: round; stroke-linecap: butt;  opacity: 1.000000" xlink:href="#m30e32995789d870ad79a2e54c91cf9c6" x="73.350000" y="398.520000"/>
</g></g>
<g id="line2d55">
<g ><use style="fill: none; stroke: #000000; stroke-width: 0.500000; stroke-linejoin: round; stroke-linecap: butt;  opacity: 1.000000" xlink:href="#m9281cae24120827b11d5ea8a7ad3e96b" x="73.350000" y="237.501818"/>
</g></g>
<g id="text19">
<g style="fill: #000000; opacity: 1.000000" transform="translate(70.326563,411.426250)scale(0.120000)">
<use xlink:href="#c_7a2040fe3b94fcd41d0a72c84e93b115"/>
</g>
</g>
</g>
<g id="xtick11">
<g id="line2d56">
<path style="fill: none; stroke: #000000; stroke-width: 0.500000; stroke-linejoin: round; stroke-linecap: butt; stroke-dasharray: 1.000000,3.000000; stroke-dashoffset: 0.000000; opacity: 1.000000" clip-path="url(#p67f470e3399170486d5a0fd0e2d384a3)" d="M130.196250 398.520000L130.196250 237.501818"/>
</g>
<g id="line2d57">
<g ><use style="fill: none; stroke: #000000; stroke-width: 0.500000; stroke-linejoin: round; stroke-linecap: butt;  opacity: 1.000000" xlink:href="#m30e32995789d870ad79a2e54c91cf9c6" x="130.196250" y="398.520000"/>
</g></g>
<g id="line2d58">
<g ><use style="fill: none; stroke: #000000; stroke-width: 0.500000; stroke-linejoin: round; stroke-linecap: butt;  opacity: 1.000000" xlink:href="#m9281cae24120827b11d5ea8a7ad3e96b" x="130.196250" y="237.501818"/>
</g></g>
<g id="text20">
<g style="fill: #000000; opacity: 1.000000" transform="translate(127.360313,411.270000)scale(0.120000)">
<use xlink:href="#c_1260a2df50f305f3db244e29828f968e"/>
</g>
</g>
</g>
<g id="xtick12">
<g id="line2d59">
<path style="fill: none; stroke: #000000; stroke-width: 0.500000; stroke-linejoin: round; stroke-linecap: butt; stroke-dasharray: 1.000000,3.000000; stroke-dashoffset: 0.000000; opacity: 1.000000" clip-path="url(#p67f470e3399170486d5a0fd0e2d384a3)" d="M187.042500 398.520000L187.042500 237.501818"/>
</g>
<g id="line2d60">
<g ><use style="fill: none; stroke: #000000; stroke-width: 0.500000; stroke-linejoin: round; stroke-linecap: butt;  opacity: 1.000000" xlink:href="#m30e32995789d870ad79a2e54c91cf9c6" x="187.042500" y="398.520000"/>
</g></g>
<g id="line2d61">
<g ><use style="fill: none; stroke: #000000; stroke-width: 0.500000; stroke-linejoin: round; stroke-linecap: butt;  opacity: 1.000000" xlink:href="#m9281cae24120827b11d5ea8a7ad3e96b" x="187.042500" y="237.501818"/>
</g></g>
<g id="text21">
<g style="fill: #000000; opacity: 1.000000" transform="translate(180.456563,411.426250)scale(0.120000)">
<use xlink:href="#c_42baa63129a918535c52adb20d687ea7"/>
<use xlink:href="#c_7a2040fe3b94fcd41d0a72c84e93b115" x="63.623047"/>
</g>
</g>
</g>
<g id="xtick13">
<g id="line2d62">
<path style="fill: none; stroke: #000000; stroke-width: 0.500000; stroke-linejoin: round; stroke-linecap: butt; stroke-dasharray: 1.000000,3.000000; stroke-dashoffset: 0.000000; opacity: 1.000000" clip-path="url(#p67f470e3399170486d5a0fd0e2d384a3)" d="M243.888750 398.520000L243.888750 237.501818"/>
</g>
<g id="line2d63">
<g ><use style="fill: none; stroke: #000000; stroke-width: 0.500000; stroke-linejoin: round; stroke-linecap: butt;  opacity: 1.000000" xlink:href="#m30e32995789d870ad79a2e54c91cf9c6" x="243.888750" y="398.520000"/>
</g></g>
<g id="line2d64">
<g ><use style="fill: none; stroke: #000000; stroke-width: 0.500000; stroke-linejoin: round; stroke-linecap: butt;  opacity: 1.000000" xlink:href="#m9281cae24120827b11d5ea8a7ad3e96b" x="243.888750" y="237.501818"/>
</g></g>
<g id="text22">
<g style="fill: #000000; opacity: 1.000000" transform="translate(237.427813,411.270000)scale(0.120000)">
<use xlink:href="#c_42baa63129a918535c52adb20d687ea7"/>
<use xlink:href="#c_1260a2df50f305f3db244e29828f968e" x="63.623047"/>
</g>
</g>
</g>
<g id="xtick14">
<g id="line2d65">
<path style="fill: none; stroke: #000000; stroke-width: 0.500000; stroke-linejoin: round; stroke-linecap: butt; stroke-dasharray: 1.000000,3.000000; stroke-dashoffset: 0.000000; opacity: 1.000000" clip-path="url(#p67f470e3399170486d5a0fd0e2d384a3)" d="M300.735000 398.520000L300.735000 237.501818"/>
</g>
<g id="line2d66">
<g ><use style="fill: none; stroke: #000000; stroke-width: 0.500000; stroke-linejoin: round; stroke-linecap: butt;  opacity: 1.000000" xlink:href="#m30e32995789d870ad79a2e54c91cf9c6" x="300.735000" y="398.520000"/>
</g></g>
<g id="line2d67">
<g ><use style="fill: none; stroke: #000000; stroke-width: 0.500000; stroke-linejoin: round; stroke-linecap: butt;  opacity: 1.000000" xlink:href="#m9281cae24120827b11d5ea8a7ad3e96b" x="300.735000" y="237.501818"/>
</g></g>
<g id="text23">
<g style="fill: #000000; opacity: 1.000000" transform="translate(293.930313,411.426250)scale(0.120000)">
<use xlink:href="#c_ed3f3ed3ebfbd18bcb9c012009a68ad1"/>
<use xlink:href="#c_7a2040fe3b94fcd41d0a72c84e93b115" x="63.623047"/>
</g>
</g>
</g>
<g id="xtick15">
<g id="line2d68">
<path style="fill: none; stroke: #000000; stroke-width: 0.500000; stroke-linejoin: round; stroke-linecap: butt; stroke-dasharray: 1.000000,3.000000; stroke-dashoffset: 0.000000; opacity: 1.000000" clip-path="url(#p67f470e3399170486d5a0fd0e2d384a3)" d="M357.581250 398.520000L357.581250 237.501818"/>
</g>
<g id="line2d69">
<g ><use style="fill: none; stroke: #000000; stroke-width: 0.500000; stroke-linejoin: round; stroke-linecap: butt;  opacity: 1.000000" xlink:href="#m30e32995789d870ad79a2e54c91cf9c6" x="357.581250" y="398.520000"/>
</g></g>
<g id="line2d70">
<g ><use style="fill: none; stroke: #000000; stroke-width: 0.500000; stroke-linejoin: round; stroke-linecap: butt;  opacity: 1.000000" xlink:href="#m9281cae24120827b11d5ea8a7ad3e96b" x="357.581250" y="237.501818"/>
</g></g>
<g id="text24">
<g style="fill: #000000; opacity: 1.000000" transform="translate(350.901563,411.426250)scale(0.120000)">
<use xlink:href="#c_ed3f3ed3ebfbd18bcb9c012009a68ad1"/>
<use xlink:href="#c_1260a2df50f305f3db244e29828f968e" x="63.623047"/>
</g>
</g>
</g>
<g id="xtick16">
<g id="line2d71">
<path style="fill: none; stroke: #000000; stroke-width: 0.500000; stroke-linejoin: round; stroke-linecap: butt; stroke-dasharray: 1.000000,3.000000; stroke-dashoffset: 0.000000; opacity: 1.000000" clip-path="url(#p67f470e3399170486d5a0fd0e2d384a3)" d="M414.427500 398.520000L414.427500 237.501818"/>
</g>
<g id="line2d72">
<g ><use style="fill: none; stroke: #000000; stroke-width: 0.500000; stroke-linejoin: round; stroke-linecap: butt;  opacity: 1.000000" xlink:href="#m30e32995789d870ad79a2e54c91cf9c6" x="414.427500" y="398.520000"/>
</g></g>
<g id="line2d73">
<g ><use style="fill: none; stroke: #000000; stroke-width: 0.500000; stroke-linejoin: round; stroke-linecap: butt;  opacity: 1.000000" xlink:href="#m9281cae24120827b11d5ea8a7ad3e96b" x="414.427500" y="237.501818"/>
</g></g>
<g id="text25">
<g style="fill: #000000; opacity: 1.000000" transform="translate(407.646250,411.426250)scale(0.120000)">
<use xlink:href="#c_3dcfa38a02242cb63ec6726c6e70be7a"/>
<use xlink:href="#c_7a2040fe3b94fcd41d0a72c84e93b115" x="63.623047"/>
</g>
</g>
</g>
<g id="xtick17">
<g id="line2d74">
<path style="fill: none; stroke: #000000; stroke-width: 0.500000; stroke-linejoin: round; stroke-linecap: butt; stroke-dasharray: 1.000000,3.000000; stroke-dashoffset: 0.000000; opacity: 1.000000" clip-path="url(#p67f470e3399170486d5a0fd0e2d384a3)" d="M471.273750 398.520000L471.273750 237.501818"/>
</g>
<g id="line2d75">
<g ><use style="fill: none; stroke: #000000; stroke-width: 0.500000; stroke-linejoin: round; stroke-linecap: butt;  opacity: 1.000000" xlink:href="#m30e32995789d870ad79a2e54c91cf9c6" x="471.273750" y="398.520000"/>
</g></g>
<g id="line2d76">
<g ><use style="fill: none; stroke: #000000; stroke-width: 0.500000; stroke-linejoin: round; stroke-linecap: butt;  opacity: 1.000000" xlink:href="#m9281cae24120827b11d5ea8a7ad3e96b" x="471.273750" y="237.501818"/>
</g></g>
<g id="text26">
<g style="fill: #000000; opacity: 1.000000" transform="translate(464.617500,411.426250)scale(0.120000)">
<use xlink:href="#c_3dcfa38a02242cb63ec6726c6e70be7a"/>
<use xlink:href="#c_1260a2df50f305f3db244e29828f968e" x="63.623047"/>
</g>
</g>
</g>
<g id="xtick18">
<g id="line2d77">
<path style="fill: none; stroke: #000000; stroke-width: 0.500000; stroke-linejoin: round; stroke-linecap: butt; stroke-dasharray: 1.000000,3.000000; stroke-dashoffset: 0.000000; opacity: 1.000000" clip-path="url(#p67f470e3399170486d5a0fd0e2d384a3)" d="M528.120000 398.520000L528.120000 237.501818"/>
</g>
<g id="line2d78">
<g ><use style="fill: none; stroke: #000000; stroke-width: 0.500000; stroke-linejoin: round; stroke-linecap: butt;  opacity: 1.000000" xlink:href="#m30e32995789d870ad79a2e54c91cf9c6" x="528.120000" y="398.520000"/>
</g></g>
<g id="line2d79">
<g ><use style="fill: none; stroke: #000000; stroke-width: 0.500000; stroke-linejoin: round; stroke-linecap: butt;  opacity: 1.000000" xlink:href="#m9281cae24120827b11d5ea8a7ad3e96b" x="528.120000" y="237.501818"/>
</g></g>
<g id="text27">
<g style="fill: #000000; opacity: 1.000000" transform="translate(521.174688,411.426250)scale(0.120000)">
<use xlink:href="#c_a0416418d96557a09b8c1332d34883ba"/>
<use xlink:href="#c_7a2040fe3b94fcd41d0a72c84e93b115" x="63.623047"/>
</g>
</g>
</g>
</g>
<g id="matplotlib.axis4">
<g id="ytick8">
<g id="line2d80">
<path style="fill: none; stroke: #000000; stroke-width: 0.500000; stroke-linejoin: round; stroke-linecap: butt; stroke-dasharray: 1.000000,3.000000; stroke-dashoffset: 0.000000; opacity: 1.000000" clip-path="url(#p67f470e3399170486d5a0fd0e2d384a3)" d="M73.350000 398.520000L528.120000 398.520000"/>
</g>
<g id="line2d81">
<g ><use style="fill: none; stroke: #000000; stroke-width: 0.500000; stroke-linejoin: round; stroke-linecap: butt;  opacity: 1.000000" xlink:href="#m3400efa6b1638b3fea9e19e898273957" x="73.350000" y="398.520000"/>
</g></g>
<g id="line2d82">
<g ><use style="fill: none; stroke: #000000; stroke-width: 0.500000; stroke-linejoin: round; stroke-linecap: butt;  opacity: 1.000000" xlink:href="#m20b58b2501143cb5e0a5e8f1ef6f1643" x="528.120000" y="398.520000"/>
</g></g>
<g id="text28">
<defs>
<path id="c_6a8d56c819c37117ab4cf023bec22a5a" d="M10.593750 -35.500000l62.593750 0.000000l0.000000 8.296875l-62.593750 0.000000z"/>
<path id="c_ed3e21196fb739f392806f09ca0594ef" d="M10.687500 -12.406250l10.312500 0.000000l0.000000 12.406250l-10.312500 0.000000z"/>
<path id="c_bef35738d52871942e50b9de9b122bab" d="M31.781250 -34.625000q-7.031250 0.000000 -11.062500 3.765625q-4.015625 3.765625 -4.015625 10.343750q0.000000 6.593750 4.015625 10.359375q4.031250 3.765625 11.062500 3.765625q7.031250 0.000000 11.078125 -3.781250q4.062500 -3.796875 4.062500 -10.343750q0.000000 -6.578125 -4.031250 -10.343750q-4.015625 -3.765625 -11.109375 -3.765625M21.921875 -38.812500q-6.343750 -1.562500 -9.890625 -5.906250q-3.531250 -4.359375 -3.531250 -10.609375q0.000000 -8.734375 6.218750 -13.812500q6.234375 -5.078125 17.062500 -5.078125q10.890625 0.000000 17.093750 5.078125q6.203125 5.078125 6.203125 13.812500q0.000000 6.250000 -3.546875 10.609375q-3.531250 4.343750 -9.828125 5.906250q7.125000 1.656250 11.093750 6.500000q3.984375 4.828125 3.984375 11.796875q0.000000 10.609375 -6.468750 16.281250q-6.468750 5.656250 -18.531250 5.656250q-12.046875 0.000000 -18.531250 -5.656250q-6.468750 -5.671875 -6.468750 -16.281250q0.000000 -6.968750 4.000000 -11.796875q4.015625 -4.843750 11.140625 -6.500000M18.312500 -54.390625q0.000000 5.656250 3.531250 8.828125q3.546875 3.171875 9.937500 3.171875q6.359375 0.000000 9.937500 -3.171875q3.593750 -3.171875 3.593750 -8.828125q0.000000 -5.671875 -3.593750 -8.843750q-3.578125 -3.171875 -9.937500 -3.171875q-6.390625 0.000000 -9.937500 3.171875q-3.531250 3.171875 -3.531250 8.843750"/>
</defs>
<g style="fill: #000000; opacity: 1.000000" transform="translate(42.287500,402.887187)scale(0.120000)">
<use xlink:href="#c_6a8d56c819c37117ab4cf023bec22a5a"/>
<use xlink:href="#c_7a2040fe3b94fcd41d0a72c84e93b115" x="83.789063"/>
<use xlink:href="#c_ed3e21196fb739f392806f09ca0594ef" x="147.412109"/>
<use xlink:href="#c_bef35738d52871942e50b9de9b122bab" x="179.199219"/>
</g>
</g>
</g>
<g id="ytick9">
<g id="line2d83">
<path style="fill: none; stroke: #000000; stroke-width: 0.500000; stroke-linejoin: round; stroke-linecap: butt; stroke-dasharray: 1.000000,3.000000; stroke-dashoffset: 0.000000; opacity: 1.000000" clip-path="url(#p67f470e3399170486d5a0fd0e2d384a3)" d="M73.350000 380.629091L528.120000 380.629091"/>
</g>
<g id="line2d84">
<g ><use style="fill: none; stroke: #000000; stroke-width: 0.500000; stroke-linejoin: round; stroke-linecap: butt;  opacity: 1.000000" xlink:href="#m3400efa6b1638b3fea9e19e898273957" x="73.350000" y="380.629091"/>
</g></g>
<g id="line2d85">
<g ><use style="fill: none; stroke: #000000; stroke-width: 0.500000; stroke-linejoin: round; stroke-linecap: butt;  opacity: 1.000000" xlink:href="#m20b58b2501143cb5e0a5e8f1ef6f1643" x="528.120000" y="380.629091"/>
</g></g>
<g id="text29">
<defs>
<path id="c_956f18cfdaf972f35a6c2b4aaac2532b" d="M8.203125 -72.906250l46.875000 0.000000l0.000000 4.203125l-26.468750 68.703125l-10.296875 0.000000l24.906250 -64.593750l-35.015625 0.000000z"/>
</defs>
<g style="fill: #000000; opacity: 1.000000" transform="translate(42.490625,384.996278)scale(0.120000)">
<use xlink:href="#c_6a8d56c819c37117ab4cf023bec22a5a"/>
<use xlink:href="#c_7a2040fe3b94fcd41d0a72c84e93b115" x="83.789063"/>
<use xlink:href="#c_ed3e21196fb739f392806f09ca0594ef" x="147.412109"/>
<use xlink:href="#c_956f18cfdaf972f35a6c2b4aaac2532b" x="179.199219"/>
</g>
</g>
</g>
<g id="ytick10">
<g id="line2d86">
<path style="fill: none; stroke: #000000; stroke-width: 0.500000; stroke-linejoin: round; stroke-linecap: butt; stroke-dasharray: 1.000000,3.000000; stroke-dashoffset: 0.000000; opacity: 1.000000" clip-path="url(#p67f470e3399170486d5a0fd0e2d384a3)" d="M73.350000 362.738182L528.120000 362.738182"/>
</g>
<g id="line2d87">
<g ><use style="fill: none; stroke: #000000; stroke-width: 0.500000; stroke-linejoin: round; stroke-linecap: butt;  opacity: 1.000000" xlink:href="#m3400efa6b1638b3fea9e19e898273957" x="73.350000" y="362.738182"/>
</g></g>
<g id="line2d88">
<g ><use style="fill: none; stroke: #000000; stroke-width: 0.500000; stroke-linejoin: round; stroke-linecap: butt;  opacity: 1.000000" xlink:href="#m20b58b2501143cb5e0a5e8f1ef6f1643" x="528.120000" y="362.738182"/>
</g></g>
<g id="text30">
<g style="fill: #000000; opacity: 1.000000" transform="translate(42.225000,367.105369)scale(0.120000)">
<use xlink:href="#c_6a8d56c819c37117ab4cf023bec22a5a"/>
<use xlink:href="#c_7a2040fe3b94fcd41d0a72c84e93b115" x="83.789063"/>
<use xlink:href="#c_ed3e21196fb739f392806f09ca0594ef" x="147.412109"/>
<use xlink:href="#c_cc8d6d580d1b10c8632f7a42cd53db8a" x="179.199219"/>
</g>
</g>
</g>
<g id="ytick11">
<g id="line2d89">
<path style="fill: none; stroke: #000000; stroke-width: 0.500000; stroke-linejoin: round; stroke-linecap: butt; stroke-dasharray: 1.000000,3.000000; stroke-dashoffset: 0.000000; opacity: 1.000000" clip-path="url(#p67f470e3399170486d5a0fd0e2d384a3)" d="M73.350000 344.847273L528.120000 344.847273"/>
</g>
<g id="line2d90">
<g ><use style="fill: none; stroke: #000000; stroke-width: 0.500000; stroke-linejoin: round; stroke-linecap: butt;  opacity: 1.000000" xlink:href="#m3400efa6b1638b3fea9e19e898273957" x="73.350000" y="344.847273"/>
</g></g>
<g id="line2d91">
<g ><use style="fill: none; stroke: #000000; stroke-width: 0.500000; stroke-linejoin: round; stroke-linecap: butt;  opacity: 1.000000" xlink:href="#m20b58b2501143cb5e0a5e8f1ef6f1643" x="528.120000" y="344.847273"/>
</g></g>
<g id="text31">
<g style="fill: #000000; opacity: 1.000000" transform="translate(42.506250,349.214460)scale(0.120000)">
<use xlink:href="#c_6a8d56c819c37117ab4cf023bec22a5a"/>
<use xlink:href="#c_7a2040fe3b94fcd41d0a72c84e93b115" x="83.789063"/>
<use xlink:href="#c_ed3e21196fb739f392806f09ca0594ef" x="147.412109"/>
<use xlink:href="#c_1260a2df50f305f3db244e29828f968e" x="179.199219"/>
</g>
</g>
</g>
<g id="ytick12">
<g id="line2d92">
<path style="fill: none; stroke: #000000; stroke-width: 0.500000; stroke-linejoin: round; stroke-linecap: butt; stroke-dasharray: 1.000000,3.000000; stroke-dashoffset: 0.000000; opacity: 1.000000" clip-path="url(#p67f470e3399170486d5a0fd0e2d384a3)" d="M73.350000 326.956364L528.120000 326.956364"/>
</g>
<g id="line2d93">
<g ><use style="fill: none; stroke: #000000; stroke-width: 0.500000; stroke-linejoin: round; stroke-linecap: butt;  opacity: 1.000000" xlink:href="#m3400efa6b1638b3fea9e19e898273957" x="73.350000" y="326.956364"/>
</g></g>
<g id="line2d94">
<g ><use style="fill: none; stroke: #000000; stroke-width: 0.500000; stroke-linejoin: round; stroke-linecap: butt;  opacity: 1.000000" xlink:href="#m20b58b2501143cb5e0a5e8f1ef6f1643" x="528.120000" y="326.956364"/>
</g></g>
<g id="text32">
<g style="fill: #000000; opacity: 1.000000" transform="translate(42.131250,331.323551)scale(0.120000)">
<use xlink:href="#c_6a8d56c819c37117ab4cf023bec22a5a"/>
<use xlink:href="#c_7a2040fe3b94fcd41d0a72c84e93b115" x="83.789063"/>
<use xlink:href="#c_ed3e21196fb739f392806f09ca0594ef" x="147.412109"/>
<use xlink:href="#c_a0416418d96557a09b8c1332d34883ba" x="179.199219"/>
</g>
</g>
</g>
<g id="ytick13">
<g id="line2d95">
<path style="fill: none; stroke: #000000; stroke-width: 0.500000; stroke-linejoin: round; stroke-linecap: butt; stroke-dasharray: 1.000000,3.000000; stroke-dashoffset: 0.000000; opacity: 1.000000" clip-path="url(#p67f470e3399170486d5a0fd0e2d384a3)" d="M73.350000 309.065455L528.120000 309.065455"/>
</g>
<g id="line2d96">
<g ><use style="fill: none; stroke: #000000; stroke-width: 0.500000; stroke-linejoin: round; stroke-linecap: butt;  opacity: 1.000000" xlink:href="#m3400efa6b1638b3fea9e19e898273957" x="73.350000" y="309.065455"/>
</g></g>
<g id="line2d97">
<g ><use style="fill: none; stroke: #000000; stroke-width: 0.500000; stroke-linejoin: round; stroke-linecap: butt;  opacity: 1.000000" xlink:href="#m20b58b2501143cb5e0a5e8f1ef6f1643" x="528.120000" y="309.065455"/>
</g></g>
<g id="text33">
<g style="fill: #000000; opacity: 1.000000" transform="translate(42.428125,313.432642)scale(0.120000)">
<use xlink:href="#c_6a8d56c819c37117ab4cf023bec22a5a"/>
<use xlink:href="#c_7a2040fe3b94fcd41d0a72c84e93b115" x="83.789063"/>
<use xlink:href="#c_ed3e21196fb739f392806f09ca0594ef" x="147.412109"/>
<use xlink:href="#c_3dcfa38a02242cb63ec6726c6e70be7a" x="179.199219"/>
</g>
</g>
</g>
<g id="ytick14">
<g id="line2d98">
<path style="fill: none; stroke: #000000; stroke-width: 0.500000; stroke-linejoin: round; stroke-linecap: butt; stroke-dasharray: 1.000000,3.000000; stroke-dashoffset: 0.000000; opacity: 1.000000" clip-path="url(#p67f470e3399170486d5a0fd0e2d384a3)" d="M73.350000 291.174545L528.120000 291.174545"/>
</g>
<g id="line2d99">
<g ><use style="fill: none; stroke: #000000; stroke-width: 0.500000; stroke-linejoin: round; stroke-linecap: butt;  opacity: 1.000000" xlink:href="#m3400efa6b1638b3fea9e19e898273957" x="73.350000" y="291.174545"/>
</g></g>
<g id="line2d100">
<g ><use style="fill: none; stroke: #000000; stroke-width: 0.500000; stroke-linejoin: round; stroke-linecap: butt;  opacity: 1.000000" xlink:href="#m20b58b2501143cb5e0a5e8f1ef6f1643" x="528.120000" y="291.174545"/>
</g></g>
<g id="text34">
<g style="fill: #000000; opacity: 1.000000" transform="translate(42.662500,295.541733)scale(0.120000)">
<use xlink:href="#c_6a8d56c819c37117ab4cf023bec22a5a"/>
<use xlink:href="#c_7a2040fe3b94fcd41d0a72c84e93b115" x="83.789063"/>
<use xlink:href="#c_ed3e21196fb739f392806f09ca0594ef" x="147.412109"/>
<use xlink:href="#c_ed3f3ed3ebfbd18bcb9c012009a68ad1" x="179.199219"/>
</g>
</g>
</g>
<g id="ytick15">
<g id="line2d101">
<path style="fill: none; stroke: #000000; stroke-width: 0.500000; stroke-linejoin: round; stroke-linecap: butt; stroke-dasharray: 1.000000,3.000000; stroke-dashoffset: 0.000000; opacity: 1.000000" clip-path="url(#p67f470e3399170486d5a0fd0e2d384a3)" d="M73.350000 273.283636L528.120000 273.283636"/>
</g>
<g id="line2d102">
<g ><use style="fill: none; stroke: #000000; stroke-width: 0.500000; stroke-linejoin: round; stroke-linecap: butt;  opacity: 1.000000" xlink:href="#m3400efa6b1638b3fea9e19e898273957" x="73.350000" y="273.283636"/>
</g></g>
<g id="line2d103">
<g ><use style="fill: none; stroke: #000000; stroke-width: 0.500000; stroke-linejoin: round; stroke-linecap: butt;  opacity: 1.000000" xlink:href="#m20b58b2501143cb5e0a5e8f1ef6f1643" x="528.120000" y="273.283636"/>
</g></g>
<g id="text35">
<g style="fill: #000000; opacity: 1.000000" transform="translate(42.568750,277.650824)scale(0.120000)">
<use xlink:href="#c_6a8d56c819c37117ab4cf023bec22a5a"/>
<use xlink:href="#c_7a2040fe3b94fcd41d0a72c84e93b115" x="83.789063"/>
<use xlink:href="#c_ed3e21196fb739f392806f09ca0594ef" x="147.412109"/>
<use xlink:href="#c_42baa63129a918535c52adb20d687ea7" x="179.199219"/>
</g>
</g>
</g>
<g id="ytick16">
<g id="line2d104">
<path style="fill: none; stroke: #000000; stroke-width: 0.500000; stroke-linejoin: round; stroke-linecap: butt; stroke-dasharray: 1.000000,3.000000; stroke-dashoffset: 0.000000; opacity: 1.000000" clip-path="url(#p67f470e3399170486d5a0fd0e2d384a3)" d="M73.350000 255.392727L528.120000 255.392727"/>
</g>
<g id="line2d105">
<g ><use style="fill: none; stroke: #000000; stroke-width: 0.500000; stroke-linejoin: round; stroke-linecap: butt;  opacity: 1.000000" xlink:href="#m3400efa6b1638b3fea9e19e898273957" x="73.350000" y="255.392727"/>
</g></g>
<g id="line2d106">
<g ><use style="fill: none; stroke: #000000; stroke-width: 0.500000; stroke-linejoin: round; stroke-linecap: butt;  opacity: 1.000000" xlink:href="#m20b58b2501143cb5e0a5e8f1ef6f1643" x="528.120000" y="255.392727"/>
</g></g>
<g id="text36">
<g style="fill: #000000; opacity: 1.000000" transform="translate(51.850000,259.759915)scale(0.120000)">
<use xlink:href="#c_7a2040fe3b94fcd41d0a72c84e93b115"/>
<use xlink:href="#c_ed3e21196fb739f392806f09ca0594ef" x="63.623047"/>
<use xlink:href="#c_7a2040fe3b94fcd41d0a72c84e93b115" x="95.410156"/>
</g>
</g>
</g>
<g id="ytick17">
<g id="line2d107">
<path style="fill: none; stroke: #000000; stroke-width: 0.500000; stroke-linejoin: round; stroke-linecap: butt; stroke-dasharray: 1.000000,3.000000; stroke-dashoffset: 0.000000; opacity: 1.000000" clip-path="url(#p67f470e3399170486d5a0fd0e2d384a3)" d="M73.350000 237.501818L528.120000 237.501818"/>
</g>
<g id="line2d108">
<g ><use style="fill: none; stroke: #000000; stroke-width: 0.500000; stroke-linejoin: round; stroke-linecap: butt;  opacity: 1.000000" xlink:href="#m3400efa6b1638b3fea9e19e898273957" x="73.350000" y="237.501818"/>
</g></g>
<g id="line2d109">
<g ><use style="fill: none; stroke: #000000; stroke-width: 0.500000; stroke-linejoin: round; stroke-linecap: butt;  opacity: 1.000000" xlink:href="#m20b58b2501143cb5e0a5e8f1ef6f1643" x="528.120000" y="237.501818"/>
</g></g>
<g id="text37">
<g style="fill: #000000; opacity: 1.000000" transform="translate(52.162500,241.869006)scale(0.120000)">
<use xlink:href="#c_7a2040fe3b94fcd41d0a72c84e93b115"/>
<use xlink:href="#c_ed3e21196fb739f392806f09ca0594ef" x="63.623047"/>
<use xlink:href="#c_42baa63129a918535c52adb20d687ea7" x="95.410156"/>
</g>
</g>
</g>
</g>
<g id="patch9">
<path style="fill: none; stroke: #000000; stroke-width: 1.000000; stroke-linejoin: round; stroke-linecap: square;  opacity: 1.000000"  d="M73.350000 237.501818L528.120000 237.501818"/>
</g>
<g id="patch10">
<path style="fill: none; stroke: #000000; stroke-width: 1.000000; stroke-linejoin: round; stroke-linecap: square;  opacity: 1.000000"  d="M528.120000 398.520000L528.120000 237.501818"/>
</g>
<g id="patch11">
<path style="fill: none; stroke: #000000; stroke-width: 1.000000; stroke-linejoin: round; stroke-linecap: square;  opacity: 1.000000"  d="M73.350000 398.520000L528.120000 398.520000"/>
</g>
<g id="patch12">
<path style="fill: none; stroke: #000000; stroke-width: 1.000000; stroke-linejoin: round; stroke-linecap: square;  opacity: 1.000000"  d="M73.350000 398.520000L73.350000 237.501818"/>
</g>
<g id="text38">
<defs>
<path id="c_f15a64fcd463ef4629c48bab42cde24c" d="M18.109375 -8.203125l0.000000 29.000000l-9.031250 0.000000l0.000000 -75.484375l9.031250 0.000000l0.000000 8.296875q2.843750 -4.875000 7.156250 -7.234375q4.328125 -2.375000 10.328125 -2.375000q9.968750 0.000000 16.187500 7.906250q6.234375 7.906250 6.234375 20.796875q0.000000 12.890625 -6.234375 20.812500q-6.218750 7.906250 -16.187500 7.906250q-6.000000 0.000000 -10.328125 -2.375000q-4.312500 -2.375000 -7.156250 -7.250000M48.687500 -27.296875q0.000000 -9.906250 -4.078125 -15.546875q-4.078125 -5.640625 -11.203125 -5.640625q-7.140625 0.000000 -11.218750 5.640625q-4.078125 5.640625 -4.078125 15.546875q0.000000 9.906250 4.078125 15.546875q4.078125 5.640625 11.218750 5.640625q7.125000 0.000000 11.203125 -5.640625q4.078125 -5.640625 4.078125 -15.546875"/>
<path id="c_6a63bda47b2f3da1cec6aadd80692cfe" d="M9.421875 -54.687500l8.984375 0.000000l0.000000 54.687500l-8.984375 0.000000zM9.421875 -75.984375l8.984375 0.000000l0.000000 11.390625l-8.984375 0.000000z"/>
</defs>
<g style="fill: #000000; opacity: 1.000000" transform="translate(270.414688,229.595568)scale(0.144000)">
<use xlink:href="#c_f15a64fcd463ef4629c48bab42cde24c"/>
<use xlink:href="#c_74d54c94aa871ec39e2bc6697dde6c00" x="63.476563"/>
<use xlink:href="#c_6a63bda47b2f3da1cec6aadd80692cfe" x="126.855469"/>
<use xlink:href="#c_d41d8cd98f00b204e9800998ecf8427e" x="154.638672"/>
<use xlink:href="#c_1a1d9ef1e4ddee695bd67a282879f099" x="186.425781"/>
<use xlink:href="#c_6ec8d5749226675394676a5d2a3b468b" x="225.439453"/>
<use xlink:href="#c_01d93a582460e35a7945ca50d148ffeb" x="266.552734"/>
<use xlink:href="#c_d821beae607506e87470f334d9ff47af" x="327.832031"/>
<use xlink:href="#c_5bcf09947f6bf611091602c6fea1d302" x="391.308594"/>
</g>
</g>
<g id="legend2">
<g id="patch13">
<path style="fill: #ffffff; stroke: #000000; stroke-width: 1.000000; stroke-linejoin: round; stroke-linecap: square;  opacity: 1.000000"  d="M414.745775 258.230993L523.122000 258.230993L523.122000 242.499818
L414.745775 242.499818L414.745775 258.230993z"/>
</g>
<g id="line2d110">
<path style="fill: none; stroke: #0000ff; stroke-width: 1.000000; stroke-linejoin: round; stroke-linecap: square;  opacity: 1.000000"  d="M421.742975 250.593368L435.737375 250.593368"/>
</g>
<g id="line2d111">
</g>
<g id="text39">
<g style="fill: #000000; opacity: 1.000000" transform="translate(446.732975,254.091968)scale(0.099960)">
<use xlink:href="#c_72234ddc5dcad8d05c893ef0371171da"/>
<use xlink:href="#c_0bce5afba2dc6b9024b26277c38ad8e8" x="86.279297"/>
<use xlink:href="#c_01d93a582460e35a7945ca50d148ffeb" x="147.802734"/>
<use xlink:href="#c_8e0810ad13fe20a2a87a2619799b154d" x="209.082031"/>
<use xlink:href="#c_c438d87e693443c2861ebd6359e6491e" x="261.181641"/>
<use xlink:href="#c_6ec8d5749226675394676a5d2a3b468b" x="324.560547"/>
<use xlink:href="#c_0bce5afba2dc6b9024b26277c38ad8e8" x="363.423828"/>
<use xlink:href="#c_4653c6dfde66c7610eae0911760d3490" x="424.947266"/>
<use xlink:href="#c_0bce5afba2dc6b9024b26277c38ad8e8" x="522.359375"/>
<use xlink:href="#c_fe791a90f5471e2ab20a5ed41a7fa451" x="583.882812"/>
<use xlink:href="#c_0f8c41144cfbf448378cb6fd1cc8e549" x="647.261719"/>
<use xlink:href="#c_8e0810ad13fe20a2a87a2619799b154d" x="686.470703"/>
</g>
</g>
</g>
</g>
</g>
</svg>
