<?xml version="1.0" standalone="no"?>
<!DOCTYPE svg PUBLIC "-//W3C//DTD SVG 1.1//EN"
  "http://www.w3.org/Graphics/SVG/1.1/DTD/svg11.dtd">
<!-- Created with matplotlib (http://matplotlib.sourceforge.net/) -->
<svg width="585pt" height="441pt" viewBox="0 0 585 441"
   xmlns="http://www.w3.org/2000/svg"
   xmlns:xlink="http://www.w3.org/1999/xlink"
   version="1.1"
   id="svg1">
<g id="figure1">
<path style="fill: #ffffff; stroke: #ffffff; stroke-width: 1.000000; stroke-linejoin: miter; stroke-linecap: square;  opacity: 1.000000"  d="M0.000000 441.000000L585.000000 441.000000L585.000000 0.000000
L0.000000 0.000000L0.000000 441.000000"/>
<g id="axes1">
<path style="fill: #ffffff; opacity: 1.000000"  d="M73.125000 396.900000L526.500000 396.900000L526.500000 44.100000
L73.125000 44.100000L73.125000 396.900000"/>
<g id="line2d1">
<defs>
  <clipPath id="pc3c5e41676658680e7b95047b5791c8e">
<rect x="73.125000" y="44.100000" width="453.375000" height="352.800000"/>
  </clipPath>
</defs><path style="fill: none; stroke: #0000ff; stroke-width: 1.000000; stroke-linejoin: miter; stroke-linecap: square;  opacity: 1.000000" clip-path="url(#pc3c5e41676658680e7b95047b5791c8e)" d="M73.125000 60.136364L73.125087 60.136364L73.125173 60.136364
L73.125346 60.136364L73.125692 60.136364L73.126384 60.136364
L73.127769 60.136364L73.130538 60.136364L73.136075 60.136364
L73.147151 60.136364L73.169302 60.136364L73.213604 60.136364
L73.302207 60.136364L73.479415 60.136364L73.833829 60.136364
L74.188244 60.136364L74.542658 60.136364L74.897073 60.136364
L75.605902 60.136364L76.314731 60.136364L77.023560 60.136364
L77.732389 60.136364L78.441218 60.136364L79.150047 60.136364
L80.166740 60.136364L81.183433 60.136364L82.200126 60.136364
L83.216819 60.136364L84.233512 60.136364L85.250206 60.136364
L86.266899 60.136364L87.283592 60.136364L88.300285 60.136364
L89.316978 60.136364L90.333671 60.136364L91.350364 60.136364
L92.015641 380.863636L92.015674 380.863636L92.015708 380.863636
L92.015775 380.863636L92.015908 380.863636L92.016175 380.863636
L92.016709 380.863636L92.017778 380.863636L92.019915 380.863636
L92.024189 380.863636L92.032737 380.863636L92.049832 380.863636
L92.084024 380.863636L92.152406 380.863636L92.289172 380.863636
L92.425938 380.863636L92.699469 380.863636L92.945647 380.863636
L93.191824 380.863636L93.438002 380.863636L93.684180 380.863636
L94.176536 380.863636L94.668892 380.863636L95.161248 380.863636
L95.653604 380.863636L96.145960 380.863636L96.638316 380.863636
L97.130672 380.863636L97.623028 380.863636L98.607739 380.863636
L99.492328 380.863636L100.376916 380.863636L101.261504 380.863636
L102.146092 380.863636L103.030681 380.863636L103.915269 380.863636
L104.799857 380.863636L106.569034 380.863636L108.161292 380.863636
L109.753551 380.863636L110.906282 60.136364L110.906306 60.136364
L110.906330 60.136364L110.906378 60.136364L110.906473 60.136364
L110.906664 60.136364L110.907047 60.136364L110.907812 60.136364
L110.909341 60.136364L110.912401 60.136364L110.918519 60.136364
L110.930757 60.136364L110.955232 60.136364L111.004181 60.136364
L111.102081 60.136364L111.297880 60.136364L111.493679 60.136364
L111.689477 60.136364L111.885276 60.136364L112.276874 60.136364
L112.668472 60.136364L113.060070 60.136364L113.451668 60.136364
L114.234863 60.136364L114.920539 60.136364L115.606215 60.136364
L116.291890 60.136364L116.977566 60.136364L117.663242 60.136364
L119.034593 60.136364L120.405945 60.136364L121.777296 60.136364
L123.148648 60.136364L124.519999 60.136364L125.891350 60.136364
L127.262702 60.136364L128.634053 60.136364L129.796923 380.863636
L129.796948 380.863636L129.796973 380.863636L129.797023 380.863636
L129.797124 380.863636L129.797325 380.863636L129.797727 380.863636
L129.798531 380.863636L129.800140 380.863636L129.803357 380.863636
L129.809791 380.863636L129.822659 380.863636L129.848394 380.863636
L129.874130 380.863636L129.899866 380.863636L129.951337 380.863636
L130.002808 380.863636L130.054280 380.863636L130.157223 380.863636
L130.260165 380.863636L130.466051 380.863636L130.671936 380.863636
L131.083708 380.863636L131.454302 380.863636L131.824896 380.863636
L132.195490 380.863636L132.566083 380.863636L133.307271 380.863636
L134.048459 380.863636L134.789647 380.863636L135.530835 380.863636
L136.272023 380.863636L137.013211 380.863636L137.754399 380.863636
L138.495587 380.863636L139.977963 380.863636L141.304232 380.863636
L142.630502 380.863636L143.956771 380.863636L145.283040 380.863636
L146.609309 380.863636L147.935578 380.863636L148.687564 60.136364
L148.687592 60.136364L148.687621 60.136364L148.687677 60.136364
L148.687791 60.136364L148.688018 60.136364L148.688472 60.136364
L148.689380 60.136364L148.691197 60.136364L148.694830 60.136364
L148.702097 60.136364L148.716630 60.136364L148.745696 60.136364
L148.803829 60.136364L148.920094 60.136364L149.152623 60.136364
L149.385153 60.136364L149.617683 60.136364L149.850212 60.136364
L150.315272 60.136364L150.780331 60.136364L151.245390 60.136364
L151.710450 60.136364L152.175509 60.136364L152.640569 60.136364
L153.324081 60.136364L154.007593 60.136364L154.691106 60.136364
L155.374618 60.136364L156.058130 60.136364L156.741643 60.136364
L157.425155 60.136364L158.108667 60.136364L158.792180 60.136364
L159.475692 60.136364L160.159204 60.136364L160.842717 60.136364
L161.526229 60.136364L162.893254 60.136364L164.260278 60.136364
L165.627303 60.136364L166.994327 60.136364L167.578205 380.863636
L167.578232 380.863636L167.578260 380.863636L167.578315 380.863636
L167.578424 380.863636L167.578644 380.863636L167.579084 380.863636
L167.579962 380.863636L167.581720 380.863636L167.585235 380.863636
L167.592265 380.863636L167.606324 380.863636L167.634444 380.863636
L167.690683 380.863636L167.803161 380.863636L168.028117 380.863636
L168.253074 380.863636L168.478030 380.863636L168.702986 380.863636
L169.152899 380.863636L169.602811 380.863636L170.052724 380.863636
L170.502636 380.863636L170.952549 380.863636L171.402462 380.863636
L172.302287 380.863636L173.079266 380.863636L173.856246 380.863636
L174.633225 380.863636L175.410204 380.863636L176.964163 380.863636
L178.362726 380.863636L179.761289 380.863636L181.159852 380.863636
L182.558415 380.863636L183.956978 380.863636L185.355541 380.863636
L186.468846 60.136364L186.468873 60.136364L186.468899 60.136364
L186.468953 60.136364L186.469060 60.136364L186.469274 60.136364
L186.469702 60.136364L186.470559 60.136364L186.472271 60.136364
L186.475697 60.136364L186.482549 60.136364L186.496251 60.136364
L186.523657 60.136364L186.551063 60.136364L186.578469 60.136364
L186.633280 60.136364L186.688092 60.136364L186.742903 60.136364
L186.852526 60.136364L186.962149 60.136364L187.181395 60.136364
L187.400641 60.136364L187.619887 60.136364L187.839133 60.136364
L188.277625 60.136364L188.716117 60.136364L189.154609 60.136364
L190.031594 60.136364L190.820879 60.136364L191.610165 60.136364
L192.399450 60.136364L193.188736 60.136364L193.978022 60.136364
L195.556593 60.136364L197.135164 60.136364L198.713736 60.136364
L200.292307 60.136364L201.870878 60.136364L203.449450 60.136364
L205.028021 60.136364L205.359487 380.863636L205.359519 380.863636
L205.359551 380.863636L205.359615 380.863636L205.359743 380.863636
L205.359999 380.863636L205.360511 380.863636L205.361536 380.863636
L205.363584 380.863636L205.367682 380.863636L205.375877 380.863636
L205.392268 380.863636L205.425049 380.863636L205.490611 380.863636
L205.621736 380.863636L205.883986 380.863636L206.146235 380.863636
L206.408485 380.863636L206.670735 380.863636L207.195234 380.863636
L207.719733 380.863636L208.244232 380.863636L208.768731 380.863636
L209.293230 380.863636L209.817730 380.863636L210.541300 380.863636
L211.264870 380.863636L211.988440 380.863636L212.712010 380.863636
L213.435580 380.863636L214.159150 380.863636L214.882720 380.863636
L215.606290 380.863636L216.329861 380.863636L217.053431 380.863636
L217.777001 380.863636L218.500571 380.863636L219.224141 380.863636
L219.947711 380.863636L220.671281 380.863636L221.394851 380.863636
L222.118421 380.863636L222.841992 380.863636L223.565562 380.863636
L224.250128 60.136364L224.250157 60.136364L224.250186 60.136364
L224.250245 60.136364L224.250363 60.136364L224.250598 60.136364
L224.251069 60.136364L224.252010 60.136364L224.253892 60.136364
L224.257657 60.136364L224.265186 60.136364L224.280245 60.136364
L224.310362 60.136364L224.370597 60.136364L224.491066 60.136364
L224.732003 60.136364L224.972941 60.136364L225.213879 60.136364
L225.454817 60.136364L225.936693 60.136364L226.418569 60.136364
L226.900445 60.136364L227.382320 60.136364L227.864196 60.136364
L228.346072 60.136364L229.309823 60.136364L230.106859 60.136364
L230.903894 60.136364L231.700930 60.136364L232.497966 60.136364
L234.092037 60.136364L235.519390 60.136364L236.946743 60.136364
L238.374096 60.136364L239.801449 60.136364L241.228803 60.136364
L242.656156 60.136364L243.140769 380.863636L243.140798 380.863636
L243.140827 380.863636L243.140884 380.863636L243.141000 380.863636
L243.141232 380.863636L243.141695 380.863636L243.142622 380.863636
L243.144475 380.863636L243.148182 380.863636L243.155595 380.863636
L243.170421 380.863636L243.200074 380.863636L243.259380 380.863636
L243.377992 380.863636L243.615215 380.863636L243.852438 380.863636
L244.089661 380.863636L244.326884 380.863636L244.801330 380.863636
L245.275776 380.863636L245.750222 380.863636L246.224669 380.863636
L246.699115 380.863636L247.173561 380.863636L248.122453 380.863636
L248.973920 380.863636L249.825387 380.863636L250.676854 380.863636
L251.528320 380.863636L253.231254 380.863636L254.763894 380.863636
L256.296534 380.863636L257.829175 380.863636L259.361815 380.863636
L260.894455 380.863636L262.031410 60.136364L262.031441 60.136364
L262.031472 60.136364L262.031535 60.136364L262.031660 60.136364
L262.031911 60.136364L262.032412 60.136364L262.033415 60.136364
L262.035420 60.136364L262.039430 60.136364L262.047451 60.136364
L262.063492 60.136364L262.095574 60.136364L262.159738 60.136364
L262.288067 60.136364L262.544725 60.136364L262.801383 60.136364
L263.058041 60.136364L263.314699 60.136364L263.828014 60.136364
L264.341330 60.136364L264.854646 60.136364L265.367961 60.136364
L265.881277 60.136364L266.394592 60.136364L267.116011 60.136364
L267.837430 60.136364L268.558848 60.136364L269.280267 60.136364
L270.001686 60.136364L270.723104 60.136364L271.444523 60.136364
L272.165942 60.136364L272.887360 60.136364L273.608779 60.136364
L274.330198 60.136364L275.051616 60.136364L275.773035 60.136364
L276.494454 60.136364L277.215872 60.136364L277.937291 60.136364
L278.658709 60.136364L279.380128 60.136364L280.101547 60.136364
L280.822965 60.136364L280.922051 380.863636L280.922081 380.863636
L280.922111 380.863636L280.922172 380.863636L280.922293 380.863636
L280.922535 380.863636L280.923020 380.863636L280.923990 380.863636
L280.925929 380.863636L280.929806 380.863636L280.937562 380.863636
L280.953074 380.863636L280.984098 380.863636L281.046146 380.863636
L281.170242 380.863636L281.418433 380.863636L281.666624 380.863636
L281.914815 380.863636L282.163006 380.863636L282.659388 380.863636
L283.155770 380.863636L283.652152 380.863636L284.148534 380.863636
L284.644916 380.863636L285.141298 380.863636L285.867819 380.863636
L286.594340 380.863636L287.320861 380.863636L288.047382 380.863636
L288.773904 380.863636L289.500425 380.863636L290.226946 380.863636
L290.953467 380.863636L291.679988 380.863636L292.406509 380.863636
L293.133030 380.863636L293.859551 380.863636L294.586072 380.863636
L296.039114 380.863636L297.492156 380.863636L298.945199 380.863636
L299.812691 60.136364L299.812721 60.136364L299.812750 60.136364
L299.812809 60.136364L299.812927 60.136364L299.813163 60.136364
L299.813635 60.136364L299.814579 60.136364L299.816466 60.136364
L299.820240 60.136364L299.827789 60.136364L299.842887 60.136364
L299.873082 60.136364L299.933472 60.136364L300.054253 60.136364
L300.295814 60.136364L300.537376 60.136364L300.778937 60.136364
L301.020498 60.136364L301.503621 60.136364L301.986744 60.136364
L302.469866 60.136364L302.952989 60.136364L303.436112 60.136364
L303.919235 60.136364L304.885480 60.136364L305.721682 60.136364
L306.557885 60.136364L307.394087 60.136364L308.230289 60.136364
L309.902694 60.136364L311.407858 60.136364L312.913022 60.136364
L314.418187 60.136364L315.923351 60.136364L317.428515 60.136364
L318.703332 380.863636L318.703364 380.863636L318.703395 380.863636
L318.703457 380.863636L318.703581 380.863636L318.703830 380.863636
L318.704328 380.863636L318.705323 380.863636L318.707313 380.863636
L318.711293 380.863636L318.719254 380.863636L318.735175 380.863636
L318.767018 380.863636L318.830704 380.863636L318.958076 380.863636
L319.212820 380.863636L319.467564 380.863636L319.722308 380.863636
L319.977052 380.863636L320.486540 380.863636L320.996027 380.863636
L321.505515 380.863636L322.015003 380.863636L322.524491 380.863636
L323.033979 380.863636L323.764801 380.863636L324.495623 380.863636
L325.226445 380.863636L325.957267 380.863636L326.688089 380.863636
L327.418912 380.863636L328.149734 380.863636L328.880556 380.863636
L329.611378 380.863636L330.342200 380.863636L331.073023 380.863636
L331.803845 380.863636L332.534667 380.863636L333.265489 380.863636
L333.996311 380.863636L334.727133 380.863636L335.457956 380.863636
L336.919600 380.863636L337.593973 60.136364L337.594004 60.136364
L337.594034 60.136364L337.594095 60.136364L337.594218 60.136364
L337.594462 60.136364L337.594950 60.136364L337.595927 60.136364
L337.597880 60.136364L337.601787 60.136364L337.609600 60.136364
L337.625226 60.136364L337.656478 60.136364L337.718983 60.136364
L337.843993 60.136364L338.094012 60.136364L338.344032 60.136364
L338.594051 60.136364L338.844071 60.136364L339.344110 60.136364
L339.844149 60.136364L340.344188 60.136364L340.844227 60.136364
L341.344266 60.136364L341.844305 60.136364L342.574327 60.136364
L343.304348 60.136364L344.034369 60.136364L344.764390 60.136364
L345.494411 60.136364L346.224432 60.136364L346.954454 60.136364
L347.684475 60.136364L348.414496 60.136364L349.144517 60.136364
L349.874538 60.136364L350.604559 60.136364L351.334581 60.136364
L352.064602 60.136364L352.794623 60.136364L354.254665 60.136364
L355.714708 60.136364L356.484614 380.863636L356.484644 380.863636
L356.484674 380.863636L356.484734 380.863636L356.484853 380.863636
L356.485091 380.863636L356.485568 380.863636L356.486522 380.863636
L356.488429 380.863636L356.492244 380.863636L356.499873 380.863636
L356.515132 380.863636L356.545650 380.863636L356.606687 380.863636
L356.728759 380.863636L356.972903 380.863636L357.217047 380.863636
L357.461192 380.863636L357.705336 380.863636L358.193625 380.863636
L358.681914 380.863636L359.170202 380.863636L359.658491 380.863636
L360.146780 380.863636L360.635069 380.863636L361.611646 380.863636
L362.439276 380.863636L363.266906 380.863636L364.094537 380.863636
L364.922167 380.863636L366.577427 380.863636L368.066522 380.863636
L369.555618 380.863636L371.044713 380.863636L372.533808 380.863636
L374.022903 380.863636L375.375255 60.136364L375.375286 60.136364
L375.375317 60.136364L375.375378 60.136364L375.375502 60.136364
L375.375748 60.136364L375.376241 60.136364L375.377226 60.136364
L375.379197 60.136364L375.383138 60.136364L375.391021 60.136364
L375.406787 60.136364L375.438319 60.136364L375.501383 60.136364
L375.627511 60.136364L375.879767 60.136364L376.132022 60.136364
L376.384278 60.136364L376.636534 60.136364L377.141045 60.136364
L377.645556 60.136364L378.150068 60.136364L378.654579 60.136364
L379.159091 60.136364L379.663602 60.136364L380.397263 60.136364
L381.130923 60.136364L381.864584 60.136364L382.598244 60.136364
L383.331905 60.136364L384.065566 60.136364L384.799226 60.136364
L385.532887 60.136364L386.266548 60.136364L387.000208 60.136364
L387.733869 60.136364L388.467530 60.136364L389.201190 60.136364
L389.934851 60.136364L390.668512 60.136364L392.135833 60.136364
L393.603154 60.136364L394.265896 380.863636L394.265927 380.863636
L394.265957 380.863636L394.266019 380.863636L394.266141 380.863636
L394.266385 380.863636L394.266875 380.863636L394.267853 380.863636
L394.269810 380.863636L394.273724 380.863636L394.281552 380.863636
L394.297207 380.863636L394.328518 380.863636L394.391140 380.863636
L394.516383 380.863636L394.766870 380.863636L395.017356 380.863636
L395.267843 380.863636L395.518330 380.863636L396.019303 380.863636
L396.520276 380.863636L397.021250 380.863636L397.522223 380.863636
L398.023197 380.863636L398.524170 380.863636L399.256338 380.863636
L399.988506 380.863636L400.720674 380.863636L401.452842 380.863636
L402.185010 380.863636L402.917178 380.863636L403.649346 380.863636
L404.381514 380.863636L405.113682 380.863636L405.845850 380.863636
L406.578018 380.863636L407.310185 380.863636L408.042353 380.863636
L409.506689 380.863636L410.971025 380.863636L412.435361 380.863636
L413.156537 60.136364L413.156567 60.136364L413.156597 60.136364
L413.156657 60.136364L413.156777 60.136364L413.157016 60.136364
L413.157495 60.136364L413.158453 60.136364L413.160368 60.136364
L413.164199 60.136364L413.171862 60.136364L413.187186 60.136364
L413.217835 60.136364L413.279133 60.136364L413.401730 60.136364
L413.646922 60.136364L413.892114 60.136364L414.137307 60.136364
L414.382499 60.136364L414.872884 60.136364L415.363268 60.136364
L415.853653 60.136364L416.344038 60.136364L416.834422 60.136364
L417.324807 60.136364L418.305576 60.136364L419.127719 60.136364
L419.949863 60.136364L420.772006 60.136364L421.594149 60.136364
L423.238436 60.136364L424.712767 60.136364L426.187098 60.136364
L427.661429 60.136364L429.135760 60.136364L430.610091 60.136364
L432.047178 380.863636L432.047209 380.863636L432.047239 380.863636
L432.047301 380.863636L432.047423 380.863636L432.047668 380.863636
L432.048158 380.863636L432.049138 380.863636L432.051097 380.863636
L432.055016 380.863636L432.062854 380.863636L432.078530 380.863636
L432.109881 380.863636L432.172585 380.863636L432.297991 380.863636
L432.548804 380.863636L432.799616 380.863636L433.050429 380.863636
L433.301242 380.863636L433.802867 380.863636L434.304492 380.863636
L434.806118 380.863636L435.307743 380.863636L435.809368 380.863636
L436.310994 380.863636L437.045721 380.863636L437.780448 380.863636
L438.515176 380.863636L439.249903 380.863636L439.984630 380.863636
L440.719357 380.863636L441.454084 380.863636L442.188812 380.863636
L442.923539 380.863636L443.658266 380.863636L444.392993 380.863636
L445.127720 380.863636L445.862448 380.863636L447.331902 380.863636
L448.801357 380.863636L450.270811 380.863636L450.937819 60.136364
L450.937850 60.136364L450.937880 60.136364L450.937941 60.136364
L450.938064 60.136364L450.938308 60.136364L450.938797 60.136364
L450.939775 60.136364L450.941730 60.136364L450.945641 60.136364
L450.953463 60.136364L450.969107 60.136364L451.000394 60.136364
L451.062969 60.136364L451.188118 60.136364L451.438418 60.136364
L451.688717 60.136364L451.939016 60.136364L452.189315 60.136364
L452.689914 60.136364L453.190512 60.136364L453.691111 60.136364
L454.191709 60.136364L454.692308 60.136364L455.192906 60.136364
L455.926314 60.136364L456.659722 60.136364L457.393129 60.136364
L458.126537 60.136364L458.859945 60.136364L459.593353 60.136364
L460.326760 60.136364L461.060168 60.136364L461.793576 60.136364
L462.526984 60.136364L463.260391 60.136364L463.993799 60.136364
L464.727207 60.136364L466.194022 60.136364L467.660838 60.136364
L469.127653 60.136364L469.828460 380.863636L469.828490 380.863636
L469.828520 380.863636L469.828581 380.863636L469.828701 380.863636
L469.828942 380.863636L469.829424 380.863636L469.830388 380.863636
L469.832315 380.863636L469.836170 380.863636L469.843880 380.863636
L469.859299 380.863636L469.890138 380.863636L469.951817 380.863636
L470.075174 380.863636L470.321887 380.863636L470.568601 380.863636
L470.815314 380.863636L471.062028 380.863636L471.555455 380.863636
L472.048882 380.863636L472.542309 380.863636L473.035736 380.863636
L473.529163 380.863636L474.022590 380.863636L475.009444 380.863636
L475.829396 380.863636L476.649348 380.863636L477.469299 380.863636
L478.289251 380.863636L479.929154 380.863636L481.405068 380.863636
L482.880981 380.863636L484.356894 380.863636L485.832807 380.863636
L487.308720 380.863636L488.719101 60.136364L488.719132 60.136364
L488.719162 60.136364L488.719223 60.136364L488.719345 60.136364
L488.719589 60.136364L488.720077 60.136364L488.721054 60.136364
L488.723007 60.136364L488.726912 60.136364L488.734723 60.136364
L488.750345 60.136364L488.781588 60.136364L488.844076 60.136364
L488.969050 60.136364L489.219000 60.136364L489.468949 60.136364
L489.718899 60.136364L489.968848 60.136364L490.468747 60.136364
L490.968646 60.136364L491.468544 60.136364L491.968443 60.136364
L492.468342 60.136364L492.968241 60.136364L493.703443 60.136364
L494.438646 60.136364L495.173848 60.136364L495.909051 60.136364
L496.644254 60.136364L497.379456 60.136364L498.114659 60.136364
L498.849862 60.136364L499.585064 60.136364L500.320267 60.136364
L501.055469 60.136364L501.790672 60.136364L502.525875 60.136364
L503.996280 60.136364L505.466685 60.136364L506.937090 60.136364
L507.609742 380.863636L507.609773 380.863636L507.609803 380.863636
L507.609864 380.863636L507.609986 380.863636L507.610230 380.863636
L507.610719 380.863636L507.611695 380.863636L507.613648 380.863636
L507.617555 380.863636L507.625368 380.863636L507.640994 380.863636
L507.672245 380.863636L507.734748 380.863636L507.859754 380.863636
L508.109767 380.863636L508.359779 380.863636L508.609791 380.863636
L508.859804 380.863636L509.359828 380.863636L509.859853 380.863636
L510.359878 380.863636L510.859902 380.863636L511.359927 380.863636
L511.859952 380.863636L512.594177 380.863636L513.328403 380.863636
L514.062629 380.863636L514.796854 380.863636L515.531080 380.863636
L516.265305 380.863636L516.999531 380.863636L517.733757 380.863636
L518.467982 380.863636L519.202208 380.863636L519.936434 380.863636
L520.670659 380.863636L521.404885 380.863636L522.873336 380.863636
L524.341787 380.863636L525.810238 380.863636L526.500000 380.863636"/>
</g>
<g id="line2d2">
<path style="fill: none; stroke: #008000; stroke-width: 1.000000; stroke-linejoin: miter; stroke-linecap: square;  opacity: 1.000000" clip-path="url(#pc3c5e41676658680e7b95047b5791c8e)" d="M73.125000 245.171329L73.125087 245.171588L73.125173 245.171847
L73.125346 245.172364L73.125692 245.173400L73.126384 245.175472
L73.127769 245.179615L73.130538 245.187900L73.136075 245.204467
L73.147151 245.237587L73.169302 245.303768L73.213604 245.435902
L73.302207 245.699257L73.479415 246.222330L73.833829 247.254099
L74.188244 248.266905L74.542658 249.261041L74.897073 250.236811
L75.605902 252.134381L76.314731 253.962052L77.023560 255.722396
L77.732389 257.417962L78.441218 259.051232L79.150047 260.624632
L80.166740 262.781772L81.183433 264.827951L82.200126 266.770345
L83.216819 268.616005L84.233512 270.371919L85.250206 272.044922
L86.266899 273.641754L87.283592 275.168987L88.300285 276.633066
L89.316978 278.040249L90.333671 279.396638L91.350364 280.708125
L92.015641 281.544741L92.015674 281.544310L92.015708 281.543879
L92.015775 281.543017L92.015908 281.541294L92.016175 281.537848
L92.016709 281.530955L92.017778 281.517169L92.019915 281.489601
L92.024189 281.434472L92.032737 281.324246L92.049832 281.103924
L92.084024 280.663797L92.152406 279.785613L92.289172 278.037531
L92.425938 276.300507L92.699469 272.859689L92.945647 269.800880
L93.191824 266.778066L93.438002 263.791300L93.684180 260.840631
L94.176536 255.047733L94.668892 249.399682L95.161248 243.896722
L95.653604 238.538992L96.145960 233.326529L96.638316 228.259274
L97.130672 223.337102L97.623028 218.559820L98.607739 209.438707
L99.492328 201.735515L100.376916 194.493228L101.261504 187.707789
L102.146092 181.374343L103.030681 175.487252L103.915269 170.040123
L104.799857 165.025821L106.569034 156.263628L108.161292 149.772133
L109.753551 144.540997L110.906282 141.503890L110.906306 141.504172
L110.906330 141.504453L110.906378 141.505016L110.906473 141.506142
L110.906664 141.508394L110.907047 141.512899L110.907812 141.521907
L110.909341 141.539923L110.912401 141.575954L110.918519 141.648011
L110.930757 141.792105L110.955232 142.080217L111.004181 142.656129
L111.102081 143.806696L111.297880 146.102741L111.493679 148.391910
L111.689477 150.674077L111.885276 152.949114L112.276874 157.477328
L112.668472 161.975535L113.060070 166.442676L113.451668 170.877715
L114.234863 179.647632L114.920539 187.210859L115.606215 194.661708
L116.291890 201.995274L116.977566 209.206810L117.663242 216.291732
L119.034593 230.064202L120.405945 243.279459L121.777296 255.907383
L123.148648 267.921077L124.519999 279.296871L125.891350 290.014427
L127.262702 300.056938L128.634053 309.411210L129.796923 316.796868
L129.796948 316.796667L129.796973 316.796466L129.797023 316.796063
L129.797124 316.795257L129.797325 316.793646L129.797727 316.790423
L129.798531 316.783978L129.800140 316.771089L129.803357 316.745312
L129.809791 316.693769L129.822659 316.590726L129.848394 316.384804
L129.874130 316.179047L129.899866 315.973456L129.951337 315.562663
L130.002808 315.152477L130.054280 314.742943L130.157223 313.925868
L130.260165 313.111435L130.466051 311.490485L130.671936 309.880075
L131.083708 306.690787L131.454302 303.856297L131.824896 301.055667
L132.195490 298.288789L132.566083 295.555545L133.307271 290.189514
L134.048459 284.956566L134.789647 279.855575L135.530835 274.885358
L136.272023 270.044685L137.013211 265.332271L137.754399 260.746772
L138.495587 256.286776L139.977963 247.737324L141.304232 240.498388
L142.630502 233.636832L143.956771 227.142421L145.283040 221.004356
L146.609309 215.211316L147.935578 209.751486L148.687564 206.799177
L148.687592 206.799469L148.687621 206.799762L148.687677 206.800346
L148.687791 206.801514L148.688018 206.803851L148.688472 206.808524
L148.689380 206.817870L148.691197 206.836561L148.694830 206.873939
L148.702097 206.948676L148.716630 207.098081L148.745696 207.396607
L148.803829 207.992529L148.920094 209.179846L149.152623 211.536335
L149.385153 213.868592L149.617683 216.176558L149.850212 218.460178
L150.315272 222.954187L150.780331 227.350222L151.245390 231.647913
L151.710450 235.846955L152.175509 239.947116L152.640569 243.948232
L153.324081 249.648764L154.007593 255.134842L154.691106 260.406453
L155.374618 265.463854L156.058130 270.307524L156.741643 274.938198
L157.425155 279.356826L158.108667 283.564600L158.792180 287.562927
L159.475692 291.353442L160.159204 294.937994L160.842717 298.318651
L161.526229 301.497688L162.893254 307.261020L164.260278 312.250210
L165.627303 316.490502L166.994327 320.009965L167.578205 321.300964
L167.578232 321.300633L167.578260 321.300302L167.578315 321.299641
L167.578424 321.298318L167.578644 321.295672L167.579084 321.290381
L167.579962 321.279798L167.581720 321.258632L167.585235 321.216304
L167.592265 321.131657L167.606324 320.962401L167.634444 320.624047
L167.690683 319.947961L167.803161 318.598297L168.028117 315.909067
L168.253074 313.233403L168.478030 310.571439L168.702986 307.923316
L169.152899 302.669096L169.602811 297.471835L170.052724 292.332659
L170.502636 287.252652L170.952549 282.232835L171.402462 277.274179
L172.302287 267.544204L173.079266 259.348157L173.856246 251.347322
L174.633225 243.545876L175.410204 235.947713L176.964163 221.375281
L178.362726 208.988166L179.761289 197.306267L181.159852 186.341050
L182.558415 176.100578L183.956978 166.589497L185.355541 157.809040
L186.468846 151.340456L186.468873 151.340684L186.468899 151.340913
L186.468953 151.341370L186.469060 151.342285L186.469274 151.344115
L186.469702 151.347774L186.470559 151.355091L186.472271 151.369726
L186.475697 151.398992L186.482549 151.457513L186.496251 151.574506
L186.523657 151.808303L186.551063 152.041909L186.578469 152.275324
L186.633280 152.741706L186.688092 153.207387L186.742903 153.672316
L186.852526 154.599867L186.962149 155.524359L187.181395 157.364151
L187.400641 159.191671L187.619887 161.006900L187.839133 162.809817
L188.277625 166.378643L188.716117 169.897999L189.154609 173.367740
L190.031594 180.157939L190.820879 186.098381L191.610165 191.876635
L192.399450 197.492439L193.188736 202.945692L193.978022 208.236454
L195.556593 218.331518L197.135164 227.781333L198.713736 236.592327
L200.292307 244.773494L201.870878 252.336305L203.449450 259.294644
L205.028021 265.664740L205.359487 266.929286L205.359519 266.928954
L205.359551 266.928622L205.359615 266.927958L205.359743 266.926630
L205.359999 266.923974L205.360511 266.918662L205.361536 266.908038
L205.363584 266.886792L205.367682 266.844305L205.375877 266.759350
L205.392268 266.589521L205.425049 266.250183L205.490611 265.572789
L205.621736 264.223134L205.883986 261.544398L206.146235 258.893153
L206.408485 256.269475L206.670735 253.673440L207.195234 248.564559
L207.719733 243.567045L208.244232 238.681403L208.768731 233.908046
L209.293230 229.247296L209.817730 224.699380L210.541300 218.610867
L211.264870 212.737725L211.988440 207.080020L212.712010 201.637529
L213.435580 196.409804L214.159150 191.396120L214.882720 186.595534
L215.606290 182.006842L216.329861 177.628627L217.053431 173.459216
L217.777001 169.496726L218.500571 165.739031L219.224141 162.183802
L219.947711 158.828476L220.671281 155.670297L221.394851 152.706290
L222.118421 149.933294L222.841992 147.347947L223.565562 144.946709
L224.250128 142.841035L224.250157 142.841364L224.250186 142.841693
L224.250245 142.842352L224.250363 142.843668L224.250598 142.846301
L224.251069 142.851566L224.252010 142.862096L224.253892 142.883155
L224.257657 142.925271L224.265186 143.009491L224.280245 143.177882
L224.310362 143.514469L224.370597 144.186861L224.491066 145.528505
L224.732003 148.199166L224.972941 150.852891L225.213879 153.489547
L225.454817 156.108997L225.936693 161.295786L226.418569 166.412199
L226.900445 171.457153L227.382320 176.429621L227.864196 181.328649
L228.346072 186.153349L229.309823 195.576268L230.106859 203.137240
L230.903894 210.484662L231.700930 217.615496L232.497966 224.527017
L234.092037 237.682897L235.519390 248.698082L236.946743 258.983084
L238.374096 268.534185L239.801449 277.351151L241.228803 285.437171
L242.656156 292.798777L243.140769 295.135096L243.140798 295.134823
L243.140827 295.134551L243.140884 295.134006L243.141000 295.132915
L243.141232 295.130735L243.141695 295.126374L243.142622 295.117653
L243.144475 295.100211L243.148182 295.065329L243.155595 294.995577
L243.170421 294.856120L243.200074 294.577386L243.259380 294.020645
L243.377992 292.910074L243.615215 290.700610L243.852438 288.506753
L244.089661 286.328552L244.326884 284.166059L244.801330 279.888383
L245.275776 275.674114L245.750222 271.523637L246.224669 267.437307
L246.699115 263.415435L247.173561 259.458298L248.122453 251.739272
L248.973920 245.035564L249.825387 238.543636L250.676854 232.264213
L251.528320 226.197739L253.231254 214.703967L254.763894 205.086430
L256.296534 196.152650L257.829175 187.894910L259.361815 180.302589
L260.894455 173.362246L262.031410 168.625498L262.031441 168.625816
L262.031472 168.626133L262.031535 168.626768L262.031660 168.628038
L262.031911 168.630578L262.032412 168.635658L262.033415 168.645817
L262.035420 168.666135L262.039430 168.706767L262.047451 168.788012
L262.063492 168.950434L262.095574 169.275000L262.159738 169.923021
L262.288067 171.214616L262.544725 173.779968L262.801383 176.321479
L263.058041 178.839072L263.314699 181.332668L263.828014 186.247603
L264.341330 191.065715L264.854646 195.786460L265.367961 200.409361
L265.881277 204.934028L266.394592 209.360141L267.116011 215.413521
L267.837430 221.271081L268.558848 226.932405L269.280267 232.397333
L270.001686 237.665906L270.723104 242.738411L271.444523 247.615331
L272.165942 252.297386L272.887360 256.785490L273.608779 261.080785
L274.330198 265.184608L275.051616 269.098516L275.773035 272.824258
L276.494454 276.363792L277.215872 279.719260L277.937291 282.893005
L278.658709 285.887547L279.380128 288.705592L280.101547 291.350016
L280.822965 293.823870L280.922051 294.150502L280.922081 294.150173
L280.922111 294.149844L280.922172 294.149185L280.922293 294.147868
L280.922535 294.145234L280.923020 294.139966L280.923990 294.129430
L280.925929 294.108359L280.929806 294.066221L280.937562 293.981957
L280.953074 293.813485L280.984098 293.476761L281.046146 292.804190
L281.170242 291.462570L281.418433 288.793486L281.666624 286.143366
L281.914815 283.512330L282.163006 280.900504L282.659388 275.734925
L283.155770 270.647583L283.652152 265.639442L284.148534 260.711407
L284.644916 255.864308L285.141298 251.098903L285.867819 244.272922
L286.594340 237.625668L287.320861 231.159115L288.047382 224.874985
L288.773904 218.774803L289.500425 212.859849L290.226946 207.131200
L290.953467 201.589699L291.679988 196.235978L292.406509 191.070437
L293.133030 186.093262L293.859551 181.304411L294.586072 176.703622
L296.039114 168.064085L297.492156 160.168188L298.945199 153.006072
L299.812691 149.074672L299.812721 149.074960L299.812750 149.075248
L299.812809 149.075823L299.812927 149.076975L299.813163 149.079278
L299.813635 149.083884L299.814579 149.093097L299.816466 149.111521
L299.820240 149.148365L299.827789 149.222042L299.842887 149.369347
L299.873082 149.663760L299.933472 150.251800L300.054253 151.424728
L300.295814 153.757939L300.537376 156.074240L300.778937 158.373563
L301.020498 160.655839L301.503621 165.169002L301.986744 169.613206
L302.469866 173.987928L302.952989 178.292687L303.436112 182.527051
L303.919235 186.690637L304.885480 194.804007L305.721682 201.593740
L306.557885 208.167064L307.394087 214.522927L308.230289 220.660571
L309.902694 232.279712L311.407858 241.989281L312.913022 250.993961
L314.418187 259.300284L315.923351 266.917872L317.428515 273.859346
L318.703332 279.221124L318.703364 279.220809L318.703395 279.220494
L318.703457 279.219864L318.703581 279.218605L318.703830 279.216086
L318.704328 279.211048L318.705323 279.200973L318.707313 279.180823
L318.711293 279.140527L318.719254 279.059953L318.735175 278.898867
L318.767018 278.576954L318.830704 277.934162L318.958076 276.652718
L319.212820 274.106433L319.467564 271.582347L319.722308 269.080541
L319.977052 266.601095L320.486540 261.709572L320.996027 256.908379
L321.505515 252.198104L322.015003 247.579269L322.524491 243.052323
L323.033979 238.617641L323.764801 232.418206L324.495623 226.410171
L325.226445 220.594198L325.957267 214.970699L326.688089 209.539884
L327.418912 204.301721L328.149734 199.255977L328.880556 194.402191
L329.611378 189.739700L330.342200 185.267616L331.073023 180.984852
L331.803845 176.890103L332.534667 172.981866L333.265489 169.258429
L333.996311 165.717888L334.727133 162.358142L335.457956 159.176902
L336.919600 153.339870L337.593973 150.878143L337.594004 150.878466
L337.594034 150.878790L337.594095 150.879437L337.594218 150.880732
L337.594462 150.883321L337.594950 150.888499L337.595927 150.898856
L337.597880 150.919568L337.601787 150.960988L337.609600 151.043814
L337.625226 151.209410L337.656478 151.540373L337.718983 152.201391
L337.843993 153.519777L338.094012 156.141892L338.344032 158.744384
L338.594051 161.327143L338.844071 163.890056L339.344110 168.955947
L339.844149 173.941202L340.344188 178.844962L340.844227 183.666430
L341.344266 188.404881L341.844305 193.059660L342.574327 199.703753
L343.304348 206.166373L344.034369 212.445898L344.764390 218.540959
L345.494411 224.450382L346.224432 230.173241L346.954454 235.708807
L347.684475 241.056587L348.414496 246.216296L349.144517 251.187876
L349.874538 255.971481L350.604559 260.567492L351.334581 264.976500
L352.064602 269.199316L352.794623 273.236958L354.254665 280.761856
L355.714708 287.563508L356.484614 290.864028L356.484644 290.863730
L356.484674 290.863432L356.484734 290.862837L356.484853 290.861646
L356.485091 290.859265L356.485568 290.854502L356.486522 290.844977
L356.488429 290.825927L356.492244 290.787831L356.499873 290.711651
L356.515132 290.559344L356.545650 290.254936L356.606687 289.646950
L356.728759 288.434302L356.972903 286.022347L357.217047 283.628237
L357.461192 281.252048L357.705336 278.893860L358.193625 274.231768
L358.681914 269.642555L359.170202 265.126820L359.658491 260.685112
L360.146780 256.317924L360.635069 252.025697L361.611646 243.667806
L362.439276 236.822910L363.266906 230.198170L364.094537 223.794750
L364.922167 217.613509L366.577427 205.919423L368.066522 196.160825
L369.555618 187.120516L371.044713 178.792251L372.533808 171.166614
L374.022903 164.231110L375.375255 158.517537L375.375286 158.517848
L375.375317 158.518160L375.375378 158.518784L375.375502 158.520031
L375.375748 158.522526L375.376241 158.527514L375.377226 158.537492
L375.379197 158.557446L375.383138 158.597350L375.391021 158.677142
L375.406787 158.836666L375.438319 159.155471L375.501383 159.792101
L375.627511 161.061447L375.879767 163.584424L376.132022 166.086390
L376.384278 168.567262L376.636534 171.026957L377.141045 175.882519
L377.645556 180.652452L378.150068 185.336142L378.654579 189.933035
L379.159091 194.442648L379.663602 198.864566L380.397263 205.137633
L381.130923 211.223403L381.864584 217.121029L382.598244 222.829912
L383.331905 228.349651L384.065566 233.680082L384.799226 238.821240
L385.532887 243.773387L386.266548 248.536984L387.000208 253.112715
L387.733869 257.501465L388.467530 261.704332L389.201190 265.722616
L389.934851 269.557823L390.668512 273.211652L392.135833 279.982954
L393.603154 286.053962L394.265896 288.571805L394.265927 288.571486
L394.265957 288.571166L394.266019 288.570527L394.266141 288.569248
L394.266385 288.566692L394.266875 288.561578L394.267853 288.551350
L394.269810 288.530896L394.273724 288.489992L394.281552 288.408198
L394.297207 288.244668L394.328518 287.917837L394.391140 287.265099
L394.516383 285.963317L394.766870 283.374595L395.017356 280.805737
L395.267843 278.256843L395.518330 275.728018L396.019303 270.730943
L396.520276 265.815297L397.021250 260.981869L397.522223 256.231385
L398.023197 251.564502L398.524170 246.981806L399.256338 240.436834
L399.988506 234.074471L400.720674 227.896131L401.452842 221.902979
L402.185010 216.095983L402.917178 210.475868L403.649346 205.043161
L404.381514 199.798156L405.113682 194.740943L405.845850 189.871384
L406.578018 185.189136L407.310185 180.693630L408.042353 176.384091
L409.506689 168.318744L410.971025 160.982695L412.435361 154.362316
L413.156537 151.359856L413.156567 151.360159L413.156597 151.360461
L413.156657 151.361066L413.156777 151.362275L413.157016 151.364694
L413.157495 151.369532L413.158453 151.379206L413.160368 151.398555
L413.164199 151.437249L413.171862 151.514625L413.187186 151.669322
L413.217835 151.978503L413.279133 152.596011L413.401730 153.827606
L413.646922 156.277066L413.892114 158.708158L414.137307 161.120800
L414.382499 163.514908L414.872884 168.247228L415.363268 172.904482
L415.853653 177.486040L416.344038 181.991319L416.834422 186.419795
L417.324807 190.771003L418.305576 199.239833L419.127719 206.097147
L419.949863 212.732319L420.772006 219.144151L421.594149 225.331754
L423.238436 237.032321L424.712767 246.758462L426.187098 255.764175
L427.661429 264.055594L429.135760 271.642016L430.610091 278.535809
L432.047178 284.603463L432.047209 284.603153L432.047239 284.602842
L432.047301 284.602221L432.047423 284.600978L432.047668 284.598493
L432.048158 284.593523L432.049138 284.583582L432.051097 284.563703
L432.055016 284.523947L432.062854 284.444450L432.078530 284.285516
L432.109881 283.967885L432.172585 283.333568L432.297991 282.068729
L432.548804 279.554274L432.799616 277.060177L433.050429 274.586523
L433.301242 272.133397L433.802867 267.289034L434.304492 262.527728
L434.806118 257.850112L435.307743 253.256764L435.809368 248.748190
L436.310994 244.324834L437.045721 238.000661L437.780448 231.861342
L438.515176 225.907845L439.249903 220.140892L439.984630 214.561009
L440.719357 209.168487L441.454084 203.963419L442.188812 198.945676
L442.923539 194.114926L443.658266 189.470618L444.392993 185.012000
L445.127720 180.738107L445.862448 176.647771L447.331902 169.012091
L448.801357 162.091626L450.270811 155.869982L450.937819 153.271369
L450.937850 153.271685L450.937880 153.272002L450.937941 153.272635
L450.938064 153.273900L450.938308 153.276432L450.938797 153.281495
L450.939775 153.291620L450.941730 153.311870L450.945641 153.352366
L450.953463 153.433345L450.969107 153.595244L451.000394 153.918811
L451.062969 154.565022L451.188118 155.853744L451.438418 158.416332
L451.688717 160.959039L451.939016 163.481770L452.189315 165.984427
L452.689914 170.929168L453.190512 175.792519L453.691111 180.573739
L454.191709 185.272144L454.692308 189.887121L455.192906 194.418124
L455.926314 200.903603L456.659722 207.206250L457.393129 213.324766
L458.126537 219.258102L458.859945 225.005402L459.593353 230.566051
L460.326760 235.939633L461.060168 241.125960L461.793576 246.125050
L462.526984 250.937141L463.260391 255.562682L463.993799 260.002338
L464.727207 264.256982L466.194022 272.215770L467.660838 279.450164
L469.127653 285.974459L469.828460 288.845864L469.828490 288.845558
L469.828520 288.845252L469.828581 288.844640L469.828701 288.843415
L469.828942 288.840967L469.829424 288.836070L469.830388 288.826276
L469.832315 288.806689L469.836170 288.767518L469.843880 288.689191
L469.859299 288.532590L469.890138 288.219609L469.951817 287.594521
L470.075174 286.347854L470.321887 283.868605L470.568601 281.408198
L470.815314 278.966719L471.062028 276.544254L471.555455 271.756677
L472.048882 267.046125L472.542309 262.413252L473.035736 257.858665
L473.529163 253.382902L474.022590 248.986447L475.009444 240.433298
L475.829396 233.571720L476.649348 226.934149L477.469299 220.521776
L478.289251 214.335484L479.929154 202.643046L481.405068 192.895296
L482.880981 183.879074L484.356894 175.587985L485.832807 168.012386
L487.308720 161.139496L488.719101 155.213861L488.719132 155.214171
L488.719162 155.214481L488.719223 155.215102L488.719345 155.216342
L488.719589 155.218824L488.720077 155.223786L488.721054 155.233711
L488.723007 155.253560L488.726912 155.293255L488.734723 155.372629
L488.750345 155.531320L488.781588 155.848470L488.844076 156.481839
L488.969050 157.744854L489.219000 160.255939L489.468949 162.747033
L489.718899 165.218051L489.968848 167.668907L490.468747 172.509822
L490.968646 177.269125L491.468544 181.946169L491.968443 186.540360
L492.468342 191.051176L492.968241 195.478156L493.703443 201.835699
L494.438646 208.009748L495.173848 213.999258L495.909051 219.803429
L496.644254 225.421652L497.379456 230.853557L498.114659 236.098966
L498.849862 241.157930L499.585064 246.030695L500.320267 250.717729
L501.055469 255.219701L501.790672 259.537494L502.525875 263.672191
L503.996280 271.397652L505.466685 278.408766L506.937090 284.721288
L507.609742 287.381126L507.609773 287.380812L507.609803 287.380497
L507.609864 287.379869L507.609986 287.378611L507.610230 287.376097
L507.610719 287.371068L507.611695 287.361010L507.613648 287.340896
L507.617555 287.300671L507.625368 287.220234L507.640994 287.059419
L507.672245 286.738020L507.734748 286.096142L507.859754 284.816080
L508.109767 282.270781L508.359779 279.745318L508.609791 277.239783
L508.859804 274.754272L509.359828 269.843657L509.859853 265.014190
L510.359878 260.266584L510.859902 255.601498L511.359927 251.019518
L511.859952 246.521166L512.594177 240.068480L513.328403 233.798588
L514.062629 227.712724L514.796854 221.811877L515.531080 216.096840
L516.265305 210.568169L516.999531 205.226221L517.733757 200.071124
L518.467982 195.102807L519.202208 190.320974L519.936434 185.725124
L520.670659 181.314540L521.404885 177.088299L522.873336 169.184115
L524.341787 162.001088L525.810238 155.524585L526.500000 152.721408"/>
</g>
<g id="line2d3">
<path style="fill: none; stroke: #ff0000; stroke-width: 1.000000; stroke-linejoin: miter; stroke-linecap: square;  opacity: 1.000000" clip-path="url(#pc3c5e41676658680e7b95047b5791c8e)" d="M73.125000 208.164336L73.125087 208.164077L73.125173 208.163818
L73.125346 208.163300L73.125692 208.162264L73.126384 208.160192
L73.127769 208.156049L73.130538 208.147761L73.136075 208.131186
L73.147151 208.098034L73.169302 208.031720L73.213604 207.899056
L73.302207 207.633589L73.479415 207.102088L73.833829 206.036830
L74.188244 204.968572L74.542658 203.897326L74.897073 202.823113
L75.605902 200.665878L76.314731 198.497102L77.023560 196.317108
L77.732389 194.126311L78.441218 191.925207L79.150047 189.714372
L80.166740 186.527569L81.183433 183.324090L82.200126 180.106233
L83.216819 176.876569L84.233512 173.637874L85.250206 170.393140
L86.266899 167.145525L87.283592 163.898353L88.300285 160.655078
L89.316978 157.419279L90.333671 154.194631L91.350364 150.984890
L92.015641 148.894479L92.015674 148.894374L92.015708 148.894269
L92.015775 148.894060L92.015908 148.893641L92.016175 148.892804
L92.016709 148.891128L92.017778 148.887778L92.019915 148.881078
L92.024189 148.867677L92.032737 148.840877L92.049832 148.787281
L92.084024 148.680108L92.152406 148.465846L92.289172 148.037692
L92.425938 147.610088L92.699469 146.756927L92.945647 145.991734
L93.191824 145.229537L93.438002 144.470762L93.684180 143.715848
L94.176536 142.219146L94.668892 140.742856L95.161248 139.290517
L95.653604 137.865511L96.145960 136.471026L96.638316 135.110118
L97.130672 133.785788L97.623028 132.501004L98.607739 130.061411
L99.492328 128.032499L100.376916 126.172922L101.261504 124.496528
L102.146092 123.016182L103.030681 121.743771L103.915269 120.690198
L104.799857 119.865365L106.569034 118.936484L108.161292 118.961458
L109.753551 119.835457L110.906282 121.010604L110.906306 121.010633
L110.906330 121.010662L110.906378 121.010721L110.906473 121.010837
L110.906664 121.011070L110.907047 121.011537L110.907812 121.012469
L110.909341 121.014335L110.912401 121.018070L110.918519 121.025548
L110.930757 121.040544L110.955232 121.070692L111.004181 121.131609
L111.102081 121.255914L111.297880 121.514313L111.493679 121.785633
L111.689477 122.069692L111.885276 122.366302L112.276874 122.996474
L112.668472 123.674632L113.060070 124.399173L113.451668 125.168501
L114.234863 126.835372L114.920539 128.426922L115.606215 130.133161
L116.291890 131.945720L116.977566 133.856239L117.663242 135.856374
L119.034593 140.092298L120.405945 144.587572L121.777296 149.277337
L123.148648 154.098318L124.519999 158.988959L125.891350 163.889703
L127.262702 168.743436L128.634053 173.495736L129.796923 177.407618
L129.796948 177.407702L129.796973 177.407785L129.797023 177.407951
L129.797124 177.408284L129.797325 177.408949L129.797727 177.410279
L129.798531 177.412939L129.800140 177.418259L129.803357 177.428899
L129.809791 177.450173L129.822659 177.492705L129.848394 177.577700
L129.874130 177.662627L129.899866 177.747487L129.951337 177.917046
L130.002808 178.086357L130.054280 178.255403L130.157223 178.592689
L130.260165 178.928912L130.466051 179.598225L130.671936 180.263410
L131.083708 181.581800L131.454302 182.755002L131.824896 183.916036
L132.195490 185.065319L132.566083 186.203281L133.307271 188.446747
L134.048459 190.649760L134.789647 192.815740L135.530835 194.947921
L136.272023 197.049326L137.013211 199.122818L137.754399 201.171187
L138.495587 203.197169L139.977963 207.192255L141.304232 210.715496
L142.630502 214.203717L143.956771 217.668455L145.283040 221.120059
L146.609309 224.567717L147.935578 228.019458L148.687564 229.981046
L148.687592 229.981120L148.687621 229.981194L148.687677 229.981342
L148.687791 229.981639L148.688018 229.982232L148.688472 229.983418
L148.689380 229.985790L148.691197 229.990534L148.694830 230.000022
L148.702097 230.018998L148.716630 230.056953L148.745696 230.132865
L148.803829 230.284707L148.920094 230.588432L149.152623 231.195889
L149.385153 231.803142L149.617683 232.409898L149.850212 233.015855
L150.315272 234.224267L150.780331 235.426005L151.245390 236.618608
L151.710450 237.799693L152.175509 238.966992L152.640569 240.118340
L153.324081 241.777035L154.007593 243.389954L154.691106 244.950589
L155.374618 246.452741L156.058130 247.890420L156.741643 249.257938
L157.425155 250.549830L158.108667 251.760921L158.792180 252.886274
L159.475692 253.921239L160.159204 254.861422L160.842717 255.702714
L161.526229 256.441272L162.893254 257.596239L164.260278 258.301174
L165.627303 258.535337L166.994327 258.282441L167.578205 258.022902
L167.578232 258.022887L167.578260 258.022873L167.578315 258.022844
L167.578424 258.022787L167.578644 258.022672L167.579084 258.022442
L167.579962 258.021982L167.581720 258.021062L167.585235 258.019219
L167.592265 258.015523L167.606324 258.008092L167.634444 257.993070
L167.690683 257.962392L167.803161 257.898519L168.028117 257.760845
L168.253074 257.610127L168.478030 257.446629L168.702986 257.270624
L169.152899 256.882110L169.602811 256.446777L170.052724 255.966931
L170.502636 255.444852L170.952549 254.882754L171.402462 254.282798
L172.302287 252.978086L173.079266 251.750022L173.856246 250.439569
L174.633225 249.057669L175.410204 247.615125L176.964163 244.590368
L178.362726 241.765238L179.761289 238.902769L181.159852 236.058315
L182.558415 233.284421L183.956978 230.630609L185.355541 228.143169
L186.468846 226.310712L186.468873 226.310670L186.468899 226.310627
L186.468953 226.310543L186.469060 226.310374L186.469274 226.310035
L186.469702 226.309359L186.470559 226.308005L186.472271 226.305299
L186.475697 226.299889L186.482549 226.289073L186.496251 226.267465
L186.523657 226.224342L186.551063 226.181310L186.578469 226.138370
L186.633280 226.052703L186.688092 225.967370L186.742903 225.882393
L186.852526 225.713517L186.962149 225.546060L187.181395 225.215309
L187.400641 224.890014L187.619887 224.570041L187.839133 224.255253
L188.277625 223.640720L188.716117 223.045324L189.154609 222.467924
L190.031594 221.362785L190.820879 220.418916L191.610165 219.516858
L192.399450 218.650704L193.188736 217.814702L193.978022 217.003256
L195.556593 215.432439L197.135164 213.896868L198.713736 212.358201
L200.292307 210.781281L201.870878 209.134118L203.449450 207.387978
L205.028021 205.517563L205.359487 205.106925L205.359519 205.106885
L205.359551 205.106845L205.359615 205.106765L205.359743 205.106605
L205.359999 205.106285L205.360511 205.105646L205.361536 205.104366
L205.363584 205.101808L205.367682 205.096689L205.375877 205.086449
L205.392268 205.065957L205.425049 205.024925L205.490611 204.942673
L205.621736 204.777443L205.883986 204.444291L206.146235 204.107821
L206.408485 203.768415L206.670735 203.426461L207.195234 202.736341
L207.719733 202.040533L208.244232 201.342218L208.768731 200.644481
L209.293230 199.950254L209.817730 199.262337L210.541300 198.328830
L211.264870 197.419765L211.988440 196.542106L212.712010 195.702501
L213.435580 194.907382L214.159150 194.162855L214.882720 193.474805
L215.606290 192.848797L216.329861 192.290167L217.053431 191.803921
L217.777001 191.394826L218.500571 191.067315L219.224141 190.825570
L219.947711 190.673440L220.671281 190.614517L221.394851 190.652061
L222.118421 190.789070L222.841992 191.028214L223.565562 191.371899
L224.250128 191.795183L224.250157 191.795203L224.250186 191.795224
L224.250245 191.795264L224.250363 191.795345L224.250598 191.795507
L224.251069 191.795832L224.252010 191.796480L224.253892 191.797778
L224.257657 191.800375L224.265186 191.805579L224.280245 191.816022
L224.310362 191.837048L224.370597 191.879658L224.491066 191.967089
L224.732003 192.150625L224.972941 192.345508L225.213879 192.551433
L225.454817 192.768083L225.936693 193.232391L226.418569 193.735911
L226.900445 194.276003L227.382320 194.850066L227.864196 195.455587
L228.346072 196.090123L229.309823 197.436364L230.106859 198.616131
L230.903894 199.844462L231.700930 201.110757L232.497966 202.404615
L234.092037 205.034719L235.519390 207.385080L236.946743 209.675835
L238.374096 211.857130L239.801449 213.882533L241.228803 215.709137
L242.656156 217.297649L243.140769 217.776426L243.140798 217.776454
L243.140827 217.776482L243.140884 217.776537L243.141000 217.776648
L243.141232 217.776869L243.141695 217.777311L243.142622 217.778195
L243.144475 217.779963L243.148182 217.783498L243.155595 217.790563
L243.170421 217.804668L243.200074 217.832788L243.259380 217.888661
L243.377992 217.998960L243.615215 218.213880L243.852438 218.421378
L244.089661 218.621661L244.326884 218.814941L244.801330 219.181280
L245.275776 219.522088L245.750222 219.839132L246.224669 220.134144
L246.699115 220.408786L247.173561 220.664668L248.122453 221.126643
L248.973920 221.493244L249.825387 221.823784L250.676854 222.126961
L251.528320 222.411220L253.231254 222.955303L254.763894 223.459084
L256.296534 224.019519L257.829175 224.674882L259.361815 225.459918
L260.894455 226.405737L262.031410 227.227568L262.031441 227.227592
L262.031472 227.227616L262.031535 227.227664L262.031660 227.227761
L262.031911 227.227954L262.032412 227.228341L262.033415 227.229115
L262.035420 227.230662L262.039430 227.233757L262.047451 227.239953
L262.063492 227.252361L262.095574 227.277244L262.159738 227.327275
L262.288067 227.428375L262.544725 227.634545L262.801383 227.845764
L263.058041 228.061699L263.314699 228.282003L263.828014 228.734457
L264.341330 229.200405L264.854646 229.677022L265.367961 230.161556
L265.881277 230.651387L266.394592 231.144000L267.116011 231.836214
L267.837430 232.522162L268.558848 233.195168L269.280267 233.848827
L270.001686 234.476913L270.723104 235.073481L271.444523 235.632773
L272.165942 236.149308L272.887360 236.617801L273.608779 237.033250
L274.330198 237.390867L275.051616 237.686150L275.773035 237.914820
L276.494454 238.072886L277.215872 238.156592L277.937291 238.162466
L278.658709 238.087277L279.380128 237.928078L280.101547 237.682168
L280.822965 237.347124L280.922051 237.294021L280.922081 237.294004
L280.922111 237.293988L280.922172 237.293955L280.922293 237.293889
L280.922535 237.293757L280.923020 237.293493L280.923990 237.292965
L280.925929 237.291907L280.929806 237.289791L280.937562 237.285551
L280.953074 237.277039L280.984098 237.259889L281.046146 237.225086
L281.170242 237.153491L281.418433 237.002522L281.666624 236.841413
L281.914815 236.670484L282.163006 236.490065L282.659388 236.101976
L283.155770 235.679777L283.652152 235.226216L284.148534 234.743993
L284.644916 234.235709L285.141298 233.703882L285.867819 232.888301
L286.594340 232.035520L287.320861 231.153287L288.047382 230.249141
L288.773904 229.330491L289.500425 228.404525L290.226946 227.478281
L290.953467 226.558577L291.679988 225.652063L292.406509 224.765156
L293.133030 223.904084L293.859551 223.074835L294.586072 222.283186
L296.039114 220.834575L297.492156 219.599678L298.945199 218.616057
L299.812691 218.162594L299.812721 218.162580L299.812750 218.162567
L299.812809 218.162540L299.812927 218.162485L299.813163 218.162376
L299.813635 218.162158L299.814579 218.161723L299.816466 218.160852
L299.820240 218.159113L299.827789 218.155640L299.842887 218.148719
L299.873082 218.134974L299.933472 218.107872L300.054253 218.055205
L300.295814 217.955890L300.537376 217.864424L300.778937 217.780567
L301.020498 217.704073L301.503621 217.572260L301.986744 217.467017
L302.469866 217.386294L302.952989 217.328078L303.436112 217.290437
L303.919235 217.271503L304.885480 217.282220L305.721682 217.334472
L306.557885 217.416803L307.394087 217.520154L308.230289 217.635722
L309.902694 217.869790L311.407858 218.039969L312.913022 218.126534
L314.418187 218.089409L315.923351 217.892147L317.428515 217.502040
L318.703332 216.999257L318.703364 216.999243L318.703395 216.999228
L318.703457 216.999200L318.703581 216.999142L318.703830 216.999028
L318.704328 216.998798L318.705323 216.998339L318.707313 216.997421
L318.711293 216.995584L318.719254 216.991904L318.735175 216.984524
L318.767018 216.969683L318.830704 216.939679L318.958076 216.878409
L319.212820 216.750991L319.467564 216.617301L319.722308 216.477656
L319.977052 216.332386L320.486540 216.026174L320.996027 215.701259
L321.505515 215.360342L322.015003 215.006054L322.524491 214.640911
L323.033979 214.267332L323.764801 213.721560L324.495623 213.170384
L325.226445 212.620669L325.957267 212.079021L326.688089 211.551875
L327.418912 211.045399L328.149734 210.565578L328.880556 210.118135
L329.611378 209.708595L330.342200 209.342214L331.073023 209.024036
L331.803845 208.758830L332.534667 208.551139L333.265489 208.405231
L333.996311 208.325135L334.727133 208.314607L335.457956 208.377156
L336.919600 208.734168L337.593973 209.008160L337.594004 209.008174
L337.594034 209.008188L337.594095 209.008216L337.594218 209.008272
L337.594462 209.008384L337.594950 209.008609L337.595927 209.009057
L337.597880 209.009955L337.601787 209.011752L337.609600 209.015353
L337.625226 209.022584L337.656478 209.037162L337.718983 209.066774
L337.843993 209.127804L338.094012 209.256914L338.344032 209.395197
L338.594051 209.542336L338.844071 209.698004L339.344110 210.033725
L339.844149 210.399763L340.344188 210.793406L340.844227 211.211997
L341.344266 211.652982L341.844305 212.113889L342.574327 212.817423
L343.304348 213.550549L344.034369 214.305760L344.764390 215.075771
L345.494411 215.853436L346.224432 216.631841L346.954454 217.404233
L347.684475 218.164086L348.414496 218.905056L349.144517 219.621034
L349.874538 220.306111L350.604559 220.954625L351.334581 221.561131
L352.064602 222.120431L352.794623 222.627564L354.254665 223.466744
L355.714708 224.043988L356.484614 224.232341L356.484644 224.232347
L356.484674 224.232353L356.484734 224.232364L356.484853 224.232387
L356.485091 224.232432L356.485568 224.232523L356.486522 224.232704
L356.488429 224.233065L356.492244 224.233787L356.499873 224.235223
L356.515132 224.238072L356.545650 224.243669L356.606687 224.254464
L356.728759 224.274478L356.972903 224.308350L357.217047 224.334200
L357.461192 224.352288L357.705336 224.362883L358.193625 224.362588
L358.681914 224.335452L359.170202 224.283705L359.658491 224.209532
L360.146780 224.115033L360.635069 224.002237L361.611646 223.729933
L362.439276 223.460131L363.266906 223.164578L364.094537 222.852499
L364.922167 222.532862L366.577427 221.905250L368.066522 221.398528
L369.555618 220.992670L371.044713 220.728433L372.533808 220.642884
L374.022903 220.769289L375.375255 221.092488L375.375286 221.092498
L375.375317 221.092508L375.375378 221.092527L375.375502 221.092566
L375.375748 221.092645L375.376241 221.092801L375.377226 221.093114
L375.379197 221.093741L375.383138 221.094995L375.391021 221.097509
L375.406787 221.102559L375.438319 221.112748L375.501383 221.133477
L375.627511 221.176318L375.879767 221.267363L376.132022 221.365338
L376.384278 221.469937L376.636534 221.580845L377.141045 221.820433
L377.645556 222.081606L378.150068 222.361767L378.654579 222.658380
L379.159091 222.969018L379.663602 223.291343L380.397263 223.776118
L381.130923 224.273613L381.864584 224.776885L382.598244 225.279242
L383.331905 225.774149L384.065566 226.255330L384.799226 226.716686
L385.532887 227.152365L386.266548 227.556712L387.000208 227.924325
L387.733869 228.250017L388.467530 228.528857L389.201190 228.756144
L389.934851 228.927437L390.668512 229.038536L392.135833 229.064650
L393.603154 228.806019L394.265896 228.589170L394.265927 228.589159
L394.265957 228.589147L394.266019 228.589124L394.266141 228.589078
L394.266385 228.588986L394.266875 228.588803L394.267853 228.588435
L394.269810 228.587698L394.273724 228.586224L394.281552 228.583268
L394.297207 228.577330L394.328518 228.565344L394.391140 228.540943
L394.516383 228.490441L394.766870 228.382805L395.017356 228.266554
L395.267843 228.141997L395.518330 228.009457L396.019303 227.721610
L396.520276 227.405561L397.021250 227.063971L397.522223 226.699448
L398.023197 226.314492L398.524170 225.911525L399.256338 225.295221
L399.988506 224.653058L400.720674 223.992390L401.452842 223.320339
L402.185010 222.643886L402.917178 221.969771L403.649346 221.304573
L404.381514 220.654636L405.113682 220.026121L405.845850 219.424947
L406.578018 218.856832L407.310185 218.327245L408.042353 217.841434
L409.506689 217.020877L410.971025 216.432221L412.435361 216.108576
L413.156537 216.055593L413.156567 216.055592L413.156597 216.055592
L413.156657 216.055590L413.156777 216.055588L413.157016 216.055582
L413.157495 216.055572L413.158453 216.055550L413.160368 216.055508
L413.164199 216.055425L413.171862 216.055265L413.187186 216.054969
L413.217835 216.054480L413.279133 216.053899L413.401730 216.054314
L413.646922 216.061299L413.892114 216.076298L414.137307 216.099037
L414.382499 216.129236L414.872884 216.210984L415.363268 216.319316
L415.853653 216.451908L416.344038 216.606487L416.834422 216.780867
L417.324807 216.972937L418.305576 217.401641L419.127719 217.796867
L419.949863 218.214643L420.772006 218.645690L421.594149 219.080992
L423.238436 219.929838L424.712767 220.621729L426.187098 221.202314
L427.661429 221.631050L429.135760 221.871061L430.610091 221.889250
L432.047178 221.665572L432.047209 221.665565L432.047239 221.665557
L432.047301 221.665542L432.047423 221.665512L432.047668 221.665453
L432.048158 221.665333L432.049138 221.665093L432.051097 221.664614
L432.055016 221.663654L432.062854 221.661727L432.078530 221.657850
L432.109881 221.650004L432.172585 221.633943L432.297991 221.600364
L432.548804 221.527545L432.799616 221.447393L433.050429 221.360207
L433.301242 221.266296L433.802867 221.059434L434.304492 220.829250
L434.806118 220.578291L435.307743 220.309046L435.809368 220.023901
L436.310994 219.725154L437.045721 219.267828L437.780448 218.793353
L438.515176 218.308722L439.249903 217.820689L439.984630 217.335849
L440.719357 216.860553L441.454084 216.400976L442.188812 215.963051
L442.923539 215.552521L443.658266 215.174882L444.392993 214.835418
L445.127720 214.539162L445.862448 214.290922L447.331902 213.956443
L448.801357 213.865455L450.270811 214.047460L450.937819 214.227162
L450.937850 214.227172L450.937880 214.227182L450.937941 214.227201
L450.938064 214.227240L450.938308 214.227317L450.938797 214.227472
L450.939775 214.227782L450.941730 214.228402L450.945641 214.229643
L450.953463 214.232133L450.969107 214.237138L451.000394 214.247252
L451.062969 214.267897L451.188118 214.310823L451.438418 214.403058
L451.688717 214.503583L451.939016 214.612090L452.189315 214.728266
L452.689914 214.982459L453.190512 215.263655L453.691111 215.569243
L454.191709 215.896664L454.692308 216.243463L455.192906 216.607267
L455.926314 217.166017L456.659722 217.748827L457.393129 218.348444
L458.126537 218.957846L458.859945 219.570161L459.593353 220.178752
L460.326760 220.777150L461.060168 221.359122L461.793576 221.918618
L462.526984 222.449830L463.260391 222.947157L463.993799 223.405243
L464.727207 223.818957L466.194022 224.493991L467.660838 224.936129
L469.127653 225.113189L469.828460 225.095863L469.828490 225.095861
L469.828520 225.095859L469.828581 225.095854L469.828701 225.095845
L469.828942 225.095827L469.829424 225.095792L469.830388 225.095720
L469.832315 225.095577L469.836170 225.095290L469.843880 225.094708
L469.859299 225.093519L469.890138 225.091041L469.951817 225.085684
L470.075174 225.073390L470.321887 225.042634L470.568601 225.003853
L470.815314 224.957332L471.062028 224.903358L471.555455 224.774123
L472.048882 224.618450L472.542309 224.438740L473.035736 224.237344
L473.529163 224.016519L474.022590 223.778448L475.009444 223.259350
L475.829396 222.794559L476.649348 222.309614L477.469299 221.813833
L478.289251 221.316272L479.929154 220.350474L481.405068 219.559669
L482.880981 218.889626L484.356894 218.381350L485.832807 218.072103
L487.308720 217.995309L488.719101 218.166295L488.719132 218.166301
L488.719162 218.166308L488.719223 218.166321L488.719345 218.166347
L488.719589 218.166398L488.720077 218.166501L488.721054 218.166708
L488.723007 218.167122L488.726912 218.167951L488.734723 218.169615
L488.750345 218.172966L488.781588 218.179765L488.844076 218.193744
L488.969050 218.223201L489.219000 218.287954L489.468949 218.360277
L489.718899 218.439876L489.968848 218.526445L490.468747 218.719371
L490.968646 218.936635L491.468544 219.175716L491.968443 219.434149
L492.468342 219.709570L492.968241 219.999699L493.703443 220.448313
L494.438646 220.916674L495.173848 221.397746L495.909051 221.884735
L496.644254 222.370999L497.379456 222.850137L498.114659 223.315921
L498.849862 223.762359L499.585064 224.183651L500.320267 224.574237
L501.055469 224.928767L501.790672 225.242142L502.525875 225.509482
L503.996280 225.887813L505.466685 226.029678L506.937090 225.904946
L507.609742 225.751747L507.609773 225.751739L507.609803 225.751730
L507.609864 225.751714L507.609986 225.751680L507.610230 225.751613
L507.610719 225.751479L507.611695 225.751211L507.613648 225.750674
L507.617555 225.749599L507.625368 225.747442L507.640994 225.743103
L507.672245 225.734322L507.734748 225.716354L507.859754 225.678815
L508.109767 225.597490L508.359779 225.508055L508.609791 225.410810
L508.859804 225.306068L509.359828 225.075238L509.859853 224.818036
L510.359878 224.537040L510.859902 224.234773L511.359927 223.913657
L511.859952 223.576028L512.594177 223.055246L513.328403 222.511196
L514.062629 221.951072L514.796854 221.381836L515.531080 220.810301
L516.265305 220.243041L516.999531 219.686462L517.733757 219.146735
L518.467982 218.629845L519.202208 218.141537L519.936434 217.687348
L520.670659 217.272568L521.404885 216.902266L522.873336 216.314112
L524.341787 215.958503L525.810238 215.867113L526.500000 215.923382"/>
</g>
<g id="matplotlib.axis1">
<g id="xtick1">
<g id="line2d4">
<defs><path id="m30e32995789d870ad79a2e54c91cf9c6" d="M0.000000 0.000000L0.000000 -4.000000"/></defs>
<g ><use style="fill: none; stroke: #000000; stroke-width: 0.500000; stroke-linejoin: miter; stroke-linecap: butt;  opacity: 1.000000" xlink:href="#m30e32995789d870ad79a2e54c91cf9c6" x="73.125000" y="396.900000"/>
</g></g>
<g id="line2d5">
<defs><path id="m9281cae24120827b11d5ea8a7ad3e96b" d="M0.000000 0.000000L0.000000 4.000000"/></defs>
<g ><use style="fill: none; stroke: #000000; stroke-width: 0.500000; stroke-linejoin: miter; stroke-linecap: butt;  opacity: 1.000000" xlink:href="#m9281cae24120827b11d5ea8a7ad3e96b" x="73.125000" y="44.100000"/>
</g></g>
<defs>
<path id="c_7a2040fe3b94fcd41d0a72c84e93b115" d="M31.781250 -66.406250q-7.609375 0.000000 -11.453125 7.500000q-3.828125 7.484375 -3.828125 22.531250q0.000000 14.984375 3.828125 22.484375q3.843750 7.500000 11.453125 7.500000q7.671875 0.000000 11.500000 -7.500000q3.843750 -7.500000 3.843750 -22.484375q0.000000 -15.046875 -3.843750 -22.531250q-3.828125 -7.500000 -11.500000 -7.500000M31.781250 -74.218750q12.265625 0.000000 18.734375 9.703125q6.468750 9.687500 6.468750 28.140625q0.000000 18.406250 -6.468750 28.109375q-6.468750 9.687500 -18.734375 9.687500q-12.250000 0.000000 -18.718750 -9.687500q-6.468750 -9.703125 -6.468750 -28.109375q0.000000 -18.453125 6.468750 -28.140625q6.468750 -9.703125 18.718750 -9.703125"/>
</defs>
<g style="fill: #000000; opacity: 1.000000" transform="translate(70.101562,409.806250)scale(0.120000)">
<use xlink:href="#c_7a2040fe3b94fcd41d0a72c84e93b115"/>
</g>
</g>
<g id="xtick2">
<g id="line2d6">
<g ><use style="fill: none; stroke: #000000; stroke-width: 0.500000; stroke-linejoin: miter; stroke-linecap: butt;  opacity: 1.000000" xlink:href="#m30e32995789d870ad79a2e54c91cf9c6" x="186.468750" y="396.900000"/>
</g></g>
<g id="line2d7">
<g ><use style="fill: none; stroke: #000000; stroke-width: 0.500000; stroke-linejoin: miter; stroke-linecap: butt;  opacity: 1.000000" xlink:href="#m9281cae24120827b11d5ea8a7ad3e96b" x="186.468750" y="44.100000"/>
</g></g>
<defs>
<path id="c_1260a2df50f305f3db244e29828f968e" d="M10.796875 -72.906250l38.718750 0.000000l0.000000 8.312500l-29.687500 0.000000l0.000000 17.859375q2.140625 -0.734375 4.281250 -1.093750q2.156250 -0.359375 4.312500 -0.359375q12.203125 0.000000 19.328125 6.687500q7.140625 6.687500 7.140625 18.109375q0.000000 11.765625 -7.328125 18.296875q-7.328125 6.515625 -20.656250 6.515625q-4.593750 0.000000 -9.359375 -0.781250q-4.750000 -0.781250 -9.828125 -2.343750l0.000000 -9.921875q4.390625 2.390625 9.078125 3.562500q4.687500 1.171875 9.906250 1.171875q8.453125 0.000000 13.375000 -4.437500q4.937500 -4.437500 4.937500 -12.062500q0.000000 -7.609375 -4.937500 -12.046875q-4.921875 -4.453125 -13.375000 -4.453125q-3.953125 0.000000 -7.890625 0.875000q-3.921875 0.875000 -8.015625 2.734375z"/>
</defs>
<g style="fill: #000000; opacity: 1.000000" transform="translate(183.632812,409.650000)scale(0.120000)">
<use xlink:href="#c_1260a2df50f305f3db244e29828f968e"/>
</g>
</g>
<g id="xtick3">
<g id="line2d8">
<g ><use style="fill: none; stroke: #000000; stroke-width: 0.500000; stroke-linejoin: miter; stroke-linecap: butt;  opacity: 1.000000" xlink:href="#m30e32995789d870ad79a2e54c91cf9c6" x="299.812500" y="396.900000"/>
</g></g>
<g id="line2d9">
<g ><use style="fill: none; stroke: #000000; stroke-width: 0.500000; stroke-linejoin: miter; stroke-linecap: butt;  opacity: 1.000000" xlink:href="#m9281cae24120827b11d5ea8a7ad3e96b" x="299.812500" y="44.100000"/>
</g></g>
<defs>
<path id="c_42baa63129a918535c52adb20d687ea7" d="M12.406250 -8.296875l16.109375 0.000000l0.000000 -55.625000l-17.531250 3.515625l0.000000 -8.984375l17.437500 -3.515625l9.859375 0.000000l0.000000 64.609375l16.109375 0.000000l0.000000 8.296875l-41.984375 0.000000z"/>
</defs>
<g style="fill: #000000; opacity: 1.000000" transform="translate(293.226562,409.806250)scale(0.120000)">
<use xlink:href="#c_42baa63129a918535c52adb20d687ea7"/>
<use xlink:href="#c_7a2040fe3b94fcd41d0a72c84e93b115" x="63.623047"/>
</g>
</g>
<g id="xtick4">
<g id="line2d10">
<g ><use style="fill: none; stroke: #000000; stroke-width: 0.500000; stroke-linejoin: miter; stroke-linecap: butt;  opacity: 1.000000" xlink:href="#m30e32995789d870ad79a2e54c91cf9c6" x="413.156250" y="396.900000"/>
</g></g>
<g id="line2d11">
<g ><use style="fill: none; stroke: #000000; stroke-width: 0.500000; stroke-linejoin: miter; stroke-linecap: butt;  opacity: 1.000000" xlink:href="#m9281cae24120827b11d5ea8a7ad3e96b" x="413.156250" y="44.100000"/>
</g></g>
<g style="fill: #000000; opacity: 1.000000" transform="translate(406.695313,409.650000)scale(0.120000)">
<use xlink:href="#c_42baa63129a918535c52adb20d687ea7"/>
<use xlink:href="#c_1260a2df50f305f3db244e29828f968e" x="63.623047"/>
</g>
</g>
<g id="xtick5">
<g id="line2d12">
<g ><use style="fill: none; stroke: #000000; stroke-width: 0.500000; stroke-linejoin: miter; stroke-linecap: butt;  opacity: 1.000000" xlink:href="#m30e32995789d870ad79a2e54c91cf9c6" x="526.500000" y="396.900000"/>
</g></g>
<g id="line2d13">
<g ><use style="fill: none; stroke: #000000; stroke-width: 0.500000; stroke-linejoin: miter; stroke-linecap: butt;  opacity: 1.000000" xlink:href="#m9281cae24120827b11d5ea8a7ad3e96b" x="526.500000" y="44.100000"/>
</g></g>
<defs>
<path id="c_ed3f3ed3ebfbd18bcb9c012009a68ad1" d="M19.187500 -8.296875l34.421875 0.000000l0.000000 8.296875l-46.281250 0.000000l0.000000 -8.296875q5.609375 -5.812500 15.296875 -15.593750q9.703125 -9.796875 12.187500 -12.640625q4.734375 -5.312500 6.609375 -9.000000q1.890625 -3.687500 1.890625 -7.250000q0.000000 -5.812500 -4.078125 -9.468750q-4.078125 -3.671875 -10.625000 -3.671875q-4.640625 0.000000 -9.796875 1.609375q-5.140625 1.609375 -11.000000 4.890625l0.000000 -9.968750q5.953125 -2.390625 11.125000 -3.609375q5.187500 -1.218750 9.484375 -1.218750q11.328125 0.000000 18.062500 5.671875q6.734375 5.656250 6.734375 15.125000q0.000000 4.500000 -1.687500 8.531250q-1.671875 4.015625 -6.125000 9.484375q-1.218750 1.421875 -7.765625 8.187500q-6.531250 6.765625 -18.453125 18.921875"/>
</defs>
<g style="fill: #000000; opacity: 1.000000" transform="translate(519.695312,409.806250)scale(0.120000)">
<use xlink:href="#c_ed3f3ed3ebfbd18bcb9c012009a68ad1"/>
<use xlink:href="#c_7a2040fe3b94fcd41d0a72c84e93b115" x="63.623047"/>
</g>
</g>
</g>
<g id="matplotlib.axis2">
<g id="ytick1">
<g id="line2d14">
<defs><path id="m3400efa6b1638b3fea9e19e898273957" d="M0.000000 0.000000L4.000000 0.000000"/></defs>
<g ><use style="fill: none; stroke: #000000; stroke-width: 0.500000; stroke-linejoin: miter; stroke-linecap: butt;  opacity: 1.000000" xlink:href="#m3400efa6b1638b3fea9e19e898273957" x="73.125000" y="380.863636"/>
</g></g>
<g id="line2d15">
<defs><path id="m20b58b2501143cb5e0a5e8f1ef6f1643" d="M0.000000 0.000000L-4.000000 0.000000"/></defs>
<g ><use style="fill: none; stroke: #000000; stroke-width: 0.500000; stroke-linejoin: miter; stroke-linecap: butt;  opacity: 1.000000" xlink:href="#m20b58b2501143cb5e0a5e8f1ef6f1643" x="526.500000" y="380.863636"/>
</g></g>
<defs>
<path id="c_6a8d56c819c37117ab4cf023bec22a5a" d="M10.593750 -35.500000l62.593750 0.000000l0.000000 8.296875l-62.593750 0.000000z"/>
<path id="c_ed3e21196fb739f392806f09ca0594ef" d="M10.687500 -12.406250l10.312500 0.000000l0.000000 12.406250l-10.312500 0.000000z"/>
</defs>
<g style="fill: #000000; opacity: 1.000000" transform="translate(42.031250,385.230824)scale(0.120000)">
<use xlink:href="#c_6a8d56c819c37117ab4cf023bec22a5a"/>
<use xlink:href="#c_42baa63129a918535c52adb20d687ea7" x="83.789062"/>
<use xlink:href="#c_ed3e21196fb739f392806f09ca0594ef" x="147.412109"/>
<use xlink:href="#c_7a2040fe3b94fcd41d0a72c84e93b115" x="179.199219"/>
</g>
</g>
<g id="ytick2">
<g id="line2d16">
<g ><use style="fill: none; stroke: #000000; stroke-width: 0.500000; stroke-linejoin: miter; stroke-linecap: butt;  opacity: 1.000000" xlink:href="#m3400efa6b1638b3fea9e19e898273957" x="73.125000" y="300.681818"/>
</g></g>
<g id="line2d17">
<g ><use style="fill: none; stroke: #000000; stroke-width: 0.500000; stroke-linejoin: miter; stroke-linecap: butt;  opacity: 1.000000" xlink:href="#m20b58b2501143cb5e0a5e8f1ef6f1643" x="526.500000" y="300.681818"/>
</g></g>
<g style="fill: #000000; opacity: 1.000000" transform="translate(42.281250,305.049006)scale(0.120000)">
<use xlink:href="#c_6a8d56c819c37117ab4cf023bec22a5a"/>
<use xlink:href="#c_7a2040fe3b94fcd41d0a72c84e93b115" x="83.789062"/>
<use xlink:href="#c_ed3e21196fb739f392806f09ca0594ef" x="147.412109"/>
<use xlink:href="#c_1260a2df50f305f3db244e29828f968e" x="179.199219"/>
</g>
</g>
<g id="ytick3">
<g id="line2d18">
<g ><use style="fill: none; stroke: #000000; stroke-width: 0.500000; stroke-linejoin: miter; stroke-linecap: butt;  opacity: 1.000000" xlink:href="#m3400efa6b1638b3fea9e19e898273957" x="73.125000" y="220.500000"/>
</g></g>
<g id="line2d19">
<g ><use style="fill: none; stroke: #000000; stroke-width: 0.500000; stroke-linejoin: miter; stroke-linecap: butt;  opacity: 1.000000" xlink:href="#m20b58b2501143cb5e0a5e8f1ef6f1643" x="526.500000" y="220.500000"/>
</g></g>
<g style="fill: #000000; opacity: 1.000000" transform="translate(51.625000,224.867187)scale(0.120000)">
<use xlink:href="#c_7a2040fe3b94fcd41d0a72c84e93b115"/>
<use xlink:href="#c_ed3e21196fb739f392806f09ca0594ef" x="63.623047"/>
<use xlink:href="#c_7a2040fe3b94fcd41d0a72c84e93b115" x="95.410156"/>
</g>
</g>
<g id="ytick4">
<g id="line2d20">
<g ><use style="fill: none; stroke: #000000; stroke-width: 0.500000; stroke-linejoin: miter; stroke-linecap: butt;  opacity: 1.000000" xlink:href="#m3400efa6b1638b3fea9e19e898273957" x="73.125000" y="140.318182"/>
</g></g>
<g id="line2d21">
<g ><use style="fill: none; stroke: #000000; stroke-width: 0.500000; stroke-linejoin: miter; stroke-linecap: butt;  opacity: 1.000000" xlink:href="#m20b58b2501143cb5e0a5e8f1ef6f1643" x="526.500000" y="140.318182"/>
</g></g>
<g style="fill: #000000; opacity: 1.000000" transform="translate(51.875000,144.685369)scale(0.120000)">
<use xlink:href="#c_7a2040fe3b94fcd41d0a72c84e93b115"/>
<use xlink:href="#c_ed3e21196fb739f392806f09ca0594ef" x="63.623047"/>
<use xlink:href="#c_1260a2df50f305f3db244e29828f968e" x="95.410156"/>
</g>
</g>
<g id="ytick5">
<g id="line2d22">
<g ><use style="fill: none; stroke: #000000; stroke-width: 0.500000; stroke-linejoin: miter; stroke-linecap: butt;  opacity: 1.000000" xlink:href="#m3400efa6b1638b3fea9e19e898273957" x="73.125000" y="60.136364"/>
</g></g>
<g id="line2d23">
<g ><use style="fill: none; stroke: #000000; stroke-width: 0.500000; stroke-linejoin: miter; stroke-linecap: butt;  opacity: 1.000000" xlink:href="#m20b58b2501143cb5e0a5e8f1ef6f1643" x="526.500000" y="60.136364"/>
</g></g>
<g style="fill: #000000; opacity: 1.000000" transform="translate(52.140625,64.503551)scale(0.120000)">
<use xlink:href="#c_42baa63129a918535c52adb20d687ea7"/>
<use xlink:href="#c_ed3e21196fb739f392806f09ca0594ef" x="63.623047"/>
<use xlink:href="#c_7a2040fe3b94fcd41d0a72c84e93b115" x="95.410156"/>
</g>
</g>
</g>
<path style="fill: none; stroke: #000000; stroke-width: 1.000000; stroke-linejoin: miter; stroke-linecap: square;  opacity: 1.000000"  d="M73.125000 396.900000L526.500000 396.900000L526.500000 44.100000
L73.125000 44.100000L73.125000 396.900000"/>
<g id="legend1">
<path style="fill: #ffffff; stroke: #000000; stroke-width: 1.000000; stroke-linejoin: miter; stroke-linecap: square;  opacity: 1.000000"  d="M392.866250 115.157500L519.300000 115.157500L519.300000 51.300000
L392.866250 51.300000L392.866250 115.157500z"/>
<g id="line2d24">
<path style="fill: none; stroke: #0000ff; stroke-width: 1.000000; stroke-linejoin: miter; stroke-linecap: square;  opacity: 1.000000"  d="M402.946250 62.660625L423.106250 62.660625"/>
</g>
<g id="line2d25">
</g>
<defs>
<path id="c_8e0810ad13fe20a2a87a2619799b154d" d="M44.281250 -53.078125l0.000000 8.500000q-3.796875 -1.953125 -7.906250 -2.921875q-4.093750 -0.984375 -8.500000 -0.984375q-6.687500 0.000000 -10.031250 2.046875q-3.343750 2.046875 -3.343750 6.156250q0.000000 3.125000 2.390625 4.906250q2.390625 1.781250 9.625000 3.390625l3.078125 0.687500q9.562500 2.046875 13.593750 5.781250q4.031250 3.734375 4.031250 10.421875q0.000000 7.625000 -6.031250 12.078125q-6.031250 4.437500 -16.578125 4.437500q-4.390625 0.000000 -9.156250 -0.859375q-4.765625 -0.859375 -10.031250 -2.562500l0.000000 -9.281250q4.984375 2.593750 9.812500 3.890625q4.828125 1.281250 9.578125 1.281250q6.343750 0.000000 9.750000 -2.171875q3.421875 -2.171875 3.421875 -6.125000q0.000000 -3.656250 -2.468750 -5.609375q-2.453125 -1.953125 -10.812500 -3.765625l-3.125000 -0.734375q-8.343750 -1.750000 -12.062500 -5.390625q-3.703125 -3.640625 -3.703125 -9.984375q0.000000 -7.718750 5.468750 -11.906250q5.468750 -4.203125 15.531250 -4.203125q4.968750 0.000000 9.359375 0.734375q4.406250 0.718750 8.109375 2.187500"/>
<path id="c_a66ecc39892414b9ca9362e0fffdc75b" d="M14.796875 -27.296875q0.000000 9.906250 4.078125 15.546875q4.078125 5.640625 11.203125 5.640625q7.125000 0.000000 11.218750 -5.640625q4.109375 -5.640625 4.109375 -15.546875q0.000000 -9.906250 -4.109375 -15.546875q-4.093750 -5.640625 -11.218750 -5.640625q-7.125000 0.000000 -11.203125 5.640625q-4.078125 5.640625 -4.078125 15.546875M45.406250 -8.203125q-2.828125 4.875000 -7.156250 7.250000q-4.312500 2.375000 -10.375000 2.375000q-9.906250 0.000000 -16.140625 -7.906250q-6.218750 -7.921875 -6.218750 -20.812500q0.000000 -12.890625 6.218750 -20.796875q6.234375 -7.906250 16.140625 -7.906250q6.062500 0.000000 10.375000 2.375000q4.328125 2.359375 7.156250 7.234375l0.000000 -8.296875l8.984375 0.000000l0.000000 75.484375l-8.984375 0.000000z"/>
<path id="c_c438d87e693443c2861ebd6359e6491e" d="M8.500000 -21.578125l0.000000 -33.109375l8.984375 0.000000l0.000000 32.765625q0.000000 7.765625 3.015625 11.656250q3.031250 3.875000 9.093750 3.875000q7.265625 0.000000 11.484375 -4.640625q4.234375 -4.640625 4.234375 -12.656250l0.000000 -31.000000l8.984375 0.000000l0.000000 54.687500l-8.984375 0.000000l0.000000 -8.406250q-3.265625 4.984375 -7.593750 7.406250q-4.312500 2.421875 -10.031250 2.421875q-9.421875 0.000000 -14.312500 -5.859375q-4.875000 -5.859375 -4.875000 -17.140625"/>
<path id="c_01d93a582460e35a7945ca50d148ffeb" d="M34.281250 -27.484375q-10.890625 0.000000 -15.093750 2.484375q-4.203125 2.484375 -4.203125 8.500000q0.000000 4.781250 3.156250 7.593750q3.156250 2.796875 8.562500 2.796875q7.484375 0.000000 12.000000 -5.296875q4.515625 -5.296875 4.515625 -14.078125l0.000000 -2.000000zM52.203125 -31.203125l0.000000 31.203125l-8.984375 0.000000l0.000000 -8.296875q-3.078125 4.968750 -7.671875 7.343750q-4.593750 2.375000 -11.234375 2.375000q-8.390625 0.000000 -13.359375 -4.718750q-4.953125 -4.718750 -4.953125 -12.625000q0.000000 -9.218750 6.171875 -13.906250q6.187500 -4.687500 18.437500 -4.687500l12.609375 0.000000l0.000000 -0.890625q0.000000 -6.203125 -4.078125 -9.593750q-4.078125 -3.390625 -11.453125 -3.390625q-4.687500 0.000000 -9.140625 1.125000q-4.437500 1.125000 -8.531250 3.375000l0.000000 -8.312500q4.921875 -1.906250 9.562500 -2.843750q4.640625 -0.953125 9.031250 -0.953125q11.875000 0.000000 17.734375 6.156250q5.859375 6.140625 5.859375 18.640625"/>
<path id="c_6ec8d5749226675394676a5d2a3b468b" d="M41.109375 -46.296875q-1.515625 -0.875000 -3.296875 -1.281250q-1.781250 -0.421875 -3.921875 -0.421875q-7.625000 0.000000 -11.703125 4.953125q-4.078125 4.953125 -4.078125 14.234375l0.000000 28.812500l-9.031250 0.000000l0.000000 -54.687500l9.031250 0.000000l0.000000 8.500000q2.843750 -4.984375 7.375000 -7.390625q4.546875 -2.421875 11.046875 -2.421875q0.921875 0.000000 2.046875 0.125000q1.125000 0.109375 2.484375 0.359375z"/>
<path id="c_0bce5afba2dc6b9024b26277c38ad8e8" d="M56.203125 -29.593750l0.000000 4.390625l-41.312500 0.000000q0.593750 9.281250 5.593750 14.140625q5.000000 4.859375 13.937500 4.859375q5.171875 0.000000 10.031250 -1.265625q4.859375 -1.265625 9.656250 -3.812500l0.000000 8.500000q-4.843750 2.046875 -9.921875 3.125000q-5.078125 1.078125 -10.296875 1.078125q-13.093750 0.000000 -20.734375 -7.609375q-7.640625 -7.625000 -7.640625 -20.625000q0.000000 -13.421875 7.250000 -21.296875q7.250000 -7.890625 19.562500 -7.890625q11.031250 0.000000 17.453125 7.109375q6.421875 7.093750 6.421875 19.296875M47.218750 -32.234375q-0.093750 -7.359375 -4.125000 -11.750000q-4.031250 -4.406250 -10.671875 -4.406250q-7.515625 0.000000 -12.031250 4.250000q-4.515625 4.250000 -5.203125 11.968750z"/>
<path id="c_3fe22c4af425ac970aec982ae9662abe" d="M32.171875 5.078125q-3.796875 9.765625 -7.421875 12.734375q-3.609375 2.984375 -9.656250 2.984375l-7.187500 0.000000l0.000000 -7.515625l5.281250 0.000000q3.703125 0.000000 5.750000 -1.765625q2.062500 -1.750000 4.546875 -8.296875l1.609375 -4.093750l-22.109375 -53.812500l9.515625 0.000000l17.093750 42.765625l17.093750 -42.765625l9.515625 0.000000z"/>
</defs>
<g style="fill: #000000; opacity: 1.000000" transform="translate(438.946250,67.700625)scale(0.144000)">
<use xlink:href="#c_8e0810ad13fe20a2a87a2619799b154d"/>
<use xlink:href="#c_a66ecc39892414b9ca9362e0fffdc75b" x="52.099609"/>
<use xlink:href="#c_c438d87e693443c2861ebd6359e6491e" x="115.576172"/>
<use xlink:href="#c_01d93a582460e35a7945ca50d148ffeb" x="178.955078"/>
<use xlink:href="#c_6ec8d5749226675394676a5d2a3b468b" x="240.234375"/>
<use xlink:href="#c_0bce5afba2dc6b9024b26277c38ad8e8" x="279.097656"/>
<use xlink:href="#c_ed3e21196fb739f392806f09ca0594ef" x="340.621094"/>
<use xlink:href="#c_3fe22c4af425ac970aec982ae9662abe" x="372.408203"/>
</g>
<g id="line2d26">
<path style="fill: none; stroke: #008000; stroke-width: 1.000000; stroke-linejoin: miter; stroke-linecap: square;  opacity: 1.000000"  d="M402.946250 83.407500L423.106250 83.407500"/>
</g>
<g id="line2d27">
</g>
<defs>
<path id="c_6a63bda47b2f3da1cec6aadd80692cfe" d="M9.421875 -54.687500l8.984375 0.000000l0.000000 54.687500l-8.984375 0.000000zM9.421875 -75.984375l8.984375 0.000000l0.000000 11.390625l-8.984375 0.000000z"/>
<path id="c_0f8c41144cfbf448378cb6fd1cc8e549" d="M18.312500 -70.218750l0.000000 15.531250l18.500000 0.000000l0.000000 6.984375l-18.500000 0.000000l0.000000 29.687500q0.000000 6.687500 1.828125 8.593750q1.828125 1.906250 7.453125 1.906250l9.218750 0.000000l0.000000 7.515625l-9.218750 0.000000q-10.406250 0.000000 -14.359375 -3.875000q-3.953125 -3.890625 -3.953125 -14.140625l0.000000 -29.687500l-6.593750 0.000000l0.000000 -6.984375l6.593750 0.000000l0.000000 -15.531250z"/>
<path id="c_f05dd90d41f04bb96ef1ca503cc2044b" d="M30.609375 -48.390625q-7.218750 0.000000 -11.421875 5.640625q-4.203125 5.640625 -4.203125 15.453125q0.000000 9.812500 4.171875 15.453125q4.187500 5.640625 11.453125 5.640625q7.187500 0.000000 11.375000 -5.656250q4.203125 -5.671875 4.203125 -15.437500q0.000000 -9.718750 -4.203125 -15.406250q-4.187500 -5.687500 -11.375000 -5.687500M30.609375 -56.000000q11.718750 0.000000 18.406250 7.625000q6.703125 7.609375 6.703125 21.078125q0.000000 13.421875 -6.703125 21.078125q-6.687500 7.640625 -18.406250 7.640625q-11.765625 0.000000 -18.437500 -7.640625q-6.656250 -7.656250 -6.656250 -21.078125q0.000000 -13.468750 6.656250 -21.078125q6.671875 -7.625000 18.437500 -7.625000"/>
<path id="c_c48ceabac27bf136feba2f4bf2716ab6" d="M2.984375 -54.687500l9.515625 0.000000l17.093750 45.890625l17.093750 -45.890625l9.515625 0.000000l-20.515625 54.687500l-12.203125 0.000000z"/>
</defs>
<g style="fill: #000000; opacity: 1.000000" transform="translate(438.946250,88.447500)scale(0.144000)">
<use xlink:href="#c_6ec8d5749226675394676a5d2a3b468b"/>
<use xlink:href="#c_0bce5afba2dc6b9024b26277c38ad8e8" x="38.863281"/>
<use xlink:href="#c_8e0810ad13fe20a2a87a2619799b154d" x="100.386719"/>
<use xlink:href="#c_6a63bda47b2f3da1cec6aadd80692cfe" x="152.486328"/>
<use xlink:href="#c_8e0810ad13fe20a2a87a2619799b154d" x="180.269531"/>
<use xlink:href="#c_0f8c41144cfbf448378cb6fd1cc8e549" x="232.369141"/>
<use xlink:href="#c_f05dd90d41f04bb96ef1ca503cc2044b" x="271.578125"/>
<use xlink:href="#c_6ec8d5749226675394676a5d2a3b468b" x="332.759766"/>
<use xlink:href="#c_ed3e21196fb739f392806f09ca0594ef" x="364.748047"/>
<use xlink:href="#c_c48ceabac27bf136feba2f4bf2716ab6" x="396.535156"/>
</g>
<g id="line2d28">
<path style="fill: none; stroke: #ff0000; stroke-width: 1.000000; stroke-linejoin: miter; stroke-linecap: square;  opacity: 1.000000"  d="M402.946250 104.154375L423.106250 104.154375"/>
</g>
<g id="line2d29">
</g>
<defs>
<path id="c_fe791a90f5471e2ab20a5ed41a7fa451" d="M54.890625 -33.015625l0.000000 33.015625l-8.984375 0.000000l0.000000 -32.718750q0.000000 -7.765625 -3.031250 -11.609375q-3.031250 -3.859375 -9.078125 -3.859375q-7.281250 0.000000 -11.484375 4.640625q-4.203125 4.625000 -4.203125 12.640625l0.000000 30.906250l-9.031250 0.000000l0.000000 -54.687500l9.031250 0.000000l0.000000 8.500000q3.234375 -4.937500 7.593750 -7.375000q4.375000 -2.437500 10.093750 -2.437500q9.421875 0.000000 14.250000 5.828125q4.843750 5.828125 4.843750 17.156250"/>
<path id="c_d821beae607506e87470f334d9ff47af" d="M45.406250 -46.390625l0.000000 -29.593750l8.984375 0.000000l0.000000 75.984375l-8.984375 0.000000l0.000000 -8.203125q-2.828125 4.875000 -7.156250 7.250000q-4.312500 2.375000 -10.375000 2.375000q-9.906250 0.000000 -16.140625 -7.906250q-6.218750 -7.921875 -6.218750 -20.812500q0.000000 -12.890625 6.218750 -20.796875q6.234375 -7.906250 16.140625 -7.906250q6.062500 0.000000 10.375000 2.375000q4.328125 2.359375 7.156250 7.234375M14.796875 -27.296875q0.000000 9.906250 4.078125 15.546875q4.078125 5.640625 11.203125 5.640625q7.125000 0.000000 11.218750 -5.640625q4.109375 -5.640625 4.109375 -15.546875q0.000000 -9.906250 -4.109375 -15.546875q-4.093750 -5.640625 -11.218750 -5.640625q-7.125000 0.000000 -11.203125 5.640625q-4.078125 5.640625 -4.078125 15.546875"/>
<path id="c_d650c37394b681142a10dfc54356d478" d="M48.781250 -52.593750l0.000000 8.406250q-3.812500 -2.109375 -7.640625 -3.156250q-3.828125 -1.046875 -7.734375 -1.046875q-8.750000 0.000000 -13.593750 5.546875q-4.828125 5.531250 -4.828125 15.546875q0.000000 10.015625 4.828125 15.562500q4.843750 5.531250 13.593750 5.531250q3.906250 0.000000 7.734375 -1.046875q3.828125 -1.046875 7.640625 -3.156250l0.000000 8.312500q-3.765625 1.750000 -7.796875 2.625000q-4.015625 0.890625 -8.562500 0.890625q-12.359375 0.000000 -19.640625 -7.765625q-7.265625 -7.765625 -7.265625 -20.953125q0.000000 -13.375000 7.343750 -21.031250q7.359375 -7.671875 20.156250 -7.671875q4.140625 0.000000 8.093750 0.859375q3.953125 0.843750 7.671875 2.546875"/>
</defs>
<g style="fill: #000000; opacity: 1.000000" transform="translate(438.946250,109.194375)scale(0.144000)">
<use xlink:href="#c_6a63bda47b2f3da1cec6aadd80692cfe"/>
<use xlink:href="#c_fe791a90f5471e2ab20a5ed41a7fa451" x="27.783203"/>
<use xlink:href="#c_d821beae607506e87470f334d9ff47af" x="91.162109"/>
<use xlink:href="#c_c438d87e693443c2861ebd6359e6491e" x="154.638672"/>
<use xlink:href="#c_d650c37394b681142a10dfc54356d478" x="218.017578"/>
<use xlink:href="#c_0f8c41144cfbf448378cb6fd1cc8e549" x="272.998047"/>
<use xlink:href="#c_f05dd90d41f04bb96ef1ca503cc2044b" x="312.207031"/>
<use xlink:href="#c_6ec8d5749226675394676a5d2a3b468b" x="373.388672"/>
<use xlink:href="#c_42baa63129a918535c52adb20d687ea7" x="414.501953"/>
<use xlink:href="#c_ed3e21196fb739f392806f09ca0594ef" x="478.125000"/>
<use xlink:href="#c_6a63bda47b2f3da1cec6aadd80692cfe" x="509.912109"/>
</g>
</g>
</g>
</g>
</svg>
