<?xml version="1.0" standalone="no"?>
<!DOCTYPE svg PUBLIC "-//W3C//DTD SVG 1.1//EN"
  "http://www.w3.org/Graphics/SVG/1.1/DTD/svg11.dtd">
<!-- Created with matplotlib (http://matplotlib.sourceforge.net/) -->
<svg width="585pt" height="441pt" viewBox="0 0 585 441"
   xmlns="http://www.w3.org/2000/svg"
   xmlns:xlink="http://www.w3.org/1999/xlink"
   version="1.1"
   id="svg1">
<g id="figure1">
<g id="patch1">
<path style="fill: #ffffff; stroke: #ffffff; stroke-width: 1.000000; stroke-linejoin: round; stroke-linecap: square;  opacity: 1.000000"  d="M0.000000 441.000000L585.000000 441.000000L585.000000 0.000000
L0.000000 0.000000L0.000000 441.000000"/>
</g>
<g id="axes1">
<g id="patch2">
<path style="fill: #ffffff; opacity: 1.000000"  d="M73.125000 204.463636L526.500000 204.463636L526.500000 44.100000
L73.125000 44.100000L73.125000 204.463636"/>
</g>
<g id="line2d1">
<defs>
  <clipPath id="pc3769e3e2eff82f1d1a2fae431057c3a">
<rect x="73.125000" y="44.100000" width="453.375000" height="160.363636"/>
  </clipPath>
</defs><path style="fill: none; stroke: #0000ff; stroke-width: 1.000000; stroke-linejoin: round; stroke-linecap: square;  opacity: 1.000000" clip-path="url(#pc3769e3e2eff82f1d1a2fae431057c3a)" d="M73.125000 158.645455L74.005255 157.634954L75.036227 153.980345
L76.520121 144.690289L78.821801 124.193188L83.413042 81.925557
L85.102764 70.505744L86.792486 62.894832L87.637347 60.851441
L89.327069 61.044564L90.171930 63.513329L91.861652 73.291891
L93.551374 88.680336L99.465401 149.516730L101.143744 158.522522
L102.042069 161.105226L102.810319 162.107199L103.830140 161.795710
L105.303125 158.226853L106.436169 153.100604L108.349596 140.051542
L110.712055 117.721756L114.790004 77.846051L116.421183 68.281844
L117.236773 65.781962L118.867952 65.965776L119.683542 68.468695
L121.314721 77.370206L123.761491 97.443781L130.350808 157.720810
L132.046587 167.367398L133.177107 170.624410L134.888125 169.688169
L136.247442 163.741773L137.851119 151.624944L140.427797 125.545422
L143.342361 97.051218L145.528284 82.049867L146.985567 76.056188
L148.091499 73.813577L149.197431 73.686691L149.996352 74.985417
L150.795273 77.516529L152.393114 86.299808L153.990956 99.747799
L160.993340 168.427049L162.403278 173.695864L163.343236 174.719416
L164.799033 172.669145L166.254830 166.815541L168.219724 154.188246
L170.372403 135.771218L176.124938 83.541208L177.768520 76.280140
L178.590311 75.114977L180.233892 77.999937L181.877474 87.222563
L184.342846 109.010488L189.490030 157.947096L191.047374 168.808175
L192.639524 176.447941L193.435598 178.632156L195.027748 179.078861
L195.823822 177.158539L197.415972 169.012737L199.181797 154.042660
L205.006762 95.873696L206.928044 85.695955L207.888685 83.227943
L209.809967 83.374391L210.770608 85.866128L211.731249 89.902084
L213.652531 102.393490L215.573813 120.009829L221.065411 174.554155
L222.359970 181.451001L223.007250 183.400603L224.301809 184.199793
L224.949089 183.101941L226.243648 178.232077L227.868677 168.039024
L230.646190 144.285045L235.843357 97.636279L237.708347 86.991100
L238.640842 84.206905L240.505831 84.890615L241.438326 88.483261
L243.303315 101.436634L246.100800 129.704754L249.206849 160.670829
L251.068438 174.366844L252.930027 182.951248L253.550557 184.552532
L254.791616 185.699017L255.809965 184.467844L257.044690 180.204970
L258.279415 172.901758L260.165121 156.596020L265.932244 99.004272
L267.338405 91.535620L268.041485 89.415307L268.744565 88.378635
L270.150726 89.403421L270.853806 91.342738L272.926445 101.755741
L274.689068 115.134659L278.214315 149.589878L281.002917 176.070046
L282.676079 186.815244L283.761694 190.489374L284.847308 191.205982
L285.567203 190.036045L287.006993 184.043233L288.446783 174.030497
L291.326363 147.352264L294.723338 115.656432L297.017335 99.419052
L298.678862 92.310884L299.509626 90.674347L301.171153 91.933734
L302.001917 94.955278L303.663444 105.591449L306.155735 130.093225
L309.847843 168.755889L311.647568 181.899489L312.847385 187.492403
L313.447294 189.292341L314.395292 190.785290L316.291287 188.904917
L317.239285 185.572946L318.884420 176.213686L320.975834 158.409980
L326.552936 103.302999L327.740321 96.422231L328.927706 92.795737
L330.522222 93.199326L331.319480 95.539556L332.913997 103.783108
L335.305771 122.591982L342.481096 186.985408L344.075612 194.173205
L344.872870 195.653164L346.467387 193.905840L347.264645 190.697998
L348.859162 180.159792L351.250936 157.441020L355.249138 118.435735
L357.215696 104.951014L359.038426 97.603676L360.029677 96.003484
L362.012179 98.556004L363.003429 102.829242L364.985931 117.171556
L368.161000 150.649807L371.244284 181.013428L372.659327 190.021427
L374.074370 194.891761L375.489413 195.564830L376.196934 194.421564
L377.304857 190.818323L379.149604 180.490473L381.360077 162.341875
L387.991496 101.765816L388.728320 98.372004L390.032942 95.543757
L391.813378 98.459287L393.593814 108.306518L396.264467 131.517592
L401.101360 177.180883L402.935235 189.893442L404.496053 196.628316
L405.445579 198.388272L406.672318 197.670338L407.899056 193.442453
L409.125794 185.866315L410.965901 169.485385L416.657499 113.563029
L418.455657 103.730883L419.354735 101.007897L420.253814 99.719657
L422.051971 101.614941L422.951049 104.767659L424.749207 115.334591
L426.547364 130.969514L432.784065 191.670763L433.739919 196.508532
L434.695774 199.279852L436.607482 198.425544L437.563336 195.111470
L439.475044 183.842434L441.847789 163.929774L447.802286 109.556098
L449.305961 101.517555L450.057799 99.285768L451.976235 99.777338
L453.142833 104.444163L454.710907 115.233589L457.063016 137.624188
L461.233699 178.157681L462.930378 190.049304L464.505161 197.283260
L465.292553 199.283814L466.895044 199.692716L467.710142 197.861520
L469.093148 191.570958L470.796870 178.685253L473.673646 148.739334
L476.809067 117.711981L478.574106 106.605033L479.750799 102.659829
L480.927493 101.555160L481.944428 102.794855L482.961363 105.935218
L484.995234 117.283162L487.243814 136.247945L493.257722 193.590264
L494.176526 198.660085L495.095330 201.813453L496.014133 202.918885
L497.851741 199.065562L499.689348 188.235075L502.445759 163.971546
L507.247795 119.490395L509.176090 107.197146L510.140238 103.364900
L511.104386 101.428311L513.032682 103.926080L513.996830 108.422656
L515.925126 123.053340L523.030187 190.840196L524.113010 196.515294
L525.216903 200.178125L526.320796 201.617363L526.320796 201.617363"/>
</g>
<g id="line2d2">
<path style="fill: none; stroke: #008000; stroke-width: 1.000000; stroke-linejoin: round; stroke-linecap: square;  opacity: 1.000000" clip-path="url(#pc3769e3e2eff82f1d1a2fae431057c3a)" d="M73.125000 158.645455L75.369281 158.008382L77.670961 156.286885
L83.413042 150.973465L86.792486 149.070392L88.482208 148.799663
L90.171930 149.132242L91.861652 150.110098L95.241096 153.525726
L98.620540 157.078158L101.143744 158.633161L103.490200 158.991049
L105.869647 158.372516L108.012870 157.053292L111.527645 153.692222
L114.790004 150.565514L116.421183 149.609093L118.052363 149.292090
L119.683542 149.627779L121.314721 150.517930L124.577080 153.294093
L130.350808 158.552990L132.611847 159.716414L134.888125 159.749726
L137.389110 158.340088L144.799643 151.409233L146.256926 150.644121
L149.197431 150.149578L150.795273 150.532562L152.393114 151.410890
L155.588798 154.443397L160.053381 159.026337L161.463319 159.849466
L164.071135 160.202544L166.982728 159.050980L169.550612 157.106273
L176.124938 151.135030L177.768520 150.408923L179.412101 150.350814
L181.055683 150.971332L184.342846 153.681958L190.009145 158.969074
L192.639524 160.425703L194.231673 160.736351L195.823822 160.496763
L198.593188 158.740631L205.967403 151.772702L207.888685 151.103703
L209.809967 151.118348L211.731249 151.771117L213.652531 153.020258
L217.829013 157.215990L220.418131 159.755500L223.007250 161.120969
L224.301809 161.200888L226.890927 160.244912L230.046269 157.763348
L235.843357 152.544537L237.708347 151.480019L239.573336 151.127250
L241.438326 151.629235L243.303315 152.924573L251.068438 160.217593
L253.550557 161.236162L255.809965 161.227693L258.279415 160.071085
L260.587902 158.008813L265.932244 152.681336L267.338405 151.934471
L268.744565 151.618773L270.150726 151.721251L272.045133 152.434860
L275.570380 155.084336L282.118359 161.166774L283.761694 161.829847
L284.847308 161.901507L286.287098 161.542793L289.166678 159.573531
L295.870337 153.458767L298.678862 152.011997L300.340390 151.832882
L302.001917 152.276437L303.663444 153.340054L306.986499 156.714585
L309.847843 159.656498L312.247477 161.283574L313.447294 161.710143
L315.343289 161.845626L317.239285 161.338204L320.278696 159.277916
L327.740321 152.423132L328.927706 152.060483L330.522222 152.100842
L332.116739 152.692688L335.305771 155.040107L341.683837 160.943014
L343.278354 161.904229L344.872870 162.346225L346.467387 162.171493
L348.061903 161.385624L351.250936 158.525011L355.782628 154.207657
L357.215696 153.276010L359.038426 152.541277L361.020928 152.408094
L363.003429 153.063833L364.985931 154.498065L371.951805 161.382271
L373.366848 162.079847L374.781891 162.354674L377.304857 161.862741
L379.886429 160.285862L384.307374 156.048158L387.254672 153.413190
L388.728320 152.618109L390.032942 152.335285L391.813378 152.626838
L393.593814 153.611561L397.154685 156.810517L401.101360 160.498997
L403.546526 162.085903L405.445579 162.619736L406.672318 162.547943
L409.125794 161.367541L412.566015 158.028256L415.192120 155.325395
L416.657499 154.137212L418.455657 153.153997L420.253814 152.752875
L422.051971 152.942403L423.850128 153.716511L425.648285 155.040901
L432.784065 161.947985L434.695774 162.708894L436.607482 162.623464
L438.519190 161.796750L441.847789 159.173886L447.802286 153.736519
L449.305961 152.932665L450.809636 152.620040L453.142833 153.225325
L456.278980 155.749146L460.779056 160.217083L463.717770 162.198120
L465.292553 162.709291L466.895044 162.750181L469.661055 161.566626
L471.932685 159.543994L477.397413 154.116426L479.750799 153.046892
L481.944428 153.060395L483.978299 153.863019L486.494288 155.711996
L494.176526 162.646918L496.014133 163.072798L497.851741 162.687465
L499.689348 161.604417L504.355351 157.306607L508.211943 154.047604
L510.140238 153.117399L512.068534 152.939263L513.996830 153.623175
L515.925126 155.086243L523.030187 161.864929L525.216903 162.798722
L526.320796 162.942645L526.320796 162.942645"/>
</g>
<g id="line2d3">
<path style="fill: none; stroke: #ff0000; stroke-width: 1.000000; stroke-linejoin: round; stroke-linecap: square;  opacity: 1.000000" clip-path="url(#pc3769e3e2eff82f1d1a2fae431057c3a)" d="M73.125000 158.645455L76.520121 158.362336L77.670961 157.817885
L78.821801 156.837675L81.085894 153.637957L84.257903 148.518578
L85.947625 147.072399L87.637347 147.030688L89.327069 148.108990
L94.396235 152.514288L97.775679 155.584822L102.618256 161.093678
L103.830140 161.417135L105.303125 160.768332L107.339417 158.304679
L110.712055 153.353435L112.343235 151.769670L115.605593 150.054152
L118.867952 148.651360L120.499132 148.409395L122.130311 149.081229
L124.577080 152.183692L128.655029 159.065664L129.785548 160.164687
L130.916068 160.705132L132.046587 160.755286L134.888125 159.729042
L138.775138 157.885122L140.427797 156.548868L143.342361 152.615584
L146.256926 148.629635L148.091499 147.749322L149.197431 148.064688
L150.795273 149.448583L154.789877 154.297272L162.403278 160.889363
L164.071135 161.958231L165.526931 162.052864L166.982728 161.126770
L169.550612 157.437355L172.837775 152.370459L174.481357 150.983602
L176.124938 150.398949L179.412101 150.223313L181.055683 150.298788
L182.699265 150.781439L184.342846 152.054552L186.808219 155.617529
L189.490030 160.119542L190.528260 161.388106L191.843449 162.300926
L193.435598 162.319718L195.027748 161.428453L204.046121 153.605866
L206.928044 150.053859L208.849326 148.759685L210.770608 149.229510
L213.652531 152.777811L216.534454 156.856764L219.123572 159.140618
L224.301809 161.929507L225.596368 162.277475L226.890927 162.120979
L228.846427 160.587035L231.846031 155.807285L233.978368 152.441200
L234.910862 151.409142L236.775852 150.390570L238.640842 150.512835
L242.370821 151.949641L244.235810 152.942609L247.033295 155.711288
L251.688968 162.422104L252.930027 163.341536L254.171086 163.510907
L255.809965 162.649901L267.338405 151.494869L268.744565 150.355335
L270.150726 149.758917L272.045133 150.299817L274.689068 153.614117
L278.214315 159.102953L280.445197 161.063137L282.676079 161.831481
L286.287098 162.190149L287.726888 161.946032L289.166678 161.156290
L291.769785 157.988667L295.870337 151.612189L297.017335 150.649627
L298.678862 150.292525L300.340390 150.946448L306.986499 156.097441
L309.847843 159.350094L312.247477 162.424533L313.447294 163.547261
L315.343289 164.103291L317.239285 162.949860L319.581558 159.934148
L322.370109 156.277974L325.158661 153.919721L328.927706 151.644970
L330.522222 150.965988L332.116739 150.918352L333.711255 151.833994
L336.103030 155.021710L339.292063 160.268018L340.886579 162.026889
L342.481096 162.863786L344.075612 162.945851L347.264645 162.096548
L350.453678 160.408552L353.115176 157.393092L357.215696 151.521645
L359.038426 150.381948L361.020928 150.869935L364.985931 154.795418
L371.951805 161.487604L374.781891 163.911693L376.196934 164.274095
L377.304857 163.945683L378.412780 163.062351L381.360077 158.898761
L384.307374 154.821488L385.781023 153.554318L388.728320 152.306140
L391.813378 151.854788L393.593814 152.233583L396.264467 154.600719
L399.267486 159.386443L401.712652 162.764329L402.935235 163.669062
L404.496053 163.944557L407.285687 162.703015L412.192639 159.051082
L414.625820 156.390803L417.556578 152.568470L419.354735 150.943376
L421.152892 150.649493L422.951049 151.808951L429.950310 159.950550
L434.695774 163.309879L436.607482 164.060471L438.519190 163.681508
L440.430898 161.851350L445.546773 154.126324L447.050448 152.799556
L448.554124 152.190693L450.057799 152.115572L453.142833 152.768931
L454.710907 153.451673L456.278980 154.592074L458.631089 157.420510
L462.142986 162.661454L463.717770 164.176920L465.292553 164.646338
L466.895044 164.072691L470.796870 160.459712L480.339146 151.394800
L481.944428 151.022594L482.961363 151.364902L484.995234 153.336027
L491.106106 161.337536L493.257722 162.627561L496.932937 163.694212
L498.770544 163.542467L500.608152 162.431935L503.718820 158.206402
L506.283647 154.184904L507.247795 153.052911L509.176090 151.829289
L511.104386 151.920186L514.960978 154.045356L516.889273 155.481384
L519.781717 158.514044L524.113010 163.996760L525.216903 164.760811
L526.320796 165.006075L526.320796 165.006075"/>
</g>
<g id="matplotlib.axis1">
<g id="xtick1">
<g id="line2d4">
<path style="fill: none; stroke: #000000; stroke-width: 0.500000; stroke-linejoin: round; stroke-linecap: butt; stroke-dasharray: 1.000000,3.000000; stroke-dashoffset: 0.000000; opacity: 1.000000" clip-path="url(#pc3769e3e2eff82f1d1a2fae431057c3a)" d="M73.125000 204.463636L73.125000 44.100000"/>
</g>
<g id="line2d5">
<defs><path id="m30e32995789d870ad79a2e54c91cf9c6" d="M0.000000 0.000000L0.000000 -4.000000"/></defs>
<g ><use style="fill: none; stroke: #000000; stroke-width: 0.500000; stroke-linejoin: round; stroke-linecap: butt;  opacity: 1.000000" xlink:href="#m30e32995789d870ad79a2e54c91cf9c6" x="73.125000" y="204.463636"/>
</g></g>
<g id="line2d6">
<defs><path id="m9281cae24120827b11d5ea8a7ad3e96b" d="M0.000000 0.000000L0.000000 4.000000"/></defs>
<g ><use style="fill: none; stroke: #000000; stroke-width: 0.500000; stroke-linejoin: round; stroke-linecap: butt;  opacity: 1.000000" xlink:href="#m9281cae24120827b11d5ea8a7ad3e96b" x="73.125000" y="44.100000"/>
</g></g>
<g id="text1">
<defs>
<path id="c_7a2040fe3b94fcd41d0a72c84e93b115" d="M31.781250 -66.406250q-7.609375 0.000000 -11.453125 7.500000q-3.828125 7.484375 -3.828125 22.531250q0.000000 14.984375 3.828125 22.484375q3.843750 7.500000 11.453125 7.500000q7.671875 0.000000 11.500000 -7.500000q3.843750 -7.500000 3.843750 -22.484375q0.000000 -15.046875 -3.843750 -22.531250q-3.828125 -7.500000 -11.500000 -7.500000M31.781250 -74.218750q12.265625 0.000000 18.734375 9.703125q6.468750 9.687500 6.468750 28.140625q0.000000 18.406250 -6.468750 28.109375q-6.468750 9.687500 -18.734375 9.687500q-12.250000 0.000000 -18.718750 -9.687500q-6.468750 -9.703125 -6.468750 -28.109375q0.000000 -18.453125 6.468750 -28.140625q6.468750 -9.703125 18.718750 -9.703125"/>
<path id="c_ed3e21196fb739f392806f09ca0594ef" d="M10.687500 -12.406250l10.312500 0.000000l0.000000 12.406250l-10.312500 0.000000z"/>
</defs>
<g style="fill: #000000; opacity: 1.000000" transform="translate(64.375000,217.369886)scale(0.120000)">
<use xlink:href="#c_7a2040fe3b94fcd41d0a72c84e93b115"/>
<use xlink:href="#c_ed3e21196fb739f392806f09ca0594ef" x="63.623047"/>
<use xlink:href="#c_7a2040fe3b94fcd41d0a72c84e93b115" x="95.410156"/>
</g>
</g>
</g>
<g id="xtick2">
<g id="line2d7">
<path style="fill: none; stroke: #000000; stroke-width: 0.500000; stroke-linejoin: round; stroke-linecap: butt; stroke-dasharray: 1.000000,3.000000; stroke-dashoffset: 0.000000; opacity: 1.000000" clip-path="url(#pc3769e3e2eff82f1d1a2fae431057c3a)" d="M148.687500 204.463636L148.687500 44.100000"/>
</g>
<g id="line2d8">
<g ><use style="fill: none; stroke: #000000; stroke-width: 0.500000; stroke-linejoin: round; stroke-linecap: butt;  opacity: 1.000000" xlink:href="#m30e32995789d870ad79a2e54c91cf9c6" x="148.687500" y="204.463636"/>
</g></g>
<g id="line2d9">
<g ><use style="fill: none; stroke: #000000; stroke-width: 0.500000; stroke-linejoin: round; stroke-linecap: butt;  opacity: 1.000000" xlink:href="#m9281cae24120827b11d5ea8a7ad3e96b" x="148.687500" y="44.100000"/>
</g></g>
<g id="text2">
<defs>
<path id="c_1260a2df50f305f3db244e29828f968e" d="M10.796875 -72.906250l38.718750 0.000000l0.000000 8.312500l-29.687500 0.000000l0.000000 17.859375q2.140625 -0.734375 4.281250 -1.093750q2.156250 -0.359375 4.312500 -0.359375q12.203125 0.000000 19.328125 6.687500q7.140625 6.687500 7.140625 18.109375q0.000000 11.765625 -7.328125 18.296875q-7.328125 6.515625 -20.656250 6.515625q-4.593750 0.000000 -9.359375 -0.781250q-4.750000 -0.781250 -9.828125 -2.343750l0.000000 -9.921875q4.390625 2.390625 9.078125 3.562500q4.687500 1.171875 9.906250 1.171875q8.453125 0.000000 13.375000 -4.437500q4.937500 -4.437500 4.937500 -12.062500q0.000000 -7.609375 -4.937500 -12.046875q-4.921875 -4.453125 -13.375000 -4.453125q-3.953125 0.000000 -7.890625 0.875000q-3.921875 0.875000 -8.015625 2.734375z"/>
</defs>
<g style="fill: #000000; opacity: 1.000000" transform="translate(140.062500,217.369886)scale(0.120000)">
<use xlink:href="#c_7a2040fe3b94fcd41d0a72c84e93b115"/>
<use xlink:href="#c_ed3e21196fb739f392806f09ca0594ef" x="63.623047"/>
<use xlink:href="#c_1260a2df50f305f3db244e29828f968e" x="95.410156"/>
</g>
</g>
</g>
<g id="xtick3">
<g id="line2d10">
<path style="fill: none; stroke: #000000; stroke-width: 0.500000; stroke-linejoin: round; stroke-linecap: butt; stroke-dasharray: 1.000000,3.000000; stroke-dashoffset: 0.000000; opacity: 1.000000" clip-path="url(#pc3769e3e2eff82f1d1a2fae431057c3a)" d="M224.250000 204.463636L224.250000 44.100000"/>
</g>
<g id="line2d11">
<g ><use style="fill: none; stroke: #000000; stroke-width: 0.500000; stroke-linejoin: round; stroke-linecap: butt;  opacity: 1.000000" xlink:href="#m30e32995789d870ad79a2e54c91cf9c6" x="224.250000" y="204.463636"/>
</g></g>
<g id="line2d12">
<g ><use style="fill: none; stroke: #000000; stroke-width: 0.500000; stroke-linejoin: round; stroke-linecap: butt;  opacity: 1.000000" xlink:href="#m9281cae24120827b11d5ea8a7ad3e96b" x="224.250000" y="44.100000"/>
</g></g>
<g id="text3">
<defs>
<path id="c_42baa63129a918535c52adb20d687ea7" d="M12.406250 -8.296875l16.109375 0.000000l0.000000 -55.625000l-17.531250 3.515625l0.000000 -8.984375l17.437500 -3.515625l9.859375 0.000000l0.000000 64.609375l16.109375 0.000000l0.000000 8.296875l-41.984375 0.000000z"/>
</defs>
<g style="fill: #000000; opacity: 1.000000" transform="translate(215.757812,217.369886)scale(0.120000)">
<use xlink:href="#c_42baa63129a918535c52adb20d687ea7"/>
<use xlink:href="#c_ed3e21196fb739f392806f09ca0594ef" x="63.623047"/>
<use xlink:href="#c_7a2040fe3b94fcd41d0a72c84e93b115" x="95.410156"/>
</g>
</g>
</g>
<g id="xtick4">
<g id="line2d13">
<path style="fill: none; stroke: #000000; stroke-width: 0.500000; stroke-linejoin: round; stroke-linecap: butt; stroke-dasharray: 1.000000,3.000000; stroke-dashoffset: 0.000000; opacity: 1.000000" clip-path="url(#pc3769e3e2eff82f1d1a2fae431057c3a)" d="M299.812500 204.463636L299.812500 44.100000"/>
</g>
<g id="line2d14">
<g ><use style="fill: none; stroke: #000000; stroke-width: 0.500000; stroke-linejoin: round; stroke-linecap: butt;  opacity: 1.000000" xlink:href="#m30e32995789d870ad79a2e54c91cf9c6" x="299.812500" y="204.463636"/>
</g></g>
<g id="line2d15">
<g ><use style="fill: none; stroke: #000000; stroke-width: 0.500000; stroke-linejoin: round; stroke-linecap: butt;  opacity: 1.000000" xlink:href="#m9281cae24120827b11d5ea8a7ad3e96b" x="299.812500" y="44.100000"/>
</g></g>
<g id="text4">
<g style="fill: #000000; opacity: 1.000000" transform="translate(291.445312,217.213636)scale(0.120000)">
<use xlink:href="#c_42baa63129a918535c52adb20d687ea7"/>
<use xlink:href="#c_ed3e21196fb739f392806f09ca0594ef" x="63.623047"/>
<use xlink:href="#c_1260a2df50f305f3db244e29828f968e" x="95.410156"/>
</g>
</g>
</g>
<g id="xtick5">
<g id="line2d16">
<path style="fill: none; stroke: #000000; stroke-width: 0.500000; stroke-linejoin: round; stroke-linecap: butt; stroke-dasharray: 1.000000,3.000000; stroke-dashoffset: 0.000000; opacity: 1.000000" clip-path="url(#pc3769e3e2eff82f1d1a2fae431057c3a)" d="M375.375000 204.463636L375.375000 44.100000"/>
</g>
<g id="line2d17">
<g ><use style="fill: none; stroke: #000000; stroke-width: 0.500000; stroke-linejoin: round; stroke-linecap: butt;  opacity: 1.000000" xlink:href="#m30e32995789d870ad79a2e54c91cf9c6" x="375.375000" y="204.463636"/>
</g></g>
<g id="line2d18">
<g ><use style="fill: none; stroke: #000000; stroke-width: 0.500000; stroke-linejoin: round; stroke-linecap: butt;  opacity: 1.000000" xlink:href="#m9281cae24120827b11d5ea8a7ad3e96b" x="375.375000" y="44.100000"/>
</g></g>
<g id="text5">
<defs>
<path id="c_ed3f3ed3ebfbd18bcb9c012009a68ad1" d="M19.187500 -8.296875l34.421875 0.000000l0.000000 8.296875l-46.281250 0.000000l0.000000 -8.296875q5.609375 -5.812500 15.296875 -15.593750q9.703125 -9.796875 12.187500 -12.640625q4.734375 -5.312500 6.609375 -9.000000q1.890625 -3.687500 1.890625 -7.250000q0.000000 -5.812500 -4.078125 -9.468750q-4.078125 -3.671875 -10.625000 -3.671875q-4.640625 0.000000 -9.796875 1.609375q-5.140625 1.609375 -11.000000 4.890625l0.000000 -9.968750q5.953125 -2.390625 11.125000 -3.609375q5.187500 -1.218750 9.484375 -1.218750q11.328125 0.000000 18.062500 5.671875q6.734375 5.656250 6.734375 15.125000q0.000000 4.500000 -1.687500 8.531250q-1.671875 4.015625 -6.125000 9.484375q-1.218750 1.421875 -7.765625 8.187500q-6.531250 6.765625 -18.453125 18.921875"/>
</defs>
<g style="fill: #000000; opacity: 1.000000" transform="translate(366.664062,217.369886)scale(0.120000)">
<use xlink:href="#c_ed3f3ed3ebfbd18bcb9c012009a68ad1"/>
<use xlink:href="#c_ed3e21196fb739f392806f09ca0594ef" x="63.623047"/>
<use xlink:href="#c_7a2040fe3b94fcd41d0a72c84e93b115" x="95.410156"/>
</g>
</g>
</g>
<g id="xtick6">
<g id="line2d19">
<path style="fill: none; stroke: #000000; stroke-width: 0.500000; stroke-linejoin: round; stroke-linecap: butt; stroke-dasharray: 1.000000,3.000000; stroke-dashoffset: 0.000000; opacity: 1.000000" clip-path="url(#pc3769e3e2eff82f1d1a2fae431057c3a)" d="M450.937500 204.463636L450.937500 44.100000"/>
</g>
<g id="line2d20">
<g ><use style="fill: none; stroke: #000000; stroke-width: 0.500000; stroke-linejoin: round; stroke-linecap: butt;  opacity: 1.000000" xlink:href="#m30e32995789d870ad79a2e54c91cf9c6" x="450.937500" y="204.463636"/>
</g></g>
<g id="line2d21">
<g ><use style="fill: none; stroke: #000000; stroke-width: 0.500000; stroke-linejoin: round; stroke-linecap: butt;  opacity: 1.000000" xlink:href="#m9281cae24120827b11d5ea8a7ad3e96b" x="450.937500" y="44.100000"/>
</g></g>
<g id="text6">
<g style="fill: #000000; opacity: 1.000000" transform="translate(442.351562,217.369886)scale(0.120000)">
<use xlink:href="#c_ed3f3ed3ebfbd18bcb9c012009a68ad1"/>
<use xlink:href="#c_ed3e21196fb739f392806f09ca0594ef" x="63.623047"/>
<use xlink:href="#c_1260a2df50f305f3db244e29828f968e" x="95.410156"/>
</g>
</g>
</g>
<g id="xtick7">
<g id="line2d22">
<path style="fill: none; stroke: #000000; stroke-width: 0.500000; stroke-linejoin: round; stroke-linecap: butt; stroke-dasharray: 1.000000,3.000000; stroke-dashoffset: 0.000000; opacity: 1.000000" clip-path="url(#pc3769e3e2eff82f1d1a2fae431057c3a)" d="M526.500000 204.463636L526.500000 44.100000"/>
</g>
<g id="line2d23">
<g ><use style="fill: none; stroke: #000000; stroke-width: 0.500000; stroke-linejoin: round; stroke-linecap: butt;  opacity: 1.000000" xlink:href="#m30e32995789d870ad79a2e54c91cf9c6" x="526.500000" y="204.463636"/>
</g></g>
<g id="line2d24">
<g ><use style="fill: none; stroke: #000000; stroke-width: 0.500000; stroke-linejoin: round; stroke-linecap: butt;  opacity: 1.000000" xlink:href="#m9281cae24120827b11d5ea8a7ad3e96b" x="526.500000" y="44.100000"/>
</g></g>
<g id="text7">
<defs>
<path id="c_3dcfa38a02242cb63ec6726c6e70be7a" d="M40.578125 -39.312500q7.078125 1.515625 11.046875 6.312500q3.984375 4.781250 3.984375 11.812500q0.000000 10.781250 -7.421875 16.703125q-7.421875 5.906250 -21.093750 5.906250q-4.578125 0.000000 -9.437500 -0.906250q-4.859375 -0.906250 -10.031250 -2.718750l0.000000 -9.515625q4.093750 2.390625 8.968750 3.609375q4.890625 1.218750 10.218750 1.218750q9.265625 0.000000 14.125000 -3.656250q4.859375 -3.656250 4.859375 -10.640625q0.000000 -6.453125 -4.515625 -10.078125q-4.515625 -3.640625 -12.562500 -3.640625l-8.500000 0.000000l0.000000 -8.109375l8.890625 0.000000q7.265625 0.000000 11.125000 -2.906250q3.859375 -2.906250 3.859375 -8.375000q0.000000 -5.609375 -3.984375 -8.609375q-3.968750 -3.015625 -11.390625 -3.015625q-4.062500 0.000000 -8.703125 0.890625q-4.640625 0.875000 -10.203125 2.718750l0.000000 -8.781250q5.625000 -1.562500 10.531250 -2.343750q4.906250 -0.781250 9.250000 -0.781250q11.234375 0.000000 17.765625 5.109375q6.546875 5.093750 6.546875 13.781250q0.000000 6.062500 -3.468750 10.234375q-3.468750 4.171875 -9.859375 5.781250"/>
</defs>
<g style="fill: #000000; opacity: 1.000000" transform="translate(517.812500,217.369886)scale(0.120000)">
<use xlink:href="#c_3dcfa38a02242cb63ec6726c6e70be7a"/>
<use xlink:href="#c_ed3e21196fb739f392806f09ca0594ef" x="63.623047"/>
<use xlink:href="#c_7a2040fe3b94fcd41d0a72c84e93b115" x="95.410156"/>
</g>
</g>
</g>
</g>
<g id="matplotlib.axis2">
<g id="ytick1">
<g id="line2d25">
<path style="fill: none; stroke: #000000; stroke-width: 0.500000; stroke-linejoin: round; stroke-linecap: butt; stroke-dasharray: 1.000000,3.000000; stroke-dashoffset: 0.000000; opacity: 1.000000" clip-path="url(#pc3769e3e2eff82f1d1a2fae431057c3a)" d="M73.125000 204.463636L526.500000 204.463636"/>
</g>
<g id="line2d26">
<defs><path id="m3400efa6b1638b3fea9e19e898273957" d="M0.000000 0.000000L4.000000 0.000000"/></defs>
<g ><use style="fill: none; stroke: #000000; stroke-width: 0.500000; stroke-linejoin: round; stroke-linecap: butt;  opacity: 1.000000" xlink:href="#m3400efa6b1638b3fea9e19e898273957" x="73.125000" y="204.463636"/>
</g></g>
<g id="line2d27">
<defs><path id="m20b58b2501143cb5e0a5e8f1ef6f1643" d="M0.000000 0.000000L-4.000000 0.000000"/></defs>
<g ><use style="fill: none; stroke: #000000; stroke-width: 0.500000; stroke-linejoin: round; stroke-linecap: butt;  opacity: 1.000000" xlink:href="#m20b58b2501143cb5e0a5e8f1ef6f1643" x="526.500000" y="204.463636"/>
</g></g>
<g id="text8">
<defs>
<path id="c_6a8d56c819c37117ab4cf023bec22a5a" d="M10.593750 -35.500000l62.593750 0.000000l0.000000 8.296875l-62.593750 0.000000z"/>
</defs>
<g style="fill: #000000; opacity: 1.000000" transform="translate(53.890625,208.916761)scale(0.120000)">
<use xlink:href="#c_6a8d56c819c37117ab4cf023bec22a5a"/>
<use xlink:href="#c_ed3f3ed3ebfbd18bcb9c012009a68ad1" x="83.789062"/>
</g>
</g>
</g>
<g id="ytick2">
<g id="line2d28">
<path style="fill: none; stroke: #000000; stroke-width: 0.500000; stroke-linejoin: round; stroke-linecap: butt; stroke-dasharray: 1.000000,3.000000; stroke-dashoffset: 0.000000; opacity: 1.000000" clip-path="url(#pc3769e3e2eff82f1d1a2fae431057c3a)" d="M73.125000 181.554545L526.500000 181.554545"/>
</g>
<g id="line2d29">
<g ><use style="fill: none; stroke: #000000; stroke-width: 0.500000; stroke-linejoin: round; stroke-linecap: butt;  opacity: 1.000000" xlink:href="#m3400efa6b1638b3fea9e19e898273957" x="73.125000" y="181.554545"/>
</g></g>
<g id="line2d30">
<g ><use style="fill: none; stroke: #000000; stroke-width: 0.500000; stroke-linejoin: round; stroke-linecap: butt;  opacity: 1.000000" xlink:href="#m20b58b2501143cb5e0a5e8f1ef6f1643" x="526.500000" y="181.554545"/>
</g></g>
<g id="text9">
<g style="fill: #000000; opacity: 1.000000" transform="translate(53.796875,185.929545)scale(0.120000)">
<use xlink:href="#c_6a8d56c819c37117ab4cf023bec22a5a"/>
<use xlink:href="#c_42baa63129a918535c52adb20d687ea7" x="83.789062"/>
</g>
</g>
</g>
<g id="ytick3">
<g id="line2d31">
<path style="fill: none; stroke: #000000; stroke-width: 0.500000; stroke-linejoin: round; stroke-linecap: butt; stroke-dasharray: 1.000000,3.000000; stroke-dashoffset: 0.000000; opacity: 1.000000" clip-path="url(#pc3769e3e2eff82f1d1a2fae431057c3a)" d="M73.125000 158.645455L526.500000 158.645455"/>
</g>
<g id="line2d32">
<g ><use style="fill: none; stroke: #000000; stroke-width: 0.500000; stroke-linejoin: round; stroke-linecap: butt;  opacity: 1.000000" xlink:href="#m3400efa6b1638b3fea9e19e898273957" x="73.125000" y="158.645455"/>
</g></g>
<g id="line2d33">
<g ><use style="fill: none; stroke: #000000; stroke-width: 0.500000; stroke-linejoin: round; stroke-linecap: butt;  opacity: 1.000000" xlink:href="#m20b58b2501143cb5e0a5e8f1ef6f1643" x="526.500000" y="158.645455"/>
</g></g>
<g id="text10">
<g style="fill: #000000; opacity: 1.000000" transform="translate(63.078125,163.012642)scale(0.120000)">
<use xlink:href="#c_7a2040fe3b94fcd41d0a72c84e93b115"/>
</g>
</g>
</g>
<g id="ytick4">
<g id="line2d34">
<path style="fill: none; stroke: #000000; stroke-width: 0.500000; stroke-linejoin: round; stroke-linecap: butt; stroke-dasharray: 1.000000,3.000000; stroke-dashoffset: 0.000000; opacity: 1.000000" clip-path="url(#pc3769e3e2eff82f1d1a2fae431057c3a)" d="M73.125000 135.736364L526.500000 135.736364"/>
</g>
<g id="line2d35">
<g ><use style="fill: none; stroke: #000000; stroke-width: 0.500000; stroke-linejoin: round; stroke-linecap: butt;  opacity: 1.000000" xlink:href="#m3400efa6b1638b3fea9e19e898273957" x="73.125000" y="135.736364"/>
</g></g>
<g id="line2d36">
<g ><use style="fill: none; stroke: #000000; stroke-width: 0.500000; stroke-linejoin: round; stroke-linecap: butt;  opacity: 1.000000" xlink:href="#m20b58b2501143cb5e0a5e8f1ef6f1643" x="526.500000" y="135.736364"/>
</g></g>
<g id="text11">
<g style="fill: #000000; opacity: 1.000000" transform="translate(63.906250,140.111364)scale(0.120000)">
<use xlink:href="#c_42baa63129a918535c52adb20d687ea7"/>
</g>
</g>
</g>
<g id="ytick5">
<g id="line2d37">
<path style="fill: none; stroke: #000000; stroke-width: 0.500000; stroke-linejoin: round; stroke-linecap: butt; stroke-dasharray: 1.000000,3.000000; stroke-dashoffset: 0.000000; opacity: 1.000000" clip-path="url(#pc3769e3e2eff82f1d1a2fae431057c3a)" d="M73.125000 112.827273L526.500000 112.827273"/>
</g>
<g id="line2d38">
<g ><use style="fill: none; stroke: #000000; stroke-width: 0.500000; stroke-linejoin: round; stroke-linecap: butt;  opacity: 1.000000" xlink:href="#m3400efa6b1638b3fea9e19e898273957" x="73.125000" y="112.827273"/>
</g></g>
<g id="line2d39">
<g ><use style="fill: none; stroke: #000000; stroke-width: 0.500000; stroke-linejoin: round; stroke-linecap: butt;  opacity: 1.000000" xlink:href="#m20b58b2501143cb5e0a5e8f1ef6f1643" x="526.500000" y="112.827273"/>
</g></g>
<g id="text12">
<g style="fill: #000000; opacity: 1.000000" transform="translate(63.562500,117.280398)scale(0.120000)">
<use xlink:href="#c_ed3f3ed3ebfbd18bcb9c012009a68ad1"/>
</g>
</g>
</g>
<g id="ytick6">
<g id="line2d40">
<path style="fill: none; stroke: #000000; stroke-width: 0.500000; stroke-linejoin: round; stroke-linecap: butt; stroke-dasharray: 1.000000,3.000000; stroke-dashoffset: 0.000000; opacity: 1.000000" clip-path="url(#pc3769e3e2eff82f1d1a2fae431057c3a)" d="M73.125000 89.918182L526.500000 89.918182"/>
</g>
<g id="line2d41">
<g ><use style="fill: none; stroke: #000000; stroke-width: 0.500000; stroke-linejoin: round; stroke-linecap: butt;  opacity: 1.000000" xlink:href="#m3400efa6b1638b3fea9e19e898273957" x="73.125000" y="89.918182"/>
</g></g>
<g id="line2d42">
<g ><use style="fill: none; stroke: #000000; stroke-width: 0.500000; stroke-linejoin: round; stroke-linecap: butt;  opacity: 1.000000" xlink:href="#m20b58b2501143cb5e0a5e8f1ef6f1643" x="526.500000" y="89.918182"/>
</g></g>
<g id="text13">
<g style="fill: #000000; opacity: 1.000000" transform="translate(63.375000,94.285369)scale(0.120000)">
<use xlink:href="#c_3dcfa38a02242cb63ec6726c6e70be7a"/>
</g>
</g>
</g>
<g id="ytick7">
<g id="line2d43">
<path style="fill: none; stroke: #000000; stroke-width: 0.500000; stroke-linejoin: round; stroke-linecap: butt; stroke-dasharray: 1.000000,3.000000; stroke-dashoffset: 0.000000; opacity: 1.000000" clip-path="url(#pc3769e3e2eff82f1d1a2fae431057c3a)" d="M73.125000 67.009091L526.500000 67.009091"/>
</g>
<g id="line2d44">
<g ><use style="fill: none; stroke: #000000; stroke-width: 0.500000; stroke-linejoin: round; stroke-linecap: butt;  opacity: 1.000000" xlink:href="#m3400efa6b1638b3fea9e19e898273957" x="73.125000" y="67.009091"/>
</g></g>
<g id="line2d45">
<g ><use style="fill: none; stroke: #000000; stroke-width: 0.500000; stroke-linejoin: round; stroke-linecap: butt;  opacity: 1.000000" xlink:href="#m20b58b2501143cb5e0a5e8f1ef6f1643" x="526.500000" y="67.009091"/>
</g></g>
<g id="text14">
<defs>
<path id="c_a0416418d96557a09b8c1332d34883ba" d="M37.796875 -64.312500l-24.906250 38.921875l24.906250 0.000000zM35.203125 -72.906250l12.406250 0.000000l0.000000 47.515625l10.406250 0.000000l0.000000 8.203125l-10.406250 0.000000l0.000000 17.187500l-9.812500 0.000000l0.000000 -17.187500l-32.906250 0.000000l0.000000 -9.515625z"/>
</defs>
<g style="fill: #000000; opacity: 1.000000" transform="translate(62.750000,71.384091)scale(0.120000)">
<use xlink:href="#c_a0416418d96557a09b8c1332d34883ba"/>
</g>
</g>
</g>
<g id="ytick8">
<g id="line2d46">
<path style="fill: none; stroke: #000000; stroke-width: 0.500000; stroke-linejoin: round; stroke-linecap: butt; stroke-dasharray: 1.000000,3.000000; stroke-dashoffset: 0.000000; opacity: 1.000000" clip-path="url(#pc3769e3e2eff82f1d1a2fae431057c3a)" d="M73.125000 44.100000L526.500000 44.100000"/>
</g>
<g id="line2d47">
<g ><use style="fill: none; stroke: #000000; stroke-width: 0.500000; stroke-linejoin: round; stroke-linecap: butt;  opacity: 1.000000" xlink:href="#m3400efa6b1638b3fea9e19e898273957" x="73.125000" y="44.100000"/>
</g></g>
<g id="line2d48">
<g ><use style="fill: none; stroke: #000000; stroke-width: 0.500000; stroke-linejoin: round; stroke-linecap: butt;  opacity: 1.000000" xlink:href="#m20b58b2501143cb5e0a5e8f1ef6f1643" x="526.500000" y="44.100000"/>
</g></g>
<g id="text15">
<g style="fill: #000000; opacity: 1.000000" transform="translate(63.453125,48.389062)scale(0.120000)">
<use xlink:href="#c_1260a2df50f305f3db244e29828f968e"/>
</g>
</g>
</g>
</g>
<g id="patch3">
<path style="fill: none; stroke: #000000; stroke-width: 1.000000; stroke-linejoin: round; stroke-linecap: square;  opacity: 1.000000"  d="M73.125000 44.100000L526.500000 44.100000"/>
</g>
<g id="patch4">
<path style="fill: none; stroke: #000000; stroke-width: 1.000000; stroke-linejoin: round; stroke-linecap: square;  opacity: 1.000000"  d="M526.500000 204.463636L526.500000 44.100000"/>
</g>
<g id="patch5">
<path style="fill: none; stroke: #000000; stroke-width: 1.000000; stroke-linejoin: round; stroke-linecap: square;  opacity: 1.000000"  d="M73.125000 204.463636L526.500000 204.463636"/>
</g>
<g id="patch6">
<path style="fill: none; stroke: #000000; stroke-width: 1.000000; stroke-linejoin: round; stroke-linecap: square;  opacity: 1.000000"  d="M73.125000 204.463636L73.125000 44.100000"/>
</g>
<g id="legend1">
<g id="patch7">
<path style="fill: #ffffff; stroke: #000000; stroke-width: 1.000000; stroke-linejoin: round; stroke-linecap: square;  opacity: 1.000000"  d="M397.631875 115.157500L519.300000 115.157500L519.300000 51.300000
L397.631875 51.300000L397.631875 115.157500z"/>
</g>
<g id="line2d49">
<path style="fill: none; stroke: #0000ff; stroke-width: 1.000000; stroke-linejoin: round; stroke-linecap: square;  opacity: 1.000000"  d="M407.711875 62.660625L427.871875 62.660625"/>
</g>
<g id="line2d50">
</g>
<g id="text16">
<defs>
<path id="c_6a63bda47b2f3da1cec6aadd80692cfe" d="M9.421875 -54.687500l8.984375 0.000000l0.000000 54.687500l-8.984375 0.000000zM9.421875 -75.984375l8.984375 0.000000l0.000000 11.390625l-8.984375 0.000000z"/>
<path id="c_fe791a90f5471e2ab20a5ed41a7fa451" d="M54.890625 -33.015625l0.000000 33.015625l-8.984375 0.000000l0.000000 -32.718750q0.000000 -7.765625 -3.031250 -11.609375q-3.031250 -3.859375 -9.078125 -3.859375q-7.281250 0.000000 -11.484375 4.640625q-4.203125 4.625000 -4.203125 12.640625l0.000000 30.906250l-9.031250 0.000000l0.000000 -54.687500l9.031250 0.000000l0.000000 8.500000q3.234375 -4.937500 7.593750 -7.375000q4.375000 -2.437500 10.093750 -2.437500q9.421875 0.000000 14.250000 5.828125q4.843750 5.828125 4.843750 17.156250"/>
<path id="c_0bce5afba2dc6b9024b26277c38ad8e8" d="M56.203125 -29.593750l0.000000 4.390625l-41.312500 0.000000q0.593750 9.281250 5.593750 14.140625q5.000000 4.859375 13.937500 4.859375q5.171875 0.000000 10.031250 -1.265625q4.859375 -1.265625 9.656250 -3.812500l0.000000 8.500000q-4.843750 2.046875 -9.921875 3.125000q-5.078125 1.078125 -10.296875 1.078125q-13.093750 0.000000 -20.734375 -7.609375q-7.640625 -7.625000 -7.640625 -20.625000q0.000000 -13.421875 7.250000 -21.296875q7.250000 -7.890625 19.562500 -7.890625q11.031250 0.000000 17.453125 7.109375q6.421875 7.093750 6.421875 19.296875M47.218750 -32.234375q-0.093750 -7.359375 -4.125000 -11.750000q-4.031250 -4.406250 -10.671875 -4.406250q-7.515625 0.000000 -12.031250 4.250000q-4.515625 4.250000 -5.203125 11.968750z"/>
<path id="c_6ec8d5749226675394676a5d2a3b468b" d="M41.109375 -46.296875q-1.515625 -0.875000 -3.296875 -1.281250q-1.781250 -0.421875 -3.921875 -0.421875q-7.625000 0.000000 -11.703125 4.953125q-4.078125 4.953125 -4.078125 14.234375l0.000000 28.812500l-9.031250 0.000000l0.000000 -54.687500l9.031250 0.000000l0.000000 8.500000q2.843750 -4.984375 7.375000 -7.390625q4.546875 -2.421875 11.046875 -2.421875q0.921875 0.000000 2.046875 0.125000q1.125000 0.109375 2.484375 0.359375z"/>
<path id="c_0f8c41144cfbf448378cb6fd1cc8e549" d="M18.312500 -70.218750l0.000000 15.531250l18.500000 0.000000l0.000000 6.984375l-18.500000 0.000000l0.000000 29.687500q0.000000 6.687500 1.828125 8.593750q1.828125 1.906250 7.453125 1.906250l9.218750 0.000000l0.000000 7.515625l-9.218750 0.000000q-10.406250 0.000000 -14.359375 -3.875000q-3.953125 -3.890625 -3.953125 -14.140625l0.000000 -29.687500l-6.593750 0.000000l0.000000 -6.984375l6.593750 0.000000l0.000000 -15.531250z"/>
<path id="c_01d93a582460e35a7945ca50d148ffeb" d="M34.281250 -27.484375q-10.890625 0.000000 -15.093750 2.484375q-4.203125 2.484375 -4.203125 8.500000q0.000000 4.781250 3.156250 7.593750q3.156250 2.796875 8.562500 2.796875q7.484375 0.000000 12.000000 -5.296875q4.515625 -5.296875 4.515625 -14.078125l0.000000 -2.000000zM52.203125 -31.203125l0.000000 31.203125l-8.984375 0.000000l0.000000 -8.296875q-3.078125 4.968750 -7.671875 7.343750q-4.593750 2.375000 -11.234375 2.375000q-8.390625 0.000000 -13.359375 -4.718750q-4.953125 -4.718750 -4.953125 -12.625000q0.000000 -9.218750 6.171875 -13.906250q6.187500 -4.687500 18.437500 -4.687500l12.609375 0.000000l0.000000 -0.890625q0.000000 -6.203125 -4.078125 -9.593750q-4.078125 -3.390625 -11.453125 -3.390625q-4.687500 0.000000 -9.140625 1.125000q-4.437500 1.125000 -8.531250 3.375000l0.000000 -8.312500q4.921875 -1.906250 9.562500 -2.843750q4.640625 -0.953125 9.031250 -0.953125q11.875000 0.000000 17.734375 6.156250q5.859375 6.140625 5.859375 18.640625"/>
<path id="c_57adaa7083d7229075db8bc2c5b2febe" d="M4.203125 -54.687500l8.984375 0.000000l11.234375 42.671875l11.171875 -42.671875l10.593750 0.000000l11.234375 42.671875l11.187500 -42.671875l8.984375 0.000000l-14.312500 54.687500l-10.593750 0.000000l-11.765625 -44.828125l-11.812500 44.828125l-10.609375 0.000000z"/>
</defs>
<g style="fill: #000000; opacity: 1.000000" transform="translate(443.711875,67.700625)scale(0.144000)">
<use xlink:href="#c_6a63bda47b2f3da1cec6aadd80692cfe"/>
<use xlink:href="#c_fe791a90f5471e2ab20a5ed41a7fa451" x="27.783203"/>
<use xlink:href="#c_0bce5afba2dc6b9024b26277c38ad8e8" x="91.162109"/>
<use xlink:href="#c_6ec8d5749226675394676a5d2a3b468b" x="152.685547"/>
<use xlink:href="#c_0f8c41144cfbf448378cb6fd1cc8e549" x="193.798828"/>
<use xlink:href="#c_6a63bda47b2f3da1cec6aadd80692cfe" x="233.007812"/>
<use xlink:href="#c_01d93a582460e35a7945ca50d148ffeb" x="260.791016"/>
<use xlink:href="#c_42baa63129a918535c52adb20d687ea7" x="322.070313"/>
<use xlink:href="#c_ed3e21196fb739f392806f09ca0594ef" x="385.693359"/>
<use xlink:href="#c_57adaa7083d7229075db8bc2c5b2febe" x="417.480469"/>
</g>
</g>
<g id="line2d51">
<path style="fill: none; stroke: #008000; stroke-width: 1.000000; stroke-linejoin: round; stroke-linecap: square;  opacity: 1.000000"  d="M407.711875 83.407500L427.871875 83.407500"/>
</g>
<g id="line2d52">
</g>
<g id="text17">
<g style="fill: #000000; opacity: 1.000000" transform="translate(443.711875,88.447500)scale(0.144000)">
<use xlink:href="#c_6a63bda47b2f3da1cec6aadd80692cfe"/>
<use xlink:href="#c_fe791a90f5471e2ab20a5ed41a7fa451" x="27.783203"/>
<use xlink:href="#c_0bce5afba2dc6b9024b26277c38ad8e8" x="91.162109"/>
<use xlink:href="#c_6ec8d5749226675394676a5d2a3b468b" x="152.685547"/>
<use xlink:href="#c_0f8c41144cfbf448378cb6fd1cc8e549" x="193.798828"/>
<use xlink:href="#c_6a63bda47b2f3da1cec6aadd80692cfe" x="233.007812"/>
<use xlink:href="#c_01d93a582460e35a7945ca50d148ffeb" x="260.791016"/>
<use xlink:href="#c_ed3f3ed3ebfbd18bcb9c012009a68ad1" x="322.070313"/>
<use xlink:href="#c_ed3e21196fb739f392806f09ca0594ef" x="385.693359"/>
<use xlink:href="#c_57adaa7083d7229075db8bc2c5b2febe" x="417.480469"/>
</g>
</g>
<g id="line2d53">
<path style="fill: none; stroke: #ff0000; stroke-width: 1.000000; stroke-linejoin: round; stroke-linecap: square;  opacity: 1.000000"  d="M407.711875 104.154375L427.871875 104.154375"/>
</g>
<g id="line2d54">
</g>
<g id="text18">
<g style="fill: #000000; opacity: 1.000000" transform="translate(443.711875,109.194375)scale(0.144000)">
<use xlink:href="#c_6a63bda47b2f3da1cec6aadd80692cfe"/>
<use xlink:href="#c_fe791a90f5471e2ab20a5ed41a7fa451" x="27.783203"/>
<use xlink:href="#c_0bce5afba2dc6b9024b26277c38ad8e8" x="91.162109"/>
<use xlink:href="#c_6ec8d5749226675394676a5d2a3b468b" x="152.685547"/>
<use xlink:href="#c_0f8c41144cfbf448378cb6fd1cc8e549" x="193.798828"/>
<use xlink:href="#c_6a63bda47b2f3da1cec6aadd80692cfe" x="233.007812"/>
<use xlink:href="#c_01d93a582460e35a7945ca50d148ffeb" x="260.791016"/>
<use xlink:href="#c_3dcfa38a02242cb63ec6726c6e70be7a" x="322.070313"/>
<use xlink:href="#c_ed3e21196fb739f392806f09ca0594ef" x="385.693359"/>
<use xlink:href="#c_57adaa7083d7229075db8bc2c5b2febe" x="417.480469"/>
</g>
</g>
</g>
</g>
<g id="axes2">
<g id="patch8">
<path style="fill: #ffffff; opacity: 1.000000"  d="M73.125000 396.900000L526.500000 396.900000L526.500000 236.536364
L73.125000 236.536364L73.125000 396.900000"/>
</g>
<g id="line2d55">
<defs>
  <clipPath id="p5a367dadbe51f04084fb62dff987ed65">
<rect x="73.125000" y="236.536364" width="453.375000" height="160.363636"/>
  </clipPath>
</defs><path style="fill: none; stroke: #0000ff; stroke-width: 1.000000; stroke-linejoin: round; stroke-linecap: square;  opacity: 1.000000" clip-path="url(#p5a367dadbe51f04084fb62dff987ed65)" d="M73.125000 316.718182L76.520121 264.710087L78.246381 246.590207
L79.603607 238.539940L80.097702 237.125605L81.579989 237.931693
L82.568181 242.626249L84.257903 257.696890L85.947625 279.975224
L92.706513 380.946526L94.396235 393.540075L95.241096 396.371430
L96.930818 394.670422L97.775679 390.190395L99.465401 374.656228
L101.789955 342.267964L107.676143 253.943491L109.192755 241.569534
L110.205622 237.385310L111.527645 237.204406L112.343235 240.087320
L113.974414 252.300029L115.605593 271.848979L118.867952 323.468355
L122.130311 372.100313L123.761491 388.233326L124.577080 393.326025
L125.392670 396.221860L127.023850 395.156144L127.839439 391.225155
L129.220289 379.788014L130.916068 358.815326L133.742367 313.929039
L136.927101 265.257922L138.775138 245.963190L139.699156 240.063369
L140.427797 237.392157L141.885079 237.518858L142.613720 240.313869
L144.071002 251.048658L145.528284 267.764180L148.091499 306.809293
L151.594194 362.272730L153.192035 381.299214L154.789877 393.265727
L155.588798 396.157971L157.186640 395.364663L157.985560 391.700942
L159.583402 378.340706L161.463319 354.152817L168.728821 248.202076
L170.372403 238.207508L171.194194 236.581859L172.837775 240.309092
L174.481357 252.869681L176.124938 272.811544L179.412101 325.030692
L182.699265 373.517027L184.342846 389.196638L185.164637 393.971522
L185.986428 396.497298L187.630009 394.575008L188.970915 386.295481
L190.528260 370.003751L192.639524 339.493667L197.415972 264.762748
L199.181797 246.305911L200.359014 239.110584L200.947622 237.230930
L202.124839 237.047754L203.085480 240.424664L204.046121 246.834021
L205.967403 267.620657L208.849326 311.917701L212.691890 370.717934
L214.613172 389.516531L215.573813 394.736793L216.534454 396.856041
L217.829013 394.677462L219.123572 386.886902L220.418131 374.045173
L222.359970 347.417331L227.868677 261.931156L229.446348 245.992927
L230.646190 238.856580L231.246111 237.079332L232.445952 237.244291
L233.045873 239.183934L233.978368 244.572515L235.843357 263.154168
L238.640842 304.734482L242.370821 363.656461L244.235810 384.749119
L245.168305 391.649840L246.100800 395.743674L247.033295 396.877270
L247.965789 395.008163L249.206849 387.999405L250.447908 376.272439
L252.309497 351.606465L258.896778 252.964229L260.165121 242.494400
L261.010683 238.334103L261.713763 236.710933L263.119923 238.580989
L264.526084 247.080229L265.932244 261.487575L268.041485 291.390180
L272.926445 368.010078L274.689068 386.685449L275.570380 392.649306
L276.451691 396.071658L278.214315 394.922550L279.329756 388.762537
L281.002917 372.452105L282.676079 349.466849L288.446783 260.391681
L289.886573 246.069841L291.326363 238.029780L291.769785 236.946007
L293.100053 237.766748L293.986898 241.669714L294.723338 246.852149
L295.870337 258.121019L298.678862 297.996862L302.832680 363.816588
L304.494208 383.005318L306.155735 394.364271L306.986499 396.646987
L308.648026 394.081354L309.847843 386.485816L311.647568 367.217818
L314.395292 325.529650L318.187282 266.414931L320.278696 244.795329
L321.672972 237.665569L322.370109 236.557763L323.764385 239.371939
L325.158661 248.638514L326.552936 263.584447L329.724964 311.512421
L332.913997 361.857632L334.508513 380.966483L336.103030 393.080672
L336.900288 396.068301L338.494804 395.497493L339.292063 391.954699
L340.886579 378.837122L342.481096 358.956704L346.467387 295.033125
L348.859162 260.839691L350.453678 245.167740L352.048195 237.285431
L353.115176 236.825898L353.648666 238.070164L354.715647 243.430510
L356.316119 258.073051L357.215696 269.261358L364.985931 383.394102
L366.705121 394.760987L367.433060 396.642418L368.888939 394.923931
L369.831077 389.986028L371.244284 377.415051L373.366848 349.226751
L379.886429 252.069117L381.360077 240.775298L382.096901 237.739401
L382.833726 236.552841L384.307374 239.794916L385.781023 250.199640
L387.254672 266.798185L390.032942 309.152780L393.593814 364.970879
L395.374249 384.867412L396.264467 391.477420L397.154685 395.534463
L398.044903 396.899998L399.267486 394.319493L400.490069 386.753430
L402.323943 367.200019L404.496053 334.957939L409.125794 263.071723
L410.965901 244.705633L412.192639 238.139696L412.566015 237.139169
L413.686144 237.022335L414.625820 240.248922L415.758421 247.984334
L417.556578 267.807668L420.253814 309.084274L423.850128 365.386715
L425.648285 385.294512L426.547364 391.820858L427.446442 395.731352
L428.072409 396.833222L429.324343 394.977250L430.576277 387.850534
L431.828211 375.933057L433.739919 350.394697L439.475044 261.550578
L441.139344 245.087678L442.556234 237.712703L443.553081 236.587512
L444.549927 238.891005L445.546773 244.524621L447.050448 258.751887
L449.305961 290.041711L454.710907 373.359649L456.278980 388.550793
L457.847053 396.176529L459.415126 395.433715L460.324412 391.163568
L461.688342 379.859442L462.930378 365.147862L466.079945 316.219048
L469.661055 262.023990L471.364778 245.084427L472.500593 238.644998
L472.891610 237.419542L474.064663 236.900160L475.044027 240.091210
L476.220720 248.090129L477.985760 267.533163L480.339146 303.061238
L483.978299 361.017887L485.744761 382.058607L487.243814 393.160494
L487.993341 395.990053L489.492394 395.865289L490.568202 391.046669
L491.644010 382.526008L493.257722 363.777420L496.014133 321.064236
L499.689348 264.466584L501.526955 245.560981L503.082290 237.506233
L504.355351 237.011779L505.319499 240.343140L506.283647 246.732319
L508.211943 267.548733L511.104386 312.001900L514.960978 370.952701
L516.889273 389.697820L517.853421 394.849179L518.817569 396.872417
L519.781717 395.686532L520.864540 390.592531L521.947364 381.771170
L523.571599 362.570027L526.500000 316.718182L526.500000 316.718182"/>
</g>
<g id="matplotlib.axis3">
<g id="xtick8">
<g id="line2d56">
<path style="fill: none; stroke: #000000; stroke-width: 0.500000; stroke-linejoin: round; stroke-linecap: butt; stroke-dasharray: 1.000000,3.000000; stroke-dashoffset: 0.000000; opacity: 1.000000" clip-path="url(#p5a367dadbe51f04084fb62dff987ed65)" d="M73.125000 396.900000L73.125000 236.536364"/>
</g>
<g id="line2d57">
<g ><use style="fill: none; stroke: #000000; stroke-width: 0.500000; stroke-linejoin: round; stroke-linecap: butt;  opacity: 1.000000" xlink:href="#m30e32995789d870ad79a2e54c91cf9c6" x="73.125000" y="396.900000"/>
</g></g>
<g id="line2d58">
<g ><use style="fill: none; stroke: #000000; stroke-width: 0.500000; stroke-linejoin: round; stroke-linecap: butt;  opacity: 1.000000" xlink:href="#m9281cae24120827b11d5ea8a7ad3e96b" x="73.125000" y="236.536364"/>
</g></g>
<g id="text19">
<g style="fill: #000000; opacity: 1.000000" transform="translate(64.375000,409.806250)scale(0.120000)">
<use xlink:href="#c_7a2040fe3b94fcd41d0a72c84e93b115"/>
<use xlink:href="#c_ed3e21196fb739f392806f09ca0594ef" x="63.623047"/>
<use xlink:href="#c_7a2040fe3b94fcd41d0a72c84e93b115" x="95.410156"/>
</g>
</g>
</g>
<g id="xtick9">
<g id="line2d59">
<path style="fill: none; stroke: #000000; stroke-width: 0.500000; stroke-linejoin: round; stroke-linecap: butt; stroke-dasharray: 1.000000,3.000000; stroke-dashoffset: 0.000000; opacity: 1.000000" clip-path="url(#p5a367dadbe51f04084fb62dff987ed65)" d="M148.687500 396.900000L148.687500 236.536364"/>
</g>
<g id="line2d60">
<g ><use style="fill: none; stroke: #000000; stroke-width: 0.500000; stroke-linejoin: round; stroke-linecap: butt;  opacity: 1.000000" xlink:href="#m30e32995789d870ad79a2e54c91cf9c6" x="148.687500" y="396.900000"/>
</g></g>
<g id="line2d61">
<g ><use style="fill: none; stroke: #000000; stroke-width: 0.500000; stroke-linejoin: round; stroke-linecap: butt;  opacity: 1.000000" xlink:href="#m9281cae24120827b11d5ea8a7ad3e96b" x="148.687500" y="236.536364"/>
</g></g>
<g id="text20">
<g style="fill: #000000; opacity: 1.000000" transform="translate(140.062500,409.806250)scale(0.120000)">
<use xlink:href="#c_7a2040fe3b94fcd41d0a72c84e93b115"/>
<use xlink:href="#c_ed3e21196fb739f392806f09ca0594ef" x="63.623047"/>
<use xlink:href="#c_1260a2df50f305f3db244e29828f968e" x="95.410156"/>
</g>
</g>
</g>
<g id="xtick10">
<g id="line2d62">
<path style="fill: none; stroke: #000000; stroke-width: 0.500000; stroke-linejoin: round; stroke-linecap: butt; stroke-dasharray: 1.000000,3.000000; stroke-dashoffset: 0.000000; opacity: 1.000000" clip-path="url(#p5a367dadbe51f04084fb62dff987ed65)" d="M224.250000 396.900000L224.250000 236.536364"/>
</g>
<g id="line2d63">
<g ><use style="fill: none; stroke: #000000; stroke-width: 0.500000; stroke-linejoin: round; stroke-linecap: butt;  opacity: 1.000000" xlink:href="#m30e32995789d870ad79a2e54c91cf9c6" x="224.250000" y="396.900000"/>
</g></g>
<g id="line2d64">
<g ><use style="fill: none; stroke: #000000; stroke-width: 0.500000; stroke-linejoin: round; stroke-linecap: butt;  opacity: 1.000000" xlink:href="#m9281cae24120827b11d5ea8a7ad3e96b" x="224.250000" y="236.536364"/>
</g></g>
<g id="text21">
<g style="fill: #000000; opacity: 1.000000" transform="translate(215.757812,409.806250)scale(0.120000)">
<use xlink:href="#c_42baa63129a918535c52adb20d687ea7"/>
<use xlink:href="#c_ed3e21196fb739f392806f09ca0594ef" x="63.623047"/>
<use xlink:href="#c_7a2040fe3b94fcd41d0a72c84e93b115" x="95.410156"/>
</g>
</g>
</g>
<g id="xtick11">
<g id="line2d65">
<path style="fill: none; stroke: #000000; stroke-width: 0.500000; stroke-linejoin: round; stroke-linecap: butt; stroke-dasharray: 1.000000,3.000000; stroke-dashoffset: 0.000000; opacity: 1.000000" clip-path="url(#p5a367dadbe51f04084fb62dff987ed65)" d="M299.812500 396.900000L299.812500 236.536364"/>
</g>
<g id="line2d66">
<g ><use style="fill: none; stroke: #000000; stroke-width: 0.500000; stroke-linejoin: round; stroke-linecap: butt;  opacity: 1.000000" xlink:href="#m30e32995789d870ad79a2e54c91cf9c6" x="299.812500" y="396.900000"/>
</g></g>
<g id="line2d67">
<g ><use style="fill: none; stroke: #000000; stroke-width: 0.500000; stroke-linejoin: round; stroke-linecap: butt;  opacity: 1.000000" xlink:href="#m9281cae24120827b11d5ea8a7ad3e96b" x="299.812500" y="236.536364"/>
</g></g>
<g id="text22">
<g style="fill: #000000; opacity: 1.000000" transform="translate(291.445312,409.650000)scale(0.120000)">
<use xlink:href="#c_42baa63129a918535c52adb20d687ea7"/>
<use xlink:href="#c_ed3e21196fb739f392806f09ca0594ef" x="63.623047"/>
<use xlink:href="#c_1260a2df50f305f3db244e29828f968e" x="95.410156"/>
</g>
</g>
</g>
<g id="xtick12">
<g id="line2d68">
<path style="fill: none; stroke: #000000; stroke-width: 0.500000; stroke-linejoin: round; stroke-linecap: butt; stroke-dasharray: 1.000000,3.000000; stroke-dashoffset: 0.000000; opacity: 1.000000" clip-path="url(#p5a367dadbe51f04084fb62dff987ed65)" d="M375.375000 396.900000L375.375000 236.536364"/>
</g>
<g id="line2d69">
<g ><use style="fill: none; stroke: #000000; stroke-width: 0.500000; stroke-linejoin: round; stroke-linecap: butt;  opacity: 1.000000" xlink:href="#m30e32995789d870ad79a2e54c91cf9c6" x="375.375000" y="396.900000"/>
</g></g>
<g id="line2d70">
<g ><use style="fill: none; stroke: #000000; stroke-width: 0.500000; stroke-linejoin: round; stroke-linecap: butt;  opacity: 1.000000" xlink:href="#m9281cae24120827b11d5ea8a7ad3e96b" x="375.375000" y="236.536364"/>
</g></g>
<g id="text23">
<g style="fill: #000000; opacity: 1.000000" transform="translate(366.664062,409.806250)scale(0.120000)">
<use xlink:href="#c_ed3f3ed3ebfbd18bcb9c012009a68ad1"/>
<use xlink:href="#c_ed3e21196fb739f392806f09ca0594ef" x="63.623047"/>
<use xlink:href="#c_7a2040fe3b94fcd41d0a72c84e93b115" x="95.410156"/>
</g>
</g>
</g>
<g id="xtick13">
<g id="line2d71">
<path style="fill: none; stroke: #000000; stroke-width: 0.500000; stroke-linejoin: round; stroke-linecap: butt; stroke-dasharray: 1.000000,3.000000; stroke-dashoffset: 0.000000; opacity: 1.000000" clip-path="url(#p5a367dadbe51f04084fb62dff987ed65)" d="M450.937500 396.900000L450.937500 236.536364"/>
</g>
<g id="line2d72">
<g ><use style="fill: none; stroke: #000000; stroke-width: 0.500000; stroke-linejoin: round; stroke-linecap: butt;  opacity: 1.000000" xlink:href="#m30e32995789d870ad79a2e54c91cf9c6" x="450.937500" y="396.900000"/>
</g></g>
<g id="line2d73">
<g ><use style="fill: none; stroke: #000000; stroke-width: 0.500000; stroke-linejoin: round; stroke-linecap: butt;  opacity: 1.000000" xlink:href="#m9281cae24120827b11d5ea8a7ad3e96b" x="450.937500" y="236.536364"/>
</g></g>
<g id="text24">
<g style="fill: #000000; opacity: 1.000000" transform="translate(442.351562,409.806250)scale(0.120000)">
<use xlink:href="#c_ed3f3ed3ebfbd18bcb9c012009a68ad1"/>
<use xlink:href="#c_ed3e21196fb739f392806f09ca0594ef" x="63.623047"/>
<use xlink:href="#c_1260a2df50f305f3db244e29828f968e" x="95.410156"/>
</g>
</g>
</g>
<g id="xtick14">
<g id="line2d74">
<path style="fill: none; stroke: #000000; stroke-width: 0.500000; stroke-linejoin: round; stroke-linecap: butt; stroke-dasharray: 1.000000,3.000000; stroke-dashoffset: 0.000000; opacity: 1.000000" clip-path="url(#p5a367dadbe51f04084fb62dff987ed65)" d="M526.500000 396.900000L526.500000 236.536364"/>
</g>
<g id="line2d75">
<g ><use style="fill: none; stroke: #000000; stroke-width: 0.500000; stroke-linejoin: round; stroke-linecap: butt;  opacity: 1.000000" xlink:href="#m30e32995789d870ad79a2e54c91cf9c6" x="526.500000" y="396.900000"/>
</g></g>
<g id="line2d76">
<g ><use style="fill: none; stroke: #000000; stroke-width: 0.500000; stroke-linejoin: round; stroke-linecap: butt;  opacity: 1.000000" xlink:href="#m9281cae24120827b11d5ea8a7ad3e96b" x="526.500000" y="236.536364"/>
</g></g>
<g id="text25">
<g style="fill: #000000; opacity: 1.000000" transform="translate(517.812500,409.806250)scale(0.120000)">
<use xlink:href="#c_3dcfa38a02242cb63ec6726c6e70be7a"/>
<use xlink:href="#c_ed3e21196fb739f392806f09ca0594ef" x="63.623047"/>
<use xlink:href="#c_7a2040fe3b94fcd41d0a72c84e93b115" x="95.410156"/>
</g>
</g>
</g>
<g id="text26">
<defs>
<path id="c_4653c6dfde66c7610eae0911760d3490" d="M52.000000 -44.187500q3.375000 -6.062500 8.062500 -8.937500q4.687500 -2.875000 11.031250 -2.875000q8.546875 0.000000 13.187500 5.984375q4.640625 5.968750 4.640625 17.000000l0.000000 33.015625l-9.031250 0.000000l0.000000 -32.718750q0.000000 -7.859375 -2.796875 -11.656250q-2.781250 -3.812500 -8.484375 -3.812500q-6.984375 0.000000 -11.046875 4.640625q-4.046875 4.625000 -4.046875 12.640625l0.000000 30.906250l-9.031250 0.000000l0.000000 -32.718750q0.000000 -7.906250 -2.781250 -11.687500q-2.781250 -3.781250 -8.593750 -3.781250q-6.890625 0.000000 -10.953125 4.656250q-4.046875 4.656250 -4.046875 12.625000l0.000000 30.906250l-9.031250 0.000000l0.000000 -54.687500l9.031250 0.000000l0.000000 8.500000q3.078125 -5.031250 7.375000 -7.421875q4.296875 -2.390625 10.203125 -2.390625q5.968750 0.000000 10.140625 3.031250q4.171875 3.015625 6.171875 8.781250"/>
<path id="c_d41d8cd98f00b204e9800998ecf8427e" d=""/>
<path id="c_1a1d9ef1e4ddee695bd67a282879f099" d="M8.593750 -75.984375l20.703125 0.000000l0.000000 6.984375l-11.718750 0.000000l0.000000 75.203125l11.718750 0.000000l0.000000 6.984375l-20.703125 0.000000z"/>
<path id="c_8e0810ad13fe20a2a87a2619799b154d" d="M44.281250 -53.078125l0.000000 8.500000q-3.796875 -1.953125 -7.906250 -2.921875q-4.093750 -0.984375 -8.500000 -0.984375q-6.687500 0.000000 -10.031250 2.046875q-3.343750 2.046875 -3.343750 6.156250q0.000000 3.125000 2.390625 4.906250q2.390625 1.781250 9.625000 3.390625l3.078125 0.687500q9.562500 2.046875 13.593750 5.781250q4.031250 3.734375 4.031250 10.421875q0.000000 7.625000 -6.031250 12.078125q-6.031250 4.437500 -16.578125 4.437500q-4.390625 0.000000 -9.156250 -0.859375q-4.765625 -0.859375 -10.031250 -2.562500l0.000000 -9.281250q4.984375 2.593750 9.812500 3.890625q4.828125 1.281250 9.578125 1.281250q6.343750 0.000000 9.750000 -2.171875q3.421875 -2.171875 3.421875 -6.125000q0.000000 -3.656250 -2.468750 -5.609375q-2.453125 -1.953125 -10.812500 -3.765625l-3.125000 -0.734375q-8.343750 -1.750000 -12.062500 -5.390625q-3.703125 -3.640625 -3.703125 -9.984375q0.000000 -7.718750 5.468750 -11.906250q5.468750 -4.203125 15.531250 -4.203125q4.968750 0.000000 9.359375 0.734375q4.406250 0.718750 8.109375 2.187500"/>
<path id="c_5bcf09947f6bf611091602c6fea1d302" d="M30.421875 -75.984375l0.000000 89.171875l-20.703125 0.000000l0.000000 -6.984375l11.671875 0.000000l0.000000 -75.203125l-11.671875 0.000000l0.000000 -6.984375z"/>
</defs>
<g style="fill: #000000; opacity: 1.000000" transform="translate(277.054688,424.103125)scale(0.120000)">
<use xlink:href="#c_0f8c41144cfbf448378cb6fd1cc8e549"/>
<use xlink:href="#c_6a63bda47b2f3da1cec6aadd80692cfe" x="39.208984"/>
<use xlink:href="#c_4653c6dfde66c7610eae0911760d3490" x="66.992188"/>
<use xlink:href="#c_0bce5afba2dc6b9024b26277c38ad8e8" x="164.404297"/>
<use xlink:href="#c_d41d8cd98f00b204e9800998ecf8427e" x="225.927734"/>
<use xlink:href="#c_1a1d9ef1e4ddee695bd67a282879f099" x="257.714844"/>
<use xlink:href="#c_8e0810ad13fe20a2a87a2619799b154d" x="296.728516"/>
<use xlink:href="#c_5bcf09947f6bf611091602c6fea1d302" x="348.828125"/>
</g>
</g>
</g>
<g id="matplotlib.axis4">
<g id="ytick9">
<g id="line2d77">
<path style="fill: none; stroke: #000000; stroke-width: 0.500000; stroke-linejoin: round; stroke-linecap: butt; stroke-dasharray: 1.000000,3.000000; stroke-dashoffset: 0.000000; opacity: 1.000000" clip-path="url(#p5a367dadbe51f04084fb62dff987ed65)" d="M73.125000 396.900000L526.500000 396.900000"/>
</g>
<g id="line2d78">
<g ><use style="fill: none; stroke: #000000; stroke-width: 0.500000; stroke-linejoin: round; stroke-linecap: butt;  opacity: 1.000000" xlink:href="#m3400efa6b1638b3fea9e19e898273957" x="73.125000" y="396.900000"/>
</g></g>
<g id="line2d79">
<g ><use style="fill: none; stroke: #000000; stroke-width: 0.500000; stroke-linejoin: round; stroke-linecap: butt;  opacity: 1.000000" xlink:href="#m20b58b2501143cb5e0a5e8f1ef6f1643" x="526.500000" y="396.900000"/>
</g></g>
<g id="text27">
<g style="fill: #000000; opacity: 1.000000" transform="translate(45.843750,401.267187)scale(0.120000)">
<use xlink:href="#c_6a8d56c819c37117ab4cf023bec22a5a"/>
<use xlink:href="#c_42baa63129a918535c52adb20d687ea7" x="83.789062"/>
<use xlink:href="#c_7a2040fe3b94fcd41d0a72c84e93b115" x="147.412109"/>
</g>
</g>
</g>
<g id="ytick10">
<g id="line2d80">
<path style="fill: none; stroke: #000000; stroke-width: 0.500000; stroke-linejoin: round; stroke-linecap: butt; stroke-dasharray: 1.000000,3.000000; stroke-dashoffset: 0.000000; opacity: 1.000000" clip-path="url(#p5a367dadbe51f04084fb62dff987ed65)" d="M73.125000 356.809091L526.500000 356.809091"/>
</g>
<g id="line2d81">
<g ><use style="fill: none; stroke: #000000; stroke-width: 0.500000; stroke-linejoin: round; stroke-linecap: butt;  opacity: 1.000000" xlink:href="#m3400efa6b1638b3fea9e19e898273957" x="73.125000" y="356.809091"/>
</g></g>
<g id="line2d82">
<g ><use style="fill: none; stroke: #000000; stroke-width: 0.500000; stroke-linejoin: round; stroke-linecap: butt;  opacity: 1.000000" xlink:href="#m20b58b2501143cb5e0a5e8f1ef6f1643" x="526.500000" y="356.809091"/>
</g></g>
<g id="text28">
<g style="fill: #000000; opacity: 1.000000" transform="translate(53.734375,361.098153)scale(0.120000)">
<use xlink:href="#c_6a8d56c819c37117ab4cf023bec22a5a"/>
<use xlink:href="#c_1260a2df50f305f3db244e29828f968e" x="83.789062"/>
</g>
</g>
</g>
<g id="ytick11">
<g id="line2d83">
<path style="fill: none; stroke: #000000; stroke-width: 0.500000; stroke-linejoin: round; stroke-linecap: butt; stroke-dasharray: 1.000000,3.000000; stroke-dashoffset: 0.000000; opacity: 1.000000" clip-path="url(#p5a367dadbe51f04084fb62dff987ed65)" d="M73.125000 316.718182L526.500000 316.718182"/>
</g>
<g id="line2d84">
<g ><use style="fill: none; stroke: #000000; stroke-width: 0.500000; stroke-linejoin: round; stroke-linecap: butt;  opacity: 1.000000" xlink:href="#m3400efa6b1638b3fea9e19e898273957" x="73.125000" y="316.718182"/>
</g></g>
<g id="line2d85">
<g ><use style="fill: none; stroke: #000000; stroke-width: 0.500000; stroke-linejoin: round; stroke-linecap: butt;  opacity: 1.000000" xlink:href="#m20b58b2501143cb5e0a5e8f1ef6f1643" x="526.500000" y="316.718182"/>
</g></g>
<g id="text29">
<g style="fill: #000000; opacity: 1.000000" transform="translate(63.078125,321.085369)scale(0.120000)">
<use xlink:href="#c_7a2040fe3b94fcd41d0a72c84e93b115"/>
</g>
</g>
</g>
<g id="ytick12">
<g id="line2d86">
<path style="fill: none; stroke: #000000; stroke-width: 0.500000; stroke-linejoin: round; stroke-linecap: butt; stroke-dasharray: 1.000000,3.000000; stroke-dashoffset: 0.000000; opacity: 1.000000" clip-path="url(#p5a367dadbe51f04084fb62dff987ed65)" d="M73.125000 276.627273L526.500000 276.627273"/>
</g>
<g id="line2d87">
<g ><use style="fill: none; stroke: #000000; stroke-width: 0.500000; stroke-linejoin: round; stroke-linecap: butt;  opacity: 1.000000" xlink:href="#m3400efa6b1638b3fea9e19e898273957" x="73.125000" y="276.627273"/>
</g></g>
<g id="line2d88">
<g ><use style="fill: none; stroke: #000000; stroke-width: 0.500000; stroke-linejoin: round; stroke-linecap: butt;  opacity: 1.000000" xlink:href="#m20b58b2501143cb5e0a5e8f1ef6f1643" x="526.500000" y="276.627273"/>
</g></g>
<g id="text30">
<g style="fill: #000000; opacity: 1.000000" transform="translate(63.453125,280.916335)scale(0.120000)">
<use xlink:href="#c_1260a2df50f305f3db244e29828f968e"/>
</g>
</g>
</g>
<g id="ytick13">
<g id="line2d89">
<path style="fill: none; stroke: #000000; stroke-width: 0.500000; stroke-linejoin: round; stroke-linecap: butt; stroke-dasharray: 1.000000,3.000000; stroke-dashoffset: 0.000000; opacity: 1.000000" clip-path="url(#p5a367dadbe51f04084fb62dff987ed65)" d="M73.125000 236.536364L526.500000 236.536364"/>
</g>
<g id="line2d90">
<g ><use style="fill: none; stroke: #000000; stroke-width: 0.500000; stroke-linejoin: round; stroke-linecap: butt;  opacity: 1.000000" xlink:href="#m3400efa6b1638b3fea9e19e898273957" x="73.125000" y="236.536364"/>
</g></g>
<g id="line2d91">
<g ><use style="fill: none; stroke: #000000; stroke-width: 0.500000; stroke-linejoin: round; stroke-linecap: butt;  opacity: 1.000000" xlink:href="#m20b58b2501143cb5e0a5e8f1ef6f1643" x="526.500000" y="236.536364"/>
</g></g>
<g id="text31">
<g style="fill: #000000; opacity: 1.000000" transform="translate(55.953125,240.903551)scale(0.120000)">
<use xlink:href="#c_42baa63129a918535c52adb20d687ea7"/>
<use xlink:href="#c_7a2040fe3b94fcd41d0a72c84e93b115" x="63.623047"/>
</g>
</g>
</g>
</g>
<g id="patch9">
<path style="fill: none; stroke: #000000; stroke-width: 1.000000; stroke-linejoin: round; stroke-linecap: square;  opacity: 1.000000"  d="M73.125000 236.536364L526.500000 236.536364"/>
</g>
<g id="patch10">
<path style="fill: none; stroke: #000000; stroke-width: 1.000000; stroke-linejoin: round; stroke-linecap: square;  opacity: 1.000000"  d="M526.500000 396.900000L526.500000 236.536364"/>
</g>
<g id="patch11">
<path style="fill: none; stroke: #000000; stroke-width: 1.000000; stroke-linejoin: round; stroke-linecap: square;  opacity: 1.000000"  d="M73.125000 396.900000L526.500000 396.900000"/>
</g>
<g id="patch12">
<path style="fill: none; stroke: #000000; stroke-width: 1.000000; stroke-linejoin: round; stroke-linecap: square;  opacity: 1.000000"  d="M73.125000 396.900000L73.125000 236.536364"/>
</g>
<g id="legend2">
<g id="patch13">
<path style="fill: #ffffff; stroke: #000000; stroke-width: 1.000000; stroke-linejoin: round; stroke-linecap: square;  opacity: 1.000000"  d="M445.585000 266.100114L519.300000 266.100114L519.300000 243.736364
L445.585000 243.736364L445.585000 266.100114z"/>
</g>
<g id="line2d92">
<path style="fill: none; stroke: #0000ff; stroke-width: 1.000000; stroke-linejoin: round; stroke-linecap: square;  opacity: 1.000000"  d="M455.665000 255.096989L475.825000 255.096989"/>
</g>
<g id="line2d93">
</g>
<g id="text32">
<defs>
<path id="c_c438d87e693443c2861ebd6359e6491e" d="M8.500000 -21.578125l0.000000 -33.109375l8.984375 0.000000l0.000000 32.765625q0.000000 7.765625 3.015625 11.656250q3.031250 3.875000 9.093750 3.875000q7.265625 0.000000 11.484375 -4.640625q4.234375 -4.640625 4.234375 -12.656250l0.000000 -31.000000l8.984375 0.000000l0.000000 54.687500l-8.984375 0.000000l0.000000 -8.406250q-3.265625 4.984375 -7.593750 7.406250q-4.312500 2.421875 -10.031250 2.421875q-9.421875 0.000000 -14.312500 -5.859375q-4.875000 -5.859375 -4.875000 -17.140625"/>
</defs>
<g style="fill: #000000; opacity: 1.000000" transform="translate(491.665000,260.136989)scale(0.144000)">
<use xlink:href="#c_0f8c41144cfbf448378cb6fd1cc8e549"/>
<use xlink:href="#c_01d93a582460e35a7945ca50d148ffeb" x="39.208984"/>
<use xlink:href="#c_c438d87e693443c2861ebd6359e6491e" x="100.488281"/>
</g>
</g>
</g>
</g>
</g>
</svg>
