<?xml version="1.0" standalone="no"?>
<!DOCTYPE svg PUBLIC "-//W3C//DTD SVG 1.1//EN"
  "http://www.w3.org/Graphics/SVG/1.1/DTD/svg11.dtd">
<!-- Created with matplotlib (http://matplotlib.sourceforge.net/) -->
<svg width="585pt" height="441pt" viewBox="0 0 585 441"
   xmlns="http://www.w3.org/2000/svg"
   xmlns:xlink="http://www.w3.org/1999/xlink"
   version="1.1"
   id="svg1">
<g id="figure1">
<g id="patch1">
<path style="fill: #ffffff; stroke: #ffffff; stroke-width: 1.000000; stroke-linejoin: round; stroke-linecap: square;  opacity: 1.000000"  d="M0.000000 441.000000L585.000000 441.000000L585.000000 0.000000
L0.000000 0.000000L0.000000 441.000000"/>
</g>
<g id="axes1">
<g id="patch2">
<path style="fill: #ffffff; opacity: 1.000000"  d="M73.125000 396.900000L526.500000 396.900000L526.500000 44.100000
L73.125000 44.100000L73.125000 396.900000"/>
</g>
<g id="line2d1">
<defs>
  <clipPath id="pc3c5e41676658680e7b95047b5791c8e">
<rect x="73.125000" y="44.100000" width="453.375000" height="352.800000"/>
  </clipPath>
</defs><path style="fill: none; stroke: #0000ff; stroke-width: 1.000000; stroke-linejoin: round; stroke-linecap: square;  opacity: 1.000000" clip-path="url(#pc3c5e41676658680e7b95047b5791c8e)" d="M129.796875 220.500000L119.123196 232.090105L112.146982 240.684016
L108.012314 246.585471L104.475282 252.606647L102.473295 256.818871
L100.895438 261.069600L99.799608 265.349111L99.241986 269.646459
L99.275095 273.949524L99.945983 278.245121L101.293991 282.519125
L103.348954 286.756665L106.129439 290.942367L109.641222 295.060579
L113.876210 299.095687L118.811837 303.032387L124.411395 306.856007
L130.624895 310.552818L137.390312 314.110307L152.280019 320.764646
L168.424920 326.750792L185.131032 332.029779L201.746909 336.591847
L225.342311 342.131664L246.283186 346.233753L264.013727 349.090244
L282.678979 351.322267L296.408508 352.171886L306.300601 352.016082
L313.393960 351.138358L318.524621 349.741393L321.464861 348.439183
L324.542943 346.443557L326.958354 344.214226L329.823829 340.528742
L332.944280 335.104179L339.488442 321.503084L345.881207 309.178272
L352.286100 298.547807L357.713261 290.599338L364.402827 281.780866
L372.726638 271.884351L381.463684 262.368623L395.804586 247.882830
L425.369231 218.657223L435.307875 207.533814L439.919351 201.663028
L443.690621 196.218420L446.660817 191.201887L449.117185 186.091418
L450.795162 181.427866L451.882728 176.721169L452.300701 171.990897
L451.977292 167.258978L450.852386 162.549405L448.881861 157.887773
L446.041411 153.300794L442.329619 148.815594L437.769845 144.458929
L432.980576 140.669045L428.158858 137.379355L417.264131 131.190826
L405.096543 125.584470L392.180436 120.611248L379.039047 116.295518
L366.139382 112.636535L348.030406 108.326795L332.081069 105.305302
L318.591019 103.395027L307.498481 102.410981L298.536752 102.181478
L291.357425 102.558664L285.608139 103.421479L280.972339 104.674257
L277.183898 106.243348L273.085641 108.733712L269.727916 111.596394
L265.489788 116.464756L260.401334 123.886014L247.078753 144.550050
L238.657862 155.969752L230.574050 165.785920L220.446409 176.969832
L207.788724 189.867499L172.458699 224.944895L167.190286 230.830342
L162.165942 236.949409L158.002381 242.644079L154.677517 247.906750
L152.134239 252.740020L150.116477 257.648815L148.831115 262.115705
L148.121296 266.612406L148.052665 271.120832L148.682994 275.621049
L150.058755 280.091568L152.211854 284.509736L155.156799 288.852200
L158.888581 293.095464L163.381550 297.216483L168.038154 300.802688
L178.303916 307.242417L189.409055 312.826645L201.412078 317.853044
L213.852651 322.289507L226.295910 326.125644L244.174698 330.778685
L260.351248 334.198718L274.378292 336.527254L286.169216 337.924364
L295.873298 338.547101L303.760942 338.536770L310.140902 338.013389
L315.311135 337.074866L319.534705 335.798781L324.318775 333.527437
L326.941584 331.765418L331.310525 327.758314L334.835714 323.446160
L340.596873 314.841595L352.150076 296.974566L358.823108 287.772422
L367.218597 277.330014L377.950929 265.312536L391.158025 251.784083
L425.840161 217.456567L436.122563 205.717827L443.494414 195.468379
L446.254672 190.694721L448.541539 185.837775L450.258006 180.914705
L451.307199 175.945874L451.604624 171.454159L451.226532 166.963506
L450.122712 162.494664L448.256091 158.069714L445.605854 153.711591
L442.169830 149.443602L437.965942 145.288820L433.557294 141.664687
L428.599170 138.165468L418.466625 132.225207L407.117924 126.801847
L394.997167 121.943207L382.557874 117.675379L370.217693 114.003406
L352.632195 109.579144L336.840616 106.359124L323.219754 104.198350
L311.809277 102.937559L302.435610 102.423037L294.820641 102.517877
L288.657734 103.106564L283.655941 104.095261L278.359086 105.910104
L274.191342 108.175564L270.787058 110.801750L266.545554 115.292994
L262.809759 120.352278L255.323793 132.059603L247.770111 143.598358
L239.981871 154.299483L232.617691 163.420711L223.501915 173.722489
L212.200273 185.488312L188.957120 208.216681L173.778690 223.549715
L163.837324 234.865970L159.284378 240.835868L155.611976 246.368803
L152.774957 251.462341L150.698027 256.123827L149.160697 260.842403
L148.247251 265.599763L148.037398 270.375007L148.601938 275.144846
L149.998140 279.883957L152.265311 284.565497L155.420998 289.161721
L159.458184 293.644709L163.818542 297.559994L168.824487 301.342506
L173.834328 304.618749L185.068669 310.761417L197.503142 316.298459
L210.593912 321.182478L223.810603 325.393730L236.690901 328.937962
L254.624925 333.066660L270.282730 335.907947L283.429328 337.647626
L294.176402 338.475134L302.821916 338.563325L309.729645 338.059143
L315.256407 337.081653L319.716898 335.724107L323.372414 334.057715
L326.432334 332.135718L329.864621 329.241192L334.186164 324.305219
L339.373484 316.763079L353.048802 295.681057L359.357373 287.072369
L367.167624 277.389649L376.966696 266.366886L389.271898 253.659924
L428.154753 214.960458L437.503678 203.968188L441.713679 198.193550
L445.064942 192.855690L447.614793 187.952885L449.618545 182.973644
L450.870414 178.443405L451.524311 173.884292L451.512626 169.315342
L450.776448 164.757514L449.269230 160.233357L446.960242 155.766592
L443.837500 151.381587L439.909876 147.102761L435.208098 142.953942
L430.357461 139.349852L419.725144 132.895707L408.300230 127.321673
L396.029819 122.327425L383.391803 117.942483L370.829068 114.173738
L352.913173 109.642928L336.840298 106.359118L323.010569 104.170274
L311.463578 102.909068L302.013538 102.414323L294.365719 102.543041
L287.896133 103.222424L282.241781 104.488303L277.757770 106.183517
L274.119894 108.222727L271.078217 110.544970L267.629139 114.010493
L263.130130 119.885243L255.782374 131.330982L246.760900 145.054807
L239.692299 154.674907L230.711722 165.653548L219.134708 178.373472
L205.380940 192.258302L200.473943 197.045164L200.473943 197.045164"/>
</g>
<g id="line2d2">
<path style="fill: none; stroke: #0000ff; stroke-width: 1.000000; stroke-linejoin: round; stroke-linecap: square;  opacity: 1.000000" clip-path="url(#pc3c5e41676658680e7b95047b5791c8e)" d="M163.800000 220.500000L154.458298 230.641574L148.581378 237.768740
L144.295799 243.665821L140.560210 249.717641L137.559645 255.899549
L135.488778 262.179562L134.540908 268.518199L134.544676 271.695180
L134.893706 274.868801L135.605035 278.032257L136.692617 281.178445
L138.166816 284.300028L140.033965 287.389508L142.295997 290.439306
L147.988930 296.389671L155.165803 302.092301L163.672109 307.492894
L173.288579 312.544380L183.748432 317.209093L194.759290 321.460190
L211.668491 327.030472L228.259740 331.631049L243.835092 335.301505
L262.274377 338.877448L274.115545 340.692157L290.742935 342.397399
L301.037307 342.701524L308.953420 342.261183L315.041579 341.248803
L319.770774 339.794724L323.513942 337.994669L325.605570 336.637293
L329.111537 333.611376L332.029483 330.236404L335.872389 324.618883
L356.219407 291.905959L362.626620 283.413428L370.528634 273.904365
L379.795557 263.709217L394.144831 249.146567L424.160731 219.547310
L434.014585 208.648760L438.631918 202.895152L442.448242 197.556761
L445.810539 192.081806L448.332081 187.053890L450.263500 181.949665
L451.406898 177.308738L451.907047 172.642380L451.693809 167.971443
L450.707584 163.318789L448.903370 158.708875L446.254431 154.167312
L442.755370 149.720220L438.424156 145.393498L433.848707 141.623028
L428.679305 137.987392L418.077102 131.831730L406.188061 126.237710
L393.513212 121.257047L380.559121 116.916144L367.784356 113.217192
L349.746909 108.827164L333.753112 105.710835L320.140553 103.700344
L308.884989 102.617066L299.748975 102.293016L292.403267 102.581986
L286.506030 103.363177L281.745135 104.540374L277.855127 106.038964
L273.655620 108.441285L270.230876 111.220278L267.295859 114.313778
L263.374932 119.465727L257.020637 129.315250L247.898039 143.389094
L239.820846 154.492187L232.113263 164.003338L222.491228 174.802069
L210.473541 187.210526L170.473159 227.125912L165.331751 233.034830
L160.490221 239.167965L156.543684 244.865210L153.458638 250.120412
L151.167048 254.937873L149.433057 259.821305L148.427549 264.256543
L148.016662 268.712759L148.260779 273.171573L149.211218 277.612948
L150.907008 282.015518L153.371944 286.356990L156.612177 290.614625
L160.614578 294.765784L165.346122 298.788504L170.184934 302.281991
L180.700554 308.538283L191.919290 313.945637L203.920770 318.798493
L216.260736 323.070224L228.527561 326.754731L246.056407 331.210827
L261.849936 334.473665L275.517038 336.683430L287.000852 337.995638
L296.459912 338.561458L304.161065 338.516331L310.489991 337.963451
L315.650599 336.988354L319.859625 335.672516L323.342042 334.076955
L326.665396 331.968409L330.763472 328.338075L334.239549 324.237555
L338.493056 318.127957L354.943290 293.012931L362.385593 283.204266
L371.851358 271.991891L384.007337 258.982801L399.440513 243.674698
L421.485197 222.006059L430.354818 212.523785L438.710165 202.389618
L442.447962 197.096773L445.426281 192.219519L447.935837 187.249134
L449.707104 182.710657L450.936642 178.126300L451.549454 173.513707
L451.476147 168.892730L450.656739 164.285205L449.044543 159.714601
L446.609770 155.205561L443.342550 150.783336L439.255023 146.473146
L434.903437 142.710045L429.956604 139.074466L419.734487 132.900485
L408.174273 127.265611L395.754338 122.224233L382.968767 117.806506
L370.274188 114.018951L352.208992 109.483407L336.054007 106.217666
L322.202922 104.063141L310.679952 102.846635L301.281650 102.402432
L293.698575 102.584420L287.597817 103.270638L282.669185 104.363105
L278.645275 105.785277L275.306001 107.478640L271.619496 110.084184
L268.522810 113.022113L264.496294 117.956655L258.864186 126.420665
L246.945847 144.789345L238.659154 156.001966L230.743944 165.616077
L220.873076 176.540297L208.585146 189.098904L173.630265 223.708240
L163.431683 235.370468L156.108563 245.566799L153.359703 250.325573
L151.081592 255.167026L149.370293 260.074154L148.321750 265.026798
L148.020305 269.503941L148.389467 273.980224L149.479156 278.435090
L151.326267 282.846689L153.951727 287.192316L157.358117 291.448910
L161.528179 295.593627L165.903535 299.209978L170.826502 302.702726
L180.893830 308.634894L192.179778 314.054906L204.245444 318.914847
L216.641092 323.188257L228.951444 326.869505L246.518831 331.313004
L262.320183 334.556416L276.296881 336.786843L288.495611 338.117711
L298.361660 338.597415L306.245897 338.393230L312.527597 337.643702
L317.557728 336.458897L321.635331 334.923678L326.002756 332.439614
L329.215099 329.855974L333.269062 325.473161L338.041468 318.815747
L356.669210 290.644619L365.563212 279.303166L374.013217 269.583224
L384.424460 258.555141L401.893084 241.296106L421.909650 221.568671
L431.731076 210.959218L436.415205 205.351789L440.772188 199.555048
L444.280326 194.189992L446.989946 189.256224L449.168723 184.239486
L450.588336 179.669724L451.416236 175.065555L451.580773 170.446099
L451.018408 165.832547L449.677597 161.247851L447.522508 156.716300
L444.536279 152.262991L440.723467 147.913215L436.111365 143.691779
L431.318034 140.021783L425.968802 136.490867L415.148123 130.530423
L403.179552 125.133902L390.554683 120.345865L377.757673 116.186587
L365.217326 112.653675L347.609729 108.477631L332.062478 105.530905
L318.855328 103.648262L307.936921 102.656905L299.064727 102.395711
L291.916640 102.725002L285.600211 103.643244L280.597074 105.023807
L276.569746 106.773175L273.250598 108.822642L269.576330 111.939115
L266.437491 115.425932L262.196001 121.261154L241.689563 152.055055
L233.608731 162.240803L223.312785 173.927243L210.161695 187.531144
L182.170189 214.913864L182.170189 214.913864"/>
</g>
<g id="line2d3">
<path style="fill: none; stroke: #0000ff; stroke-width: 1.000000; stroke-linejoin: round; stroke-linecap: square;  opacity: 1.000000" clip-path="url(#pc3c5e41676658680e7b95047b5791c8e)" d="M197.803125 220.500000L189.835467 229.166998L184.006477 236.268829
L179.746408 242.204223L176.044041 248.340767L173.109522 254.645192
L171.166824 261.073270L170.437425 267.569466L170.591107 270.822805
L171.119090 274.067610L172.038330 277.294244L173.361205 280.492698
L175.094861 283.652715L177.240668 286.763934L179.793851 289.816032
L186.071689 295.702737L193.766163 301.237080L202.628585 306.353723
L212.348285 311.001528L222.584800 315.145877L233.001465 318.769324
L248.313571 323.229024L262.568163 326.569095L275.291424 328.889207
L286.297940 330.313520L295.614670 330.971634L303.397445 330.985760
L309.862452 330.463713L315.239612 329.496245L319.745728 328.157139
L324.725143 325.892433L328.865681 323.171644L332.456775 320.063981
L337.285994 314.766971L343.510090 306.602561L356.469292 289.057608
L366.624230 276.680235L376.375353 265.887177L388.512732 253.448191
L423.457360 219.000479L433.886629 207.326211L438.699888 201.144842
L442.597604 195.403811L445.615870 190.109927L447.826275 185.259141
L449.457346 180.344696L450.350822 175.884309L450.631231 171.406315
L450.238934 166.929837L449.124272 162.475634L447.250854 158.065748
L444.598484 153.723063L441.165480 149.470793L436.970117 145.331909
L432.574024 141.722174L427.633100 138.237375L417.542962 132.322871
L406.249623 126.924632L394.194314 122.090083L381.827207 117.844986
L369.562135 114.194161L352.638967 109.923708L338.349123 106.961374
L322.006694 104.351185L308.809677 103.020592L298.426029 102.709186
L290.352778 103.194262L284.074298 104.298089L280.267632 105.449116
L276.091536 107.331576L271.723846 110.283481L268.153238 113.682250
L264.045097 118.793980L258.225202 127.577789L247.950161 143.408490
L240.313519 153.919177L232.590772 163.493221L222.926757 174.377438
L210.818084 186.904283L169.718553 228.005054L161.266959 238.181285
L157.472821 243.499724L154.440604 248.402700L151.875707 253.401337
L149.884808 258.477907L148.673139 263.095835L148.090437 267.741464
L148.207131 272.394408L149.083722 277.032263L150.766833 281.630970
L153.285497 286.165297L156.648062 290.609434L160.840098 294.937661
L165.291147 298.713342L170.339991 302.357802L180.743535 308.538040
L192.469109 314.166639L205.024990 319.189963L217.908070 323.579351
L230.657983 327.330258L248.730940 331.800023L264.821232 334.993177
L278.561645 337.073869L289.952974 338.218998L299.217559 338.596281
L306.676752 338.352546L312.669607 337.609635L317.508461 336.464938
L321.460502 334.994194L324.744396 333.255050L328.379503 330.591349
L331.446503 327.596882L335.461767 322.577015L341.139205 313.974244
L351.516788 297.892284L359.521920 286.856615L367.149867 277.409483
L376.665023 266.690831L388.547592 254.383292L428.282356 214.819736
L433.448089 208.959394L438.342949 202.873509L442.367383 197.216449
L445.550295 191.994440L447.954522 187.203561L449.825527 182.342759
L450.975344 177.923818L451.549746 173.479416L451.486799 169.027361
L450.732716 164.587169L449.245082 160.179773L446.995852 155.827142
L443.973912 151.551824L440.186936 147.376423L435.662296 143.323033
L430.997839 139.796687L420.769242 133.465518L409.754347 127.974645
L397.880923 123.029410L385.592294 118.660053L373.306551 114.876181
L355.644125 110.274382L339.634776 106.876542L325.716132 104.546874
L313.980207 103.131340L304.290142 102.478224L296.389510 102.450384
L289.994416 102.929194L284.803398 103.817385L279.308163 105.510513
L274.997804 107.664666L271.820147 109.919506L267.849799 113.760917
L264.412817 118.071724L259.008531 126.192219L247.549678 143.918296
L240.676001 153.393589L231.966642 164.188607L223.828337 173.368320
L211.020473 186.672702L169.397236 228.334227L160.867894 238.673806
L157.062439 244.078565L153.736014 249.620574L151.272628 254.708382
L149.581145 259.351920L148.472448 264.039169L148.025082 268.750788
L148.310486 273.465099L149.388798 278.158366L151.304570 282.805204
L154.082889 287.379143L157.726332 291.853276L162.213101 296.200995
L166.934182 299.984710L172.250548 303.627926L183.107450 309.782547
L195.219246 315.356920L208.066497 320.300825L221.131419 324.590423
L233.952633 328.226701L251.950357 332.508731L267.805018 335.509364
L281.221109 337.404311L292.259838 338.377134L301.184941 338.598231
L308.341129 338.214406L314.077314 337.345929L318.707227 336.087894
L321.311736 335.069735L325.305138 332.908669L328.293840 330.673090
L332.076108 326.897818L336.441043 321.192926L342.805301 311.322411
L351.683828 297.650635L358.235393 288.546808L366.460749 278.228271
L375.274389 268.199889L388.356707 254.575350L427.254009 215.939421
L436.507803 205.235545L440.732221 199.611827L444.146745 194.411074
L447.069657 189.094412L449.173445 184.226974L450.677973 179.300088
L451.441067 174.832533L451.576752 170.351544L451.027376 165.876525
L449.745935 161.428437L447.699303 157.029425L444.871058 152.702372
L441.263638 148.470368L436.899554 144.356142L432.359878 140.772054
L422.308637 134.325711L411.383785 128.722681L399.525751 123.666373
L387.186689 119.190612L374.798663 115.307895L356.921093 110.576216
L342.176831 107.366627L325.170536 104.468451L311.345184 102.899522
L300.426974 102.394845L291.929398 102.723857L285.330276 103.700419
L280.160739 105.181542L276.986836 106.558486L273.443621 108.685298
L270.521039 111.042019L266.808929 114.972913L263.260413 119.696730
L256.268801 130.556337L247.860115 143.467524L240.593589 153.501705
L231.249858 165.027878L222.396234 174.914861L211.557705 186.134533
L172.650001 224.759889L165.747409 232.549463L165.747409 232.549463"/>
</g>
<g id="line2d4">
<path style="fill: none; stroke: #0000ff; stroke-width: 1.000000; stroke-linejoin: round; stroke-linecap: square;  opacity: 1.000000" clip-path="url(#pc3c5e41676658680e7b95047b5791c8e)" d="M231.806250 220.500000L224.112826 229.020312L218.533118 236.181495
L214.540652 242.259981L211.660814 247.644581L209.428453 253.188694
L208.016048 258.846823L207.591924 264.562790L208.302492 270.270542
L210.252936 275.896124L213.489424 281.360802L217.985645 286.585183
L223.638796 291.493868L230.275460 296.020106L237.668397 300.109693
L245.560564 303.723585L253.691236 306.838939L265.818089 310.565365
L277.305740 313.188521L287.753742 314.788462L296.990308 315.471560
L305.017940 315.351580L311.948895 314.536453L317.950812 313.120736
L322.492479 311.490511L328.532039 308.409557L333.956154 304.646506
L339.074745 300.255992L344.160356 295.257942L359.436614 278.782691
L373.033901 264.498114L391.171672 246.632360L415.451569 222.986378
L425.182557 212.623876L429.875252 207.132489L434.289598 201.444827
L437.898768 196.170500L440.486398 191.789445L442.687336 187.332947
L444.425360 182.814355L445.623447 178.249431L446.206845 173.656327
L446.106719 169.055457L445.263996 164.469260L443.633175 159.921829
L441.185962 155.438428L437.914344 151.044894L433.832664 146.766968
L429.497003 143.036318L424.578011 139.436667L419.131955 135.983745
L407.582378 129.875825L395.606381 124.690956L383.126927 120.130692
L370.614758 116.208463L352.641580 111.496737L336.436259 108.094479
L322.464663 105.845992L310.799226 104.575884L301.262282 104.113689
L293.554367 104.307860L287.343573 105.031390L282.316529 106.182134
L278.201319 107.680373L274.773325 109.465348L270.965631 112.214826
L267.737104 115.320179L263.477497 120.550175L258.065589 128.498607
L246.899576 145.258006L238.190720 156.879977L229.820815 166.906838
L219.319094 178.368091L206.191409 191.628379L177.105956 220.228530
L167.442890 230.749439L162.854824 236.303431L158.602003 242.040239
L155.191115 247.345753L152.568351 252.221524L150.472013 257.176382
L149.119379 261.687519L148.348241 266.230767L148.226947 270.787600
L148.815917 275.337545L150.164017 279.858477L152.305089 284.327027
L155.254924 288.719069L159.008996 293.010304L163.541228 297.176892
L168.246578 300.801426L173.495139 304.291176L184.112611 310.189822
L195.867237 315.541838L208.287962 320.303236L220.907884 324.453076
L233.309866 327.992095L250.792717 332.201299L266.308828 335.202152
L279.557168 337.151700L290.562678 338.216258L299.544223 338.552478
L306.806310 338.297349L312.667358 337.564784L317.420732 336.446192
L322.464081 334.475270L326.455171 332.067685L329.745849 329.307903
L333.910132 324.622302L338.885495 317.491647L354.903011 293.057688
L361.876812 283.834739L370.132502 273.935418L379.322566 263.849678
L393.516470 249.451201L423.212776 220.215444L433.024108 209.453515
L437.651776 203.770275L441.906888 197.900244L445.277763 192.473147
L447.822516 187.488268L449.626108 182.935466L450.887708 178.335620
L451.531296 173.706460L451.486341 169.067975L450.691706 164.442179
L449.099620 159.852757L446.679363 155.324602L443.420346 150.883244
L439.334289 146.554201L434.978214 142.774621L430.021647 139.123248
L419.770071 132.923180L408.168495 127.266049L395.700795 122.206911
L382.866618 117.776208L370.127273 113.980406L352.009334 109.440566
L335.822843 106.178509L321.960382 104.033476L310.441310 102.830277
L301.056637 102.401641L293.491882 102.600371L287.015562 103.372250
L281.707678 104.654102L277.457972 106.327608L273.979690 108.317847
L271.050333 110.570813L267.710063 113.919774L263.343620 119.577977
L256.269282 130.556224L247.744161 143.636529L241.171691 152.741679
L232.921232 163.061002L222.392288 174.919197L208.941570 188.745469
L174.521663 222.761636L165.224592 233.174715L160.883427 238.653685
L157.293810 243.727863L154.119263 248.924320L151.716606 253.691629
L149.840173 258.528614L148.583313 263.416683L148.036327 268.334256
L148.219427 272.765179L149.095731 277.180750L150.704781 281.560118
L153.071552 285.881481L156.204049 290.122547L160.091597 294.261063
L164.704122 298.275370L169.434924 301.765075L179.752115 308.024308
L190.804333 313.446397L202.320119 318.191165L214.204365 322.396986
L226.080561 326.055768L243.191114 330.539567L258.783609 333.893314
L272.440469 336.238027L284.054008 337.712273L296.557247 338.561111
L306.159703 338.399304L313.492714 337.464365L319.136699 335.937417
L323.567442 333.950916L327.151961 331.598681L330.165280 328.945187
L334.044974 324.488860L338.554683 318.031609L354.684278 293.372631
L363.212441 282.173683L370.337889 273.706919L378.952414 264.246636
L392.903715 250.058767L422.703554 220.748429L432.449310 210.129345
L437.070971 204.521648L441.346984 198.728575L444.765801 193.370763
L447.381865 188.447138L449.275509 183.947612L450.653786 179.398346
L451.441956 174.816091L451.569791 170.219794L450.975244 165.630418
L449.608219 161.070637L447.434159 156.564418L444.437183 152.136495
L440.622465 147.811770L436.017406 143.614656L431.237790 139.965605
L425.908739 136.454468L415.138088 130.525943L403.231566 125.155702
L390.673208 120.387681L377.940141 116.242016L365.455782 112.716594
L347.909836 108.541666L332.394928 105.586387L319.194583 103.688410
L308.264635 102.677437L299.370053 102.394225L292.194896 102.700363
L286.413687 103.481368L281.729527 104.645809L276.759937 106.674383
L273.730740 108.485582L270.331239 111.216867L266.074437 115.878888
L262.286011 121.126859L240.520519 153.597334L233.096579 162.852249
L223.866293 173.327262L212.364825 185.322618L193.512025 203.789898
L178.262097 218.869512L167.871683 230.066027L162.927943 236.002777
L156.261677 245.323057L156.261677 245.323057"/>
</g>
<g id="line2d5">
<path style="fill: none; stroke: #0000ff; stroke-width: 1.000000; stroke-linejoin: round; stroke-linecap: square;  opacity: 1.000000" clip-path="url(#pc3c5e41676658680e7b95047b5791c8e)" d="M265.809375 220.500000L260.562283 226.412998L255.701866 233.023250
L252.357943 238.727480L249.726016 244.806746L248.524344 249.016199
L247.880806 253.302902L247.889512 257.616552L248.629854 261.899605
L250.156509 266.088871L252.490502 270.117976L255.613212 273.920412
L259.464984 277.432932L263.949159 280.598819L268.941128 283.370615
L274.300844 285.711938L279.886488 287.598189L285.566943 289.016175
L291.231306 289.962793L299.519380 290.511637L307.416208 290.052174
L314.879134 288.636956L319.638817 287.188238L327.903159 283.606169
L335.215788 279.338766L342.678426 274.081377L351.160129 267.314493
L365.131954 255.191496L384.235922 237.776900L398.141783 224.377694
L407.402893 214.661470L416.234688 204.085411L420.200907 198.497132
L423.347939 193.316470L425.729751 188.548179L427.424558 184.186654
L428.619054 179.775237L429.242693 175.332351L429.230080 170.878772
L428.524736 166.437391L427.083052 162.032804L424.877744 157.690879
L421.900826 153.438109L418.165695 149.300866L414.184721 145.697239
L409.658846 142.225404L400.317216 136.358354L389.783043 131.047080
L378.511579 126.345504L366.964558 122.281747L355.559865 118.859216
L339.435532 114.884185L325.114888 112.184981L312.894275 110.595701
L302.741992 109.940361L294.436310 110.054464L287.676180 110.795995
L282.152019 112.048813L277.582443 113.721641L273.728190 115.744997
L270.393183 118.067579L266.486000 121.568386L261.218594 127.585360
L254.245596 136.955167L243.849313 151.032112L235.792381 161.035801
L225.626181 172.553254L212.666554 185.994270L174.119666 224.164382
L164.846446 234.756951L160.575024 240.327325L157.091291 245.482594
L154.070259 250.757145L151.851279 255.590444L150.204940 260.487601
L149.291439 264.932834L148.984578 269.396299L149.343745 273.859132
L150.418644 278.300845L152.246070 282.699656L154.846951 287.032927
L158.224019 291.277666L162.360338 295.411086L166.701883 299.017788
L171.588141 302.501413L181.584094 308.418560L192.795004 313.825360
L204.784983 318.673855L217.107664 322.937421L229.350132 326.610238
L246.828732 331.043201L262.558783 334.277821L276.155212 336.456125
L287.567729 337.735100L296.960039 338.266937L304.602622 338.187635
L310.796654 337.612302L315.829823 336.634645L321.165974 334.831090
L324.402337 333.174788L328.000356 330.637414L332.148907 326.563723
L335.623893 322.146814L341.147998 313.821340L351.498727 297.848504
L358.341683 288.353331L367.017320 277.527172L375.139306 268.313467
L384.999466 257.938523L401.268668 241.874615L420.775751 222.703774
L429.950992 212.945498L438.607149 202.489411L442.470582 197.019746
L445.534038 191.975832L448.091352 186.833298L449.864465 182.136908
L451.048688 177.393751L451.561911 172.623665L451.329085 167.848978
L450.286735 163.094208L448.387517 158.385630L445.604349 153.750702
L441.933710 149.217368L437.889158 145.247113L433.177638 141.400986
L428.408548 138.060682L417.569214 131.773289L405.395416 126.074803
L392.423672 121.019759L379.193773 116.634921L366.189807 112.920757
L349.081014 108.802674L334.357755 105.929118L321.647359 104.000408
L307.804062 102.657724L297.098318 102.437262L288.915458 103.078754
L282.645324 104.379114L277.768273 106.187468L274.774425 107.810677
L271.410792 110.267672L267.234358 114.474318L262.747349 120.449431
L256.674258 129.913155L246.878262 144.888400L239.183123 155.332677
L229.198594 167.395029L216.547227 181.063335L202.568270 195.009020
L177.636696 219.513428L167.116388 230.940049L162.147081 237.000243
L158.027270 242.638039L154.733197 247.846783L152.207375 252.629766
L150.194222 257.487171L148.899707 261.907387L148.166176 266.357582
L148.057508 270.820320L148.630300 275.276371L149.930510 279.704990
L151.990447 284.084261L154.825835 288.391565L158.433730 292.604087
L162.322948 296.295753L166.789477 299.876757L171.790701 303.332366
L177.272781 306.649118L189.419168 312.820182L202.651511 318.316853
L216.359324 323.097819L229.974967 327.153330L243.030128 330.501199
L260.854986 334.286108L276.077498 336.756983L288.610412 338.126713
L298.688187 338.601001L306.691647 338.360191L313.030496 337.552631
L318.080739 336.295233L322.159650 334.677295L324.467712 333.432048
L329.000827 330.051526L332.238184 326.710415L336.054884 321.747435
L341.563781 313.302611L351.284375 298.234269L360.045092 286.179693
L367.532594 276.959000L376.298754 267.087027L390.519267 252.417181
L425.006264 218.340609L434.885677 207.238514L439.458768 201.380194
L443.190739 195.948127L446.122166 190.944109L448.537210 185.847439
L450.176561 181.197482L451.225023 176.505544L451.604440 171.791215
L451.244196 167.076413L450.085452 162.385083L448.085388 157.742735
L445.220973 153.175954L441.491932 148.711706L436.922545 144.376551
L432.131674 140.606320L427.314421 137.334412L416.445208 131.181178
L404.323337 125.608939L391.469052 120.667788L378.400220 116.381432
L365.578171 112.748726L347.584167 108.472339L331.737391 105.477315
L318.331296 103.587643L307.302975 102.619609L298.387599 102.402772
L291.239888 102.790355L285.510745 103.662156L280.886467 104.923160
L277.103189 106.500201L273.004748 109.001332L269.641122 111.875507
L265.386557 116.763373L260.264632 124.216584L246.804791 144.991892
L238.276275 156.489268L230.081550 166.381678L219.811547 177.662402
L206.983200 190.682515L177.304243 219.854917L167.718678 230.241985
L163.149288 235.723975L157.387739 243.585826L157.387739 243.585826"/>
</g>
<g id="line2d6">
<path style="fill: none; stroke: #0000ff; stroke-width: 1.000000; stroke-linejoin: round; stroke-linecap: square;  opacity: 1.000000" clip-path="url(#pc3c5e41676658680e7b95047b5791c8e)" d="M299.812500 220.500000L299.812500 220.500000L299.812500 220.500000
L299.812500 220.500000L299.812500 220.500000L299.812500 220.500000
L299.812500 220.500000L299.812500 220.500000L299.812500 220.500000
L299.812500 220.500000L299.812500 220.500000L299.812500 220.500000"/>
</g>
<g id="line2d7">
<path style="fill: none; stroke: #0000ff; stroke-width: 1.000000; stroke-linejoin: round; stroke-linecap: square;  opacity: 1.000000" clip-path="url(#pc3c5e41676658680e7b95047b5791c8e)" d="M333.815625 220.500000L339.062717 214.587002L343.923134 207.976750
L347.267057 202.272520L349.898984 196.193254L351.100656 191.983801
L351.744194 187.697098L351.735488 183.383448L350.995146 179.100395
L349.468491 174.911129L347.134498 170.882024L344.011788 167.079588
L340.160016 163.567068L335.675841 160.401181L330.683872 157.629385
L325.324156 155.288062L319.738512 153.401811L314.058057 151.983825
L308.393694 151.037207L300.105620 150.488363L292.208792 150.947826
L284.745866 152.363044L279.986183 153.811762L271.721841 157.393831
L264.409212 161.661234L256.946574 166.918623L248.464871 173.685507
L234.493046 185.808504L215.389078 203.223100L201.483217 216.622306
L192.222107 226.338530L183.390312 236.914589L179.424093 242.502868
L176.277061 247.683530L173.895249 252.451821L172.200442 256.813346
L171.005946 261.224763L170.382307 265.667649L170.394920 270.121228
L171.100264 274.562609L172.541948 278.967196L174.747256 283.309121
L177.724174 287.561891L181.459305 291.699134L185.440279 295.302761
L189.966154 298.774596L199.307784 304.641646L209.841957 309.952920
L221.113421 314.654496L232.660442 318.718253L244.065135 322.140784
L260.189468 326.115815L274.510112 328.815019L286.730725 330.404299
L296.883008 331.059639L305.188690 330.945536L311.948820 330.204005
L317.472981 328.951187L322.042557 327.278359L325.896810 325.255003
L329.231817 322.932421L333.139000 319.431614L338.406406 313.414640
L345.379404 304.044833L355.775687 289.967888L363.832619 279.964199
L373.998819 268.446746L386.958446 255.005730L425.505334 216.835618
L434.778554 206.243049L439.049976 200.672675L442.533709 195.517406
L445.554741 190.242855L447.773721 185.409556L449.420060 180.512399
L450.333561 176.067166L450.640422 171.603701L450.281255 167.140868
L449.206356 162.699155L447.378930 158.300344L444.778049 153.967073
L441.400981 149.722334L437.264662 145.588914L432.923117 141.982212
L428.036859 138.498587L418.040906 132.581440L406.829996 127.174640
L394.840017 122.326145L382.517336 118.062579L370.274868 114.389762
L352.796268 109.956799L337.066217 106.722179L323.469789 104.543875
L312.057271 103.264900L302.664961 102.733063L295.022378 102.812365
L288.828346 103.387698L283.795177 104.365355L278.459026 106.168910
L275.222663 107.825212L271.624644 110.362586L267.476093 114.436277
L264.001107 118.853186L258.477002 127.178660L248.126273 143.151496
L241.283317 152.646669L232.607680 163.472828L224.485694 172.686533
L214.625534 183.061477L198.356332 199.125385L178.849249 218.296226
L169.674008 228.054502L161.017851 238.510589L157.154418 243.980254
L154.090962 249.024168L151.533648 254.166702L149.760535 258.863092
L148.576312 263.606249L148.063089 268.376335L148.295915 273.151022
L149.338265 277.905792L151.237483 282.614370L154.020651 287.249298
L157.691290 291.782632L161.735842 295.752887L166.447362 299.599014
L171.216452 302.939318L182.055786 309.226711L194.229584 314.925197
L207.201328 319.980241L220.431227 324.365079L233.435193 328.079243
L250.543986 332.197326L265.267245 335.070882L277.977641 336.999592
L291.820938 338.342276L302.526682 338.562738L310.709542 337.921246
L316.979676 336.620886L321.856727 334.812532L324.850575 333.189323
L328.214208 330.732328L332.390642 326.525682L336.877651 320.550569
L342.950742 311.086845L352.746737 296.111601L360.441877 285.667324
L370.426406 273.604971L383.077773 259.936665L397.056730 245.990980
L421.988304 221.486572L432.508611 210.059952L437.477918 203.999758
L441.597730 198.361962L444.891803 193.153218L447.417625 188.370235
L449.430777 183.512830L450.725293 179.092614L451.458824 174.642419
L451.567492 170.179681L450.994700 165.723630L449.694491 161.295011
L447.634554 156.915740L444.799166 152.608436L441.191271 148.395914
L437.302054 144.704248L432.835524 141.123244L427.834300 137.667635
L422.352221 134.350883L410.205834 128.179818L396.973491 122.683148
L383.265678 117.902182L369.650035 113.846671L356.594874 110.498802
L338.770016 106.713893L323.547504 104.243017L311.014589 102.873288
L300.936814 102.398999L292.933353 102.639809L286.594505 103.447369
L281.544262 104.704767L277.465350 106.322705L275.157289 107.567952
L270.624174 110.948474L267.386816 114.289585L263.570117 119.252564
L258.061220 127.697388L248.340626 142.765729L239.579910 154.820304
L232.092408 164.040997L223.326249 173.912969L209.105738 188.582814
L174.618743 222.659384L164.739330 233.761478L160.166239 239.619797
L156.434267 245.051864L153.502839 250.055882L151.087794 255.152551
L149.448442 259.802508L148.399979 264.494446L148.020560 269.208774
L148.380802 273.923576L149.539545 278.614907L151.539606 283.257255
L154.404019 287.824035L158.133059 292.288284L162.702443 296.623439
L167.493312 300.393670L172.310564 303.665579L183.179775 309.818813
L195.301644 315.391053L208.155928 320.332205L221.224760 324.618562
L234.046809 328.251269L252.040814 332.527657L267.887593 335.522682
L281.293690 337.412355L292.322013 338.380391L301.237392 338.597229
L308.385104 338.209646L314.114249 337.337845L318.738527 336.076842
L322.521807 334.499801L326.620248 331.998671L329.983874 329.124496
L334.238440 324.236630L339.360365 316.783421L352.820205 296.008115
L361.348719 284.510740L369.543442 274.618332L379.813443 263.337609
L392.641786 250.317498L422.320740 221.145101L431.906305 210.758035
L436.475695 205.276046L442.237261 197.414174L442.237261 197.414174"/>
</g>
<g id="line2d8">
<path style="fill: none; stroke: #0000ff; stroke-width: 1.000000; stroke-linejoin: round; stroke-linecap: square;  opacity: 1.000000" clip-path="url(#pc3c5e41676658680e7b95047b5791c8e)" d="M367.818750 220.500000L375.512174 211.979688L381.091882 204.818505
L385.084348 198.740019L387.964186 193.355419L390.196547 187.811306
L391.608952 182.153177L392.033076 176.437210L391.322508 170.729458
L389.372064 165.103876L386.135576 159.639198L381.639355 154.414817
L375.986204 149.506132L369.349540 144.979894L361.956603 140.890307
L354.064436 137.276415L345.933764 134.161061L333.806911 130.434635
L322.319260 127.811479L311.871258 126.211538L302.634692 125.528440
L294.607060 125.648420L287.676105 126.463547L281.674188 127.879264
L277.132521 129.509489L271.092961 132.590443L265.668846 136.353494
L260.550255 140.744008L255.464644 145.742058L240.188386 162.217309
L226.591099 176.501886L208.453328 194.367640L184.173431 218.013622
L174.442443 228.376124L169.749748 233.867511L165.335402 239.555173
L161.726232 244.829500L159.138602 249.210555L156.937664 253.667053
L155.199640 258.185645L154.001553 262.750569L153.418155 267.343673
L153.518281 271.944543L154.361004 276.530740L155.991825 281.078171
L158.439038 285.561572L161.710656 289.955106L165.792336 294.233032
L170.127997 297.963682L175.046989 301.563333L180.493045 305.016255
L192.042622 311.124175L204.018619 316.309044L216.498073 320.869308
L229.010242 324.791537L246.983420 329.503263L263.188741 332.905521
L277.160337 335.154008L288.825774 336.424116L298.362718 336.886311
L306.070633 336.692140L312.281427 335.968610L317.308471 334.817866
L321.423681 333.319627L324.851675 331.534652L328.659369 328.785174
L331.887896 325.679821L336.147503 320.449825L341.559411 312.501393
L352.725424 295.741994L361.434280 284.120023L369.804185 274.093162
L380.305906 262.631909L393.433591 249.371621L422.519044 220.771470
L432.182110 210.250561L436.770176 204.696569L441.022997 198.959761
L444.433885 193.654247L447.056649 188.778476L449.152987 183.823618
L450.505621 179.312481L451.276759 174.769233L451.398053 170.212400
L450.809083 165.662455L449.460983 161.141523L447.319911 156.672973
L444.370076 152.280931L440.616004 147.989696L436.083772 143.823108
L431.378422 140.198574L426.129861 136.708824L415.512389 130.810178
L403.757763 125.458162L391.337038 120.696764L378.717116 116.546924
L366.315134 113.007905L348.832283 108.798701L333.316172 105.797848
L320.067832 103.848300L309.062322 102.783742L300.080777 102.447522
L292.818690 102.702651L286.957642 103.435216L282.204268 104.553808
L277.160919 106.524730L273.169829 108.932315L269.879151 111.692097
L265.714868 116.377698L260.739505 123.508353L244.721989 147.942312
L237.748188 157.165261L229.492498 167.064582L220.302434 177.150322
L206.108530 191.548799L176.412224 220.784556L166.600892 231.546485
L161.973224 237.229725L157.718112 243.099756L154.347237 248.526853
L151.802484 253.511732L149.998892 258.064534L148.737292 262.664380
L148.093704 267.293540L148.138659 271.932025L148.933294 276.557821
L150.525380 281.147243L152.945637 285.675398L156.204654 290.116756
L160.290711 294.445799L164.646786 298.225379L169.603353 301.876752
L179.854929 308.076820L191.456505 313.733951L203.924205 318.793089
L216.758382 323.223792L229.497727 327.019594L247.615666 331.559434
L263.802157 334.821491L277.664618 336.966524L289.183690 338.169723
L298.568363 338.598359L306.133118 338.399629L312.609438 337.627750
L317.917322 336.345898L322.167028 334.672392L325.645310 332.682153
L328.574667 330.429187L331.914937 327.080226L336.281380 321.422023
L343.355718 310.443776L351.880839 297.363471L358.453309 288.258321
L366.703768 277.938998L377.232712 266.080803L390.683430 252.254531
L425.103337 218.238364L434.400408 207.825285L438.741573 202.346315
L442.331190 197.272137L445.505737 192.075680L447.908394 187.308371
L449.784827 182.471386L451.041687 177.583317L451.588673 172.665744
L451.405573 168.234821L450.529269 163.819250L448.920219 159.439882
L446.553448 155.118519L443.420951 150.877453L439.533403 146.738937
L434.920878 142.724630L430.190076 139.234925L419.872885 132.975692
L408.820667 127.553603L397.304881 122.808835L385.420635 118.603014
L373.544439 114.944232L356.433886 110.460433L340.841391 107.106686
L327.184531 104.761973L315.570992 103.287727L303.067753 102.438889
L293.465297 102.600696L286.132286 103.535635L280.488301 105.062583
L276.057558 107.049084L272.473039 109.401319L269.459720 112.054813
L265.580026 116.511140L261.070317 122.968391L244.940722 147.627369
L236.412559 158.826317L229.287111 167.293081L220.672586 176.753364
L206.721285 190.941233L176.921446 220.251571L167.175690 230.870655
L162.554029 236.478352L158.278016 242.271425L154.859199 247.629237
L152.243135 252.552862L150.349491 257.052388L148.971214 261.601654
L148.183044 266.183909L148.055209 270.780206L148.649756 275.369582
L150.016781 279.929363L152.190841 284.435582L155.187817 288.863505
L159.002535 293.188230L163.607594 297.385344L168.387210 301.034395
L173.716261 304.545532L184.486912 310.474057L196.393434 315.844298
L208.951792 320.612319L221.684859 324.757984L234.169218 328.283406
L251.715164 332.458334L267.230072 335.413613L280.430417 337.311590
L291.360365 338.322563L300.254947 338.605775L307.430104 338.299637
L313.211313 337.518632L317.895473 336.354191L322.865063 334.325617
L325.894260 332.514418L329.293761 329.783133L333.550563 325.121112
L337.338989 319.873141L359.104481 287.402666L366.528421 278.147751
L375.758707 267.672738L387.260175 255.677382L406.112975 237.210102
L421.362903 222.130488L431.753317 210.933973L436.697057 204.997223
L443.363323 195.676943L443.363323 195.676943"/>
</g>
<g id="line2d9">
<path style="fill: none; stroke: #0000ff; stroke-width: 1.000000; stroke-linejoin: round; stroke-linecap: square;  opacity: 1.000000" clip-path="url(#pc3c5e41676658680e7b95047b5791c8e)" d="M401.821875 220.500000L409.789533 211.833002L415.618523 204.731171
L419.878592 198.795777L423.580959 192.659233L426.515478 186.354808
L428.458176 179.926730L429.187575 173.430534L429.033893 170.177195
L428.505910 166.932390L427.586670 163.705756L426.263795 160.507302
L424.530139 157.347285L422.384332 154.236066L419.831149 151.183968
L413.553311 145.297263L405.858837 139.762920L396.996415 134.646277
L387.276715 129.998472L377.040200 125.854123L366.623535 122.230676
L351.311429 117.770976L337.056837 114.430905L324.333576 112.110793
L313.327060 110.686480L304.010330 110.028366L296.227555 110.014240
L289.762548 110.536287L284.385388 111.503755L279.879272 112.842861
L274.899857 115.107567L270.759319 117.828356L267.168225 120.936019
L262.339006 126.233029L256.114910 134.397439L243.155708 151.942392
L233.000770 164.319765L223.249647 175.112823L211.112268 187.551809
L176.167640 221.999521L165.738371 233.673789L160.925112 239.855158
L157.027396 245.596189L154.009130 250.890073L151.798725 255.740859
L150.167654 260.655304L149.274178 265.115691L148.993769 269.593685
L149.386066 274.070163L150.500728 278.524366L152.374146 282.934252
L155.026516 287.276937L158.459520 291.529207L162.654883 295.668091
L167.050976 299.277826L171.991900 302.762625L182.082038 308.677129
L193.375377 314.075368L205.430686 318.909917L217.797793 323.155014
L230.062865 326.805839L246.986033 331.076292L261.275877 334.038626
L277.618306 336.648815L290.815323 337.979408L301.198971 338.290814
L309.272222 337.805738L315.550702 336.701911L319.357368 335.550884
L323.533464 333.668424L327.901154 330.716519L331.471762 327.317750
L335.579903 322.206020L341.399798 313.422211L351.674839 297.591510
L359.311481 287.080823L367.034228 277.506779L376.698243 266.622562
L388.806915 254.095717L429.906447 212.994946L438.358040 202.818716
L442.152179 197.500276L445.184396 192.597300L447.749293 187.598664
L449.740192 182.522093L450.951861 177.904165L451.534563 173.258536
L451.417869 168.605592L450.541278 163.967737L448.858167 159.369030
L446.339503 154.834703L442.976938 150.390566L438.784902 146.062339
L434.333853 142.286658L429.285009 138.642199L418.881465 132.461960
L407.155892 126.833361L394.600011 121.810037L381.716930 117.420649
L368.967017 113.669742L350.894061 109.199977L334.803768 106.006823
L321.063355 103.926131L309.672026 102.781002L300.407441 102.403719
L292.948248 102.647454L286.955393 103.390365L282.116539 104.535062
L278.164498 106.005806L274.880604 107.744950L271.245497 110.408651
L268.178498 113.403118L264.163233 118.422985L258.485795 127.025756
L248.108212 143.107716L240.103080 154.143385L232.475133 163.590516
L222.959977 174.309169L211.077409 186.616708L171.342644 226.180263
L166.176911 232.040605L161.282051 238.126491L157.257617 243.783551
L154.074705 249.005560L151.670478 253.796438L149.799473 258.657241
L148.649656 263.076182L148.075254 267.520584L148.138201 271.972639
L148.892284 276.412831L150.379918 280.820227L152.629148 285.172858
L155.651088 289.448176L159.438064 293.623576L163.962703 297.676967
L168.627160 301.203312L178.855757 307.534481L189.870652 313.025355
L201.744076 317.970589L214.032705 322.339946L226.318448 326.123818
L243.980874 330.725618L259.990223 334.123458L273.908867 336.453126
L285.644793 337.868660L295.334858 338.521776L303.235490 338.549616
L309.630584 338.070806L314.821602 337.182615L320.316837 335.489487
L324.627196 333.335334L327.804853 331.080494L331.775201 327.239084
L335.212183 322.928276L340.616468 314.807782L352.075322 297.081705
L358.948998 287.606412L367.658357 276.811394L375.796661 267.631682
L388.604525 254.327301L430.227761 212.665777L438.757103 202.326199
L442.562558 196.921440L445.888984 191.379431L448.352370 186.291622
L450.043854 181.648085L451.152551 176.960836L451.599918 172.249217
L451.314515 167.534905L450.236203 162.841639L448.320432 158.194801
L445.542114 153.620862L441.898672 149.146729L437.411904 144.799009
L432.690824 141.015294L427.374459 137.372078L416.517558 131.217457
L404.405763 125.643084L391.558512 120.699178L378.493591 116.409580
L365.672376 112.773302L347.674651 108.491271L331.819990 105.490637
L318.403898 103.595689L307.365168 102.622866L298.440063 102.401769
L291.283874 102.785593L285.547689 103.654070L280.917776 104.912105
L278.313267 105.930264L274.319864 108.091330L271.331162 110.326908
L267.548894 114.102180L263.183960 119.807070L256.819703 129.677583
L247.941179 143.349356L241.389616 152.453180L233.164264 162.771714
L224.350628 172.800092L211.268311 186.424631L172.371006 225.060563
L163.117209 235.764440L158.892789 241.388159L155.478264 246.588913
L152.555349 251.905576L150.451559 256.773015L148.947030 261.699902
L148.183934 266.167458L148.048247 270.648448L148.597623 275.123468
L149.879062 279.571557L151.925695 283.970570L154.753939 288.297624
L158.361360 292.529629L162.725443 296.643857L167.265121 300.227945
L177.316364 306.674290L188.241218 312.277321L200.099255 317.333629
L212.438320 321.809392L224.826350 325.692109L242.703922 330.423788
L257.448183 333.633376L274.454476 336.531551L288.279825 338.100479
L299.198033 338.605155L307.695608 338.276142L314.294728 337.299580
L319.464264 335.818457L322.638167 334.441513L326.181381 332.314700
L329.103943 329.957998L332.816021 326.027148L336.364505 321.303388
L343.356033 310.443928L351.764567 297.532940L359.030922 287.498935
L368.374396 275.972993L377.227748 266.086232L388.065929 254.866839
L426.972720 216.242568L433.877591 208.450537L433.877591 208.450537"/>
</g>
<g id="line2d10">
<path style="fill: none; stroke: #0000ff; stroke-width: 1.000000; stroke-linejoin: round; stroke-linecap: square;  opacity: 1.000000" clip-path="url(#pc3c5e41676658680e7b95047b5791c8e)" d="M435.825000 220.500000L445.166702 210.358426L451.043622 203.231260
L455.329201 197.334179L459.064790 191.282359L462.065355 185.100451
L464.136222 178.820438L465.084092 172.481801L465.080324 169.304820
L464.731294 166.131199L464.019965 162.967743L462.932383 159.821555
L461.458184 156.699972L459.591035 153.610492L457.329003 150.560694
L451.636070 144.610329L444.459197 138.907699L435.952891 133.507106
L426.336421 128.455620L415.876568 123.790907L404.865710 119.539810
L387.956509 113.969528L371.365260 109.368951L355.789908 105.698495
L337.350623 102.122552L325.509455 100.307843L308.882065 98.602601
L298.587693 98.298476L290.671580 98.738817L284.583421 99.751197
L279.854226 101.205276L276.111058 103.005331L274.019430 104.362707
L270.513463 107.388624L267.595517 110.763596L263.752611 116.381117
L243.405593 149.094041L236.998380 157.586572L229.096366 167.095635
L219.829443 177.290783L205.480169 191.853433L175.464269 221.452690
L165.610415 232.351240L160.993082 238.104848L157.176758 243.443239
L153.814461 248.918194L151.292919 253.946110L149.361500 259.050335
L148.218102 263.691262L147.717953 268.357620L147.931191 273.028557
L148.917416 277.681211L150.721630 282.291125L153.370569 286.832688
L156.869630 291.279780L161.200844 295.606502L165.776293 299.376972
L170.945695 303.012608L181.547898 309.168270L193.436939 314.762290
L206.111788 319.742953L219.065879 324.083856L231.840644 327.782808
L249.878091 332.172836L265.871888 335.289165L279.484447 337.299656
L290.740011 338.382934L299.876025 338.706984L307.221733 338.418014
L313.118970 337.636822L317.879865 336.459626L321.769873 334.961036
L325.969380 332.558715L329.394124 329.779722L332.329141 326.686222
L336.250068 321.534273L342.604363 311.684750L351.726961 297.610906
L359.804154 286.507813L367.511737 276.996662L377.133772 266.197931
L389.151459 253.789474L429.151841 213.874088L434.293249 207.965170
L439.134779 201.832035L443.081316 196.134790L446.166362 190.879588
L448.457952 186.062127L450.191943 181.178695L451.197451 176.743457
L451.608338 172.287241L451.364221 167.828427L450.413782 163.387051
L448.717992 158.984482L446.253056 154.643010L443.012823 150.385375
L439.010422 146.234216L434.278878 142.211496L429.440066 138.718009
L418.924446 132.461717L407.705710 127.054363L395.704230 122.201507
L383.364264 117.929776L371.097439 114.245269L353.568593 109.789173
L337.775064 106.526335L324.107961 104.316570L312.624148 103.004362
L303.165088 102.438542L295.463935 102.483669L289.135009 103.036549
L283.974401 104.011646L279.765375 105.327484L276.282958 106.923045
L272.959604 109.031591L268.861528 112.661925L265.385451 116.762445
L261.131944 122.872043L244.681710 147.987069L237.239407 157.795734
L227.773642 169.008109L215.617663 182.017199L200.184487 197.325302
L178.139803 218.993942L169.270182 228.476215L160.914835 238.610382
L157.177038 243.903227L154.198719 248.780481L151.689163 253.750866
L149.917896 258.289343L148.688358 262.873701L148.075546 267.486294
L148.148853 272.107270L148.968261 276.714795L150.580458 281.285399
L153.015230 285.794439L156.282451 290.216665L160.369977 294.526854
L164.721563 298.289956L169.668396 301.925534L179.890514 308.099515
L191.450727 313.734389L203.870662 318.775767L216.656233 323.193494
L229.350813 326.981049L247.416009 331.516593L263.570993 334.782334
L277.422078 336.936859L288.945049 338.153365L298.343350 338.597568
L305.926425 338.415580L312.027183 337.729362L316.955815 336.636895
L320.979725 335.214723L324.318999 333.521360L328.005505 330.915816
L331.102190 327.977887L335.128706 323.043345L340.760814 314.579335
L352.679153 296.210655L360.965847 284.998033L368.881057 275.383923
L378.751925 264.459703L391.039854 251.901096L425.994735 217.291760
L436.193317 205.629532L443.516437 195.433200L446.265297 190.674426
L448.543408 185.832974L450.254708 180.925846L451.303250 175.973201
L451.604695 171.496059L451.235532 167.019775L450.145844 162.564910
L448.298733 158.153311L445.673273 153.807684L442.266883 149.551090
L438.096820 145.406372L433.721465 141.790022L428.798498 138.297274
L418.731170 132.365106L407.445222 126.945094L395.379556 122.085153
L382.983908 117.811743L370.673556 114.130495L353.106170 109.686996
L337.304817 106.443584L323.328120 104.213157L311.129390 102.882289
L301.263340 102.402585L293.379103 102.606770L287.097403 103.356298
L282.067272 104.541102L277.989669 106.076322L273.622244 108.560386
L270.409901 111.144026L266.355938 115.526839L261.583532 122.184253
L242.955791 150.355381L234.061788 161.696834L225.611783 171.416775
L215.200541 182.444859L197.731916 199.703894L177.715351 219.431328
L167.893925 230.040781L163.209796 235.648210L158.852813 241.444951
L155.344674 246.810007L152.635054 251.743776L150.456278 256.760513
L149.036664 261.330276L148.208764 265.934444L148.044227 270.553900
L148.606592 275.167452L149.947403 279.752148L152.102492 284.283699
L155.088720 288.737008L158.901532 293.086784L163.513634 297.308220
L168.306965 300.978216L173.656196 304.509132L184.476876 310.469576
L196.445446 315.866097L209.070316 320.654134L221.867326 324.813413
L234.407672 328.346325L252.015270 332.522369L267.562520 335.469094
L280.769671 337.351738L291.688078 338.343095L300.560272 338.604289
L307.708360 338.274998L314.024789 337.356756L319.027926 335.976193
L323.055254 334.226825L326.374402 332.177358L330.048670 329.060885
L333.187509 325.574068L337.428999 319.738846L357.935437 288.944945
L366.016269 278.759197L376.312216 267.072756L389.463306 253.468855
L417.454811 226.086136L417.454811 226.086136"/>
</g>
<g id="line2d11">
<path style="fill: none; stroke: #0000ff; stroke-width: 1.000000; stroke-linejoin: round; stroke-linecap: square;  opacity: 1.000000" clip-path="url(#pc3c5e41676658680e7b95047b5791c8e)" d="M469.828125 220.500000L480.501804 208.909895L487.478018 200.315984
L491.612686 194.414529L495.149718 188.393353L497.151705 184.181129
L498.729562 179.930400L499.825392 175.650889L500.383014 171.353541
L500.349905 167.050476L499.679017 162.754879L498.331009 158.480875
L496.276046 154.243335L493.495561 150.057633L489.983778 145.939421
L485.748790 141.904313L480.813163 137.967613L475.213605 134.143993
L469.000105 130.447182L462.234688 126.889693L447.344981 120.235354
L431.200080 114.249208L414.493968 108.970221L397.878091 104.408153
L374.282689 98.868336L353.341814 94.766247L335.611273 91.909756
L316.946021 89.677733L303.216492 88.828114L293.324399 88.983918
L286.231040 89.861642L281.100379 91.258607L278.160139 92.560817
L275.082057 94.556443L272.666646 96.785774L269.801171 100.471258
L266.680720 105.895821L260.136558 119.496916L253.743793 131.821728
L247.338900 142.452193L241.911739 150.400662L235.222173 159.219134
L226.898362 169.115649L218.161316 178.631377L203.820414 193.117170
L174.255769 222.342777L164.317125 233.466186L159.705649 239.336972
L155.934379 244.781580L152.964183 249.798113L150.507815 254.908582
L148.829838 259.572134L147.742272 264.278831L147.324299 269.009103
L147.647708 273.741022L148.772614 278.450595L150.743139 283.112227
L153.583589 287.699206L157.295381 292.184406L161.855155 296.541071
L166.644424 300.330955L171.466142 303.620645L182.360869 309.809174
L194.528457 315.415530L207.444564 320.388752L220.585953 324.704482
L233.485618 328.363465L251.594594 332.673205L267.543931 335.694698
L281.033981 337.604973L292.126519 338.589019L301.088248 338.818522
L308.267575 338.441336L314.016861 337.578521L318.652661 336.325743
L322.441102 334.756652L326.539359 332.266288L329.897084 329.403606
L334.135212 324.535244L339.223666 317.113986L352.546247 296.449950
L360.967138 285.030248L369.050950 275.214080L379.178591 264.030168
L391.836276 251.132501L427.166301 216.055105L432.434714 210.169658
L437.459058 204.050591L441.622619 198.355921L444.947483 193.093250
L447.490761 188.259980L449.508523 183.351185L450.793885 178.884295
L451.503704 174.387594L451.572335 169.879168L450.942006 165.378951
L449.566245 160.908432L447.413146 156.490264L444.468201 152.147800
L440.736419 147.904536L436.243450 143.783517L431.586846 140.197312
L421.321084 133.757583L410.215945 128.173355L398.212922 123.146956
L385.772349 118.710493L373.329090 114.874356L355.450302 110.221315
L339.273752 106.801282L325.246708 104.472746L313.455784 103.075636
L303.751702 102.452899L295.864058 102.463230L289.484098 102.986611
L284.313865 103.925134L280.090295 105.201219L275.306225 107.472563
L272.683416 109.234582L268.314475 113.241686L264.789286 117.553840
L259.028127 126.158405L247.474924 144.025434L240.801892 153.227578
L232.406403 163.669986L221.674071 175.687464L208.466975 189.215917
L173.784839 223.543433L163.502437 235.282173L156.130586 245.531621
L153.370328 250.305279L151.083461 255.162225L149.366994 260.085295
L148.317801 265.054126L148.020376 269.545841L148.398468 274.036494
L149.502288 278.505336L151.368909 282.930286L154.019146 287.288409
L157.455170 291.556398L161.659058 295.711180L166.067706 299.335313
L171.025830 302.834532L181.158375 308.774793L192.507076 314.198153
L204.627833 319.056793L217.067126 323.324621L229.407307 326.996594
L246.992805 331.420856L262.784384 334.640876L276.405246 336.801650
L287.815723 338.062441L297.189390 338.576963L304.804359 338.482123
L310.967266 337.893436L315.969059 336.904739L321.265914 335.089896
L325.433658 332.824436L328.837942 330.198250L333.079446 325.707006
L336.815241 320.647722L344.301207 308.940397L351.854889 297.401642
L359.643129 286.700517L367.007309 277.579289L376.123085 267.277511
L387.424727 255.511688L410.667880 232.783319L425.846310 217.450285
L435.787676 206.134030L440.340622 200.164132L444.013024 194.631197
L446.850043 189.537659L448.926973 184.876173L450.464303 180.157597
L451.377749 175.400237L451.587602 170.624993L451.023062 165.855154
L449.626860 161.116043L447.359689 156.434503L444.204002 151.838279
L440.166816 147.355291L435.806458 143.440006L430.800513 139.657494
L425.790672 136.381251L414.556331 130.238583L402.121858 124.701541
L389.031088 119.817522L375.814397 115.606270L362.934099 112.062038
L345.000075 107.933340L329.342270 105.092053L316.195672 103.352374
L305.448598 102.524866L296.803084 102.436675L289.895355 102.940857
L284.368593 103.918347L279.908102 105.275893L276.252586 106.942285
L273.192666 108.864282L269.760379 111.758808L265.438836 116.694781
L260.251516 124.236921L246.576198 145.318943L240.267627 153.927631
L232.457376 163.610351L222.658304 174.633114L210.353102 187.340076
L171.470247 226.039542L162.121322 237.031812L157.911321 242.806450
L154.560058 248.144310L152.010207 253.047115L150.006455 258.026356
L148.754586 262.556595L148.100689 267.115708L148.112374 271.684658
L148.848552 276.242486L150.355770 280.766643L152.664758 285.233408
L155.787500 289.618413L159.715124 293.897239L164.416902 298.046058
L169.267539 301.650148L179.899856 308.104293L191.324770 313.678327
L203.595181 318.672575L216.233197 323.057517L228.795932 326.826262
L246.711827 331.357072L262.784702 334.640882L276.614431 336.829726
L288.161422 338.090932L297.611462 338.585677L305.259281 338.456959
L311.728867 337.777576L317.383219 336.511697L321.867230 334.816483
L325.505106 332.777273L328.546783 330.455030L331.995861 326.989507
L336.494870 321.114757L343.842626 309.669018L352.864100 295.945193
L359.932701 286.325093L368.913278 275.346452L380.490292 262.626528
L394.244060 248.741698L399.151057 243.954836L399.151057 243.954836"/>
</g>
<g id="matplotlib.axis1">
<g id="xtick1">
<g id="line2d12">
<path style="fill: none; stroke: #000000; stroke-width: 0.500000; stroke-linejoin: round; stroke-linecap: butt; stroke-dasharray: 1.000000,3.000000; stroke-dashoffset: 0.000000; opacity: 1.000000" clip-path="url(#pc3c5e41676658680e7b95047b5791c8e)" d="M73.125000 396.900000L73.125000 44.100000"/>
</g>
<g id="line2d13">
<defs><path id="m30e32995789d870ad79a2e54c91cf9c6" d="M0.000000 0.000000L0.000000 -4.000000"/></defs>
<g ><use style="fill: none; stroke: #000000; stroke-width: 0.500000; stroke-linejoin: round; stroke-linecap: butt;  opacity: 1.000000" xlink:href="#m30e32995789d870ad79a2e54c91cf9c6" x="73.125000" y="396.900000"/>
</g></g>
<g id="line2d14">
<defs><path id="m9281cae24120827b11d5ea8a7ad3e96b" d="M0.000000 0.000000L0.000000 4.000000"/></defs>
<g ><use style="fill: none; stroke: #000000; stroke-width: 0.500000; stroke-linejoin: round; stroke-linecap: butt;  opacity: 1.000000" xlink:href="#m9281cae24120827b11d5ea8a7ad3e96b" x="73.125000" y="44.100000"/>
</g></g>
<g id="text1">
<defs>
<path id="c_6a8d56c819c37117ab4cf023bec22a5a" d="M10.593750 -35.500000l62.593750 0.000000l0.000000 8.296875l-62.593750 0.000000z"/>
<path id="c_a0416418d96557a09b8c1332d34883ba" d="M37.796875 -64.312500l-24.906250 38.921875l24.906250 0.000000zM35.203125 -72.906250l12.406250 0.000000l0.000000 47.515625l10.406250 0.000000l0.000000 8.203125l-10.406250 0.000000l0.000000 17.187500l-9.812500 0.000000l0.000000 -17.187500l-32.906250 0.000000l0.000000 -9.515625z"/>
</defs>
<g style="fill: #000000; opacity: 1.000000" transform="translate(65.242188,409.650000)scale(0.120000)">
<use xlink:href="#c_6a8d56c819c37117ab4cf023bec22a5a"/>
<use xlink:href="#c_a0416418d96557a09b8c1332d34883ba" x="83.789062"/>
</g>
</g>
</g>
<g id="xtick2">
<g id="line2d15">
<path style="fill: none; stroke: #000000; stroke-width: 0.500000; stroke-linejoin: round; stroke-linecap: butt; stroke-dasharray: 1.000000,3.000000; stroke-dashoffset: 0.000000; opacity: 1.000000" clip-path="url(#pc3c5e41676658680e7b95047b5791c8e)" d="M129.796875 396.900000L129.796875 44.100000"/>
</g>
<g id="line2d16">
<g ><use style="fill: none; stroke: #000000; stroke-width: 0.500000; stroke-linejoin: round; stroke-linecap: butt;  opacity: 1.000000" xlink:href="#m30e32995789d870ad79a2e54c91cf9c6" x="129.796875" y="396.900000"/>
</g></g>
<g id="line2d17">
<g ><use style="fill: none; stroke: #000000; stroke-width: 0.500000; stroke-linejoin: round; stroke-linecap: butt;  opacity: 1.000000" xlink:href="#m9281cae24120827b11d5ea8a7ad3e96b" x="129.796875" y="44.100000"/>
</g></g>
<g id="text2">
<defs>
<path id="c_3dcfa38a02242cb63ec6726c6e70be7a" d="M40.578125 -39.312500q7.078125 1.515625 11.046875 6.312500q3.984375 4.781250 3.984375 11.812500q0.000000 10.781250 -7.421875 16.703125q-7.421875 5.906250 -21.093750 5.906250q-4.578125 0.000000 -9.437500 -0.906250q-4.859375 -0.906250 -10.031250 -2.718750l0.000000 -9.515625q4.093750 2.390625 8.968750 3.609375q4.890625 1.218750 10.218750 1.218750q9.265625 0.000000 14.125000 -3.656250q4.859375 -3.656250 4.859375 -10.640625q0.000000 -6.453125 -4.515625 -10.078125q-4.515625 -3.640625 -12.562500 -3.640625l-8.500000 0.000000l0.000000 -8.109375l8.890625 0.000000q7.265625 0.000000 11.125000 -2.906250q3.859375 -2.906250 3.859375 -8.375000q0.000000 -5.609375 -3.984375 -8.609375q-3.968750 -3.015625 -11.390625 -3.015625q-4.062500 0.000000 -8.703125 0.890625q-4.640625 0.875000 -10.203125 2.718750l0.000000 -8.781250q5.625000 -1.562500 10.531250 -2.343750q4.906250 -0.781250 9.250000 -0.781250q11.234375 0.000000 17.765625 5.109375q6.546875 5.093750 6.546875 13.781250q0.000000 6.062500 -3.468750 10.234375q-3.468750 4.171875 -9.859375 5.781250"/>
</defs>
<g style="fill: #000000; opacity: 1.000000" transform="translate(122.062500,409.806250)scale(0.120000)">
<use xlink:href="#c_6a8d56c819c37117ab4cf023bec22a5a"/>
<use xlink:href="#c_3dcfa38a02242cb63ec6726c6e70be7a" x="83.789062"/>
</g>
</g>
</g>
<g id="xtick3">
<g id="line2d18">
<path style="fill: none; stroke: #000000; stroke-width: 0.500000; stroke-linejoin: round; stroke-linecap: butt; stroke-dasharray: 1.000000,3.000000; stroke-dashoffset: 0.000000; opacity: 1.000000" clip-path="url(#pc3c5e41676658680e7b95047b5791c8e)" d="M186.468750 396.900000L186.468750 44.100000"/>
</g>
<g id="line2d19">
<g ><use style="fill: none; stroke: #000000; stroke-width: 0.500000; stroke-linejoin: round; stroke-linecap: butt;  opacity: 1.000000" xlink:href="#m30e32995789d870ad79a2e54c91cf9c6" x="186.468750" y="396.900000"/>
</g></g>
<g id="line2d20">
<g ><use style="fill: none; stroke: #000000; stroke-width: 0.500000; stroke-linejoin: round; stroke-linecap: butt;  opacity: 1.000000" xlink:href="#m9281cae24120827b11d5ea8a7ad3e96b" x="186.468750" y="44.100000"/>
</g></g>
<g id="text3">
<defs>
<path id="c_ed3f3ed3ebfbd18bcb9c012009a68ad1" d="M19.187500 -8.296875l34.421875 0.000000l0.000000 8.296875l-46.281250 0.000000l0.000000 -8.296875q5.609375 -5.812500 15.296875 -15.593750q9.703125 -9.796875 12.187500 -12.640625q4.734375 -5.312500 6.609375 -9.000000q1.890625 -3.687500 1.890625 -7.250000q0.000000 -5.812500 -4.078125 -9.468750q-4.078125 -3.671875 -10.625000 -3.671875q-4.640625 0.000000 -9.796875 1.609375q-5.140625 1.609375 -11.000000 4.890625l0.000000 -9.968750q5.953125 -2.390625 11.125000 -3.609375q5.187500 -1.218750 9.484375 -1.218750q11.328125 0.000000 18.062500 5.671875q6.734375 5.656250 6.734375 15.125000q0.000000 4.500000 -1.687500 8.531250q-1.671875 4.015625 -6.125000 9.484375q-1.218750 1.421875 -7.765625 8.187500q-6.531250 6.765625 -18.453125 18.921875"/>
</defs>
<g style="fill: #000000; opacity: 1.000000" transform="translate(178.851562,409.806250)scale(0.120000)">
<use xlink:href="#c_6a8d56c819c37117ab4cf023bec22a5a"/>
<use xlink:href="#c_ed3f3ed3ebfbd18bcb9c012009a68ad1" x="83.789062"/>
</g>
</g>
</g>
<g id="xtick4">
<g id="line2d21">
<path style="fill: none; stroke: #000000; stroke-width: 0.500000; stroke-linejoin: round; stroke-linecap: butt; stroke-dasharray: 1.000000,3.000000; stroke-dashoffset: 0.000000; opacity: 1.000000" clip-path="url(#pc3c5e41676658680e7b95047b5791c8e)" d="M243.140625 396.900000L243.140625 44.100000"/>
</g>
<g id="line2d22">
<g ><use style="fill: none; stroke: #000000; stroke-width: 0.500000; stroke-linejoin: round; stroke-linecap: butt;  opacity: 1.000000" xlink:href="#m30e32995789d870ad79a2e54c91cf9c6" x="243.140625" y="396.900000"/>
</g></g>
<g id="line2d23">
<g ><use style="fill: none; stroke: #000000; stroke-width: 0.500000; stroke-linejoin: round; stroke-linecap: butt;  opacity: 1.000000" xlink:href="#m9281cae24120827b11d5ea8a7ad3e96b" x="243.140625" y="44.100000"/>
</g></g>
<g id="text4">
<defs>
<path id="c_42baa63129a918535c52adb20d687ea7" d="M12.406250 -8.296875l16.109375 0.000000l0.000000 -55.625000l-17.531250 3.515625l0.000000 -8.984375l17.437500 -3.515625l9.859375 0.000000l0.000000 64.609375l16.109375 0.000000l0.000000 8.296875l-41.984375 0.000000z"/>
</defs>
<g style="fill: #000000; opacity: 1.000000" transform="translate(235.476562,409.650000)scale(0.120000)">
<use xlink:href="#c_6a8d56c819c37117ab4cf023bec22a5a"/>
<use xlink:href="#c_42baa63129a918535c52adb20d687ea7" x="83.789062"/>
</g>
</g>
</g>
<g id="xtick5">
<g id="line2d24">
<path style="fill: none; stroke: #000000; stroke-width: 0.500000; stroke-linejoin: round; stroke-linecap: butt; stroke-dasharray: 1.000000,3.000000; stroke-dashoffset: 0.000000; opacity: 1.000000" clip-path="url(#pc3c5e41676658680e7b95047b5791c8e)" d="M299.812500 396.900000L299.812500 44.100000"/>
</g>
<g id="line2d25">
<g ><use style="fill: none; stroke: #000000; stroke-width: 0.500000; stroke-linejoin: round; stroke-linecap: butt;  opacity: 1.000000" xlink:href="#m30e32995789d870ad79a2e54c91cf9c6" x="299.812500" y="396.900000"/>
</g></g>
<g id="line2d26">
<g ><use style="fill: none; stroke: #000000; stroke-width: 0.500000; stroke-linejoin: round; stroke-linecap: butt;  opacity: 1.000000" xlink:href="#m9281cae24120827b11d5ea8a7ad3e96b" x="299.812500" y="44.100000"/>
</g></g>
<g id="text5">
<defs>
<path id="c_7a2040fe3b94fcd41d0a72c84e93b115" d="M31.781250 -66.406250q-7.609375 0.000000 -11.453125 7.500000q-3.828125 7.484375 -3.828125 22.531250q0.000000 14.984375 3.828125 22.484375q3.843750 7.500000 11.453125 7.500000q7.671875 0.000000 11.500000 -7.500000q3.843750 -7.500000 3.843750 -22.484375q0.000000 -15.046875 -3.843750 -22.531250q-3.828125 -7.500000 -11.500000 -7.500000M31.781250 -74.218750q12.265625 0.000000 18.734375 9.703125q6.468750 9.687500 6.468750 28.140625q0.000000 18.406250 -6.468750 28.109375q-6.468750 9.687500 -18.734375 9.687500q-12.250000 0.000000 -18.718750 -9.687500q-6.468750 -9.703125 -6.468750 -28.109375q0.000000 -18.453125 6.468750 -28.140625q6.468750 -9.703125 18.718750 -9.703125"/>
</defs>
<g style="fill: #000000; opacity: 1.000000" transform="translate(296.789062,409.806250)scale(0.120000)">
<use xlink:href="#c_7a2040fe3b94fcd41d0a72c84e93b115"/>
</g>
</g>
</g>
<g id="xtick6">
<g id="line2d27">
<path style="fill: none; stroke: #000000; stroke-width: 0.500000; stroke-linejoin: round; stroke-linecap: butt; stroke-dasharray: 1.000000,3.000000; stroke-dashoffset: 0.000000; opacity: 1.000000" clip-path="url(#pc3c5e41676658680e7b95047b5791c8e)" d="M356.484375 396.900000L356.484375 44.100000"/>
</g>
<g id="line2d28">
<g ><use style="fill: none; stroke: #000000; stroke-width: 0.500000; stroke-linejoin: round; stroke-linecap: butt;  opacity: 1.000000" xlink:href="#m30e32995789d870ad79a2e54c91cf9c6" x="356.484375" y="396.900000"/>
</g></g>
<g id="line2d29">
<g ><use style="fill: none; stroke: #000000; stroke-width: 0.500000; stroke-linejoin: round; stroke-linecap: butt;  opacity: 1.000000" xlink:href="#m9281cae24120827b11d5ea8a7ad3e96b" x="356.484375" y="44.100000"/>
</g></g>
<g id="text6">
<g style="fill: #000000; opacity: 1.000000" transform="translate(353.875000,409.650000)scale(0.120000)">
<use xlink:href="#c_42baa63129a918535c52adb20d687ea7"/>
</g>
</g>
</g>
<g id="xtick7">
<g id="line2d30">
<path style="fill: none; stroke: #000000; stroke-width: 0.500000; stroke-linejoin: round; stroke-linecap: butt; stroke-dasharray: 1.000000,3.000000; stroke-dashoffset: 0.000000; opacity: 1.000000" clip-path="url(#pc3c5e41676658680e7b95047b5791c8e)" d="M413.156250 396.900000L413.156250 44.100000"/>
</g>
<g id="line2d31">
<g ><use style="fill: none; stroke: #000000; stroke-width: 0.500000; stroke-linejoin: round; stroke-linecap: butt;  opacity: 1.000000" xlink:href="#m30e32995789d870ad79a2e54c91cf9c6" x="413.156250" y="396.900000"/>
</g></g>
<g id="line2d32">
<g ><use style="fill: none; stroke: #000000; stroke-width: 0.500000; stroke-linejoin: round; stroke-linecap: butt;  opacity: 1.000000" xlink:href="#m9281cae24120827b11d5ea8a7ad3e96b" x="413.156250" y="44.100000"/>
</g></g>
<g id="text7">
<g style="fill: #000000; opacity: 1.000000" transform="translate(410.375000,409.806250)scale(0.120000)">
<use xlink:href="#c_ed3f3ed3ebfbd18bcb9c012009a68ad1"/>
</g>
</g>
</g>
<g id="xtick8">
<g id="line2d33">
<path style="fill: none; stroke: #000000; stroke-width: 0.500000; stroke-linejoin: round; stroke-linecap: butt; stroke-dasharray: 1.000000,3.000000; stroke-dashoffset: 0.000000; opacity: 1.000000" clip-path="url(#pc3c5e41676658680e7b95047b5791c8e)" d="M469.828125 396.900000L469.828125 44.100000"/>
</g>
<g id="line2d34">
<g ><use style="fill: none; stroke: #000000; stroke-width: 0.500000; stroke-linejoin: round; stroke-linecap: butt;  opacity: 1.000000" xlink:href="#m30e32995789d870ad79a2e54c91cf9c6" x="469.828125" y="396.900000"/>
</g></g>
<g id="line2d35">
<g ><use style="fill: none; stroke: #000000; stroke-width: 0.500000; stroke-linejoin: round; stroke-linecap: butt;  opacity: 1.000000" xlink:href="#m9281cae24120827b11d5ea8a7ad3e96b" x="469.828125" y="44.100000"/>
</g></g>
<g id="text8">
<g style="fill: #000000; opacity: 1.000000" transform="translate(466.953125,409.806250)scale(0.120000)">
<use xlink:href="#c_3dcfa38a02242cb63ec6726c6e70be7a"/>
</g>
</g>
</g>
<g id="xtick9">
<g id="line2d36">
<path style="fill: none; stroke: #000000; stroke-width: 0.500000; stroke-linejoin: round; stroke-linecap: butt; stroke-dasharray: 1.000000,3.000000; stroke-dashoffset: 0.000000; opacity: 1.000000" clip-path="url(#pc3c5e41676658680e7b95047b5791c8e)" d="M526.500000 396.900000L526.500000 44.100000"/>
</g>
<g id="line2d37">
<g ><use style="fill: none; stroke: #000000; stroke-width: 0.500000; stroke-linejoin: round; stroke-linecap: butt;  opacity: 1.000000" xlink:href="#m30e32995789d870ad79a2e54c91cf9c6" x="526.500000" y="396.900000"/>
</g></g>
<g id="line2d38">
<g ><use style="fill: none; stroke: #000000; stroke-width: 0.500000; stroke-linejoin: round; stroke-linecap: butt;  opacity: 1.000000" xlink:href="#m9281cae24120827b11d5ea8a7ad3e96b" x="526.500000" y="44.100000"/>
</g></g>
<g id="text9">
<g style="fill: #000000; opacity: 1.000000" transform="translate(523.312500,409.650000)scale(0.120000)">
<use xlink:href="#c_a0416418d96557a09b8c1332d34883ba"/>
</g>
</g>
</g>
<g id="text10">
<defs>
<path id="c_801fe2e877fad46da27c898b407b3b54" d="M54.890625 -54.687500l-19.781250 26.609375l20.796875 28.078125l-10.593750 0.000000l-15.921875 -21.484375l-15.906250 21.484375l-10.609375 0.000000l21.250000 -28.609375l-19.437500 -26.078125l10.593750 0.000000l14.500000 19.484375l14.500000 -19.484375z"/>
</defs>
<g style="fill: #000000; opacity: 1.000000" transform="translate(293.164062,423.728125)scale(0.120000)">
<use xlink:href="#c_801fe2e877fad46da27c898b407b3b54"/>
<use xlink:href="#c_42baa63129a918535c52adb20d687ea7" x="59.179688"/>
</g>
</g>
</g>
<g id="matplotlib.axis2">
<g id="ytick1">
<g id="line2d39">
<path style="fill: none; stroke: #000000; stroke-width: 0.500000; stroke-linejoin: round; stroke-linecap: butt; stroke-dasharray: 1.000000,3.000000; stroke-dashoffset: 0.000000; opacity: 1.000000" clip-path="url(#pc3c5e41676658680e7b95047b5791c8e)" d="M73.125000 396.900000L526.500000 396.900000"/>
</g>
<g id="line2d40">
<defs><path id="m3400efa6b1638b3fea9e19e898273957" d="M0.000000 0.000000L4.000000 0.000000"/></defs>
<g ><use style="fill: none; stroke: #000000; stroke-width: 0.500000; stroke-linejoin: round; stroke-linecap: butt;  opacity: 1.000000" xlink:href="#m3400efa6b1638b3fea9e19e898273957" x="73.125000" y="396.900000"/>
</g></g>
<g id="line2d41">
<defs><path id="m20b58b2501143cb5e0a5e8f1ef6f1643" d="M0.000000 0.000000L-4.000000 0.000000"/></defs>
<g ><use style="fill: none; stroke: #000000; stroke-width: 0.500000; stroke-linejoin: round; stroke-linecap: butt;  opacity: 1.000000" xlink:href="#m20b58b2501143cb5e0a5e8f1ef6f1643" x="526.500000" y="396.900000"/>
</g></g>
<g id="text11">
<g style="fill: #000000; opacity: 1.000000" transform="translate(53.656250,401.267187)scale(0.120000)">
<use xlink:href="#c_6a8d56c819c37117ab4cf023bec22a5a"/>
<use xlink:href="#c_3dcfa38a02242cb63ec6726c6e70be7a" x="83.789062"/>
</g>
</g>
</g>
<g id="ytick2">
<g id="line2d42">
<path style="fill: none; stroke: #000000; stroke-width: 0.500000; stroke-linejoin: round; stroke-linecap: butt; stroke-dasharray: 1.000000,3.000000; stroke-dashoffset: 0.000000; opacity: 1.000000" clip-path="url(#pc3c5e41676658680e7b95047b5791c8e)" d="M73.125000 338.100000L526.500000 338.100000"/>
</g>
<g id="line2d43">
<g ><use style="fill: none; stroke: #000000; stroke-width: 0.500000; stroke-linejoin: round; stroke-linecap: butt;  opacity: 1.000000" xlink:href="#m3400efa6b1638b3fea9e19e898273957" x="73.125000" y="338.100000"/>
</g></g>
<g id="line2d44">
<g ><use style="fill: none; stroke: #000000; stroke-width: 0.500000; stroke-linejoin: round; stroke-linecap: butt;  opacity: 1.000000" xlink:href="#m20b58b2501143cb5e0a5e8f1ef6f1643" x="526.500000" y="338.100000"/>
</g></g>
<g id="text12">
<g style="fill: #000000; opacity: 1.000000" transform="translate(53.890625,342.553125)scale(0.120000)">
<use xlink:href="#c_6a8d56c819c37117ab4cf023bec22a5a"/>
<use xlink:href="#c_ed3f3ed3ebfbd18bcb9c012009a68ad1" x="83.789062"/>
</g>
</g>
</g>
<g id="ytick3">
<g id="line2d45">
<path style="fill: none; stroke: #000000; stroke-width: 0.500000; stroke-linejoin: round; stroke-linecap: butt; stroke-dasharray: 1.000000,3.000000; stroke-dashoffset: 0.000000; opacity: 1.000000" clip-path="url(#pc3c5e41676658680e7b95047b5791c8e)" d="M73.125000 279.300000L526.500000 279.300000"/>
</g>
<g id="line2d46">
<g ><use style="fill: none; stroke: #000000; stroke-width: 0.500000; stroke-linejoin: round; stroke-linecap: butt;  opacity: 1.000000" xlink:href="#m3400efa6b1638b3fea9e19e898273957" x="73.125000" y="279.300000"/>
</g></g>
<g id="line2d47">
<g ><use style="fill: none; stroke: #000000; stroke-width: 0.500000; stroke-linejoin: round; stroke-linecap: butt;  opacity: 1.000000" xlink:href="#m20b58b2501143cb5e0a5e8f1ef6f1643" x="526.500000" y="279.300000"/>
</g></g>
<g id="text13">
<g style="fill: #000000; opacity: 1.000000" transform="translate(53.796875,283.675000)scale(0.120000)">
<use xlink:href="#c_6a8d56c819c37117ab4cf023bec22a5a"/>
<use xlink:href="#c_42baa63129a918535c52adb20d687ea7" x="83.789062"/>
</g>
</g>
</g>
<g id="ytick4">
<g id="line2d48">
<path style="fill: none; stroke: #000000; stroke-width: 0.500000; stroke-linejoin: round; stroke-linecap: butt; stroke-dasharray: 1.000000,3.000000; stroke-dashoffset: 0.000000; opacity: 1.000000" clip-path="url(#pc3c5e41676658680e7b95047b5791c8e)" d="M73.125000 220.500000L526.500000 220.500000"/>
</g>
<g id="line2d49">
<g ><use style="fill: none; stroke: #000000; stroke-width: 0.500000; stroke-linejoin: round; stroke-linecap: butt;  opacity: 1.000000" xlink:href="#m3400efa6b1638b3fea9e19e898273957" x="73.125000" y="220.500000"/>
</g></g>
<g id="line2d50">
<g ><use style="fill: none; stroke: #000000; stroke-width: 0.500000; stroke-linejoin: round; stroke-linecap: butt;  opacity: 1.000000" xlink:href="#m20b58b2501143cb5e0a5e8f1ef6f1643" x="526.500000" y="220.500000"/>
</g></g>
<g id="text14">
<g style="fill: #000000; opacity: 1.000000" transform="translate(63.078125,224.867187)scale(0.120000)">
<use xlink:href="#c_7a2040fe3b94fcd41d0a72c84e93b115"/>
</g>
</g>
</g>
<g id="ytick5">
<g id="line2d51">
<path style="fill: none; stroke: #000000; stroke-width: 0.500000; stroke-linejoin: round; stroke-linecap: butt; stroke-dasharray: 1.000000,3.000000; stroke-dashoffset: 0.000000; opacity: 1.000000" clip-path="url(#pc3c5e41676658680e7b95047b5791c8e)" d="M73.125000 161.700000L526.500000 161.700000"/>
</g>
<g id="line2d52">
<g ><use style="fill: none; stroke: #000000; stroke-width: 0.500000; stroke-linejoin: round; stroke-linecap: butt;  opacity: 1.000000" xlink:href="#m3400efa6b1638b3fea9e19e898273957" x="73.125000" y="161.700000"/>
</g></g>
<g id="line2d53">
<g ><use style="fill: none; stroke: #000000; stroke-width: 0.500000; stroke-linejoin: round; stroke-linecap: butt;  opacity: 1.000000" xlink:href="#m20b58b2501143cb5e0a5e8f1ef6f1643" x="526.500000" y="161.700000"/>
</g></g>
<g id="text15">
<g style="fill: #000000; opacity: 1.000000" transform="translate(63.906250,166.075000)scale(0.120000)">
<use xlink:href="#c_42baa63129a918535c52adb20d687ea7"/>
</g>
</g>
</g>
<g id="ytick6">
<g id="line2d54">
<path style="fill: none; stroke: #000000; stroke-width: 0.500000; stroke-linejoin: round; stroke-linecap: butt; stroke-dasharray: 1.000000,3.000000; stroke-dashoffset: 0.000000; opacity: 1.000000" clip-path="url(#pc3c5e41676658680e7b95047b5791c8e)" d="M73.125000 102.900000L526.500000 102.900000"/>
</g>
<g id="line2d55">
<g ><use style="fill: none; stroke: #000000; stroke-width: 0.500000; stroke-linejoin: round; stroke-linecap: butt;  opacity: 1.000000" xlink:href="#m3400efa6b1638b3fea9e19e898273957" x="73.125000" y="102.900000"/>
</g></g>
<g id="line2d56">
<g ><use style="fill: none; stroke: #000000; stroke-width: 0.500000; stroke-linejoin: round; stroke-linecap: butt;  opacity: 1.000000" xlink:href="#m20b58b2501143cb5e0a5e8f1ef6f1643" x="526.500000" y="102.900000"/>
</g></g>
<g id="text16">
<g style="fill: #000000; opacity: 1.000000" transform="translate(63.562500,107.353125)scale(0.120000)">
<use xlink:href="#c_ed3f3ed3ebfbd18bcb9c012009a68ad1"/>
</g>
</g>
</g>
<g id="ytick7">
<g id="line2d57">
<path style="fill: none; stroke: #000000; stroke-width: 0.500000; stroke-linejoin: round; stroke-linecap: butt; stroke-dasharray: 1.000000,3.000000; stroke-dashoffset: 0.000000; opacity: 1.000000" clip-path="url(#pc3c5e41676658680e7b95047b5791c8e)" d="M73.125000 44.100000L526.500000 44.100000"/>
</g>
<g id="line2d58">
<g ><use style="fill: none; stroke: #000000; stroke-width: 0.500000; stroke-linejoin: round; stroke-linecap: butt;  opacity: 1.000000" xlink:href="#m3400efa6b1638b3fea9e19e898273957" x="73.125000" y="44.100000"/>
</g></g>
<g id="line2d59">
<g ><use style="fill: none; stroke: #000000; stroke-width: 0.500000; stroke-linejoin: round; stroke-linecap: butt;  opacity: 1.000000" xlink:href="#m20b58b2501143cb5e0a5e8f1ef6f1643" x="526.500000" y="44.100000"/>
</g></g>
<g id="text17">
<g style="fill: #000000; opacity: 1.000000" transform="translate(63.375000,48.467187)scale(0.120000)">
<use xlink:href="#c_3dcfa38a02242cb63ec6726c6e70be7a"/>
</g>
</g>
</g>
<g id="text18">
<g style="fill: #000000; opacity: 1.000000" transform="translate(48.656250,227.101562)rotate(-90.0)scale(0.120000)">
<use xlink:href="#c_801fe2e877fad46da27c898b407b3b54"/>
<use xlink:href="#c_ed3f3ed3ebfbd18bcb9c012009a68ad1" x="59.179688"/>
</g>
</g>
</g>
<g id="patch3">
<path style="fill: none; stroke: #000000; stroke-width: 1.000000; stroke-linejoin: round; stroke-linecap: square;  opacity: 1.000000"  d="M73.125000 44.100000L526.500000 44.100000"/>
</g>
<g id="patch4">
<path style="fill: none; stroke: #000000; stroke-width: 1.000000; stroke-linejoin: round; stroke-linecap: square;  opacity: 1.000000"  d="M526.500000 396.900000L526.500000 44.100000"/>
</g>
<g id="patch5">
<path style="fill: none; stroke: #000000; stroke-width: 1.000000; stroke-linejoin: round; stroke-linecap: square;  opacity: 1.000000"  d="M73.125000 396.900000L526.500000 396.900000"/>
</g>
<g id="patch6">
<path style="fill: none; stroke: #000000; stroke-width: 1.000000; stroke-linejoin: round; stroke-linecap: square;  opacity: 1.000000"  d="M73.125000 396.900000L73.125000 44.100000"/>
</g>
</g>
</g>
</svg>
